<?xml version="1.0" encoding="UTF-8"?>
<svg id="_レイヤー_1" xmlns="http://www.w3.org/2000/svg" xmlns:xlink="http://www.w3.org/1999/xlink" version="1.1" viewBox="0 0 150 80">
  <!-- Generator: Adobe Illustrator 29.7.1, SVG Export Plug-In . SVG Version: 2.1.1 Build 8)  -->
  <defs>
    <style>
      .st0 {
        fill: none;
      }

      .st1 {
        fill: #2ea8ff;
      }

      .st1, .st2 {
        fill-opacity: .5;
      }

      .st2 {
        fill: #ffafb5;
      }

      .st3 {
        fill: #fff;
      }

      .st4 {
        clip-path: url(#clippath);
      }
    </style>
    <clipPath id="clippath">
      <rect class="st0" x="22" y=".5" width="102" height="79"/>
    </clipPath>
  </defs>
  <g class="st4">
    <path class="st2" d="M88.674,2.866c-4.669,2.137-7.976,5.131-10.563,8.797v-.032c-1.161,1.597-2.104,3.294-2.949,5.04-.771,1.594-1.462,3.23-2.162,4.878-.7-1.649-1.391-3.285-2.162-4.878-.845-1.749-1.787-3.443-2.952-5.04v.032c-2.584-3.666-5.891-6.66-10.56-8.797C36.425-6.697,14.611,14.392,24.42,36.198c8.779,19.52,33.626,26.507,48.435,43.237.077.087.21.087.287,0,14.812-16.73,39.656-23.717,48.435-43.237,9.808-21.806-12.006-42.895-32.903-33.328v-.003h0ZM30.243,29.473c-1.813-1.406-1.274-3.42.655-4.339,1.103-.524,3.023-.343,3.801.601,1.745,2.121-1.904,5.716-4.456,3.734v.003h0ZM44.736,13.257c-2.768.556-5.866,3.139-7.159,6.055-1.09,2.457-6.237,2.03-5.83-2.046.407-4.077,3.281-7.465,6.914-8.794,9.324-3.404,9.863,4.022,6.079,4.781l-.003.003h0Z"/>
  </g>
  <g>
    <path class="st3" d="M137.069,26.001c-1.32-1.414-2.964-1.698-3.963-1.698h-3.41c-.251-.678-.665-1.388-1.344-2.024-1.354-1.269-2.922-1.462-3.771-1.462h-2.959c-.85,0-2.418.193-3.772,1.462-.679.636-1.092,1.346-1.343,2.024h-10.647c-.899,0-2.319.238-3.557,1.316-.187-.803-.589-1.732-1.418-2.561-1.337-1.337-2.936-1.567-3.843-1.567h-2.959c-.835,0-2.392.188-3.741,1.447-.351.328-.632.675-.856,1.028-.181-.268-.385-.535-.641-.791-1.337-1.337-2.936-1.567-3.843-1.567h-3.018c-.907,0-2.506.23-3.843,1.567s-1.567,2.936-1.567,3.843v1.504h-.713c-.898,0-2.313.237-3.549,1.309.015-.076.037-.146.049-.225.292-1.945-.55-3.391-1.054-4.064l-.014-.019-.014-.018-1.904-2.49-.002.002c-.604-.795-1.731-1.828-3.491-2.092-1.762-.264-3.124.404-3.838.88l-.121.081-.116.088-12.158,9.17h0c-1.367,1.024-2.51,2.297-3.343,3.824-.46.843-.794,1.732-.998,2.652-.343-.559-.731-1.098-1.167-1.612h0c.783-1.147.949-2.351.949-3.098v-2.549c0-.917-.233-2.523-1.574-3.865-1.342-1.342-2.948-1.574-3.865-1.574h-7.787c-.202-.656-.559-1.378-1.183-2.05-1.314-1.415-2.953-1.7-3.95-1.7h-2.988c-.907,0-2.506.23-3.843,1.567-.702.702-1.094,1.475-1.313,2.183h-.645c-1.099,0-2.777.35-4.064,1.835-1.168,1.348-1.317,2.848-1.317,3.604v2.549c0,.996.262,1.997.8,2.895l.317.528.435.435c.33.33.696.588,1.076.813-.187.204-.392.39-.569.604l-.008.01c-.982,1.19-1.754,2.514-2.314,3.95h-.001s-.003.008-.004.013c-.003.007-.006.013-.008.019h.002c-.657,1.675-.894,3.427-.766,5.188l.002.021.002.021c.104,1.288.425,2.547.984,3.74l.027.057.028.057c.597,1.195,1.416,2.265,2.461,3.152h0s.005.004.007.006.004.004.006.005h0c.981.832,2.097,1.47,3.324,1.891v.003c.012.005.026.007.039.012.015.005.028.012.043.017v-.004c1.304.447,2.645.615,3.976.547h.015l.015-.002c.208-.012.413-.045.62-.065.135.131.283.25.435.369l-.011.014c.689.551,1.646,1.034,2.825,1.141.735.067,1.389-.035,1.958-.203v.005l2.552-.708c.107-.027.219-.067.331-.102.291.241.614.47,1,.663,1.747.873,3.358.539,4.246.217,1.45-.438,2.826-1.053,4.106-1.863,1.393-.881,2.625-1.959,3.666-3.237l.018-.022.017-.022c1.056-1.328,1.845-2.815,2.36-4.429h.002c.003-.008.004-.016.007-.024.003-.01.007-.019.01-.029h-.003c.258-.8.427-1.612.525-2.431.819,1.139,1.827,2.09,2.96,2.858h0l13.447,9.201.002-.003c.808.556,2.28,1.25,4.152.857,1.827-.385,2.867-1.569,3.342-2.262h0l1.758-2.551c1.021-1.379,1.127-2.925.931-4.065h0v-.005c-.015-.089-.037-.168-.056-.252-.284-1.31-1.054-2.516-2.255-3.321l.004-.007-10.074-6.813,8.894-6.665v-.002c.11-.082.226-.175.346-.28-.086.433-.112.821-.112,1.115v2.637c0,.907.23,2.506,1.567,3.843,1.337,1.337,2.936,1.567,3.843,1.567h.713v1.562c0,.723.039,1.466.11,2.225v.014c.091.925.268,1.836.528,2.729.305,1.052.751,2.041,1.305,2.965l.019.032.02.032c.671,1.082,1.515,2.004,2.453,2.786,2.192,1.827,4.871,2.781,7.682,3.164h.006c2.776.376,5.925.237,9.335-.264h0l1.523-.204.02-.003.02-.003c.9-.129,2.451-.583,3.586-2.096s1.137-3.13,1.008-4.029l-.005-.036-.006-.036-.439-2.783-.016-.101-.02-.1c-.166-.832-.644-2.243-2.034-3.306-.025-.02-.051-.033-.077-.052.573-.892.782-1.803.839-2.497h.705c.908,0,2.506-.23,3.843-1.567.155-.155.291-.314.418-.474-.065.987-.012,1.972.171,2.943l.003.014.003.014c.193.995.502,1.96.93,2.884l.046.099.05.097c.502.969,1.137,1.843,1.88,2.619l.077.08.08.077c.248.237.52.438.784.65-.114.383-.199.793-.22,1.248-.093,1.951.887,3.286,1.331,3.812l.016.019.016.019,1.846,2.139h0c.604.71,1.784,1.749,3.639,1.918,1.826.166,3.167-.616,3.908-1.217l1.05-.823h0c1.537-1.192,2.908-2.528,3.957-4.042h.002c.006-.007.011-.017.018-.026.006-.009.014-.018.021-.027h-.002c1.023-1.464,1.774-3.068,2.234-4.793.213-.8.373-1.613.479-2.436v-.01l.003-.01c.094-.751.162-1.53.206-2.335.042-.757.074-1.539.094-2.347v-.003c.011-.438.011-.912.016-1.371l.76-1.43h2.312c.999,0,2.643-.284,3.963-1.698,1.259-1.349,1.447-2.906,1.447-3.741v-2.549c0-.835-.188-2.392-1.447-3.741h0l-.004-.004Z"/>
    <path class="st1" d="M24.766,47.291c-.215-.957-.4-1.924-.557-2.9-.156-.977-.293-1.953-.41-2.93-.508.293-.986.635-1.435,1.025-.449.391-.84.801-1.172,1.23-.332.43-.596.879-.791,1.348-.176.469-.264.947-.264,1.436v.264c.039.449.195.83.469,1.143.293.312.732.449,1.318.41.898-.059,1.846-.4,2.842-1.025h0ZM31.387,39.263l-.703.059c-.586.039-1.152.127-1.699.264-.527.137-1.084.303-1.67.498.078.801.166,1.592.264,2.373.098.781.225,1.562.381,2.344.664-.762,1.27-1.611,1.816-2.549.566-.957,1.104-1.953,1.611-2.988h0ZM42.168,43.687c.117,1.191,0,2.324-.352,3.398-.332,1.055-.84,2.012-1.523,2.871-.684.84-1.504,1.562-2.461,2.168-.957.605-1.992,1.064-3.105,1.377-.273.117-.449.029-.527-.264l-1.084-2.754c-.059-.273.02-.449.234-.527.547-.215,1.064-.42,1.553-.615.508-.215.967-.469,1.377-.762.43-.312.801-.674,1.113-1.084.312-.43.557-.947.732-1.553.195-.664.254-1.318.176-1.963-.058-.664-.234-1.27-.527-1.816-.273-.547-.664-1.025-1.172-1.436-.488-.43-1.064-.762-1.729-.996-.82,1.914-1.699,3.594-2.637,5.039-.918,1.445-1.992,2.764-3.223,3.955l-.059.059-.059.029c.156.547.303,1.094.439,1.641.156.547.322,1.084.498,1.611.039.117.039.225,0,.322-.039.117-.127.186-.264.205l-2.637.732c-.117.059-.225.049-.322-.029-.098-.059-.166-.146-.205-.264-.117-.332-.234-.684-.351-1.055-.117-.352-.225-.703-.322-1.055-.527.293-1.084.518-1.67.674s-1.221.254-1.904.293c-.762.039-1.475-.058-2.139-.293-.645-.215-1.23-.547-1.758-.996-.508-.43-.918-.957-1.23-1.582-.293-.625-.469-1.299-.527-2.021-.078-1.074.068-2.08.44-3.018.371-.957.879-1.826,1.523-2.607.664-.801,1.416-1.504,2.256-2.109s1.68-1.104,2.52-1.494c.039-.039.098-.059.176-.059v-.322c-.039-.645-.068-1.318-.088-2.021-.02-.703-.029-1.377-.029-2.021h-5.361c-.117,0-.215-.039-.293-.117-.059-.098-.088-.205-.088-.322v-2.549c0-.293.127-.439.381-.439h5.361v-1.67c0-.527.01-1.084.029-1.67,0-.274.137-.41.41-.41h2.988c.254,0,.381.137.381.41,0,.586-.01,1.142-.029,1.67v1.67h12.568c.293,0,.439.146.439.439v2.549c0,.293-.146.439-.439.439h-12.598v1.611c0,.547.01,1.074.029,1.582.918-.215,1.826-.381,2.725-.498.898-.137,1.836-.186,2.812-.146v-.029c.02-.02.029-.039.029-.059l.469-1.406c.098-.254.273-.342.527-.264l2.695.879c.234.098.312.264.234.498l-.322.967c1.641.566,2.998,1.484,4.072,2.754,1.074,1.27,1.689,2.754,1.846,4.453h.002ZM68.711,51.334l-1.816,2.637c-.156.234-.342.273-.557.117l-13.447-9.199c-.898-.605-1.582-1.318-2.051-2.139-.469-.84-.723-1.729-.762-2.666-.059-.957.146-1.865.615-2.725.469-.859,1.123-1.602,1.963-2.227l12.158-9.17c.234-.156.43-.127.586.088l1.904,2.49c.176.234.146.43-.088.586l-11.924,8.936c-.742.566-1.113,1.182-1.113,1.846l.029.029c0,.703.391,1.328,1.172,1.875l13.213,8.936c.098.059.156.146.176.264.039.137.02.244-.059.322h0ZM103.545,33.961v2.637c0,.273-.137.41-.41.41h-5.684v4.541c0,.273-.137.41-.41.41h-2.959c-.293,0-.439-.137-.439-.41v-4.541h-8.232v6.562c0,.84.078,1.631.234,2.373.156.723.527,1.328,1.113,1.816.781.645,2.012,1.055,3.691,1.23,1.68.156,3.799.059,6.357-.293l1.494-.234c.273-.039.439.088.498.381l.439,2.783c.039.273-.078.43-.352.469l-1.523.205c-3.164.469-5.83.557-7.998.264-2.148-.293-3.867-.977-5.156-2.051-.586-.488-1.055-1.016-1.406-1.582-.352-.586-.615-1.182-.791-1.787s-.293-1.211-.352-1.816c-.059-.625-.088-1.211-.088-1.758v-6.562h-5.713c-.273,0-.41-.137-.41-.41v-2.637c0-.293.137-.439.41-.439h5.713v-6.504c0-.273.137-.41.41-.41h3.018c.273,0,.41.137.41.41v6.504h8.232v-6.621c0-.273.146-.41.439-.41h2.959c.273,0,.41.137.41.41v6.621h5.684c.273,0,.41.146.41.44h.002ZM121.592,40.787c.02-.352,0-.703-.058-1.055-.059-.371-.186-.703-.381-.996-.176-.312-.43-.567-.762-.762-.312-.195-.713-.312-1.201-.352-.625-.059-1.133.02-1.524.234-.371.215-.664.488-.878.82-.196.312-.332.635-.411.967-.058.312-.107.557-.146.732-.098,1.016.117,1.826.644,2.432.45.449,1.036.703,1.758.762.782.078,1.416-.098,1.905-.527.644-.527.996-1.279,1.054-2.256h0ZM133.516,29.742v2.549c0,.293-.137.439-.41.439h-8.057v5.215c0,.859-.009,1.68-.029,2.461-.02.762-.049,1.494-.088,2.197-.039.703-.098,1.367-.176,1.992-.078.605-.195,1.201-.351,1.787-.313,1.172-.821,2.256-1.524,3.252-.683.996-1.67,1.992-2.959,2.988l-1.084.85c-.234.215-.449.195-.644-.059l-1.846-2.139c-.215-.254-.205-.459.029-.615l1.172-.908c.703-.547,1.299-1.094,1.787-1.641.489-.567.899-1.162,1.231-1.787-.762.391-1.563.586-2.402.586s-1.68-.205-2.52-.615c-.586-.312-1.104-.683-1.553-1.113-.429-.449-.781-.938-1.054-1.465-.254-.547-.44-1.123-.557-1.729-.117-.625-.147-1.25-.088-1.875.098-.938.322-1.787.674-2.549.371-.762.859-1.406,1.465-1.934.605-.547,1.299-.938,2.08-1.172.801-.254,1.67-.332,2.607-.234.86.078,1.602.342,2.227.791l-.117-2.285h-15.469c-.273,0-.41-.146-.41-.439v-2.549c0-.293.137-.439.41-.439h15.293v-3.047c0-.293.156-.44.469-.44h2.959c.312,0,.468.146.468.44v3.047h8.057c.273,0,.41.146.41.439h0Z"/>
  </g>
</svg>