<?xml version="1.0" encoding="UTF-8"?>
<svg id="_レイヤー_1" data-name="レイヤー_1" xmlns="http://www.w3.org/2000/svg" xmlns:xlink="http://www.w3.org/1999/xlink" version="1.1" viewBox="0 0 150 80">
  <!-- Generator: Adobe Illustrator 29.6.1, SVG Export Plug-In . SVG Version: 2.1.1 Build 9)  -->
  <defs>
    <style>
      .st0 {
        fill: none;
      }

      .st1 {
        fill: #ffafb5;
        fill-opacity: .5;
      }

      .st2 {
        fill: #fff;
      }

      .st3 {
        fill: #ff6588;
      }

      .st4 {
        clip-path: url(#clippath);
      }
    </style>
    <clipPath id="clippath">
      <rect class="st0" x="22" y=".5" width="102" height="79"/>
    </clipPath>
  </defs>
  <g class="st4">
    <path class="st1" d="M88.6737,2.8664c-4.6686,2.137-7.9757,5.1307-10.5633,8.7968v-.0323c-1.1615,1.5971-2.1036,3.2944-2.9489,5.0402-.7711,1.5938-1.4616,3.2297-2.1617,4.8785-.7002-1.6488-1.3906-3.2847-2.1617-4.8785-.8454-1.7491-1.7875-3.4431-2.9522-5.0402v.0323c-2.5844-3.6661-5.8914-6.6598-10.5601-8.7968C36.4251-6.6966,14.6113,14.3918,24.4196,36.198c8.7791,19.5204,33.6257,26.5068,48.435,43.2373.0774.0872.2097.0872.2871,0,14.8125-16.7305,39.6563-23.7169,48.4353-43.2373,9.808-21.8062-12.0058-42.8946-32.9033-33.3284v-.0032ZM30.2433,29.4735c-1.8133-1.4063-1.2745-3.4205.6549-4.3386,1.1035-.5238,3.0232-.3427,3.8008.6013,1.7455,2.1208-1.9036,5.7158-4.4557,3.734v.0033ZM44.7363,13.2571c-2.7682.556-5.8656,3.1392-7.1594,6.0553-1.0905,2.457-6.2366,2.0302-5.8301-2.0465.4065-4.0767,3.2813-7.4648,6.9142-8.7936,9.3244-3.4043,9.8632,4.0218,6.0786,4.7815l-.0033.0033Z"/>
  </g>
  <g>
    <path class="st2" d="M137.0689,26.0007c-1.32-1.4143-2.964-1.6982-3.963-1.6982h-3.4103c-.2512-.6779-.6646-1.3878-1.3437-2.0242-1.354-1.2694-2.922-1.4622-3.7711-1.4622h-2.959c-.85,0-2.418.1928-3.772,1.4622-.6786.6365-1.0919,1.3464-1.3433,2.0242h-10.6469c-.8995,0-2.3192.2381-3.5569,1.3157-.1869-.8032-.5892-1.7324-1.4182-2.5613-1.3367-1.3368-2.9357-1.567-3.8431-1.567h-2.959c-.8347,0-2.3918.1878-3.7412,1.4472-.351.3276-.6317.6752-.8564,1.0279-.181-.2684-.3854-.535-.6413-.7909-1.3367-1.3369-2.9357-1.5671-3.8431-1.5671h-3.0176c-.9074,0-2.5064.2303-3.8432,1.5671-1.3367,1.3367-1.567,2.9357-1.567,3.8431v1.5039h-.7129c-.8976,0-2.3134.2367-3.5494,1.3087.0149-.0765.0375-.146.0494-.2252.2917-1.9447-.5498-3.391-1.0545-4.064l-.0141-.0187-.0142-.0185-1.9043-2.4902-.0023.0018c-.6043-.7947-1.7307-1.8282-3.4914-2.0923-1.7625-.2643-3.1244.4043-3.8375.8797l-.1211.0807-.1161.0876-12.1582,9.1699.001.0013c-1.3669,1.0225-2.5096,2.2957-3.3427,3.8229-.4599.8432-.7936,1.7317-.998,2.6515-.3428-.5593-.7314-1.0976-1.1666-1.6119,0-.0001-.0002-.0002-.0003-.0003.7834-1.1466.949-2.3506.949-3.0981v-2.5489c0-.9172-.2327-2.5234-1.5744-3.8651-1.3416-1.3416-2.9479-1.5743-3.8651-1.5743h-7.7873c-.2018-.6564-.5594-1.3781-1.183-2.0497-1.3137-1.4146-2.953-1.7003-3.9496-1.7003h-2.9883c-.9074,0-2.5064.2302-3.8431,1.567-.7021.7021-1.0942,1.4745-1.3128,2.183h-.6448c-1.0989,0-2.7771.3502-4.0641,1.8352-1.1684,1.3482-1.3168,2.8485-1.3168,3.6042v2.5489c0,.9958.2616,1.9967.8004,2.8947l.3167.5278.4352.4353c.3301.3301.6965.5884,1.0762.8129-.1868.2045-.3917.3903-.5692.6044l-.0081.0098c-.9818,1.19-1.7539,2.5139-2.3145,3.9496l-.0012-.0005c-.0017.0043-.0026.0089-.0043.0132-.0026.0066-.0059.0128-.0084.0193l.0018.0007c-.6567,1.6741-.8943,3.4264-.7662,5.1873l.0015.0207.0017.0207c.1044,1.2876.4246,2.5468.9837,3.7395l.0269.0573.0283.0566c.5974,1.1948,1.4163,2.2648,2.4609,3.1516l-.0005.0006c.0022.0019.0046.0034.0068.0053.002.0017.0037.0037.0057.0054l.0005-.0005c.9808.8328,2.097,1.4707,3.3241,1.8914l-.0012.0032c.0133.0047.0269.0073.0402.0119.0146.0049.0282.0117.0428.0166l.0012-.0036c1.3032.4472,2.6439.6149,3.9746.5466l.0146-.0008.0146-.0009c.2076-.0118.4133-.0447.6204-.0646.1351.1308.2833.2505.4352.3694l-.0112.014c.6894.5515,1.6463,1.034,2.8246,1.1411.7351.0668,1.3889-.0353,1.9581-.2031l.0013.0046,2.5505-.7085c.1068-.0265.2195-.0671.3308-.1023.2906.2408.6135.4697,1.0003.6631,1.7469.8734,3.3582.5388,4.2459.217,1.45-.4377,2.8257-1.0529,4.1058-1.8627,1.3926-.881,2.6254-1.9591,3.6655-3.237l.0178-.0219.0174-.0219c1.0564-1.328,1.8449-2.8146,2.3603-4.4293l.0022.0007c.0027-.0083.0041-.0168.0068-.0251.0031-.0097.0074-.0189.0104-.0286l-.0026-.0008c.2577-.7993.427-1.6113.5252-2.4301.8188,1.1391,1.8272,2.0898,2.9602,2.8576l-.001.0014,13.4473,9.1992.0018-.0026c.8079.5563,2.2802,1.2504,4.1516.8566,1.8268-.3846,2.8671-1.5688,3.3424-2.2623l.0014.001,1.7582-2.5524c1.0208-1.3787,1.1273-2.9247.9308-4.0651h.0004c-.0002-.0016-.0008-.0031-.001-.0047-.0154-.0892-.0368-.1677-.0556-.2516-.2841-1.3101-1.0538-2.5162-2.2545-3.3207l.0043-.0065-10.0739-6.8127,8.8944-6.6653-.0013-.0018c.1112-.0823.2269-.1755.3475-.2804-.0855.4333-.1122.8206-.1122,1.115v2.6367c0,.9074.2302,2.5064,1.567,3.8431,1.3368,1.3368,2.9357,1.567,3.8431,1.567h.7129v1.5625c0,.7235.0388,1.4665.1098,2.2246l.0007.0074.0007.0075c.0895.9254.2674,1.8361.5266,2.7288.3053,1.0518.7507,2.0412,1.3052,2.9655l.0193.0324.02.032c.6713,1.0816,1.5145,2.0038,2.4535,2.7863,2.1923,1.8269,4.8711,2.7806,7.6816,3.1638l.006.0008c2.776.3752,5.9252.2364,9.3345-.2645l.0002.0012,1.5234-.2051.0201-.0027.02-.0028c.8997-.1286,2.451-.5831,3.5859-2.0963,1.1348-1.5131,1.1368-3.1296,1.0083-4.0293l-.0052-.0364-.0057-.0363-.4395-2.7832-.0159-.1008-.02-.1c-.1663-.8317-.6438-2.243-2.0341-3.3062-.0255-.0195-.0515-.033-.077-.0518.5731-.8921.7819-1.8027.8387-2.4974h.7053c.9075,0,2.5064-.2302,3.8432-1.567.1547-.1547.2913-.3137.4178-.4739-.0653.9872-.0117,1.9715.1705,2.9428l.0027.0144.0027.0143c.1927.9952.5016,1.9602.9305,2.884l.046.099.0503.097c.5023.9687,1.1372,1.8426,1.8803,2.6194l.0768.0803.0802.0768c.2477.2369.5197.4382.7844.6501-.1135.3835-.1989.793-.2205,1.2484-.0929,1.9509.887,3.2864,1.331,3.8117l.016.0186.0161.0185,1.8459,2.1386.0009-.0007c.6043.711,1.7841,1.7499,3.6392,1.9185,1.8259.1661,3.1666-.6162,3.9075-1.2169l1.0505-.8234-.0005-.0006c1.5375-1.1913,2.9083-2.5275,3.9574-4.041l.0021.0015c.0062-.0089.0112-.0183.0175-.0272.0064-.0093.0142-.0178.0206-.027l-.0022-.0015c1.0234-1.4623,1.7739-3.0661,2.2342-4.7913.213-.8005.373-1.6129.479-2.4355l.001-.0099.002-.0098c.094-.7512.162-1.5304.206-2.335.042-.7567.074-1.539.094-2.3465v-.0032c.0111-.4382.0113-.9125.0164-1.3706l.7598-1.4301h2.3118c.999,0,2.643-.2839,3.963-1.6983,1.259-1.3494,1.447-2.9064,1.447-3.7412v-2.5488c0-.8347-.188-2.3918-1.447-3.7412Z"/>
    <path class="st3" d="M24.766,47.2907c-.2149-.957-.4004-1.9238-.5566-2.9004-.1563-.9765-.293-1.9531-.4102-2.9296-.5078.2929-.9863.6347-1.4355,1.0254-.4493.3906-.8399.8007-1.1719,1.2304-.332.4297-.5957.8789-.791,1.3477-.1758.4687-.2637.9472-.2637,1.4355v.2637c.0391.4492.1953.8301.4688,1.1426.293.3125.7324.4492,1.3184.4101.8984-.0586,1.8457-.4004,2.8418-1.0254ZM31.3871,39.2634l-.7031.0586c-.586.0391-1.1524.1269-1.6993.2637-.5273.1367-1.0839.3027-1.6699.498.0781.8008.166,1.5918.2637,2.3731.0976.7812.2246,1.5625.3809,2.3437.664-.7617,1.2695-1.6113,1.8164-2.5488.5664-.9571,1.1035-1.9531,1.6113-2.9883ZM42.1683,43.6872c.1172,1.1914,0,2.3242-.3515,3.3985-.3321,1.0546-.8399,2.0117-1.5235,2.8711-.6836.8398-1.5039,1.5625-2.4609,2.1679-.957.6055-1.9922,1.0645-3.1055,1.377-.2734.1172-.4492.0293-.5273-.2637l-1.084-2.7539c-.0586-.2734.0195-.4492.2344-.5273.5469-.2149,1.0644-.42,1.5527-.6153.5078-.2148.9668-.4687,1.377-.7617.4297-.3125.8007-.6738,1.1132-1.084.3125-.4297.5567-.9472.7325-1.5527.1953-.6641.2539-1.3184.1757-1.9629-.0585-.6641-.2343-1.2695-.5273-1.8164-.2734-.5469-.6641-1.0254-1.1719-1.4356-.4882-.4296-1.0644-.7617-1.7285-.9961-.8203,1.9141-1.6992,3.5938-2.6367,5.0391-.918,1.4453-1.9922,2.7637-3.2227,3.9551l-.0586.0586-.0585.0293c.1562.5469.3027,1.0937.4394,1.6406.1563.5469.3223,1.084.4981,1.6113.039.1172.039.2246,0,.3223-.0391.1172-.127.1855-.2637.2051l-2.6367.7324c-.1172.0586-.2246.0488-.3223-.0293-.0977-.0586-.166-.1465-.2051-.2637-.1172-.332-.2344-.6836-.3515-1.0547-.1172-.3515-.2247-.7031-.3223-1.0546-.5274.2929-1.084.5175-1.6699.6738-.586.1562-1.2207.2539-1.9043.2929-.7617.0391-1.4746-.0585-2.1387-.2929-.6445-.2149-1.2305-.5469-1.7578-.9961-.5078-.4297-.918-.957-1.2305-1.582-.293-.625-.4688-1.2989-.5273-2.0215-.0781-1.0742.0684-2.0801.4395-3.0176.3711-.957.8789-1.8262,1.5234-2.6074.6641-.8008,1.416-1.5039,2.2559-2.1094.8399-.6055,1.6797-1.1035,2.5196-1.4941.039-.0391.0976-.0586.1757-.0586v-.3223c-.039-.6445-.0683-1.3184-.0879-2.0215-.0195-.7031-.0293-1.3769-.0293-2.0215h-5.3613c-.1172,0-.2148-.039-.293-.1172-.0586-.0976-.0879-.205-.0879-.3222v-2.5489c0-.2929.127-.4394.3809-.4394h5.3613v-1.6699c0-.5274.0098-1.084.0293-1.6699,0-.2735.1368-.4102.4102-.4102h2.9883c.2539,0,.3808.1367.3808.4102,0,.5859-.0097,1.1425-.0293,1.6699v1.6699h12.5684c.293,0,.4395.1465.4395.4394v2.5489c0,.2929-.1465.4394-.4395.4394h-12.5977v1.6114c0,.5468.0098,1.0742.0293,1.582.918-.2149,1.8262-.3809,2.7247-.4981.8984-.1367,1.8359-.1855,2.8125-.1464v-.0293c.0195-.0196.0293-.0391.0293-.0586l.4687-1.4063c.0977-.2539.2734-.3418.5273-.2637l2.6954.8789c.2343.0977.3125.2637.2343.4981l-.3222.9668c1.6406.5664,2.998,1.4844,4.0722,2.7539,1.0743,1.2695,1.6895,2.7539,1.8457,4.4531ZM68.7113,51.3337l-1.8164,2.6367c-.1562.2344-.3418.2735-.5566.1172l-13.4473-9.1992c-.8984-.6055-1.582-1.3184-2.0508-2.1387-.4687-.8398-.7226-1.7285-.7617-2.666-.0586-.957.1465-1.8652.6152-2.7246.4688-.8594,1.1231-1.6016,1.9629-2.2266l12.1582-9.1699c.2344-.1562.4297-.1269.586.0879l1.9043,2.4902c.1757.2344.1464.4297-.0879.586l-11.9239,8.9355c-.7422.5664-1.1132,1.1817-1.1132,1.8457l.0293.0293c0,.7031.3906,1.3281,1.1718,1.875l13.2129,8.9356c.0977.0586.1563.1465.1758.2636.0391.1368.0195.2442-.0586.3223ZM103.5453,33.9607v2.6367c0,.2734-.1367.4101-.4102.4101h-5.6836v4.5411c0,.2734-.1367.4101-.4101.4101h-2.959c-.293,0-.4395-.1367-.4395-.4101v-4.5411h-8.2324v6.5625c0,.8399.0782,1.6309.2344,2.3731.1562.7226.5273,1.3281,1.1133,1.8164.7812.6445,2.0117,1.0547,3.6914,1.2305,1.6797.1562,3.7988.0586,6.3574-.293l1.4941-.2344c.2735-.039.4395.0879.4981.3809l.4395,2.7832c.039.2734-.0782.4297-.3516.4687l-1.5234.2051c-3.1641.4688-5.8301.5566-7.9981.2637-2.1484-.293-3.8672-.9766-5.1562-2.0508-.586-.4883-1.0547-1.0156-1.4063-1.582-.3516-.586-.6152-1.1817-.791-1.7871-.1758-.6055-.293-1.211-.3516-1.8164-.0586-.625-.0879-1.211-.0879-1.7579v-6.5625h-5.7129c-.2734,0-.4101-.1367-.4101-.4101v-2.6367c0-.293.1367-.4395.4101-.4395h5.7129v-6.5039c0-.2734.1368-.4102.4102-.4102h3.0176c.2734,0,.4101.1368.4101.4102v6.5039h8.2324v-6.6211c0-.2734.1465-.4101.4395-.4101h2.959c.2734,0,.4101.1367.4101.4101v6.6211h5.6836c.2735,0,.4102.1465.4102.4395ZM121.5919,40.7868c.02-.3515,0-.7031-.058-1.0547-.059-.371-.186-.7031-.381-.996-.176-.3125-.43-.5665-.762-.7618-.312-.1953-.713-.3125-1.201-.3515-.625-.0586-1.133.0195-1.524.2343-.371.2149-.664.4883-.878.8204-.196.3125-.332.6347-.411.9668-.058.3125-.107.5566-.146.7324-.098,1.0156.117,1.8262.644,2.4316.45.4492,1.036.7031,1.758.7617.782.0782,1.416-.0976,1.905-.5273.644-.5274.996-1.2793,1.054-2.2559ZM133.5159,29.7419v2.5488c0,.293-.137.4395-.41.4395h-8.057v5.2148c0,.8594-.009,1.6797-.029,2.461-.02.7617-.049,1.4941-.088,2.1972-.039.7032-.098,1.3672-.176,1.9922-.078.6055-.195,1.2012-.351,1.7871-.313,1.1719-.821,2.2559-1.524,3.252-.683.9961-1.67,1.9922-2.959,2.9883l-1.084.8496c-.234.2148-.449.1953-.644-.0586l-1.846-2.1387c-.215-.2539-.205-.459.029-.6152l1.172-.9082c.703-.5469,1.299-1.0938,1.787-1.6406.489-.5665.899-1.1622,1.231-1.7872-.762.3907-1.563.586-2.402.586-.84,0-1.68-.2051-2.52-.6153-.586-.3125-1.104-.6835-1.553-1.1132-.429-.4493-.781-.9375-1.054-1.4649-.254-.5469-.44-1.123-.557-1.7285-.117-.625-.147-1.25-.088-1.875.098-.9375.322-1.7871.674-2.5488.371-.7617.859-1.4063,1.465-1.9336.605-.5469,1.299-.9375,2.08-1.1719.801-.2539,1.67-.332,2.607-.2344.86.0782,1.602.3418,2.227.791l-.117-2.2851h-15.4692c-.2734,0-.4101-.1465-.4101-.4395v-2.5488c0-.293.1367-.4394.4101-.4394h15.2932v-3.0469c0-.293.156-.4395.469-.4395h2.959c.312,0,.468.1465.468.4395v3.0469h8.057c.273,0,.41.1464.41.4394Z"/>
  </g>
</svg>