<?xml version="1.0" encoding="UTF-8"?>
<svg id="_レイヤー_1" data-name="レイヤー_1" xmlns="http://www.w3.org/2000/svg" xmlns:xlink="http://www.w3.org/1999/xlink" version="1.1" viewBox="0 0 150 80">
  <!-- Generator: Adobe Illustrator 29.6.1, SVG Export Plug-In . SVG Version: 2.1.1 Build 9)  -->
  <defs>
    <style>
      .st0 {
        fill: none;
      }

      .st1 {
        fill: #ffafb5;
        fill-opacity: .5;
      }

      .st2 {
        fill: #fff;
      }

      .st3 {
        fill: #ff6588;
      }

      .st4 {
        clip-path: url(#clippath);
      }
    </style>
    <clipPath id="clippath">
      <rect class="st0" x="21.5" y=".5" width="102" height="79"/>
    </clipPath>
  </defs>
  <g class="st4">
    <path class="st1" d="M88.1737,2.8664c-4.6687,2.137-7.9758,5.1307-10.5633,8.7968v-.0323c-1.1616,1.5971-2.1037,3.2944-2.949,5.0402-.7711,1.5938-1.4616,3.2297-2.1617,4.8785-.7001-1.6488-1.3906-3.2847-2.1617-4.8785-.8453-1.7491-1.7874-3.4431-2.9522-5.0402v.0323c-2.5843-3.6661-5.8914-6.6598-10.56-8.7968C35.925-6.6966,14.1112,14.3918,23.9195,36.198c8.7791,19.5204,33.6258,26.5068,48.435,43.2373.0775.0872.2097.0872.2872,0,14.8125-16.7305,39.6559-23.7169,48.4353-43.2373,9.808-21.8062-12.0058-42.8946-32.9033-33.3284v-.0032ZM29.7432,29.4735c-1.8132-1.4063-1.2744-3.4205.655-4.3386,1.1034-.5238,3.0231-.3427,3.8007.6013,1.7455,2.1208-1.9036,5.7158-4.4557,3.734v.0033ZM44.2363,13.2571c-2.7683.556-5.8656,3.1392-7.1594,6.0553-1.0906,2.457-6.2367,2.0302-5.8302-2.0465.4066-4.0767,3.2813-7.4648,6.9142-8.7936,9.3244-3.4043,9.8632,4.0218,6.0786,4.7815l-.0032.0033Z"/>
  </g>
  <g>
    <path class="st2" d="M136.921,51.9029l-.117-2.7831-.007-.1713-.019-.1705c-.105-.9418-.523-2.5344-2.022-3.7331-1.1725-.938-2.5479-1.2599-3.7968-1.1699l-.0002-.0032c-1.184.0764-2.368.1432-3.552.2005l-.004.0002c-1.164.0573-2.328.105-3.493.1432l-.026.0008-.027.0012c-.5742.025-1.1479.013-1.7218,0,.2271-.1542.4505-.2943.6698-.4194l.038-.022.039-.0227c.7012-.4177,1.4075-.7995,2.1185-1.1467.7695-.3665,1.5792-.7278,2.4324-1.0832l.077-.0322.076-.0348c.829-.3785,1.645-.7279,2.447-1.0486v-.0002c.8626-.338,1.7263-.6861,2.5891-1.0414.0172-.0063.0374-.0155.0549-.0221.0343-.0142.0687-.0272.103-.0414l-.0002-.0004c.8843-.3494,2.1668-1.0997,2.9282-2.6982.931-1.9551.392-3.7307.037-4.5419l-.005-.0109-.005-.0109-1.142-2.5781-.0023.001c-.361-.8257-1.1672-2.1525-2.8467-2.8828-1.8188-.7906-3.4728-.3695-4.3898.0298l-.0002-.0005-1.3174.5727c-.7248.2947-1.4727.6049-2.2486.9345-.786.3341-1.591.6778-2.416,1.0313l-.067.0286-.066.0306c-.1617.075-.3185.1553-.4795.231-.5874-1.1116-1.2264-2.3198-1.9189-3.6289l-.6276-1.2277-.077-.1503-.087-.1448c-.433-.7213-1.331-1.867-2.945-2.4284-1.6452-.5723-3.1249-.2291-4.1099.23l-.0015-.0033-2.666,1.2304-.1307.0604-.127.0677c-.4854.2589-1.2088.7408-1.8205,1.5323-.7653-.3009-1.4965-.392-2.0375-.392h-3.4103c-.2514-.6779-.6649-1.3878-1.3438-2.0242-1.354-1.2694-2.9217-1.4622-3.7713-1.4622h-2.9589c-.8496,0-2.4173.1928-3.7713,1.4622-.679.6365-1.0924,1.3464-1.3438,2.0242h-10.6467c-.9992,0-2.6428.2839-3.9629,1.6982-1.2594,1.3494-1.4472,2.9065-1.4472,3.7412v2.5488c0,.1443.0095.3164.0253.4991-.4416-.2433-.8959-.4558-1.3632-.6357v-.0098c0-1.0176-.2818-2.6813-1.7004-4.0253-1.368-1.296-2.9654-1.5021-3.8562-1.5021h-2.1094c-.6719,0-1.7457.1186-2.8199.7323-1.1874-.7086-2.3986-.8112-3.2449-.7461l-.0002-.0031-2.4902.1758.0007.0097c-.7576.0516-1.4384.2533-2.0019.5351-.9548.4775-1.5348,1.1287-1.8574,1.5623-.0407.0529-.0774.1054-.1151.1585-.0199.0288-.0522.0699-.0689.095l.0052.0035c-.8602,1.2752-.9035,2.5709-.9035,2.9752v.1742l.0121.1738.0269.3848c-.5034.1358-1.0887.3613-1.6698.7496v-2.5956c0-1.1859-.4135-2.3922-1.2332-3.4003l.0203-.0162c-.9537-1.192-2.4476-2.0229-4.1973-2.0229h-3.5108c-.0135-.0635-.023-.1285-.0368-.1919-.0109-.0632-.023-.1265-.0374-.195-.0003-.0015-.0005-.0029-.0009-.0044h-.0002c-.1812-.862-.6469-2.1136-1.8742-3.1108-1.5156-1.2314-3.1974-1.2758-4.1824-1.1351l-.0656.0093-.0653.0111-2.9296.4981.0005.0027c-.9218.1523-2.4566.6408-3.555,2.197-.4579.6487-.7104,1.3059-.8437,1.919h-6.3068c-1.7498,0-3.2437.831-4.1973,2.0229l-.0488.061-.0469.0625c-.8296,1.1062-1.0879,2.3165-1.0879,3.293v2.666c0,.5133.077,1.3716.4871,2.2911-.4026.8972-.4871,1.7438-.4871,2.2792v2.666c0,.7557.1484,2.2561,1.3168,3.6042.3275.3779.6805.6808,1.0427.9247-.1324,1.2105-.1271,2.4451.0908,3.6705l.0113.0636.0129.0632c.3567,1.7439,1.1527,3.2935,2.2816,4.6044l.0018.0021c.9276,1.076,2.0454,1.9302,3.3099,2.5529l-.0012.0023c.0102.0051.0208.009.031.0141.0071.0035.0135.0079.0206.0113l.0008-.0016c1.1046.5461,2.2729.926,3.4725,1.1741l-.0004.0019c.0114.0025.0236.0035.035.006.0232.0048.046.0114.0692.016l.0008-.0038c1.1401.2466,2.34.3962,3.5827.4667l-.0002.0024c.0204.0015.0426.0018.0631.0032.0087.0005.017.0018.0257.0023v-.001c1.2037.0836,2.4741.1253,3.8124.1253h1.4941c.8348,0,2.3918-.1878,3.7412-1.4473,1.4144-1.32,1.6983-2.9636,1.6983-3.9628v-1.5381l.2672-.0779-.0012-.0042c1.1245-.3222,2.47-1.0933,3.2894-2.6501.4553-.8652.5981-1.7007.6149-2.3939.804-.2217,1.6912-.6564,2.4684-1.4891.2755-.2952.4919-.6006.6741-.9059.3268.3967.6991.7744,1.1735,1.0907.7387.4925,1.5661.7809,2.4141.8763.0767.7944.1505,1.5519.2182,2.2285.0971.9713.1741,1.7609.2313,2.3716.0575.6126.1007,1.0594.126,1.2866l.1172,1.0547.002-.0002c.1055,1.0251.5362,2.5604,1.9899,3.7371,1.5324,1.2405,3.2172,1.2715,4.0902,1.1842l.0416-.0042.0414-.0048,2.2558-.2637.0199-.0023.0199-.0025c1.2903-.1612,2.6528-.8039,3.6306-2.0471l.0051.0041c.0261-.0326.0454-.0715.0709-.1048.0615-.082.127-.1581.1851-.2452l-.0132-.0089c.4761-.6998.8029-1.5236.9124-2.4343.3785-.005.7507-.0071,1.1481-.0208.8438-.0291,1.6803-.1312,2.5073-.3005l.0002.0013c.0056-.0011.011-.003.0167-.0042.0052-.0011.0106-.0015.0157-.0026l-.0002-.0013c.8693-.1759,1.7198-.4269,2.5436-.7625l.0417-.017.0414-.0178c1.0303-.4415,1.9627-1.0383,2.7949-1.7578l.0013.0015c.0063-.0054.0115-.0117.0179-.0171.0105-.0091.0219-.0171.0323-.0262l-.0023-.0026c1.0853-.9377,1.9125-2.0782,2.4847-3.3528l.0029.0013c.0051-.0112.0086-.0228.0137-.034.004-.0091.0095-.0175.0135-.0266l-.0024-.001c.5529-1.2291.8755-2.5334.9476-3.8859h.0004c0-.0012,0-.0024,0-.0037,0-.0012.0003-.0023.0004-.0034h-.0003c.0715-1.3396-.1087-2.681-.5729-3.977l.0021-.0007c-.0027-.0076-.0065-.0146-.0092-.0222-.0027-.0074-.0042-.015-.0068-.0225l-.0021.0007c-.0688-.192-.152-.3759-.2314-.5619.3638.0646.7011.0922.9837.0922h1.8889c-.1503.6143-.2632,1.2363-.3286,1.8648l-.0027.0256-.0024.0257c-.1026,1.0945-.0502,2.1867.1517,3.2631l.0027.0144.0027.0143c.1927.9952.5016,1.9602.9305,2.884l.046.099.0503.097c.5023.9687,1.1372,1.8426,1.8803,2.6194l.0768.0803.0802.0768c.2476.2369.5195.4382.7844.6501-.1135.3835-.1988.793-.2205,1.2484-.0929,1.9509.8867,3.2864,1.3312,3.8117l.0157.0186.0159.0185,1.8457,2.1386.001-.0009c.6047.711,1.7844,1.7501,3.6393,1.9187,1.8272.1661,3.1675-.6168,3.9083-1.2175l1.0497-.8228-.0006-.0007c1.5375-1.1913,2.9084-2.5275,3.9577-4.0411l.0023.0016c.007-.0098.0125-.0204.0194-.0302.0057-.0082.0126-.0157.0182-.024l-.002-.0013c1.0228-1.4623,1.7739-3.0662,2.2339-4.7915.2135-.8005.3732-1.6129.4793-2.4355l.0013-.0099.0012-.0098c.0939-.7512.162-1.5304.2067-2.335.042-.7567.0733-1.539.094-2.3465v-.0032c.011-.4385.0113-.9131.0164-1.3715l.7593-1.4292h2.3118c.9992,0,2.6429-.2839,3.963-1.6983.0938-.1005.1702-.2037.2524-.3062.2402.4458.4771.8785.7092,1.2932l.0123.022.0126.0219c.0584.1019.1101.1915.167.2906-.6729.8831-1.2499,1.8298-1.7073,2.8466l-.0216.0478-.0205.0483c-.53,1.2471-.8632,2.5519-1.0123,3.8938l-.006.0546-.0049.0548c-.1319,1.4831.0096,2.9555.3447,4.3857h-.0005c.0004.0018.0011.0035.0015.0052.0007.0031.0012.0063.0019.0095l.0009-.0002c.4558,1.952,1.4134,3.7623,2.973,5.1989l.0502.0462.0515.0449c1.2116,1.0562,2.5844,1.867,4.0887,2.4265l-.0008.0021c.0109.0042.022.0073.0328.0114.0065.0024.0126.0056.0192.008l.0004-.0012c1.3319.5016,2.711.8444,4.1276,1.0281l.011.0015c1.2097.1539,2.3695.2482,3.47.2726v.0003c.0022,0,.0043,0,.0065,0,.0018,0,.0038.0002.0056.0003v-.0002c1.7558.0419,3.4949.0103,5.218-.0958h0c.0008,0,.0016,0,.0024-.0001h.0006c1.619-.0988,3.248-.2074,4.887-.3258l.15-.0109.15-.02c.936-.1248,2.314-.55,3.418-1.8018,1.11-1.2577,1.361-2.6881,1.361-3.6523v-.1053l-.005-.1051Z"/>
    <path class="st3" d="M34.3379,50.2383v2.8418c0,.2734-.1465.4101-.4395.4101h-1.4941c-1.2695,0-2.4512-.0391-3.5449-.1172-1.0938-.0586-2.0801-.1855-2.959-.3808-.8789-.1758-1.6699-.4395-2.3731-.7911-.6835-.332-1.2695-.7812-1.7578-1.3476-.6055-.7031-.9961-1.4844-1.1719-2.3438-.1562-.8789-.1367-1.875.0586-2.9882l.2344-1.377c.0586-.293.2246-.4199.498-.3809l3.0468.5274c.2735.0391.3809.1953.3223.4687l-.2637,1.4649c-.0781.4101-.1171.7519-.1171,1.0254.0195.2734.0585.4883.1171.6445v.0586c.0196.0977.0391.1855.0586.2637.0196.0586.0684.1269.1465.205l.0586.0586c.2734.293.6836.5274,1.2305.7032.5469.1562,1.1621.2832,1.8457.3808.7031.0782,1.4453.1367,2.2265.1758.8008.0391,1.5821.0586,2.3438.0586h1.4941c.293,0,.4395.1465.4395.4395ZM42.4238,38.5195v2.666c0,.293-.1367.4395-.4101.4395h-4.9219c.2344.7617.459,1.5136.6738,2.2558.2344.7227.4785,1.4649.7324,2.2266.0586.3125-.039.498-.2929.5566l-2.8125.8204c-.1367.0585-.2539.0585-.3516,0-.0781-.0586-.1465-.1368-.2051-.2344-.2929-.9571-.5859-1.8946-.8789-2.8125-.2734-.918-.5468-1.8555-.8203-2.8125h-14.5312c-.2539,0-.3809-.1465-.3809-.4395v-2.666c0-.2734.127-.4101.3809-.4101h13.5644l-.8789-3.75-12.6855.0292c-.2539,0-.3809-.1464-.3809-.4394v-2.666c0-.1172.0293-.2149.0879-.293.0781-.0976.1758-.1465.293-.1465h11.9238c-.1367-.6445-.2637-1.2597-.3809-1.8457-.1172-.5859-.2343-1.2012-.3515-1.8457-.0586-.2929.0586-.459.3515-.498l2.9297-.4981c.2735-.039.4297.0879.4688.3809.1562.7031.2929,1.416.4101,2.1387.1368.7226.2832,1.4453.4395,2.1679h7.6172c.1172,0,.2148.0489.2929.1465.0782.0781.1172.1758.1172.293v2.666c0,.293-.1367.4394-.4101.4394l-6.8262-.0292c.1563.6445.3027,1.2792.4395,1.9042.1562.6055.332,1.2208.5273,1.8458h5.8594c.2734,0,.4101.1367.4101.4101ZM70.0508,46.0488c-.4688.4102-.9766.7324-1.5235.9668-.5273.2148-1.0839.3809-1.6699.498-.5664.1172-1.1328.1856-1.6992.2051-.5664.0196-1.1035.0293-1.6113.0293-.3516,0-.5274-.1855-.5274-.5566v-2.0215c0-.3906.1758-.5859.5274-.5859h.2929c.2735,0,.5567.0097.8497.0293.3125,0,.6152-.0196.9082-.0586.625-.0586,1.1523-.2051,1.582-.4395.3515-.1758.6348-.4199.8496-.7324.2344-.3125.3906-.6641.4687-1.0547.1368-.6836-.039-1.2598-.5273-1.7285-.5664-.625-1.4844-.9961-2.7539-1.1133v2.9004c0,.3516-.1856.5273-.5566.5273h-2.1094c-.3711,0-.5567-.1757-.5567-.5273v-2.7832c-.625.0586-1.2695.1172-1.9336.1758-.6445.0586-1.3183.1367-2.0214.2343.1757,2.0118.3613,4.0137.5566,6.0059.2148,1.9727.4297,3.9941.6445,6.0645,0,.1171-.039.2246-.1172.3222-.0781.1172-.1953.1856-.3515.2051l-2.2559.2637c-.3906.039-.5957-.127-.6152-.4981l-.1172-1.0547c-.0195-.1757-.0586-.5761-.1172-1.2011s-.1367-1.4258-.2344-2.4024c-.0976-.9765-.205-2.0801-.3222-3.3105-.1172-1.25-.2539-2.5684-.4102-3.9551l-2.6953.3809-1.0254.1757c-.1367.0391-.2637.0196-.3808-.0586-.1172-.0781-.1954-.1953-.2344-.3515l-.3223-2.0508c-.0586-.3516.0879-.5566.4395-.6152l1.0254-.1465c.4492-.0781.9179-.1563,1.4062-.2344.5078-.0781,1.0156-.1562,1.5234-.2344l-.2929-3.6621-.0879-1.2597c0-.0977.0195-.1661.0586-.2051.039-.0586.0781-.0977.1172-.1172.039-.0195.0781-.0293.1172-.0293l2.4902-.1758c.332-.039.5176.1172.5566.4688l.3809,4.5703c.7617-.0977,1.4941-.1758,2.1973-.2344.7031-.0586,1.3769-.1172,2.0214-.1758v-4.0722c0-.3516.1856-.5274.5567-.5274h2.1094c.371,0,.5566.1758.5566.5274v3.9843c1.0742.0586,2.0605.2539,2.959.586.918.3125,1.6699.7812,2.2558,1.4062.4883.5274.8496,1.1231,1.084,1.7871.2344.6446.3321,1.3282.293,2.0508-.0391.7422-.2148,1.4551-.5274,2.1387-.2929.664-.7031,1.2207-1.2304,1.6699ZM92.6973,41.0683c.0195-.3515,0-.7031-.0586-1.0547-.0586-.371-.1856-.7031-.3809-.996-.1758-.3125-.4297-.5665-.7617-.7618-.3125-.1953-.7129-.3125-1.2012-.3515-.625-.0586-1.1328.0195-1.5234.2343-.3711.2149-.6641.4883-.8789.8204-.1953.3125-.3321.6347-.4102.9668-.0586.3125-.1074.5566-.1465.7324-.0976,1.0156.1172,1.8262.6446,2.4316.4492.4492,1.0351.7031,1.7578.7617.7812.0782,1.416-.0976,1.9043-.5273.6445-.5274.9961-1.2793,1.0547-2.2559ZM104.6211,30.0234v2.5488c0,.293-.1367.4395-.4102.4395h-8.0566v5.2148c0,.8594-.0098,1.6797-.0293,2.461-.0195.7617-.0488,1.4941-.0879,2.1972-.0391.7032-.0976,1.3672-.1758,1.9922-.0781.6055-.1953,1.2012-.3515,1.7871-.3125,1.1719-.8203,2.2559-1.5235,3.252-.6836.9961-1.6699,1.9922-2.959,2.9883l-1.0839.8496c-.2344.2148-.4493.1953-.6446-.0586l-1.8457-2.1387c-.2148-.2539-.2051-.459.0293-.6152l1.1719-.9082c.7031-.5469,1.2988-1.0938,1.7871-1.6406.4883-.5665.8984-1.1622,1.2305-1.7872-.7617.3907-1.5625.586-2.4024.586s-1.6797-.2051-2.5195-.6153c-.5859-.3125-1.1035-.6835-1.5527-1.1132-.4297-.4493-.7813-.9375-1.0547-1.4649-.2539-.5469-.4395-1.123-.5567-1.7285-.1171-.625-.1464-1.25-.0879-1.875.0977-.9375.3223-1.7871.6739-2.5488.3711-.7617.8593-1.4063,1.4648-1.9336.6055-.5469,1.2988-.9375,2.0801-1.1719.8008-.2539,1.6699-.332,2.6074-.2344.8594.0782,1.6016.3418,2.2266.791l-.1172-2.2851h-15.4688c-.2734,0-.4101-.1465-.4101-.4395v-2.5488c0-.293.1367-.4394.4101-.4394h15.293v-3.0469c0-.293.1563-.4395.4688-.4395h2.9589c.3125,0,.4688.1465.4688.4395v3.0469h8.0566c.2735,0,.4102.1464.4102.4394ZM131.809,49.3301l.117,2.7832c0,.2929-.147.4589-.44.498-1.621.1172-3.232.2246-4.834.3223-1.582.0976-3.183.1269-4.804.0879-.899-.0196-1.885-.0977-2.959-.2344-1.055-.1367-2.071-.3906-3.047-.7617-.957-.3516-1.817-.8594-2.578-1.5235-.743-.6836-1.2406-1.5722-1.4945-2.666-.2343-.9961-.3125-1.9336-.2343-2.8125.0976-.8789.3125-1.709.6445-2.4902.3513-.7813.8103-1.5137,1.3773-2.1973.566-.7031,1.22-1.3672,1.963-1.9922-.508-.8593-1.182-2.0215-2.022-3.4863-.82-1.4648-1.7089-3.1641-2.666-5.0977l-.6152-1.2597c-.1563-.2735-.0879-.4883.2051-.6446l2.6661-1.2304c.273-.1367.498-.0586.674.2344l.644,1.2597c.899,1.6992,1.709,3.2324,2.432,4.5996.742,1.3477,1.377,2.4707,1.904,3.3692.723-.4297,1.465-.8301,2.227-1.2012.781-.3906,1.572-.7715,2.373-1.1426.82-.3515,1.621-.6933,2.402-1.0254.781-.332,1.533-.6445,2.256-.9375l1.348-.5859c.312-.1367.537-.0391.673.293l1.143,2.5781c.137.3125.039.5176-.293.6152-.898.3711-1.797.7324-2.695,1.084-.879.3516-1.768.7324-2.666,1.1426-.938.3906-1.836.791-2.696,1.2012-.839.4101-1.669.8593-2.49,1.3476-.683.3906-1.357.8496-2.021,1.377-.645.5078-1.201,1.0742-1.67,1.6992-.469.625-.811,1.3086-1.026,2.0508-.195.7421-.195,1.5332,0,2.373.079.293.225.5566.44.791.215.2149.459.4004.732.5567.293.1367.606.2539.938.3515.332.0977.654.1856.967.2637.898.1562,1.796.2539,2.695.293.898.039,1.797.039,2.695,0,1.192-.0391,2.383-.0879,3.574-.1465,1.211-.0586,2.422-.127,3.633-.2051.137-.0195.254.0098.352.0879.097.0781.156.2051.176.3809Z"/>
  </g>
</svg>