<?xml version="1.0" encoding="UTF-8"?>
<svg id="_レイヤー_1" xmlns="http://www.w3.org/2000/svg" xmlns:xlink="http://www.w3.org/1999/xlink" version="1.1" viewBox="0 0 150 80">
  <!-- Generator: Adobe Illustrator 29.7.1, SVG Export Plug-In . SVG Version: 2.1.1 Build 8)  -->
  <defs>
    <style>
      .st0 {
        fill: none;
      }

      .st1 {
        fill: #2ea8ff;
      }

      .st1, .st2 {
        fill-opacity: .5;
      }

      .st2 {
        fill: #ffafb5;
      }

      .st3 {
        fill: #fff;
      }

      .st4 {
        clip-path: url(#clippath);
      }
    </style>
    <clipPath id="clippath">
      <rect class="st0" x="21.5" y=".5" width="102" height="79"/>
    </clipPath>
  </defs>
  <g class="st4">
    <path class="st2" d="M88.174,2.866c-4.669,2.137-7.976,5.131-10.563,8.797v-.032c-1.162,1.597-2.104,3.294-2.949,5.04-.771,1.594-1.462,3.23-2.162,4.878-.7-1.649-1.391-3.285-2.162-4.878-.845-1.749-1.787-3.443-2.952-5.04v.032c-2.584-3.666-5.891-6.66-10.56-8.797C35.925-6.697,14.111,14.392,23.92,36.198c8.779,19.52,33.626,26.507,48.435,43.237.077.087.21.087.287,0,14.812-16.73,39.656-23.717,48.435-43.237,9.808-21.806-12.006-42.895-32.903-33.328v-.003h0ZM29.743,29.473c-1.813-1.406-1.274-3.42.655-4.339,1.103-.524,3.023-.343,3.801.601,1.745,2.121-1.904,5.716-4.456,3.734v.003h0ZM44.236,13.257c-2.768.556-5.866,3.139-7.159,6.055-1.091,2.457-6.237,2.03-5.83-2.046.407-4.077,3.281-7.465,6.914-8.794,9.324-3.404,9.863,4.022,6.079,4.781l-.003.003h0Z"/>
  </g>
  <g>
    <path class="st3" d="M136.921,51.903l-.117-2.783-.007-.171-.019-.171c-.105-.942-.523-2.534-2.022-3.733-1.173-.938-2.548-1.26-3.797-1.17v-.003c-1.184.076-2.368.143-3.552.201h-.004c-1.164.057-2.328.105-3.493.143h-.026l-.027.002c-.574.025-1.148.013-1.722,0,.227-.154.451-.294.67-.419l.038-.022.039-.023c.701-.418,1.408-.799,2.118-1.147.77-.367,1.579-.728,2.432-1.083l.077-.032.076-.035c.829-.379,1.645-.728,2.447-1.049h0c.863-.338,1.726-.686,2.589-1.042.017-.006.037-.015.055-.022.034-.014.069-.027.103-.041h0c.884-.35,2.167-1.1,2.928-2.699.931-1.955.392-3.731.037-4.542l-.005-.011-.005-.011-1.142-2.578h-.002c-.361-.825-1.167-2.152-2.847-2.882-1.819-.791-3.473-.369-4.39.03h0l-1.317.572c-.725.295-1.473.605-2.249.934-.786.334-1.591.678-2.416,1.031l-.067.029-.066.031c-.162.075-.318.155-.479.231-.587-1.112-1.226-2.32-1.919-3.629l-.628-1.228-.077-.15-.087-.145c-.433-.721-1.331-1.867-2.945-2.428-1.645-.572-3.125-.229-4.11.23l-.002-.003-2.666,1.23-.131.06-.127.068c-.485.259-1.209.741-1.821,1.532-.765-.301-1.496-.392-2.037-.392h-3.41c-.251-.678-.665-1.388-1.344-2.024-1.354-1.269-2.922-1.462-3.771-1.462h-2.959c-.85,0-2.417.193-3.771,1.462-.679.636-1.092,1.346-1.344,2.024h-10.647c-.999,0-2.643.284-3.963,1.698-1.259,1.349-1.447,2.906-1.447,3.741v2.549c0,.144.009.316.025.499-.442-.243-.896-.456-1.363-.636v-.01c0-1.018-.282-2.681-1.7-4.025-1.368-1.296-2.965-1.502-3.856-1.502h-2.109c-.672,0-1.746.119-2.82.732-1.187-.709-2.399-.811-3.245-.746v-.003l-2.49.176v.01c-.757.052-1.438.253-2.001.535-.955.478-1.535,1.129-1.857,1.562-.041.053-.077.105-.115.159-.02.029-.052.07-.069.095l.005.003c-.86,1.275-.903,2.571-.903,2.975v.174l.012.174.027.385c-.503.136-1.089.361-1.67.75v-2.596c0-1.186-.414-2.392-1.233-3.4l.02-.016c-.954-1.192-2.448-2.023-4.197-2.023h-3.511c-.014-.063-.023-.128-.037-.192-.011-.063-.023-.126-.037-.195v-.004h0c-.181-.862-.647-2.114-1.874-3.111-1.516-1.231-3.197-1.276-4.182-1.135l-.066.009-.065.011-2.93.498v.003c-.921.152-2.456.641-3.555,2.197-.458.649-.71,1.306-.844,1.919h-6.307c-1.75,0-3.244.831-4.197,2.023l-.049.061-.047.062c-.83,1.106-1.088,2.316-1.088,3.293v2.666c0,.513.077,1.372.487,2.291-.403.897-.487,1.744-.487,2.279v2.666c0,.756.148,2.256,1.317,3.604.328.378.681.681,1.043.925-.132,1.21-.127,2.445.091,3.671l.011.064.013.063c.357,1.744,1.153,3.293,2.282,4.604l.002.002c.928,1.076,2.045,1.93,3.31,2.553v.002c.009.005.02.009.03.014.007.004.014.008.021.011v-.002c1.105.546,2.274.926,3.473,1.174v.002c.011.002.023.004.035.006.023.005.046.011.069.016v-.004c1.141.247,2.341.396,3.583.467v.002c.02,0,.042.002.063.003.009,0,.017.002.026.002h0c1.204.083,2.474.124,3.812.124h1.494c.835,0,2.392-.188,3.741-1.447,1.414-1.32,1.698-2.964,1.698-3.963v-1.538l.267-.078v-.004c1.123-.322,2.469-1.093,3.288-2.65.455-.865.598-1.701.615-2.394.804-.222,1.691-.656,2.468-1.489.276-.295.492-.601.674-.906.327.397.699.774,1.174,1.091.739.493,1.566.781,2.414.876.077.794.151,1.552.218,2.229.097.971.174,1.761.231,2.372.057.613.101,1.059.126,1.287l.117,1.055h.002c.105,1.025.536,2.56,1.99,3.737,1.532,1.241,3.217,1.271,4.09,1.184l.042-.004.041-.005,2.256-.264.02-.002.02-.002c1.29-.161,2.653-.804,3.631-2.047l.005.004c.026-.033.045-.071.071-.105.062-.082.127-.158.185-.245l-.013-.009c.476-.7.803-1.524.912-2.434.379-.005.751-.007,1.148-.021.844-.029,1.68-.131,2.507-.3h0c.006,0,.011-.002.017-.003.005,0,.011,0,.016-.003h0c.869-.177,1.72-.428,2.544-.764l.042-.017.041-.018c1.03-.442,1.963-1.038,2.795-1.758h0c.006-.004.011-.01.018-.016.01-.009.022-.017.032-.026l-.002-.003c1.085-.938,1.912-2.078,2.485-3.353h.003c.005-.01.009-.021.014-.033.004-.009.009-.018.013-.027h-.002c.553-1.23.876-2.534.948-3.887h0v-.007h0c.072-1.34-.109-2.681-.573-3.977h.002c-.003-.008-.007-.015-.009-.023-.003-.007-.004-.015-.007-.022h-.002c-.069-.191-.152-.375-.231-.561.364.065.701.092.984.092h1.889c-.15.614-.263,1.236-.329,1.865l-.003.026-.002.026c-.103,1.095-.05,2.187.152,3.263l.003.014.003.014c.193.995.502,1.96.93,2.884l.046.099.05.097c.502.969,1.137,1.843,1.88,2.619l.077.08.08.077c.248.237.52.438.784.65-.114.383-.199.793-.22,1.248-.093,1.951.887,3.286,1.331,3.812l.016.019.016.019,1.846,2.139h0c.605.71,1.784,1.749,3.639,1.918,1.827.166,3.168-.617,3.908-1.217l1.05-.823h0c1.537-1.192,2.908-2.528,3.958-4.042l.002.002c.007-.01.012-.02.019-.03.006-.008.013-.016.018-.024h-.002c1.023-1.464,1.774-3.068,2.234-4.793.214-.8.373-1.613.479-2.436v-.01l.002-.01c.094-.751.162-1.53.207-2.335.042-.757.073-1.539.094-2.347v-.003c.011-.438.011-.913.016-1.371l.759-1.429h2.312c.999,0,2.643-.284,3.963-1.698.094-.1.17-.204.252-.306.24.446.477.878.709,1.293l.012.022.013.022c.058.102.11.192.167.291-.673.883-1.25,1.83-1.707,2.847l-.022.048-.021.048c-.53,1.247-.863,2.552-1.012,3.894l-.006.055-.005.055c-.132,1.483.01,2.956.345,4.386h0s0,.004.002.005c0,.003,0,.006.002.009h0c.456,1.952,1.413,3.762,2.973,5.199l.05.046.051.045c1.212,1.056,2.584,1.867,4.089,2.426v.002c.01.004.021.007.032.011.007.002.013.006.019.008h0c1.332.5,2.711.843,4.128,1.027h.011c1.21.155,2.369.25,3.47.274h.013c1.756.042,3.495.01,5.218-.096h.002c1.619-.099,3.248-.207,4.887-.326l.15-.011.15-.02c.936-.125,2.314-.55,3.418-1.802,1.11-1.258,1.361-2.688,1.361-3.652v-.105l-.005-.105h.001Z"/>
    <path class="st1" d="M34.338,50.238v2.842c0,.273-.146.41-.439.41h-1.494c-1.27,0-2.451-.039-3.545-.117-1.094-.059-2.08-.186-2.959-.381-.879-.176-1.67-.439-2.373-.791-.684-.332-1.27-.781-1.758-1.348-.605-.703-.996-1.484-1.172-2.344-.156-.879-.137-1.875.059-2.988l.234-1.377c.059-.293.225-.42.498-.381l3.047.527c.274.039.381.195.322.469l-.264,1.465c-.078.41-.117.752-.117,1.025.02.273.059.488.117.645v.059c.02.098.039.186.059.264.02.059.068.127.146.205l.059.059c.273.293.684.527,1.23.703.547.156,1.162.283,1.846.381.703.078,1.445.137,2.226.176.801.039,1.582.059,2.344.059h1.494c.293,0,.439.146.439.439h0ZM42.424,38.52v2.666c0,.293-.137.439-.41.439h-4.922c.234.762.459,1.514.674,2.256.234.723.479,1.465.732,2.227.059.312-.039.498-.293.557l-2.812.82c-.137.058-.254.058-.352,0-.078-.059-.146-.137-.205-.234-.293-.957-.586-1.895-.879-2.812-.273-.918-.547-1.855-.82-2.812h-14.531c-.254,0-.381-.146-.381-.439v-2.666c0-.273.127-.41.381-.41h13.564l-.879-3.75-12.685.029c-.254,0-.381-.146-.381-.439v-2.666c0-.117.029-.215.088-.293.078-.098.176-.146.293-.146h11.924c-.137-.645-.264-1.26-.381-1.846s-.234-1.201-.351-1.846c-.059-.293.059-.459.351-.498l2.93-.498c.273-.039.43.088.469.381.156.703.293,1.416.41,2.139.137.723.283,1.445.439,2.168h7.617c.117,0,.215.049.293.146.078.078.117.176.117.293v2.666c0,.293-.137.439-.41.439l-6.826-.029c.156.645.303,1.279.439,1.904.156.605.332,1.221.527,1.846h5.859c.273,0,.41.137.41.41v-.002ZM70.051,46.049c-.469.41-.977.732-1.523.967-.527.215-1.084.381-1.67.498-.566.117-1.133.186-1.699.205-.566.02-1.104.029-1.611.029-.352,0-.527-.186-.527-.557v-2.021c0-.391.176-.586.527-.586h.293c.274,0,.557.01.85.029.312,0,.615-.02.908-.059.625-.059,1.152-.205,1.582-.439.352-.176.635-.42.85-.732.234-.312.391-.664.469-1.055.137-.684-.039-1.26-.527-1.729-.566-.625-1.484-.996-2.754-1.113v2.9c0,.352-.186.527-.557.527h-2.109c-.371,0-.557-.176-.557-.527v-2.783c-.625.059-1.27.117-1.934.176-.645.059-1.318.137-2.021.234.176,2.012.361,4.014.557,6.006.215,1.973.43,3.994.645,6.064,0,.117-.039.225-.117.322-.078.117-.195.186-.352.205l-2.256.264c-.391.039-.596-.127-.615-.498l-.117-1.055c-.02-.176-.059-.576-.117-1.201s-.137-1.426-.234-2.402c-.098-.977-.205-2.08-.322-3.311-.117-1.25-.254-2.568-.41-3.955l-2.695.381-1.025.176c-.137.039-.264.02-.381-.059-.117-.078-.195-.195-.234-.352l-.322-2.051c-.059-.352.088-.557.439-.615l1.025-.146c.449-.078.918-.156,1.406-.234.508-.078,1.016-.156,1.523-.234l-.293-3.662-.088-1.26c0-.098.02-.166.059-.205.039-.059.078-.098.117-.117.039-.02.078-.029.117-.029l2.49-.176c.332-.039.518.117.557.469l.381,4.57c.762-.098,1.494-.176,2.197-.234.703-.059,1.377-.117,2.021-.176v-4.072c0-.352.186-.527.557-.527h2.109c.371,0,.557.176.557.527v3.984c1.074.059,2.061.254,2.959.586.918.312,1.67.781,2.256,1.406.488.527.85,1.123,1.084,1.787.234.645.332,1.328.293,2.051-.039.742-.215,1.455-.527,2.139-.293.664-.703,1.221-1.23,1.67h-.004ZM92.697,41.068c.02-.352,0-.703-.059-1.055-.059-.371-.186-.703-.381-.996-.176-.312-.43-.567-.762-.762-.312-.195-.713-.312-1.201-.352-.625-.059-1.133.02-1.523.234-.371.215-.664.488-.879.82-.195.312-.332.635-.41.967-.059.312-.107.557-.146.732-.098,1.016.117,1.826.645,2.432.449.449,1.035.703,1.758.762.781.078,1.416-.098,1.904-.527.645-.527.996-1.279,1.055-2.256h0ZM104.621,30.023v2.549c0,.293-.137.439-.41.439h-8.057v5.215c0,.859-.01,1.68-.029,2.461-.02.762-.049,1.494-.088,2.197-.039.703-.098,1.367-.176,1.992-.078.605-.195,1.201-.352,1.787-.312,1.172-.82,2.256-1.523,3.252-.684.996-1.67,1.992-2.959,2.988l-1.084.85c-.234.215-.449.195-.645-.059l-1.846-2.139c-.215-.254-.205-.459.029-.615l1.172-.908c.703-.547,1.299-1.094,1.787-1.641.488-.567.898-1.162,1.23-1.787-.762.391-1.562.586-2.402.586s-1.68-.205-2.52-.615c-.586-.312-1.104-.683-1.553-1.113-.43-.449-.781-.938-1.055-1.465-.254-.547-.439-1.123-.557-1.729-.117-.625-.146-1.25-.088-1.875.098-.938.322-1.787.674-2.549.371-.762.859-1.406,1.465-1.934.605-.547,1.299-.938,2.08-1.172.801-.254,1.67-.332,2.607-.234.859.078,1.602.342,2.227.791l-.117-2.285h-15.469c-.273,0-.41-.146-.41-.439v-2.549c0-.293.137-.439.41-.439h15.293v-3.047c0-.293.156-.44.469-.44h2.959c.312,0,.469.146.469.44v3.047h8.057c.273,0,.41.146.41.439h.002ZM131.809,49.33l.117,2.783c0,.293-.147.459-.44.498-1.621.117-3.232.225-4.834.322-1.582.098-3.183.127-4.804.088-.899-.02-1.885-.098-2.959-.234-1.055-.137-2.071-.391-3.047-.762-.957-.352-1.817-.859-2.578-1.523-.743-.684-1.241-1.572-1.494-2.666-.234-.996-.312-1.934-.234-2.812.098-.879.312-1.709.645-2.49.351-.781.81-1.514,1.377-2.197.566-.703,1.22-1.367,1.963-1.992-.508-.859-1.182-2.021-2.022-3.486-.82-1.465-1.709-3.164-2.666-5.098l-.615-1.26c-.156-.274-.088-.488.205-.645l2.666-1.23c.273-.137.498-.059.674.234l.644,1.26c.899,1.699,1.709,3.232,2.432,4.6.742,1.348,1.377,2.471,1.904,3.369.723-.43,1.465-.83,2.227-1.201.781-.391,1.572-.771,2.373-1.143.82-.352,1.621-.693,2.402-1.025s1.533-.645,2.256-.938l1.348-.586c.312-.137.537-.039.673.293l1.143,2.578c.137.312.039.518-.293.615-.898.371-1.797.732-2.695,1.084-.879.352-1.768.732-2.666,1.143-.938.391-1.836.791-2.696,1.201-.839.41-1.669.859-2.49,1.348-.683.391-1.357.85-2.021,1.377-.645.508-1.201,1.074-1.67,1.699s-.811,1.309-1.026,2.051c-.195.742-.195,1.533,0,2.373.079.293.225.557.44.791.215.215.459.4.732.557.293.137.606.254.938.352s.654.186.967.264c.898.156,1.796.254,2.695.293.898.039,1.797.039,2.695,0,1.192-.039,2.383-.088,3.574-.146,1.211-.059,2.422-.127,3.633-.205.137-.02.254.01.352.088.097.078.156.205.176.381h0v-.003Z"/>
  </g>
</svg>