<svg width="280" height="60" viewBox="0 0 280 60" fill="none" xmlns="http://www.w3.org/2000/svg">
<rect width="280" height="60" rx="30" fill="#FF6588"/>
<path d="M80.5703 39.5781V41.8516C80.5703 42.0703 80.4531 42.1797 80.2188 42.1797H79.0234C78.0078 42.1797 77.0625 42.1484 76.1875 42.0859C75.3125 42.0391 74.5234 41.9375 73.8203 41.7812C73.1172 41.6406 72.4844 41.4297 71.9219 41.1484C71.375 40.8828 70.9062 40.5234 70.5156 40.0703C70.0312 39.5078 69.7188 38.8828 69.5781 38.1953C69.4531 37.4922 69.4688 36.6953 69.625 35.8047L69.8125 34.7031C69.8594 34.4688 69.9922 34.3672 70.2109 34.3984L72.6484 34.8203C72.8672 34.8516 72.9531 34.9766 72.9062 35.1953L72.6953 36.3672C72.6328 36.6953 72.6016 36.9688 72.6016 37.1875C72.6172 37.4062 72.6484 37.5781 72.6953 37.7031V37.75C72.7109 37.8281 72.7266 37.8984 72.7422 37.9609C72.7578 38.0078 72.7969 38.0625 72.8594 38.125L72.9062 38.1719C73.125 38.4062 73.4531 38.5938 73.8906 38.7344C74.3281 38.8594 74.8203 38.9609 75.3672 39.0391C75.9297 39.1016 76.5234 39.1484 77.1484 39.1797C77.7891 39.2109 78.4141 39.2266 79.0234 39.2266H80.2188C80.4531 39.2266 80.5703 39.3438 80.5703 39.5781ZM87.0391 30.2031V32.3359C87.0391 32.5703 86.9297 32.6875 86.7109 32.6875H82.7734C82.9609 33.2969 83.1406 33.8984 83.3125 34.4922C83.5 35.0703 83.6953 35.6641 83.8984 36.2734C83.9453 36.5234 83.8672 36.6719 83.6641 36.7188L81.4141 37.375C81.3047 37.4219 81.2109 37.4219 81.1328 37.375C81.0703 37.3281 81.0156 37.2656 80.9688 37.1875C80.7344 36.4219 80.5 35.6719 80.2656 34.9375C80.0469 34.2031 79.8281 33.4531 79.6094 32.6875H67.9844C67.7812 32.6875 67.6797 32.5703 67.6797 32.3359V30.2031C67.6797 29.9844 67.7812 29.875 67.9844 29.875H78.8359L78.1328 26.875L67.9844 26.8984C67.7812 26.8984 67.6797 26.7812 67.6797 26.5469V24.4141C67.6797 24.3203 67.7031 24.2422 67.75 24.1797C67.8125 24.1016 67.8906 24.0625 67.9844 24.0625H77.5234C77.4141 23.5469 77.3125 23.0547 77.2188 22.5859C77.125 22.1172 77.0312 21.625 76.9375 21.1094C76.8906 20.875 76.9844 20.7422 77.2188 20.7109L79.5625 20.3125C79.7812 20.2812 79.9062 20.3828 79.9375 20.6172C80.0625 21.1797 80.1719 21.75 80.2656 22.3281C80.375 22.9062 80.4922 23.4844 80.6172 24.0625H86.7109C86.8047 24.0625 86.8828 24.1016 86.9453 24.1797C87.0078 24.2422 87.0391 24.3203 87.0391 24.4141V26.5469C87.0391 26.7812 86.9297 26.8984 86.7109 26.8984L81.25 26.875C81.375 27.3906 81.4922 27.8984 81.6016 28.3984C81.7266 28.8828 81.8672 29.375 82.0234 29.875H86.7109C86.9297 29.875 87.0391 29.9844 87.0391 30.2031ZM110.341 36.2266C109.966 36.5547 109.559 36.8125 109.122 37C108.7 37.1719 108.255 37.3047 107.786 37.3984C107.333 37.4922 106.88 37.5469 106.427 37.5625C105.973 37.5781 105.544 37.5859 105.138 37.5859C104.856 37.5859 104.716 37.4375 104.716 37.1406V35.5234C104.716 35.2109 104.856 35.0547 105.138 35.0547H105.372C105.591 35.0547 105.817 35.0625 106.052 35.0781C106.302 35.0781 106.544 35.0625 106.778 35.0312C107.278 34.9844 107.7 34.8672 108.044 34.6797C108.325 34.5391 108.552 34.3438 108.723 34.0938C108.911 33.8438 109.036 33.5625 109.098 33.25C109.208 32.7031 109.067 32.2422 108.677 31.8672C108.223 31.3672 107.489 31.0703 106.473 30.9766V33.2969C106.473 33.5781 106.325 33.7188 106.028 33.7188H104.341C104.044 33.7188 103.895 33.5781 103.895 33.2969V31.0703C103.395 31.1172 102.88 31.1641 102.348 31.2109C101.833 31.2578 101.294 31.3203 100.731 31.3984C100.872 33.0078 101.02 34.6094 101.177 36.2031C101.348 37.7812 101.52 39.3984 101.692 41.0547C101.692 41.1484 101.661 41.2344 101.598 41.3125C101.536 41.4062 101.442 41.4609 101.317 41.4766L99.5125 41.6875C99.2 41.7188 99.0359 41.5859 99.0203 41.2891L98.9266 40.4453C98.9109 40.3047 98.8797 39.9844 98.8328 39.4844C98.7859 38.9844 98.7234 38.3438 98.6453 37.5625C98.5672 36.7812 98.4813 35.8984 98.3875 34.9141C98.2938 33.9141 98.1844 32.8594 98.0594 31.75L95.9031 32.0547L95.0828 32.1953C94.9734 32.2266 94.8719 32.2109 94.7781 32.1484C94.6844 32.0859 94.6219 31.9922 94.5906 31.8672L94.3328 30.2266C94.2859 29.9453 94.4031 29.7812 94.6844 29.7344L95.5047 29.6172C95.8641 29.5547 96.2391 29.4922 96.6297 29.4297C97.0359 29.3672 97.4422 29.3047 97.8484 29.2422L97.6141 26.3125L97.5438 25.3047C97.5438 25.2266 97.5594 25.1719 97.5906 25.1406C97.6219 25.0938 97.6531 25.0625 97.6844 25.0469C97.7156 25.0312 97.7469 25.0234 97.7781 25.0234L99.7703 24.8828C100.036 24.8516 100.184 24.9766 100.216 25.2578L100.52 28.9141C101.13 28.8359 101.716 28.7734 102.278 28.7266C102.841 28.6797 103.38 28.6328 103.895 28.5859V25.3281C103.895 25.0469 104.044 24.9062 104.341 24.9062H106.028C106.325 24.9062 106.473 25.0469 106.473 25.3281V28.5156C107.333 28.5625 108.122 28.7188 108.841 28.9844C109.575 29.2344 110.177 29.6094 110.645 30.1094C111.036 30.5312 111.325 31.0078 111.513 31.5391C111.7 32.0547 111.778 32.6016 111.747 33.1797C111.716 33.7734 111.575 34.3438 111.325 34.8906C111.091 35.4219 110.763 35.8672 110.341 36.2266ZM129.658 32.2422C129.673 31.9609 129.658 31.6797 129.611 31.3984C129.564 31.1016 129.463 30.8359 129.306 30.6016C129.166 30.3516 128.963 30.1484 128.697 29.9922C128.447 29.8359 128.127 29.7422 127.736 29.7109C127.236 29.6641 126.83 29.7266 126.517 29.8984C126.22 30.0703 125.986 30.2891 125.814 30.5547C125.658 30.8047 125.548 31.0625 125.486 31.3281C125.439 31.5781 125.4 31.7734 125.369 31.9141C125.291 32.7266 125.463 33.375 125.884 33.8594C126.244 34.2188 126.713 34.4219 127.291 34.4688C127.916 34.5312 128.423 34.3906 128.814 34.0469C129.33 33.625 129.611 33.0234 129.658 32.2422ZM139.197 23.4062V25.4453C139.197 25.6797 139.088 25.7969 138.869 25.7969H132.423V29.9688C132.423 30.6562 132.416 31.3125 132.4 31.9375C132.384 32.5469 132.361 33.1328 132.33 33.6953C132.298 34.2578 132.252 34.7891 132.189 35.2891C132.127 35.7734 132.033 36.25 131.908 36.7188C131.658 37.6562 131.252 38.5234 130.689 39.3203C130.142 40.1172 129.353 40.9141 128.322 41.7109L127.455 42.3906C127.267 42.5625 127.095 42.5469 126.939 42.3438L125.463 40.6328C125.291 40.4297 125.298 40.2656 125.486 40.1406L126.423 39.4141C126.986 38.9766 127.463 38.5391 127.853 38.1016C128.244 37.6484 128.572 37.1719 128.838 36.6719C128.228 36.9844 127.588 37.1406 126.916 37.1406C126.244 37.1406 125.572 36.9766 124.9 36.6484C124.431 36.3984 124.017 36.1016 123.658 35.7578C123.314 35.3984 123.033 35.0078 122.814 34.5859C122.611 34.1484 122.463 33.6875 122.369 33.2031C122.275 32.7031 122.252 32.2031 122.298 31.7031C122.377 30.9531 122.556 30.2734 122.838 29.6641C123.134 29.0547 123.525 28.5391 124.009 28.1172C124.494 27.6797 125.048 27.3672 125.673 27.1797C126.314 26.9766 127.009 26.9141 127.759 26.9922C128.447 27.0547 129.041 27.2656 129.541 27.625L129.447 25.7969H117.072C116.853 25.7969 116.744 25.6797 116.744 25.4453V23.4062C116.744 23.1719 116.853 23.0547 117.072 23.0547H129.306V20.6172C129.306 20.3828 129.431 20.2656 129.681 20.2656H132.048C132.298 20.2656 132.423 20.3828 132.423 20.6172V23.0547H138.869C139.088 23.0547 139.197 23.1719 139.197 23.4062ZM162.147 38.8516L162.241 41.0781C162.241 41.3125 162.123 41.4453 161.889 41.4766C160.592 41.5703 159.303 41.6562 158.022 41.7344C156.756 41.8125 155.475 41.8359 154.178 41.8047C153.459 41.7891 152.67 41.7266 151.811 41.6172C150.967 41.5078 150.155 41.3047 149.373 41.0078C148.608 40.7266 147.92 40.3203 147.311 39.7891C146.717 39.2422 146.319 38.5312 146.116 37.6562C145.928 36.8594 145.866 36.1094 145.928 35.4062C146.006 34.7031 146.178 34.0391 146.444 33.4141C146.725 32.7891 147.092 32.2031 147.545 31.6562C147.998 31.0938 148.522 30.5625 149.116 30.0625C148.709 29.375 148.17 28.4453 147.498 27.2734C146.842 26.1016 146.131 24.7422 145.366 23.1953L144.873 22.1875C144.748 21.9688 144.803 21.7969 145.037 21.6719L147.17 20.6875C147.389 20.5781 147.569 20.6406 147.709 20.875L148.225 21.8828C148.944 23.2422 149.592 24.4688 150.17 25.5625C150.764 26.6406 151.272 27.5391 151.694 28.2578C152.272 27.9141 152.866 27.5938 153.475 27.2969C154.1 26.9844 154.733 26.6797 155.373 26.3828C156.03 26.1016 156.67 25.8281 157.295 25.5625C157.92 25.2969 158.522 25.0469 159.1 24.8125L160.178 24.3438C160.428 24.2344 160.608 24.3125 160.717 24.5781L161.631 26.6406C161.741 26.8906 161.662 27.0547 161.397 27.1328C160.678 27.4297 159.959 27.7188 159.241 28C158.537 28.2812 157.827 28.5859 157.108 28.9141C156.358 29.2266 155.639 29.5469 154.952 29.875C154.28 30.2031 153.616 30.5625 152.959 30.9531C152.412 31.2656 151.873 31.6328 151.342 32.0547C150.827 32.4609 150.381 32.9141 150.006 33.4141C149.631 33.9141 149.358 34.4609 149.186 35.0547C149.03 35.6484 149.03 36.2812 149.186 36.9531C149.248 37.1875 149.366 37.3984 149.537 37.5859C149.709 37.7578 149.905 37.9062 150.123 38.0312C150.358 38.1406 150.608 38.2344 150.873 38.3125C151.139 38.3906 151.397 38.4609 151.647 38.5234C152.366 38.6484 153.084 38.7266 153.803 38.7578C154.522 38.7891 155.241 38.7891 155.959 38.7578C156.912 38.7266 157.866 38.6875 158.819 38.6406C159.787 38.5938 160.756 38.5391 161.725 38.4766C161.834 38.4609 161.928 38.4844 162.006 38.5469C162.084 38.6094 162.131 38.7109 162.147 38.8516ZM167.425 29.5703C167.425 29.3203 167.542 29.1953 167.777 29.1953H188.823C189.058 29.1953 189.175 29.3203 189.175 29.5703V32.0312C189.175 32.2656 189.058 32.3828 188.823 32.3828H167.777C167.542 32.3828 167.425 32.2656 167.425 32.0312V29.5703ZM198.273 23.4062V22.7266H196.305V23.4062H198.273ZM200.078 25.4453V24.7656H196.305V25.4453H200.078ZM198.273 26.8047H196.305V27.5312H198.273V26.8047ZM198.062 36.2031H208.938V35.5703H198.062V36.2031ZM198.062 34.2344H208.938V33.6016H198.062V34.2344ZM208.938 32.2891V31.6562H198.062V32.2891H208.938ZM207.531 38.125V39.25C207.531 39.5781 207.602 39.7656 207.742 39.8125C207.883 39.8594 208.391 39.8828 209.266 39.8828C210.141 39.8828 210.648 39.7656 210.789 39.5312C210.82 39.4531 210.859 39.3047 210.906 39.0859C210.953 38.8672 211 38.5469 211.047 38.125H207.531ZM192.859 40.4219C192.812 40.2969 192.828 40.1797 192.906 40.0703C192.984 39.9609 193.094 39.9062 193.234 39.9062C193.922 39.8438 194.539 39.7812 195.086 39.7188C195.633 39.6406 196.117 39.5391 196.539 39.4141C197.539 39.1797 198.211 38.8906 198.555 38.5469C198.648 38.4531 198.758 38.3125 198.883 38.125H195.227C194.977 38.125 194.852 38.0078 194.852 37.7734V30.1094H193.656C193.422 30.1094 193.305 29.9922 193.305 29.7578V21.1094C193.305 20.875 193.422 20.7578 193.656 20.7578H203.383C203.617 20.7578 203.734 20.875 203.734 21.1094V22.3516C203.734 22.6016 203.617 22.7266 203.383 22.7266H201.039V23.4062H202.586C202.82 23.4062 202.938 23.5312 202.938 23.7812V24.9062C204.141 23.5469 205.086 21.9297 205.773 20.0547C205.852 19.8984 205.977 19.8281 206.148 19.8438L208.305 20.0781C208.43 20.0938 208.523 20.1484 208.586 20.2422C208.648 20.3203 208.664 20.4297 208.633 20.5703C208.539 20.9141 208.438 21.2109 208.328 21.4609H213.859C214.109 21.4609 214.234 21.5859 214.234 21.8359V23.6406C214.234 23.875 214.109 23.9922 213.859 23.9922H207.133C206.945 24.3047 206.75 24.6094 206.547 24.9062C206.359 25.2031 206.148 25.4922 205.914 25.7734H213.297C213.531 25.7734 213.648 25.8906 213.648 26.125V27.8125C213.648 28.0469 213.531 28.1641 213.297 28.1641H205.188C204.938 28.1641 204.812 28.0469 204.812 27.8125V26.9922L202.938 25.7031V26.4297C202.938 26.6797 202.82 26.8047 202.586 26.8047H201.039V27.5312H203.617C203.852 27.5312 203.969 27.6484 203.969 27.8828V28.9609C203.969 29.1953 203.852 29.3125 203.617 29.3125H196.258V29.8516H211.773C212.023 29.8516 212.148 29.9688 212.148 30.2031V37.2344L213.789 37.3984C214.008 37.4297 214.117 37.5625 214.117 37.7969C214.117 37.875 214.117 37.9531 214.117 38.0312C214.117 38.0938 214.109 38.1641 214.094 38.2422C214.078 38.3672 214.07 38.5 214.07 38.6406C214.07 38.7656 214.062 38.8828 214.047 38.9922C214.031 39.1172 214.023 39.2188 214.023 39.2969C214.023 39.375 214.023 39.4297 214.023 39.4609C213.992 39.8828 213.891 40.3281 213.719 40.7969C213.547 41.25 213.398 41.5469 213.273 41.6875C213.164 41.7969 212.859 41.9219 212.359 42.0625C211.875 42.2031 211.43 42.2734 211.023 42.2734H208.938C208.578 42.2734 208.219 42.2656 207.859 42.25C207.5 42.25 207.148 42.2422 206.805 42.2266C206.602 42.2109 206.383 42.1953 206.148 42.1797C205.93 42.1641 205.703 42.1406 205.469 42.1094C205.125 42.0625 204.867 41.9531 204.695 41.7812C204.555 41.625 204.461 41.4453 204.414 41.2422C204.367 41.0547 204.344 40.7812 204.344 40.4219V38.125H202.328C201.938 39.25 201.18 40.1641 200.055 40.8672C198.664 41.7422 196.594 42.2812 193.844 42.4844C193.688 42.5156 193.57 42.4453 193.492 42.2734L192.859 40.4219Z" fill="white"/>
</svg>
