<?xml version="1.0" encoding="UTF-8"?>
<svg id="_レイヤー_1" xmlns="http://www.w3.org/2000/svg" xmlns:xlink="http://www.w3.org/1999/xlink" version="1.1" viewBox="0 0 1160 800">
  <!-- Generator: Adobe Illustrator 29.6.1, SVG Export Plug-In . SVG Version: 2.1.1 Build 9)  -->
  <defs>
    <style>
      .st0 {
        fill: #ff90ab;
      }

      .st1 {
        fill: url(#_名称未設定グラデーション_9);
      }

      .st2 {
        fill: url(#_名称未設定グラデーション_6);
      }

      .st3 {
        fill: url(#_名称未設定グラデーション_5);
      }

      .st4 {
        fill: url(#_名称未設定グラデーション_4);
      }

      .st5 {
        fill: url(#_名称未設定グラデーション_3);
      }

      .st6 {
        fill: url(#_名称未設定グラデーション_2);
      }

      .st7 {
        fill: url(#_名称未設定グラデーション_8);
      }

      .st8 {
        fill: url(#_名称未設定グラデーション_7);
      }

      .st9 {
        fill: #fff;
      }

      .st10 {
        fill: #ff7ba2;
      }

      .st11 {
        fill: #fffcee;
      }

      .st12 {
        fill: url(#_名称未設定グラデーション);
      }
    </style>
    <linearGradient id="_名称未設定グラデーション" data-name="名称未設定グラデーション" x1="580.001" y1="530.9" x2="580.001" y2="773.656" gradientTransform="translate(0 799.874) scale(1 -1)" gradientUnits="userSpaceOnUse">
      <stop offset="0" stop-color="#ff6ca7"/>
      <stop offset="1" stop-color="#ffb9a7"/>
    </linearGradient>
    <linearGradient id="_名称未設定グラデーション_2" data-name="名称未設定グラデーション 2" x1="845.131" y1="374.379" x2="845.131" y2="415.686" gradientTransform="translate(0 799.874) scale(1 -1)" gradientUnits="userSpaceOnUse">
      <stop offset="0" stop-color="#ff3d8b"/>
      <stop offset="1" stop-color="#ff70a4"/>
    </linearGradient>
    <linearGradient id="_名称未設定グラデーション_3" data-name="名称未設定グラデーション 3" x1="535.57" y1="290.34" x2="535.57" y2="428.667" gradientTransform="translate(0 799.874) scale(1 -1)" gradientUnits="userSpaceOnUse">
      <stop offset="0" stop-color="#ff3d8b"/>
      <stop offset="1" stop-color="#ff70a4"/>
    </linearGradient>
    <linearGradient id="_名称未設定グラデーション_4" data-name="名称未設定グラデーション 4" x1="408.833" y1="437.857" x2="408.833" y2="477.067" gradientTransform="translate(0 799.874) scale(1 -1)" gradientUnits="userSpaceOnUse">
      <stop offset="0" stop-color="#ff3d8b"/>
      <stop offset="1" stop-color="#ff70a4"/>
    </linearGradient>
    <linearGradient id="_名称未設定グラデーション_5" data-name="名称未設定グラデーション 5" x1="402.548" y1="291.506" x2="402.548" y2="421.699" gradientTransform="translate(0 799.874) scale(1 -1)" gradientUnits="userSpaceOnUse">
      <stop offset="0" stop-color="#ff3d8b"/>
      <stop offset="1" stop-color="#ff70a4"/>
    </linearGradient>
    <linearGradient id="_名称未設定グラデーション_6" data-name="名称未設定グラデーション 6" x1="687.584" y1="293.543" x2="687.584" y2="480.053" gradientTransform="translate(0 799.874) scale(1 -1)" gradientUnits="userSpaceOnUse">
      <stop offset="0" stop-color="#ff3d8b"/>
      <stop offset="1" stop-color="#ff70a4"/>
    </linearGradient>
    <linearGradient id="_名称未設定グラデーション_7" data-name="名称未設定グラデーション 7" x1="928.544" y1="289.612" x2="928.544" y2="485.777" gradientTransform="translate(0 799.874) scale(1 -1)" gradientUnits="userSpaceOnUse">
      <stop offset="0" stop-color="#ff3d8b"/>
      <stop offset="1" stop-color="#ff70a4"/>
    </linearGradient>
    <linearGradient id="_名称未設定グラデーション_8" data-name="名称未設定グラデーション 8" x1="1046.819" y1="292.09" x2="1046.819" y2="489.761" gradientTransform="translate(0 799.874) scale(1 -1)" gradientUnits="userSpaceOnUse">
      <stop offset="0" stop-color="#ff3d8b"/>
      <stop offset="1" stop-color="#ff70a4"/>
    </linearGradient>
    <linearGradient id="_名称未設定グラデーション_9" data-name="名称未設定グラデーション 9" x1="214.542" y1="293.872" x2="214.542" y2="529.596" gradientTransform="translate(0 799.874) scale(1 -1)" gradientUnits="userSpaceOnUse">
      <stop offset="0" stop-color="#ff3d8b"/>
      <stop offset="1" stop-color="#ff70a4"/>
    </linearGradient>
  </defs>
  <path class="st9" d="M660.909,13.483c5.743,0,11.48.567,17.148,1.71,17.114,3.451,32.804,11.886,45.376,24.395,12.619,12.556,21.127,28.268,24.603,45.438,3.742,18.481,1.377,37.886-6.84,56.119-17.34,38.473-52.669,62.074-86.833,84.896-22.908,15.302-46.594,31.126-64.392,51.187-2.529,2.85-6.163,4.485-9.972,4.485s-7.442-1.634-9.971-4.484c-17.798-20.063-41.485-35.886-64.393-51.188-34.166-22.824-69.494-46.423-86.833-84.896-8.217-18.232-10.582-37.637-6.841-56.118,3.477-17.17,11.984-32.882,24.604-45.438,12.572-12.509,28.263-20.944,45.377-24.395,5.669-1.143,11.403-1.71,17.148-1.71,12.834,0,25.708,2.834,37.938,8.42,15.431,7.049,27.743,17.278,37.636,31.269,1.847,2.611,3.616,5.358,5.337,8.284,1.718-2.926,3.489-5.672,5.337-8.283,9.893-13.991,22.205-24.22,37.636-31.269,12.231-5.587,25.102-8.421,37.937-8.421"/>
  <path class="st0" d="M521.715,277.116c1.211-.58,1.211-2.661,0-3.241l-7.894-3.134c-.009-.004-.017-.008-.026-.012-1.599-.762-2.849-2.279-3.477-4.222-.003-.011-.007-.021-.01-.032l-3.306-11.068c-.477-1.471-2.192-1.471-2.668,0l-3.305,11.068c-.003.011-.007.021-.01.032-.628,1.943-1.878,3.46-3.477,4.222-.009.004-.018.008-.026.013l-7.894,3.134c-1.211.58-1.211,2.661,0,3.241l7.894,3.134c.009.004.018.008.026.013,1.599.762,2.849,2.28,3.477,4.222.003.011.007.021.01.032l3.305,11.068c.477,1.471,2.192,1.471,2.668,0l3.306-11.068c.003-.011.007-.021.01-.032.628-1.943,1.878-3.46,3.477-4.222.009-.004.017-.008.026-.013l7.894-3.134h0Z"/>
  <path class="st0" d="M480.642,261.487c.618-.295.618-1.357,0-1.652l-4.279-2.047s-.009-.004-.013-.006c-.816-.388-1.453-1.162-1.774-2.153-.002-.005-.004-.011-.005-.016l-1.685-5.195c-.243-.75-1.118-.75-1.361,0l-1.685,5.195c-.002.005-.004.011-.005.016-.32.991-.957,1.765-1.773,2.153-.004.002-.009.004-.013.006l-4.279,2.047c-.618.295-.618,1.357,0,1.652l4.279,2.047s.009.004.013.006c.816.388,1.453,1.162,1.774,2.153.002.005.003.011.005.016l1.685,5.196c.243.75,1.118.75,1.361,0l1.685-5.196c.002-.005.004-.011.005-.016.32-.991.958-1.765,1.774-2.153.004-.002.009-.004.013-.006l4.279-2.047h-.001Z"/>
  <path class="st0" d="M835.487,329.223c.498-.238.498-1.096,0-1.334l-3.455-1.652s-.007-.003-.011-.005c-.659-.314-1.173-.939-1.431-1.739,0-.004-.003-.009-.004-.013l-1.361-4.195c-.196-.606-.903-.606-1.099,0l-1.361,4.195s-.003.009-.004.013c-.258.8-.773,1.424-1.431,1.739-.004.002-.007.003-.011.005l-3.455,1.652c-.498.238-.498,1.096,0,1.334l3.455,1.652s.007.003.011.005c.659.314,1.173.939,1.431,1.739,0,.004.003.009.004.013l1.361,4.195c.196.606.903.606,1.099,0l1.361-4.195s.003-.009.004-.013c.258-.8.773-1.424,1.431-1.739.004-.002.007-.003.011-.005l3.455-1.652Z"/>
  <path class="st0" d="M891.169,312.916c1.432-.685,1.431-3.145,0-3.83l-13.395-3.703c-.01-.005-.021-.01-.031-.015-1.891-.901-3.368-2.694-4.11-4.99-.004-.013-.008-.025-.012-.038l-3.906-13.081c-.565-1.739-2.59-1.739-3.155,0l-3.906,13.081c-.004.013-.008.025-.012.038-.742,2.296-2.219,4.09-4.11,4.99-.01.005-.021.01-.031.015l-12.897,3.703c-1.432.685-1.432,3.145,0,3.83l12.897,3.703c.01.005.021.01.031.015,1.891.901,3.368,2.694,4.11,4.99.004.013.008.025.012.038l3.906,13.081c.565,1.739,2.59,1.739,3.155,0l3.906-13.081c.004-.013.008-.025.012-.038.742-2.296,2.219-4.09,4.11-4.99.01-.005.021-.01.031-.015l13.395-3.703Z"/>
  <path class="st0" d="M908.728,288.16c.653-.312.653-1.432,0-1.745l-4.518-2.161s-.009-.004-.014-.007c-.862-.41-1.534-1.227-1.872-2.273-.002-.006-.004-.012-.006-.017l-1.78-5.485c-.257-.792-1.18-.792-1.437,0l-1.78,5.485c-.002.006-.004.012-.006.017-.338,1.046-1.011,1.863-1.872,2.273-.005.002-.009.005-.014.007l-4.518,2.161c-.653.312-.653,1.432,0,1.745l4.518,2.161s.009.005.014.007c.862.41,1.534,1.227,1.872,2.273.002.006.004.011.006.017l1.78,5.485c.257.792,1.18.792,1.437,0l1.78-5.485c.002-.006.004-.011.006-.017.338-1.046,1.011-1.863,1.872-2.273.005-.002.009-.004.014-.007l4.518-2.161Z"/>
  <g>
    <path class="st11" d="M278.01,254.482c12.541,1.611,20.248-.178,28.069-2.251,8.703-2.306,18.105-6.088,26.261-10.461.539-.289,1.069.394.649.839-1.873,1.979-4.098,4.658-4.824,6.864-2.987,9.078,4.618,15.476,16.181,15.223,24.049-.525,40.937-16.752,44.724-17.913,2.515-.772,6.241,9.823,23.778,6.912,10.603-1.761,20.976-5.533,29.302-12.405-13.965-9.595-28.244-19.151-39.717-31.792-24.464-26.953-26.845-56.291-44.891-84.256-36.637-56.776-112.31-33.09-167.415-56.15-13.532-5.663-28.12-13.104-40.731-19.831-8.485-4.526-30.831-22.133-39.497-12.088-7.481,8.672,5.021,32.868,10.569,41.018,10.132,14.884,29.88,29.157,46.16,36.812,16.457,7.739,34.931,11.99,45.732,14.004.695.129.552,1.16-.152,1.108-6.744-.504-13.595-1.482-20.051-2.917-13.493-2.999-23.303-7.776-36.09-11.091-11.068-2.869-24.457-4.705-23.9,10.97.746,20.949,29,38.436,46.782,44.629,28.584,9.955,57.761,7.633,84.748,3.151.662-.11.944.815.33,1.085-4.579,2.012-14.312,5.276-31.524,6.765-10.821.937-34.912-1.183-40.144,5.472-5.713,7.267-2.847,18.564,3.943,23.796,21.296,16.404,54.345,12.175,79.042,7.49,4.698-.891,10.109-3.126,13.232-4.467.549-.236.988.49.534.88-5.837,5.006-13.768,8.204-25.935,10.417-12.455,2.265-11.177,7.45-10.271,11.06,1.658,6.61,12.568,15.514,25.109,17.127h-.003Z"/>
    <path class="st11" d="M905.201,237.355c.905-3.609,2.184-8.796-10.271-11.06-12.169-2.212-20.099-5.41-25.935-10.417-.453-.389-.015-1.116.534-.88,3.124,1.341,8.603,3.265,13.232,4.467,17.419,4.522,57.746,8.914,79.042-7.49,6.791-5.231,9.656-16.527,3.943-23.796-5.232-6.655-29.323-4.535-40.144-5.472-17.213-1.489-26.946-4.753-31.525-6.765-.614-.269-.331-1.194.33-1.084,26.987,4.482,56.165,6.804,84.748-3.151,17.782-6.193,46.037-23.68,46.782-44.629.557-15.676-12.831-13.839-23.9-10.97-12.787,3.315-22.427,8.206-35.92,11.205-6.285,1.397-13.02,2.311-19.641,2.792-.766.056-.919-1.061-.164-1.203,10.871-2.056,28.991-6.293,45.164-13.898,16.279-7.655,36.027-21.928,46.16-36.812,5.548-8.149,18.051-32.346,10.569-41.018-8.667-10.046-31.012,7.563-39.497,12.088-12.611,6.727-27.2,14.168-40.731,19.831-55.105,23.06-130.779-.627-167.415,56.15-18.046,27.966-20.428,57.303-44.891,84.256-11.473,12.64-25.752,22.196-39.717,31.791,8.326,6.873,18.699,10.644,29.302,12.405,17.536,2.912,20.571-6.899,23.778-6.912,3.96-.016,20.675,17.388,44.724,17.913,11.564.253,19.169-6.146,16.181-15.223-.727-2.208-2.954-4.887-4.826-6.866-.42-.444.109-1.127.648-.838,8.157,4.373,17.56,8.156,26.264,10.462,7.821,2.073,15.528,3.862,28.069,2.251,12.541-1.611,23.45-10.517,25.109-17.127l-.003-.002Z"/>
    <path class="st0" d="M660.909,13.483c5.743,0,11.48.567,17.148,1.71,17.114,3.451,32.804,11.886,45.376,24.395,12.619,12.556,21.127,28.268,24.603,45.438,3.742,18.481,1.377,37.886-6.84,56.119-17.34,38.473-52.669,62.074-86.833,84.896-22.908,15.302-46.594,31.126-64.392,51.187-2.529,2.85-6.163,4.485-9.972,4.485s-7.442-1.634-9.971-4.484c-17.798-20.063-41.485-35.886-64.393-51.188-34.166-22.824-69.494-46.423-86.833-84.896-8.217-18.232-10.582-37.637-6.841-56.118,3.477-17.17,11.984-32.882,24.604-45.438,12.572-12.509,28.263-20.944,45.377-24.395,5.669-1.143,11.403-1.71,17.148-1.71,12.834,0,25.708,2.834,37.938,8.42,15.431,7.049,27.743,17.278,37.636,31.269,1.847,2.611,3.616,5.358,5.337,8.284,1.718-2.926,3.489-5.672,5.337-8.283,9.893-13.991,22.205-24.22,37.636-31.269,12.231-5.587,25.102-8.421,37.937-8.421M660.909,4.046c-14.301,0-28.385,3.121-41.858,9.274-15.779,7.208-28.589,17.428-39.051,31.174-10.461-13.746-23.271-23.966-39.051-31.174-13.472-6.153-27.555-9.273-41.858-9.274-6.373,0-12.77.638-19.012,1.896-18.934,3.818-36.281,13.139-50.168,26.956-13.945,13.875-23.349,31.253-27.198,50.255-4.137,20.431-1.547,41.824,7.486,61.869,18.451,40.938,54.921,65.302,90.191,88.864,22.413,14.972,45.585,30.451,62.578,49.606,4.319,4.867,10.526,7.658,17.031,7.658s12.713-2.791,17.032-7.66c16.992-19.154,40.165-34.633,62.574-49.602,35.272-23.561,71.743-47.925,90.195-88.866,9.035-20.046,11.623-41.44,7.486-61.87-3.847-19.001-13.251-36.379-27.196-50.255-13.887-13.817-31.234-23.138-50.167-26.956-6.242-1.258-12.64-1.897-19.013-1.897h0v.002Z"/>
    <g>
      <path class="st0" d="M452.962,243.623c-3.114,4.154-22.856,17.398-37.242,18.904-5.5.576-15.276,1.405-23.224-2.403-2.692-1.29-4.305-1.076-6.382.584-6.456,5.159-25.666,11.949-33.974,12.749-14.194,1.366-26.679,1.233-33.605-12.878-1.125-2.292-2.617-2.731-4.277-1.975-23.351,10.651-65.312,6.195-71.411-23.329-.276-1.336-1.468-2.27-2.83-2.192-24.488,1.41-65.592-11.186-61.047-41.409.324-2.153.791-4.48,1.622-6.702.563-1.505-.245-3.177-1.795-3.605-11.489-3.174-23.267-7.915-32.676-15.083-15.573-11.865-37.917-38.621-17.209-56.45,1.139-.98,3.016-2.041,4.577-2.843,1.123-.576,1.185-2.144.114-2.812-20.309-12.689-39.511-40.933-34.929-65.313,1.846-9.82,8.247-14.892,18.19-14.674,13.511.296,43.512,20.422,57.396,27.028,9.999,4.758,22.059,10.066,32.698,13,70.132,19.339,133.087-7.422,169.817,76.557,15.5,35.441,20.852,56.554,52.995,82.114,4.969,3.951,10.706,8.364,18.772,12.935,3.725,2.111,7.534,3.642,4.42,7.797h0ZM278.01,254.482c12.541,1.611,20.248-.178,28.069-2.251,8.703-2.306,18.105-6.088,26.261-10.461.539-.289,1.069.394.649.839-1.873,1.979-4.098,4.658-4.824,6.864-2.987,9.078,4.618,15.476,16.181,15.223,24.049-.525,40.937-16.752,44.724-17.913,2.515-.772,6.241,9.823,23.778,6.912,10.603-1.761,20.976-5.533,29.302-12.405-13.965-9.595-28.244-19.151-39.717-31.792-24.464-26.953-26.845-56.291-44.891-84.256-36.637-56.776-112.31-33.09-167.415-56.15-13.532-5.663-28.12-13.104-40.731-19.831-8.485-4.526-30.831-22.133-39.497-12.088-7.481,8.672,5.021,32.868,10.569,41.018,10.132,14.884,29.88,29.157,46.16,36.812,16.457,7.739,34.931,11.99,45.732,14.004.695.129.552,1.16-.152,1.108-6.744-.504-13.595-1.482-20.051-2.917-13.493-2.999-23.303-7.776-36.09-11.091-11.068-2.869-24.457-4.705-23.9,10.97.746,20.949,29,38.436,46.782,44.629,28.584,9.955,57.761,7.633,84.748,3.151.662-.11.944.815.33,1.085-4.579,2.012-14.312,5.276-31.524,6.765-10.821.937-34.912-1.183-40.144,5.472-5.713,7.267-2.847,18.564,3.943,23.796,21.296,16.404,54.345,12.175,79.042,7.49,4.698-.891,10.109-3.126,13.232-4.467.549-.236.988.49.534.88-5.837,5.006-13.768,8.204-25.935,10.417-12.455,2.265-11.177,7.45-10.271,11.06,1.658,6.61,12.568,15.514,25.109,17.127h-.003Z"/>
      <path class="st0" d="M391.182,233.004c-1.991-.785-34.009,3.649-37.173-20.569-.235-1.799-1.786-3.133-3.598-3.072h-.036c-9.33.297-22.884-1.182-32.552-7.977-12.78-8.983-18.505-23.419-3.748-32.764.996-.631.514-2.185-.664-2.159-4.293.093-10.573.83-16.698-.841-29.129-7.944-30.808-30.115-26.638-41.821.151-.425.559-.692,1.01-.708,2.473-.085,4.889-.73,8.168-2.326.429-.209.28-.8-.276-.767-2.003.118-5.278.049-9.499-.958-4.921-1.174-9.139-3.059-11.149-4.019-.472-.226-.692.263-.449.61,1.006,1.437,4.11,5.265,8.184,6.676.413.143.549.671.243.984-10.562,10.819-8.107,41.764,32.889,49.532-4.471,21.608,10.413,44.881,44.438,42.811,8.693,27.071,36.359,24.461,46.462,21.266,2.875-.91,3.166-3.079,1.086-3.898h0Z"/>
    </g>
    <g>
      <path class="st0" d="M709.56,235.827c8.067-4.571,13.804-8.984,18.772-12.935,32.143-25.559,37.493-46.673,52.995-82.114,36.73-83.98,99.686-57.217,169.817-76.557,10.639-2.934,22.7-8.242,32.698-13,13.884-6.607,43.885-26.732,57.396-27.028,9.943-.218,17.78,4.294,19.626,14.114,4.681,24.903-16.953,54.421-37.67,66.666-.526.311-.503,1.073.047,1.338,1.65.794,4.444,2.23,5.948,3.524,20.708,17.828-1.635,44.585-17.209,56.45-9.65,7.352-21.793,12.151-33.558,15.324-1.118.301-1.674,1.508-1.226,2.575,1.032,2.453,1.573,5.08,1.936,7.49,4.588,30.507-37.337,43.054-61.734,41.365-.966-.067-1.834.605-2.01,1.555-5.591,30.135-48.015,34.741-71.544,24.009-1.658-.757-3.151-.317-4.277,1.975-6.927,14.111-19.412,14.243-33.605,12.878-8.308-.8-27.519-7.589-33.974-12.749-2.076-1.659-3.689-1.874-6.381-.584-7.948,3.808-17.724,2.979-23.224,2.403-14.387-1.506-34.129-14.751-37.242-18.904-3.114-4.154.694-5.685,4.42-7.797v.002ZM905.201,237.355c.905-3.609,2.184-8.796-10.271-11.06-12.169-2.212-20.099-5.41-25.935-10.417-.453-.389-.015-1.116.534-.88,3.124,1.341,8.603,3.265,13.232,4.467,17.419,4.522,57.746,8.914,79.042-7.49,6.791-5.231,9.656-16.527,3.943-23.796-5.232-6.655-29.323-4.535-40.144-5.472-17.213-1.489-26.946-4.753-31.525-6.765-.614-.269-.331-1.194.33-1.084,26.987,4.482,56.165,6.804,84.748-3.151,17.782-6.193,46.037-23.68,46.782-44.629.557-15.676-12.831-13.839-23.9-10.97-12.787,3.315-22.427,8.206-35.92,11.205-6.285,1.397-13.02,2.311-19.641,2.792-.766.056-.919-1.061-.164-1.203,10.871-2.056,28.991-6.293,45.164-13.898,16.279-7.655,36.027-21.928,46.16-36.812,5.548-8.149,18.051-32.346,10.569-41.018-8.667-10.046-31.012,7.563-39.497,12.088-12.611,6.727-27.2,14.168-40.731,19.831-55.105,23.06-130.779-.627-167.415,56.15-18.046,27.966-20.428,57.303-44.891,84.256-11.473,12.64-25.752,22.196-39.717,31.791,8.326,6.873,18.699,10.644,29.302,12.405,17.536,2.912,20.571-6.899,23.778-6.912,3.96-.016,20.675,17.388,44.724,17.913,11.564.253,19.169-6.146,16.181-15.223-.727-2.208-2.954-4.887-4.826-6.866-.42-.444.109-1.127.648-.838,8.157,4.373,17.56,8.156,26.264,10.462,7.821,2.073,15.528,3.862,28.069,2.251,12.541-1.611,23.45-10.517,25.109-17.127l-.003-.002Z"/>
      <path class="st0" d="M766.92,233.004c1.991-.785,34.009,3.649,37.173-20.569.235-1.799,1.786-3.133,3.598-3.072h.036c9.33.297,22.884-1.182,32.552-7.977,12.78-8.983,18.505-23.419,3.748-32.764-.996-.631-.514-2.185.664-2.159,4.293.093,10.573.83,16.698-.841,29.129-7.944,30.808-30.115,26.638-41.821-.151-.425-.56-.692-1.01-.708-2.473-.085-4.889-.73-8.168-2.326-.429-.209-.28-.8.276-.767,2.003.118,5.278.049,9.499-.958,4.921-1.174,9.139-3.059,11.149-4.019.472-.226.692.263.449.61-1.006,1.437-4.11,5.265-8.184,6.676-.413.143-.549.671-.243.984,10.562,10.819,8.107,41.764-32.889,49.532,4.471,21.608-10.413,44.881-44.438,42.811-8.693,27.071-36.359,24.461-46.462,21.266-2.875-.91-3.166-3.079-1.086-3.898h0Z"/>
    </g>
    <g>
      <path class="st0" d="M371.587,57.209c1.372-.657,1.372-3.015,0-3.67l-8.942-3.549c-.01-.005-.02-.009-.03-.014-1.813-.864-3.228-2.582-3.938-4.782-.004-.012-.008-.024-.012-.036l-3.744-12.537c-.54-1.666-2.482-1.666-3.023,0l-3.744,12.537c-.004.012-.008.024-.012.036-.711,2.2-2.127,3.919-3.938,4.782-.01.005-.02.01-.03.014l-8.942,3.549c-1.372.657-1.372,3.015,0,3.67l8.942,3.549c.01.005.02.01.03.014,1.813.864,3.228,2.582,3.938,4.782l.012.036,3.744,12.537c.54,1.666,2.482,1.666,3.023,0l3.744-12.537.012-.036c.711-2.201,2.127-3.919,3.938-4.782.01-.005.02-.009.03-.014l8.942-3.549Z"/>
      <path class="st0" d="M330.784,36.261c.7-.334.7-1.537,0-1.872l-4.846-2.318c-.005-.002-.01-.005-.015-.007-.924-.44-1.646-1.317-2.009-2.439-.002-.006-.004-.012-.006-.019l-1.91-5.885c-.275-.85-1.266-.85-1.541,0l-1.91,5.885c-.002.006-.004.012-.006.019-.362,1.122-1.084,1.999-2.009,2.438-.005.002-.01.005-.015.007l-4.846,2.318c-.7.334-.7,1.537,0,1.872l4.846,2.318c.005.002.01.005.015.007.924.44,1.645,1.317,2.009,2.439.002.006.004.012.006.018l1.91,5.885c.275.85,1.266.85,1.541,0l1.91-5.885c.002-.006.004-.012.006-.018.362-1.122,1.084-1.999,2.009-2.439.005-.002.01-.005.015-.007l4.846-2.318h0Z"/>
    </g>
    <g>
      <path class="st0" d="M822.566,60.377c1.432-.685,1.431-3.145,0-3.83l-9.42-3.703c-.01-.005-.021-.01-.031-.015-1.891-.901-3.368-2.694-4.11-4.99-.004-.013-.008-.025-.012-.038l-3.906-13.081c-.565-1.739-2.59-1.739-3.155,0l-3.906,13.081c-.004.013-.008.025-.012.038-.742,2.296-2.219,4.09-4.11,4.99-.01.005-.021.01-.031.015l-9.42,3.703c-1.432.685-1.432,3.145,0,3.83l9.42,3.703c.01.005.021.01.031.015,1.891.901,3.368,2.694,4.11,4.99.004.013.008.025.012.038l3.906,13.081c.565,1.739,2.59,1.739,3.155,0l3.906-13.081c.004-.013.008-.025.012-.038.742-2.296,2.219-4.09,4.11-4.99.01-.005.021-.01.031-.015,0,0,9.42-3.703,9.42-3.703Z"/>
      <path class="st0" d="M843.105,36.614c.653-.312.653-1.432,0-1.745l-4.518-2.161s-.009-.004-.014-.007c-.862-.41-1.534-1.227-1.872-2.273-.002-.006-.004-.012-.006-.017l-1.78-5.485c-.257-.792-1.18-.792-1.437,0l-1.78,5.485c-.002.006-.004.012-.006.017-.338,1.046-1.011,1.863-1.872,2.273-.005.002-.009.005-.014.007l-4.518,2.161c-.653.312-.653,1.432,0,1.745l4.518,2.161s.009.005.014.007c.862.41,1.534,1.227,1.872,2.273.002.006.004.011.006.017l1.78,5.485c.257.792,1.18.792,1.437,0l1.78-5.485c.002-.006.004-.011.006-.017.338-1.046,1.011-1.863,1.872-2.273.005-.002.009-.004.014-.007l4.518-2.161Z"/>
    </g>
    <path class="st12" d="M628.266,33.494c-14.377,6.568-24.559,15.768-32.527,27.035l.008-.1c-3.579,4.911-6.482,10.119-9.087,15.488-2.375,4.896-4.503,9.926-6.66,14.99-2.156-5.063-4.284-10.092-6.658-14.987-2.605-5.37-5.508-10.579-9.088-15.491l.008.1c-7.968-11.268-18.15-20.468-32.527-27.035-64.349-29.393-131.516,35.413-101.316,102.418,27.034,59.983,103.534,81.454,149.14,132.863.236.266.647.266.883,0,45.607-51.409,122.106-72.881,149.14-132.863,30.199-67.005-36.968-131.811-101.316-102.418h0ZM448.349,115.25c-5.582-4.319-3.922-10.512,2.016-13.331,3.397-1.612,9.308-1.053,11.705,1.852,5.376,6.513-5.857,17.563-13.721,11.479ZM492.977,65.415c-8.52,1.71-18.062,9.651-22.044,18.612-3.356,7.551-19.206,6.234-17.955-6.289,1.251-12.524,10.103-22.943,21.284-27.018,28.711-10.466,30.371,12.356,18.714,14.696Z"/>
  </g>
  <g>
    <path class="st0" d="M169.363,233.803c-4.327,11.072,7.433,19.888,19.132,21.483,1.054.144,1.177,1.591.161,1.908-8.382,2.609-19.406-1.475-23.624-6.279-5.377-6.123-3.613-15.076,3.011-18.359.793-.393,1.643.423,1.321,1.247h0Z"/>
    <path class="st0" d="M132.102,198.599c-2.919.171-5.495,1.583-7.264,4.966-11.755-8.863-23.042,5.542-13.163,15.664,4.557,4.669,12.086,4.864,21.276,9.293-.165-7.865,6.797-10.948,8.154-19.04,1.076-6.416-3.538-11.201-9.003-10.881h0ZM117.183,207.434c-1.186.303-2.281,1.231-2.779,2.544-.419,1.107-2.922,1.034-2.832-.772.09-1.806,1.307-3.263,2.805-4.022,3.995-2.027,4.428,1.836,2.805,2.251h.001Z"/>
  </g>
  <g>
    <path class="st0" d="M1007.461,269.001c-.192,1.049-1.606,1.276-2.073.317-1.562-3.206-3.342-5.799-7.737-7.156-6.582-2.032-12.107-.83-18.453,1.92-.915.396-1.868-.527-1.465-1.439,4.18-9.469,17.773-10.532,24.322-6.291,5.194,3.364,6.282,7.86,5.406,12.65h0Z"/>
    <path class="st0" d="M1035.479,201.268c-1.638-3.333-4.865-5.057-8.453-5.145-6.547-.161-11.386,5.048-10.525,11.206,1.384,9.905,10.535,11.822,13.111,21.001,11.637-4.238,17.308-6.515,21.944-13.51,8.271-12.481-6.448-23.352-16.076-13.551h0ZM1026.868,203.13c-1.371.351-2.639,1.424-3.216,2.943-.485,1.28-3.38,1.196-3.276-.893s1.511-3.774,3.246-4.653c4.622-2.344,5.122,2.123,3.246,2.603Z"/>
  </g>
  <path class="st0" d="M1087.428,495.086s11.644-4.626,54.531-63.758c14.161-19.526,28.317-71.599-1.65-87.99-14.052-7.686-30.499-.079-33.942,8.776-3.477,8.941,7.617,13.577,12.073,7.236,1.811-2.576,4.072-4.181,7.63-5.166,16.723-4.636,24.176,17.722,20.32,42.913-3.483,22.752-22.973,48.679-14.695,27.154l-44.265,70.836h0Z"/>
  <path class="st0" d="M1118.565,334.619c1.139.271,1.957-1.047,1.189-1.932-3.012-3.471-9.835-7.617-14.76-4.636-6.295,3.809-1.63,10.394,2.114,8.508,3.12-1.57,6.126-3.213,11.458-1.941h-.001Z"/>
  <g>
    <path class="st0" d="M636.069,710.481c-5.31-12.657-16.835-20.116-30.821-19.862-12.385.194-19.253,6.171-22.834,11.152-1.154,1.605-2.102,3.283-2.863,4.986-.762-1.703-1.708-3.382-2.863-4.986-3.581-4.98-10.449-10.957-22.834-11.152-13.985-.255-25.51,7.204-30.821,19.862-5.698,13.586-2.535,29.61,7.87,39.875,7.776,7.67,14.359,12.546,20.167,16.849,8.818,6.531,16.432,12.172,25.645,25.609.051.074.788,1.258,1.497,2.399.617.991,2.058.991,2.674,0,.71-1.141,1.446-2.325,1.497-2.399,9.213-13.438,16.828-19.077,25.645-25.609,5.808-4.302,12.392-9.179,20.167-16.849,10.405-10.265,13.568-26.29,7.87-39.875h.002ZM623.37,745.462c-6.774,7.938-13.53,11.848-19.431,16.219-8.406,6.226-15.779,11.192-24.388,22.775-8.609-11.583-15.981-16.549-24.388-22.775-5.9-4.371-12.608-8.322-19.431-16.219-6.964-8.06-11.261-21.423-6.359-32.321,5.024-11.172,13.127-15.315,24.372-15.151,7.541.118,13.544,2.489,17.359,7.796,4.161,5.786,4.885,13.373,3.451,17.877-1.817,5.707-5.275,9.956-9.248,11.366-2.332.829-4.618.573-6.616-.736,2.971-2.632,3.536-4.161,3.687-6.5.185-2.869-1.718-6.301-5.586-7.018-4.309-.798-7.921,1.63-8.687,6.645-.759,4.968,2.699,9.922,6.815,12.621,3.808,2.497,8.316,3.019,12.685,1.467,4.994-1.773,9.212-5.971,11.943-11.77,2.732,5.8,6.95,9.998,11.943,11.77,4.369,1.551,8.877,1.031,12.685-1.467,4.115-2.699,7.574-7.653,6.815-12.621-.766-5.014-4.378-7.442-8.687-6.645-3.867.716-5.641,4.665-5.586,7.018.056,2.395.717,3.867,3.687,6.5-1.998,1.309-4.284,1.564-6.616.736-3.973-1.41-7.431-5.659-9.248-11.366-1.434-4.505-.71-12.092,3.451-17.877,3.815-5.307,9.818-7.678,17.359-7.796,11.246-.164,20.127,5.03,24.372,15.151,4.622,11.02,1.366,23.267-6.359,32.321h.002Z"/>
    <path class="st0" d="M578.326,752.24c-1.027,1.963-2.872,4.342-6.138,5.934-.915.446-1.054,1.57-.221,2.129,3.108,2.084,5.118,6.836,6.283,10.594.395,1.276,2.206,1.276,2.601,0,1.165-3.759,3.177-8.51,6.283-10.594.833-.558.693-1.682-.221-2.129-3.266-1.592-5.111-3.971-6.138-5.934-.522-.999-1.928-.999-2.45,0h0Z"/>
    <path class="st0" d="M580.777,693.61c1.027-1.963,2.872-4.342,6.138-5.934.915-.446,1.054-1.57.221-2.129-3.108-2.084-5.118-6.836-6.283-10.594-.395-1.276-2.206-1.276-2.601,0-1.165,3.759-3.177,8.51-6.283,10.594-.833.558-.693,1.682.221,2.129,3.266,1.592,5.111,3.971,6.138,5.934.522.999,1.928.999,2.45,0h0Z"/>
  </g>
  <path class="st0" d="M1096.027,517.863c-12.54-2.31-27.948,2.444-34.113,18.277-3.103,7.968-1.856,17.453,3.101,23.605,3.907,4.85,9.618,6.955,16.08,5.932,6.387-1.011,9.75-6.193,9.204-10.415-.355-2.745-2.664-5.762-7.991-5.226-1.443.145-2.821.789-4.154,1.41-2.655,1.239-4.365,1.905-6.008.084-.584-.645-.904-1.55-1.142-2.352-1.74-5.881-.241-11.684,4.218-16.338,5.55-5.791,14.653-8.531,22.139-6.659,4.693,1.172,10.854,4.59,13.565,14.217,3.56,12.649-.239,26.709-10.989,40.661-11.843,15.37-27.67,25.377-33.924,28.966-10.71,6.146-32.955,16.046-46.592,18.672,6.318-6.603,25.678-29.147,21.817-53.555-1.87-11.818-10.126-21.157-22.086-24.98-12.233-3.91-25.6-1.115-34.548,7.099v-6.774c0-4.176-4.027-12.439-7.034-15.559-7.866-8.167-19.625-9.873-29.952-4.344-9.783,5.236-14.628,15.339-12.345,25.74.979,4.459,4.192,8.645,8.386,10.922,3.597,1.955,7.511,2.305,11.018.989,2.97-1.117,5.265-3.897,5.336-6.467.054-1.912-1.104-3.489-3.26-4.442-2.228-.984-4.317-.397-6.157.12-2.756.777-4.579,1.29-6.261-3-2.875-7.331,1.464-13.851,7.039-17.061,6.137-3.53,14.95-3.793,20.803,3.584,4.287,5.405,6.013,12.68,4.859,20.487-1.356,9.181-6.564,17.914-13.591,22.791-1.103.767-2.267,1.556-3.522,2.039-6.86,2.636-5.763,4.82-2.749,5.21,7.7.994,16.028-8.132,21.587-16.4,1.833-2.725,3.564-5.3,5.476-7.528,10.631-12.4,23.8-15.553,36.129-8.655,20.2,11.305,11.421,35.995,8.249,43.292-5.611,12.906-15.529,24.91-27.435,33.288l4.563-9.113c1.927-4.174,4.047-11.009,4.217-17.674.195-7.654-2.247-13.068-7.059-15.657-2.403-1.292-6.343-2.374-9.542-1.161-1.782.676-3.08,2.003-3.754,3.839-1.14,3.103.38,4.622,1.851,6.09.632.632,1.285,1.283,1.817,2.109,5.245,8.149,3.342,19.768.12,27.242-10.655,24.713-49.142,48.133-76.434,52.56-22.37,3.631-37.785-1.066-57.306-7.009-1.688-.514-3.411-1.038-5.174-1.568-39.705-11.944-80.892-1.137-101.908,6.368-25.58,9.135-50.818,25.058-77.076,48.633l5.582-14.121c2.87-9.987,2.425-16.613-1.362-20.259-1.39-1.336-3.908-2.667-6.301-2.545-1.426.056-2.642.607-3.518,1.592-1.978,2.229-1.104,4.144-.333,5.833.261.571.529,1.16.7,1.765,3.174,11.299.187,30.219-18.673,46.362-4.763,4.078-10.258,7.591-15.57,10.989-5.056,3.235-10.285,6.578-14.752,10.344-.058.049-5.819,4.994-5.304,7.638.124.636.576,1.111,1.29,1.344.763.227,1.383-.022,1.882-.223l.171-.069c2.505-.983,6.205-3.58,9.783-6.091,1.994-1.4,3.876-2.721,5.336-3.602,17.989-10.856,37.348-21.459,58.835-21.506h.091c3.937,0,16.748.553,22.947,7.394,2.493,2.752,3.55,6.21,3.139,10.277-.196,1.94-.655,3.156-1.401,3.719-.91.688-2.335.433-3.988.14-1.666-.296-3.553-.634-5.376-.035-2.519.825-3.98,2.946-3.812,5.536.179,2.777,2.342,5.963,6.125,6.679,1.212.23,2.336.332,3.379.332,4.914,0,8.003-2.288,9.816-4.424,4.082-4.809,5.103-13.172,2.484-20.339-3.009-8.231-13.165-21.171-47.427-15.312l-9.592,2.554c24.994-17.642,45.826-27.687,67.148-32.426,6.281-1.395,22.506-4.35,37.452-1.618,14.56,2.66,23.581,9.797,26.815,21.214,2.334,8.241.802,16.423-4.208,22.446-4.843,5.825-12.304,8.733-20.489,7.972-6.489-.602-13.483-5.354-13.867-12.063.729-.125,1.46-.203,2.173-.278,1.995-.212,4.058-.43,6.06-1.697,4.215-2.666,4.84-6.587,4.019-9.367-1.062-3.601-4.573-5.997-8.62-5.953-4.741.047-8.587,2.102-10.831,5.787-2.744,4.508-2.741,10.939.007,16.382,5.251,10.398,16.094,15.947,28.289,14.472,13.043-1.573,23.29-10.451,26.105-22.618,4.785-20.666-6.797-37.978-28.82-43.08-27.041-6.268-53.79,1.702-71.468,9.488-1.268.558-2.532,1.156-3.781,1.765,26.308-18.01,54.854-29.957,83.034-34.69,11.274-1.894,68.167-9.719,81.178,22.277,3.184,7.828,2.424,17.17-1.935,23.799-3.475,5.286-8.909,8.271-15.299,8.407-3.124.085-7.766-1.319-8.801-4.092.286-.275,1.278-.566,1.843-.733.734-.215,1.492-.438,2.034-.787,3.515-2.263,5.316-6.383,4.38-10.016-.78-3.031-3.269-4.909-6.827-5.152-4.122-.283-7.8,1.601-10.086,5.171-2.671,4.175-2.866,9.669-.498,13.999,5.439,9.945,18.378,11.449,27.788,7.815,8.392-3.242,14.303-9.95,16.644-18.89,2.81-10.729.266-23.23-6.481-32.428,28.49,7.033,58.181,3.458,81.778-9.902,5.988-3.391,11.7-7.633,17.223-11.734,13.28-9.864,27.032-20.056,45.344-18.787,6.595.458,21.096,4.524,21.233,13.615.013.782-.222,1.751-.469,2.775-.644,2.661-1.443,5.973,2.141,7.411,3.22,1.293,5.373.248,6.614-.856,3.13-2.782,4.029-9.1,2.904-13.255-2.223-8.212-8.919-13.597-19.903-16.004-9.191-2.015-18.865-1.347-24.325-.672,8.244-3.517,16.83-6.403,25.165-9.202,10.221-3.434,20.791-6.985,30.75-11.705,14.181-6.72,60.428-31.829,60.151-72.766-.129-18.957-13.643-28.166-25.176-30.293v.005Z"/>
  <path class="st0" d="M537.469,770.113c-4.466-3.765-9.694-7.109-14.75-10.343-5.314-3.399-10.807-6.912-15.571-10.989-11.787-10.089-23.751-28.285-18.673-46.362.17-.605.439-1.194.699-1.765.772-1.689,1.644-3.604-.333-5.833-.875-.986-2.091-1.535-3.517-1.592-2.421-.109-4.912,1.21-6.301,2.545-3.787,3.645-4.233,10.271-1.341,20.323l5.559,14.056c-26.257-23.575-51.494-39.497-77.074-48.632-41.909-14.966-76.219-17.1-101.975-6.343-9.567,3.995-16.833,9.829-21.594,17.34-4.179,6.594-6.129,14.095-5.641,21.697.825,12.817,8.623,23.41,19.406,26.36,9.856,2.696,22.312,2.054,27.721-7.836,2.368-4.33,2.173-9.824-.499-13.999-2.285-3.569-5.96-5.453-10.085-5.171-3.559.243-6.047,2.122-6.828,5.152-.935,3.634.867,7.753,4.381,10.016.541.348,1.3.571,2.033.787.564.166,1.556.457,1.843.733-1.034,2.771-5.7,4.18-8.801,4.092-6.391-.136-11.824-3.121-15.299-8.407-4.359-6.628-5.118-15.97-1.935-23.799,13.012-31.997,69.905-24.171,81.179-22.277,28.178,4.733,56.725,16.68,83.034,34.69-1.249-.608-2.514-1.206-3.781-1.765-17.68-7.787-44.43-15.752-71.468-9.488-22.022,5.102-33.604,22.413-28.821,43.08,2.816,12.167,13.064,21.045,26.107,22.618,12.2,1.472,23.039-4.074,28.289-14.472,2.748-5.444,2.75-11.874.006-16.382-2.244-3.685-6.09-5.74-10.831-5.787-4.081-.006-7.558,2.353-8.62,5.953-.821,2.78-.195,6.701,4.019,9.367,2.004,1.267,4.067,1.485,6.061,1.697.712.076,1.443.153,2.173.278-.384,6.71-7.377,11.462-13.867,12.063-8.179.763-15.647-2.147-20.49-7.972-5.008-6.024-6.542-14.205-4.207-22.446,3.234-11.417,12.256-18.554,26.816-21.214,14.945-2.733,31.17.222,37.452,1.618,21.323,4.739,42.154,14.783,67.149,32.428l-9.656-2.57c-14.683-2.506-40.358-3.851-47.366,15.325-2.618,7.165-1.596,15.528,2.485,20.339,1.813,2.136,4.901,4.424,9.817,4.424,1.043,0,2.167-.103,3.379-.332,3.784-.715,5.945-3.901,6.125-6.679.168-2.59-1.293-4.711-3.813-5.536-1.821-.597-3.709-.261-5.376.035-1.652.294-3.079.547-3.987-.14-.747-.563-1.204-1.781-1.401-3.719-.411-4.067.645-7.525,3.139-10.277,6.198-6.842,19.009-7.394,22.946-7.394h.092c21.487.047,40.846,10.649,58.835,21.506,1.459.881,3.343,2.202,5.337,3.602,3.578,2.512,7.277,5.108,9.784,6.092l.17.068c.498.201,1.119.451,1.898.217.698-.227,1.151-.703,1.274-1.338.515-2.643-5.246-7.589-5.305-7.638v-.002Z"/>
  <path class="st0" d="M222.568,542.998c-6.384-4.336-13.865-5.29-21.066-2.687-7.858,2.84-13.965,9.452-16.339,17.686-1.55,5.381-1.628,10.927-.477,16.169-.837-.586-1.686-1.124-2.536-1.593-10.502-5.81-22.983-6.155-35.143-.971-6.193,2.64-11.766,6.541-16.348,11.255-2.146,2.207-4.762,3.913-7.61,5.082-4.957,2.034-9.296,2.527-14.676.95-7.045-2.064-14.328-8.352-17.317-14.951-1.97-4.349-2.073-8.664-.299-12.479.804-1.728,3.08-4.701,5.943-3.589,1.153.448,1.344,1.278,1.562,2.593.202,1.222.454,2.744,2.2,3.445,1.675.675,3.425.519,5.058-.445,2.237-1.319,4.031-4.132,4.366-6.839.372-3.022-.612-5.562-2.845-7.347-3.751-2.996-9.995-3.097-13.965-1.666-4.477,1.61-7.893,4.767-9.878,9.131-2.502,5.503-2.538,12.528-.095,18.79,4.459,11.432,18.302,20.753,30.859,20.78.646,0,1.289-.066,1.906-.131.342-.036.676-.071,1.004-.094-1.357,1.516-3.41,2.824-5.476,4.022-6.04,3.506-12.644,10.32-11.374,17.984.663,4,3.925,8.708,8.112,9.345.288.015.567.022.838.022,2.747,0,4.565-.776,5.407-2.311,1.216-2.215-.056-5.392-1.515-7.44-5.209-7.312-1.047-10.854,5.253-16.215.593-.504,1.216-1.04,1.85-1.589-.322.933-.62,1.872-.872,2.821-7.866,29.632,14.608,54.49,40.873,63.731,7.827,2.754,14.671,4.109,20.802,4.109,1.153,0,2.281-.047,3.386-.143.3-.026.549-.242.618-.535.194-.838-.298-1.099-.583-1.182-2.008-1.366-4.681-2.457-7.267-3.513-2.052-.838-4.174-1.703-5.922-2.691-10.528-5.944-20.08-19.064-17.967-32.64.564-3.624,2.588-8.385,5.227-10.066,1.309-.836,1.723-.365,2.626.667.517.591,1.104,1.26,1.963,1.631,1.803.78,3.74.698,5.604-.237,2.378-1.194,4.321-3.676,4.947-6.323,1.245-5.259-.222-9.614-4.026-11.951-4.894-3.007-12.431-2.021-17.534,2.289-12.389,10.466-12.605,31.917-5.043,44.632l.307.496c-13.986-9.657-21.601-24.487-20.005-39.34,1.713-15.956,12.874-29.188,28.434-33.711,11.57-3.36,24.839.346,35.494,9.927.051.047,8.425,7.838,13.456,10.204,2.456,1.156,3.76,1.683,5.22,1.839.589.063,3.117-.458,1.05-2.846-.294-.34-2.337-2.061-4.827-3.383-1.149-.61-2.38-1.574-3.03-2.092-11.511-9.159-14.831-26.228-7.104-36.526,3.092-4.122,8.483-7.09,13.735-7.564,2.872-.257,7.019.102,10.462,3.294,2.526,2.341,3.915,6.554,3.378,10.243-.401,2.755-1.828,4.866-4.015,5.945-.823.405-1.874.579-2.985.76-2.509.411-5.632.924-5.661,4.912-.011,1.566.537,2.775,1.63,3.59,2.87,2.14,8.289.64,9.346.318,6.145-1.878,10.021-6.157,10.912-12.054,1.169-7.728-3.047-16.775-10.024-21.513h0Z"/>
  <path class="st0" d="M1111.728,228.184c-9.73-2.942-16.456-2.817-23.841-2.032-.836.089-1.941.198-2.78.345-.069-.288.095-.341.254-.504,1.864-1.912,4.178-3.437,6.084-5.578,14.693-16.496,16.134-42.325-1.605-57.215-11.313-9.495-29.085-11.059-39.208,1.022-10.597,12.647-1.329,32.063,15.437,30.142,4.794-.549,8.674-4.01,6.989-9.143-1.304-3.975-4.003-2.197-6.845-1.697-10.472,1.843-12.63-10.255-4.824-15.81,6.323-4.501,14.651-3.013,20.654,1.255,15.723,11.176,14.119,35.36.784,47.731-13.995,12.984-34.104,13.883-48.323,27.709l.104-.003c-11.627,10.772-15.673,24.136-15.501,37.116.145,3.198,2.794,2.7,3.87-.445,1.805-5.277,4.149-9.139,9.686-11.756,6.822-3.224,13.553-3.434,21.759-2.74,8.389.709,14.838,3.44,16.37-2.436,2.366-9.072-10.769-13.277-20.543-12.684-4.796.291-10.854,2.515-16.164,6.328,5.572-8.08,13.022-13.028,14.207-13.791l.057-.002c6.78-4.045,15.647-7.162,25.074-8.784,2.827-.384,6.03-.744,9.739-1.104,18.147-1.013,36.45,3.972,44.73,18.812,6.944,12.446.391,30.479-15.322,29.35-3.606-.259-10.578-2.966-8.685-7.666,1.886-4.681,9.107-3.208,9.762-8.491.834-6.731-7.465-10.148-12.881-7.304-9.622,5.051-9.872,19.229-2.144,26.086,13.255,11.762,34.064,5.893,39.726-10.813,6.891-20.334-7.86-40.223-26.622-45.896v-.002Z"/>
  <path class="st0" d="M160.064,265.029c-3.402-4.049-15.53-13.813-28.913-21.768-8.936-5.312-13.496-7.488-18.416-9.836-12.127-5.784-24.208-8.911-33.906-17.907-13.336-12.372-14.94-36.556.784-47.731,6.004-4.268,14.33-5.756,20.654-1.255,7.806,5.556,5.648,17.652-4.824,15.81-2.84-.499-5.54-2.278-6.845,1.697-1.684,5.132,2.196,8.593,6.989,9.143,16.767,1.921,26.036-17.495,15.437-30.142-10.123-12.08-27.895-10.517-39.208-1.022-17.74,14.891-16.299,40.718-1.605,57.215,1.907,2.14,4.22,3.666,6.084,5.578.159.163.324.216.254.504-.839-.146-1.945-.256-2.78-.345-7.383-.786-14.11-.91-23.841,2.032-18.763,5.673-33.514,25.562-26.622,45.896,5.662,16.706,26.472,22.576,39.726,10.813,7.727-6.857,7.478-21.033-2.144-26.086-5.417-2.843-13.716.573-12.881,7.304.655,5.284,7.876,3.81,9.762,8.491,1.894,4.7-5.077,7.406-8.685,7.666-15.715,1.129-22.266-16.905-15.322-29.35,8.279-14.84,26.583-19.825,44.73-18.812,4.73.429,9.2.802,14.685,2.236,12.654,3.31,25.994,9.639,30.403,13.467,5.342,4.638,2.478,3.119-1.474,2.513-8.237-1.262-13.908-1.138-19.869,0-7.991,1.526-15.067,5.07-18.503,9.997-3.628,5.201-2.225,11.144,1.407,12.336,5.299,1.739,7.322-2.942,11.859-8.356,3.849-4.595,11.469-8.171,16.516-8.941,7.326-1.118,18.301-1.918,42.806,12.322,3.091,1.796,6.128-.628,3.741-3.469h0Z"/>
  <g>
    <path class="st0" d="M394.252,566.049c-3.023-.366-9.065,7.824-3.973,8.941s28.518.538,37.678.055c8.371-.441,13.66-.994,18.576-2.539,3.484-1.095,6.768-3.907,4.222-6.458-2.56-2.564-14.654-2.732-14.156-1.118s-.372,1.863-2.981,1.863-31.169.248-39.365-.745h0Z"/>
    <path class="st0" d="M498.439,565.925c-7.572-.233-11.622.303-12.666,1.739-1.682,2.311-.248,6.333,1.739,6.333s17.897-.309,26.584-1.011c7.005-.565,12.221-.317,18.007-1.739,3.521-.865,3.9.677,6.333-1.242,2.216-1.747,4.206-4.985,2.297-6.458-2.97-2.291-6.344-1.559-11.983.621-2.345.907-22.238,2.004-30.309,1.756h-.001Z"/>
    <path class="st0" d="M169.205,691.568c4.974,5.216,19.9,10.246,40.268,2.264,31.2-12.229,43.789-50.204,49.341-56.295,0,0,2.865-.538,3.487,3.574,1.046,6.929,15.347,8.762,29.877,5.036,25.414-6.517,36.509-14.239,36.509-14.239,0,0,1.324,9.935,9.603,12.915,24.078,8.669,49.341-15.895,49.341-15.895,0,0,.68,13.841,9.603,16.226,12.542,3.353,35.268-17.716,35.268-17.716,0,0-2.184,15.164,10.762,18.048,12.477,2.779,29.306-16.226,29.306-16.226,0,0-2.153,13.908,9.107,16.226,18.132,3.733,34.749-15.255,34.749-15.255,0,0,.352,13.931,17.572,15.586,21.08,2.027,43.337-17.357,48.844-25.498,3.619-5.35-4.144-8.076-5.961-3.973-3.299,7.447-12.749,13.577-22.021,17.054-14.008,5.253-28.147,1.822-22.849-10.266,0,0,8.598.2,23.843-7.782,19.55-10.237,23.535-33.957,10.597-37.419-12.377-3.312-30.465,5.63-40.731,24.505-10.266,18.875-14.571,24.174-29.141,32.122-14.571,7.948-10.266-10.927-7.617-17.882s26.818-53.791,31.128-59.938c5.05-7.202,3.188-11.177-.663-13.039-4.511-2.183-6.609,2.505-9.935,6.747-5.712,7.285-22.849,42.387-31.128,59.607-8.279,17.22-23.18,25.829-28.81,24.174-5.63-1.655,1.159-22.518,11.094-35.433,9.935-12.915,7.45-17.054,2.153-17.054s-7.605-.398-14.239,13.743c-10.721,22.849-36.758,39.407-41.394,40.069-4.636.663-8.941-.994-1.987-17.551,6.954-16.557,35.433-64.905,37.751-70.204,2.318-5.299-1.366-5.588-4.636-9.272-3.743-4.218-11.921,10.597-13.908,15.233-1.987,4.636-20.531,45.367-37.751,65.236-17.22,19.869-52.187,23.733-44.043,4.967,33.115-5.961,43.732-22.12,43.381-34.44-.331-11.59-13.478-17.791-30.134-7.45-21.808,13.538-25.498,37.585-26.492,39.572s-9.603,10.266-29.472,13.908c0,0,11.203-9.245,17.716-24.174,5.557-12.735,4.801-25.664-5.132-30.631-9.935-4.967-27.485,4.471-27.485,4.471,0,0,.899-6.828-3.146-8.444-5.248-2.097-9.852.952-17.22,14.074-5.513,9.818-14.695,37.697-27.651,59.275-17.81,29.662-36.142,45.034-58.773,37.5-6.163-2.302-11.456-.026-8.98,3.947v-.003ZM550.377,589.223c8.364-6.536,15.138-3.974,10.897,7.126-4.109,10.755-22.985,17.378-27.94,18.503,0,0,2.193-14.025,17.043-25.629ZM364.449,589.147c15.501-8.149,10.307,9.438,3.105,16.143-9.447,8.796-22.301,8.748-22.301,8.748,0,0,3.973-16.889,19.197-24.892h0ZM273.921,635.342c-8.941-1.118-7.326-8.32-6.458-11.921s8.32-20.862,15.647-26.451c8.531-6.507,13.908-9.189,19.372-8.444s10.059,14.778-1.366,29.43c-11.425,14.654-18.255,18.503-27.196,17.385h0Z"/>
    <path class="st0" d="M929.312,623.587c-5.26,6.247-12.846,13.343-23.835,14.913-10.989,1.569-7.916-13.439-3.14-22.369,6.963-13.02,13.607-19.768,13.504-23.711-.084-3.218-8.01-3.368-12.719-2.583s-8.241.392-10.204-2.747c-1.19-1.904,6.317-8.486,6.384-8.633.619-1.383-2.757-4.573-5.897-6.142-3.14-1.569-4.401.233-10.679,2.981-6.279,2.747-1.596,6.529-.402,10.41.702,2.282-1.723,8.361-6.672,17.476-4.948,9.115-16.462,22.891-26.809,28.314-10.347,5.425-9.347-4.783-7.725-10.262,4.851-16.383,9.818-24.579,13.295-30.043,2.747-4.317,5.144-3.705,3.971-8.023-.992-3.649-4.328-3.975-9.811-2.747-4.84,1.084-14.128,23.546-19.622,36.497-5.494,12.95-20.407,18.837-23.939,17.66-3.532-1.177-3.14-7.064-.392-14.913,2.747-7.849,12.95-26.294,16.09-27.471,3.14-1.177,1.546-3.792.785-9.811-.761-6.019-9.026-3.14-10.989,0s-9.587,19.529-14.913,29.433c-6.003,11.166-18.245,18.76-34.143,22.762-9.47,2.383-13.736.392-13.343-11.381,76.625-21.554,22.482-85.962-10.989-7.456,0,0-5.887.785-11.773-1.569,5.733-13.336,5.733-28.362,3.14-32.18-4.945-7.283-22.575-8.568-29.041-1.569-8.769,4.261-20.359,15.851-27.471,36.104.071-.298-5.181,6.776-13.343,11.773,2.747-16.482-5.494-37.282-7.456-39.636-1.963-2.355,1.569-7.064,5.101-10.989,3.532-3.924-.392-7.849-4.709-8.241s-7.456,3.924-11.773,7.456-.392,7.064-.392,9.418-6.961,10.856-12.347,16.131c-12.17,11.921-25.119,20.584-31.79,26.078-3.03,2.495,3.323,5.669,6.463,3.314,3.14-2.355,9.642-6.862,9.642-6.862,0,0-2.111,17.137,13.946,20.437,21.423,4.403,45.873-18.284,45.873-18.284-.713,32.73,36.792,24.379,50.824-6.168,0,0,4.118,1.459,11.966,2.245-2.355,14.521,1.177,35.32,53.372,7.064,3.14,16.875,11.773,20.014,38.459,2.355,5.887,20.799,21.873,9.572,31.474,2.855,14.12-9.878,27.77-35.974,31.316-39.744,3.546-3.77,4.709,1.962,10.989,1.569,0,0-28.396,41.9-5.494,49.055,18.949,5.92,43.301-14.732,47.277-26.686,2.095-6.298-6.74-2.396-12.061,3.924v-.003ZM769.118,588.777c14.765-7.014,10.546,8.211,4.967,13.66-10.679,10.431-24.688,11.788-24.688,11.788,0,0,4.956-18.434,19.721-25.448ZM634.01,635.718c-15.15,2.483-13.163-18.131-13.163-18.131,0,0,15.15-12.915,20.614-22.849,7.948,26.823,6.25,38.734-7.45,40.979h0ZM699.081,593.744s-.661,17.024,13.412,23.843c-14.654,30.797-44.329,22.322-13.412-23.843ZM716.51,610.272c-11.921-7.45-8.361-21.525-8.361-21.525,0,0,6.291-3.063,10.304.03,4.027,3.105,1.619,14.179-1.943,21.495h0Z"/>
    <path class="st0" d="M468.267,569.256c-.97.287-1.967.081-2.677-.529-4.209-3.615-9.26-8.74-8.642-16.606.47-5.998,5.52-10.192,11.086-10.152,3.051.022,5.592,1.461,6.583,4.31,9.414-8.596,20.641.557,12.056,11.444-4.548,5.768-9.762,8.973-18.404,11.534h0Z"/>
  </g>
  <path class="st9" d="M448.349,115.25c-5.582-4.319-3.922-10.512,2.016-13.331,3.397-1.612,9.308-1.053,11.705,1.852,5.376,6.513-5.857,17.563-13.721,11.479Z"/>
  <path class="st9" d="M492.977,65.415c-8.52,1.71-18.062,9.651-22.044,18.612-3.356,7.551-19.206,6.234-17.955-6.289,1.251-12.524,10.103-22.943,21.284-27.018,28.711-10.466,30.371,12.356,18.714,14.696Z"/>
  <path class="st9" d="M117.183,207.434c-1.186.303-2.281,1.231-2.779,2.544-.419,1.107-2.922,1.034-2.832-.772.09-1.806,1.307-3.263,2.805-4.022,3.995-2.027,4.428,1.836,2.805,2.251h.001Z"/>
  <path class="st9" d="M1026.868,203.13c-1.371.351-2.639,1.424-3.216,2.943-.485,1.28-3.38,1.196-3.276-.893s1.511-3.774,3.246-4.653c4.622-2.344,5.122,2.123,3.246,2.603Z"/>
  <path class="st0" d="M69.111,470.66c-13.81-7.822-34.616-8.564-45.155,9.222-8.184,13.813,5.844,36.214,20.971,30.768,10.804-3.89,14.218,7.388,2.375,9.467-34.575,6.067-47.119-42.87-15.042-56.655,15.026-6.458,29.033-.634,29.033-.634,0,0-9.435-5.355-18.007-10.1-46.65-25.829-54.23-91.753-20.382-110.301,10.349-5.671,19.226-4.497,22.849.663,4.505,6.414-6.778,14.131-12.915,8.609-28.147,1.987-31.293,58.779,1.655,85.933-17.571-38.972,12.241-61.16,31.764-52.292,9.277,4.214,13.825,12.584,14.695,21.4,1.69,17.148-14.012,25.204-23.304,16.019-5.956-5.886,3.31-21.814,13.163-13.577-3.865-27.976-46.166-16.774-31.583,22.891,5.433,14.776,11.425,18.213,26.621,27.687,2.745,1.711,4.009,2.447,7.238,4.683,4.912,3.401,4.99,11.298-3.978,6.217h0Z"/>
  <g>
    <g>
      <path class="st9" d="M1125.01,392.288h0c-4.768-7.955-12.523-14.022-21.836-17.085-9.151-3.009-19.079-2.884-27.958.349-10.492,3.822-18.507,11.674-22.567,22.112-.383.986-.757,1.936-1.13,2.886-.075-.014-.144-.033-.216-.059,2.936-18.703,6.335-39.81,9.779-60.055,2.629-15.456-2.066-29.315-12.879-38.022-10.417-8.388-25.291-10.523-37.893-5.439-8.558,3.454-15.197,9.856-19.015,17.982-2.915-4.621-6.675-8.487-11.225-11.392-10.518-6.717-23.486-7.185-34.693-1.256-13.482,7.137-21.512,21.593-22.03,39.659-.415,14.463-1.447,27.413-3.09,38.978-.148.041-.342.094-.617.17-7.704-10.075-20.406-14.734-35.35-12.842-32.461,4.115-49.374,4.131-75.38.066-12.533-1.959-24.213,1.512-32.695,9.415-.947.882-2.441-.055-2.033-1.283l.017-.051c.748-2.251,1.416-4.267,2.024-6.008,7.469-21.447,6.805-38.587-1.977-50.944-5.2-7.318-15.642-16.041-35.856-16.041h-89.41c-16.242,0-26.346,6.443-31.961,11.846-7.418,7.14-11.674,17.092-11.674,27.303,0,19.875,15.129,34.862,35.19,34.862h49.262c.932,0,1.535.995,1.101,1.819-16.101,30.518-38.089,55.76-75.835,60.698-17.113,2.239-28.56,9.686-35.164,19.039-.703.995-2.26.5-2.251-.719.042-5.214.127-10.149.232-14.637.008-.349.166-.672.431-.899,10.348-8.843,18.748-19.222,25.034-30.948,13.444-25.083,5.346-44.499-8.645-52.617-14.682-8.519-37.544-5.068-50.395,15.452-7.925,12.655-17.421,21.386-31.144,27.965-.876.42-1.879-.272-1.773-1.238.914-8.347-.714-16.985-4.911-24.199-4.196-7.212-10.603-12.114-17.929-13.961-.812-.204-1.188-1.146-.733-1.848.231-.356.457-.719.678-1.086,7.14-11.859,7.547-27.487,1.013-38.888-5.43-9.475-15.109-15.051-25.915-14.928l-3.221.039c-21.764.261-72.732.874-92.903-.023-2.273-.103-4.49-.049-6.644.152-.729.068-1.351-.488-1.362-1.22-.187-13.147-4.381-25.235-11.91-34.221-6.424-7.667-18.379-16.888-38.849-17.282-23.129-.422-44.003,12.164-55.862,32.965-.222.389-.63.63-1.078.624-13.593-.187-28.466.028-44.111.255-31.622.456-64.323.93-90.591-1.844-17.224-1.82-32.016,5.086-40.566,18.944-9.289,15.054-9.142,35.912.357,50.723,8.393,13.085,22.348,19.463,38.288,17.499,28.89-3.56,66.901-4.086,94.756-2.685.723.036,1.256.691,1.162,1.408-3.276,24.893-10.32,42.096-21.013,51.258-10.961,9.391-27.042,12.098-55.506,9.345-24.52-2.386-45.139,14.172-47.975,38.485-1.341,11.493,1.738,22.736,8.669,31.657,5.28,6.795,15.314,15.406,33.142,17.842,48.133,6.579,87.802-2.767,117.901-27.779,28.588-23.756,41.248-55.792,46.846-79.966.28-1.208,1.976-1.298,2.367-.121.817,2.454,1.884,4.818,3.202,7.039,6.025,10.158,16.529,15.889,28.129,15.285,8.367-.423,20.741-.811,34.425-1.095,1.045-.022,1.631,1.171,1.002,2.006-5.2,6.898-13.481,10.376-25.315,10.896-26.771,1.18-39.216,20.444-39.449,37.844-.284,21.201,16.06,38.362,38.017,39.92,46.595,3.296,72.429-17.162,85.892-34.913,10.926-14.406,18.449-32.773,22.443-54.748.109-.601.646-1.036,1.256-1.019,6.173.171,11.772.388,16.769.652.778.041,1.327.786,1.125,1.537-1.281,4.779-1.441,9.817-.417,14.796,3.446,16.754,19.038,27.506,36.253,25.008,2.221-.323,4.424-.678,6.607-1.064.805-.142,1.526.51,1.453,1.324-.283,3.165-.589,6.346-.917,9.539-1.509,14.686,3.991,27.287,15.091,34.573,5.913,3.881,12.885,5.834,19.935,5.834,6.423,0,12.911-1.62,18.719-4.88,7.919-4.444,13.591-11.44,16.361-19.795.329-.994,1.702-1.132,2.228-.227,2.456,4.232,5.674,8.044,9.51,11.177,8.741,7.137,20.11,10.408,32.013,9.217,37.684-3.782,69.891-18.293,95.997-43.204.587-.559,1.531-.415,1.936.286,1.843,3.198,3.136,6.712,3.901,10.575,2.327,11.754,8.957,21.53,18.667,27.527,8.822,5.45,19.35,7.358,29.636,5.385,10.641-2.042,19.709-8.029,25.534-16.859,4.356-6.603,8.903-17.945,5.829-34.478-1.898-10.21-5.094-19.177-9.075-27.021-.434-.856.204-1.856,1.163-1.8,2.382.138,4.838.033,7.341-.324,35.745-5.105,63.269-2.85,85.482.029,3.108.401,6.166.404,9.127.027.321-.041.602.039.829.185-4.466,4.493-9.492,7.945-15.119,10.36-9.874,4.239-17.148,12.518-20.483,23.314-2.877,9.314-2.416,19.633,1.268,28.307,5.965,14.05,18.961,22.437,34.765,22.437,7.001,0,14.487-1.654,22.248-4.915,17.636-7.407,32.525-20.698,44.539-39.672-.529,10.452,2.481,19.976,8.774,27.369,8.091,9.505,20.959,14.741,36.233,14.741.994,0,2.004-.022,3.035-.066,54.553-2.367,104.675-53.701,117.26-100.162,3.007-11.1,1.693-22.167-3.699-31.164h0Z"/>
      <path class="st10" d="M896.62,532.613c-18.479,0-33.697-9.859-40.709-26.372-4.27-10.056-4.814-21.988-1.493-32.737,3.718-12.038,11.667-21.423,22.479-26.604-20.216-2.24-44.671-3.378-75.233.987-.111.016-.223.032-.334.047,2.826,6.839,4.951,14.05,6.341,21.528,3.468,18.649-1.777,31.617-6.787,39.213-6.791,10.294-17.342,17.271-29.707,19.644-11.886,2.28-24.049.067-34.247-6.232-11.254-6.95-18.927-18.231-21.608-31.765-.164-.824-.353-1.621-.571-2.397-26.135,22.833-57.817,36.251-94.285,39.91-13.624,1.362-26.669-2.415-36.742-10.64-1.984-1.62-3.824-3.391-5.513-5.302-3.721,6.109-8.977,11.206-15.342,14.777-6.65,3.732-14.215,5.706-21.879,5.706-8.49,0-16.609-2.382-23.479-6.893-13.184-8.654-19.735-23.464-17.972-40.63.094-.921.187-1.841.278-2.759l-.07.01c-1.995.289-3.973.43-5.921.43-18.217.001-33.841-12.318-37.586-30.527-.787-3.83-.998-7.666-.636-11.463-2.008-.084-4.102-.162-6.275-.234-4.361,21.033-12.019,38.877-22.794,53.081-13.39,17.653-38.122,37.821-81.186,37.823-3.328,0-6.757-.12-10.307-.371-25.425-1.803-44.348-21.771-44.017-46.447.243-18.239,11.845-38.226,36.572-43.137-.152.008-.302.015-.452.023-12.344.646-23.71-4.644-31.213-14.324-6.962,22.438-20.236,49.587-45.529,70.605-31.55,26.216-72.905,36.045-122.901,29.209-19.984-2.73-31.351-12.535-37.367-20.278-7.976-10.267-11.522-23.183-9.983-36.367,3.257-27.911,26.899-46.898,55.015-44.164,26.515,2.565,41.199.299,50.679-7.823,8.642-7.404,14.684-21.374,17.984-41.567-23.846-.916-59.04-.659-87.897,2.899-18.509,2.279-34.727-5.163-44.513-20.422-10.79-16.825-10.961-40.51-.416-57.6,9.908-16.057,26.936-24.067,46.739-21.975,25.873,2.731,58.359,2.262,89.778,1.81l.162-.002c14.544-.21,28.339-.41,41.147-.288,13.411-21.515,35.642-34.017,59.997-33.552,22.907.44,36.396,10.896,43.681,19.591,7.404,8.835,11.979,20.373,13.135,32.928.707.005,1.414.024,2.124.056,19.957.887,70.755.278,92.448.018l3.306-.04c13.166-.155,24.99,6.643,31.596,18.175,6.87,11.985,7.229,27.9,1.243,41.012,6.418,3.055,11.866,8.13,15.707,14.734,3.268,5.616,5.256,12.05,5.846,18.719,8.515-5.366,15.15-12.203,20.927-21.428,14.923-23.832,41.772-27.669,59.107-17.61.979.567,1.926,1.175,2.838,1.82-1.233-4.009-1.893-8.316-1.893-12.836,0-11.956,4.976-23.604,13.653-31.955,6.471-6.228,18.046-13.652,36.44-13.652h89.41c22.97,0,35.039,10.201,41.121,18.758,8.918,12.55,10.674,28.992,5.251,48.955,7.631-3.155,16.206-4.121,25.145-2.723,25.307,3.956,41.811,3.934,73.572-.092,12.082-1.531,23.127.796,31.782,6.475.814-8.238,1.361-17.128,1.631-26.56.587-20.458,9.869-36.925,25.464-45.181,13.288-7.031,28.687-6.463,41.189,1.52,2.574,1.643,4.947,3.552,7.104,5.712,4.502-5.655,10.41-10.089,17.244-12.847,14.736-5.948,32.149-3.436,44.359,6.397,12.689,10.216,18.228,26.303,15.195,44.133-1.786,10.496-3.662,21.832-5.613,33.892,3.364-2.451,7.107-4.447,11.17-5.927,10.233-3.728,21.666-3.876,32.185-.416,10.786,3.547,19.791,10.614,25.357,19.898h0c6.303,10.517,7.863,23.363,4.394,36.173-6.655,24.563-22.98,49.973-44.793,69.715-23.803,21.544-51.654,34.047-78.421,35.209-1.132.048-2.245.072-3.315.072-17.198,0-31.812-6.041-41.152-17.013-3.684-4.328-6.416-9.25-8.149-14.62-10.828,13.075-23.475,22.698-37.744,28.691-8.559,3.596-16.887,5.419-24.749,5.419h0ZM895.519,435.084c1.468,0,2.918.42,4.162,1.22h0c3.459,2.223,3.987,7.069,1.089,9.986h0c-5.04,5.069-10.81,9.02-17.153,11.741-8.105,3.479-14.092,10.329-16.861,19.286-2.434,7.882-2.055,16.585,1.042,23.878,4.92,11.587,15.695,18.504,28.822,18.504,6.136,0,12.78-1.484,19.748-4.411,16.315-6.853,30.306-19.36,41.584-37.173l13.149-20.769-1.245,24.55c-.448,8.86,2.056,16.763,7.241,22.856,6.845,8.041,17.967,12.469,31.317,12.469.904,0,1.823-.02,2.761-.06,23.762-1.031,48.732-12.354,70.309-31.882,20.027-18.127,34.968-41.277,40.993-63.516,2.543-9.39,1.475-18.678-3.006-26.155-3.971-6.625-10.477-11.693-18.315-14.271-7.778-2.556-16.206-2.457-23.732.283-8.721,3.177-15.383,9.706-18.759,18.386-.385.992-.761,1.95-1.137,2.908h0c-1.105,2.81-4.15,4.337-7.063,3.54l-1.262-.345c-2.904-.794-4.747-3.644-4.281-6.618h0c3.466-22.079,6.76-42.312,9.791-60.136,2.226-13.082-1.624-24.713-10.562-31.909-9.563-7.702-23.69-9.026-34.775-2.884-5.494,3.044-9.77,7.892-12.442,13.576l-4.812,10.241-6.291-9.974c-2.45-3.884-5.558-7.045-9.237-9.394-8.534-5.45-19.076-5.819-28.198-.992-11.368,6.018-18.146,18.461-18.596,34.138-.418,14.564-1.478,27.921-3.151,39.7h0c-.361,2.544-2.196,4.632-4.673,5.317l-.615.17c-2.539.702-5.251-.209-6.85-2.302h0c-6.331-8.28-16.773-11.953-29.409-10.359-33.17,4.205-50.483,4.215-77.189.04-10.476-1.633-20.168,1.119-27.295,7.76-2.822,2.629-7.188,2.805-10.223.266-2.465-2.063-3.262-5.523-2.254-8.574l.038-.114c.716-2.153,1.359-4.089,1.946-5.772,6.742-19.356,6.357-34.523-1.143-45.077-4.319-6.078-13.133-13.325-30.592-13.325h-89.41c-14.091,0-22.723,5.461-27.483,10.042-6.161,5.929-9.694,14.185-9.694,22.65,0,16.193,12.353,28.405,28.733,28.405h48.951c2.769,0,5.445,1.331,6.885,3.695,1.424,2.336,1.511,5.177.238,7.594-9.481,17.969-19.703,31.635-31.252,41.78-14.253,12.522-30.431,19.819-49.459,22.308-13.82,1.808-24.445,7.465-30.727,16.362-2.002,2.832-5.594,3.98-8.877,2.815-3.148-1.117-5.132-4.251-5.104-7.591.04-4.723.117-9.586.232-14.457.054-2.183,1.036-4.242,2.693-5.657,9.726-8.31,17.645-18.098,23.535-29.088,12.189-22.74,4.282-37.904-6.192-43.98-12.027-6.979-30.906-3.914-41.681,13.294-8.752,13.977-19.184,23.34-33.824,30.36-3.069,1.472-6.821.781-9.16-1.9-1.416-1.622-2.044-3.811-1.815-5.953.765-7.16-.684-14.316-4.083-20.159-3.269-5.619-8.215-9.506-13.926-10.946-.772-.194-1.532-.463-2.196-.902-3.882-2.564-4.559-7.345-2.382-10.713.196-.302.385-.605.571-.912,5.968-9.914,6.346-22.913.941-32.345-4.201-7.331-11.65-11.683-19.968-11.683-.09,0-.18,0-.271.001l-3.216.039c-21.887.262-72.941.876-93.269-.029-1.955-.088-3.888-.045-5.753.131-2.134.198-4.277-.506-5.869-1.936-1.591-1.428-2.521-3.477-2.552-5.619-.166-11.647-3.86-22.359-10.403-30.167-5.563-6.64-15.982-14.626-34.023-14.973-20.571-.387-39.309,10.729-50.129,29.707-1.381,2.431-4.031,3.92-6.779,3.881-13.465-.186-28.202.027-43.807.253l-.12.002c-31.838.458-64.72.934-91.363-1.88-14.654-1.551-27.197,4.252-34.393,15.914-8.033,13.018-7.911,31.048.298,43.845,7.1,11.072,18.494,16.244,32.063,14.577,32.048-3.95,71.59-3.941,95.768-2.73.686.034,1.364.133,2.018.344,3.771,1.222,5.79,4.847,5.324,8.366-3.486,26.492-11.296,45.104-23.214,55.314-12.444,10.661-29.921,13.811-60.328,10.869-20.903-2.03-38.519,12.068-40.939,32.806-1.143,9.801,1.469,19.371,7.353,26.947,4.542,5.846,13.246,13.264,28.918,15.406,46.264,6.319,84.251-2.541,112.9-26.348,27.61-22.942,39.537-54.24,44.682-76.456.788-3.397,3.655-5.786,7.137-5.948,3.484-.159,6.549,1.945,7.648,5.245.681,2.046,1.565,3.992,2.628,5.786,4.788,8.07,13.109,12.607,22.24,12.129,8.272-.418,20.567-.81,34.626-1.103,2.942-.048,5.534,1.47,6.911,4.003,1.376,2.53.819,6.516-.954,8.785-6.376,8.158-16.148,12.419-29.852,13.021-22.709,1.001-33.075,16.531-33.276,31.479-.237,17.725,13.527,32.081,32.018,33.392,43.717,3.093,67.794-15.899,80.29-32.374,10.282-13.557,17.427-31.053,21.234-52.002.677-3.697,3.838-6.322,7.567-6.322.075,0,.148,0,.222.003,6.132.171,11.744.387,16.686.646,2.014.105,3.972.89,5.368,2.345,1.903,1.984,2.591,4.736,1.897,7.327-1.037,3.866-1.148,7.844-.33,11.822,2.746,13.356,15.227,21.918,29.001,19.918,2.072-.301,4.146-.634,6.167-.99,2.086-.367,4.275.003,6.003,1.228,2.299,1.628,3.494,4.25,3.25,6.987-.286,3.194-.595,6.404-.926,9.624-1.253,12.205,3.198,22.598,12.212,28.515,4.759,3.125,10.427,4.775,16.391,4.775,5.455,0,10.834-1.402,15.559-4.053,6.449-3.619,11.08-9.219,13.393-16.197.946-2.855,3.497-4.904,6.501-5.216,2.996-.316,5.925,1.171,7.439,3.777,2.108,3.631,4.802,6.799,8.01,9.418,7.403,6.045,17.088,8.815,27.286,7.794,36.146-3.628,67.162-17.574,92.183-41.451,1.943-1.853,4.66-2.569,7.316-1.866,2.085.552,3.794,2.037,4.854,3.915,2.084,3.696,3.584,7.809,4.46,12.228,1.976,9.975,7.56,18.245,15.726,23.288,7.44,4.596,16.327,6.204,25.026,4.537,8.918-1.712,16.503-6.709,21.361-14.072,3.701-5.611,7.551-15.325,4.87-29.741-1.642-8.846-4.447-17.25-8.335-24.986-.753-1.497-1.135-3.181-.905-4.841.579-4.174,4.252-6.839,8.053-6.622,1.962.113,4,.023,6.053-.27,36.512-5.215,64.582-2.917,87.225.017,2.527.327,5.046.336,7.48.026.324-.042.649-.062.974-.062l-.002-.002ZM615.113,375.768c.177.626.341,1.258.49,1.897,2.644,11.379.375,24.237-6.563,37.183-5.465,10.196-12.464,19.464-20.86,27.637,6.425-4.075,14.907-7.47,26.049-8.928,28.005-3.664,48.841-19.084,66.715-49.657h-40.405c-9.732,0-18.485-2.986-25.425-8.131h0Z"/>
    </g>
    <g>
      <path class="st6" d="M886.354,384.537c-32.616,4.135-51.167,4.501-79.972,0-31.79-4.967-35.764,44.705-7.948,40.731,35.009-5.001,63.084-3.477,89.907,0,26.183,3.394,33.281-45.202-1.987-40.731ZM800.821,396.438c-.804.506-6.064,4.529-8.21,6.435-2.352,2.088-6.512,1.847-4.979-3.213.743-2.449,4.927-8.054,12.162-8.209,4.292-.092,4.558,2.761,1.027,4.987Z"/>
      <path class="st5" d="M557.706,383.333c-14.917,23.821-35.001,35.58-63.761,43.279-25.474,6.821-17.729,35.743,2.026,32.877,9.791-1.42,19.69-3.588,29.293-6.676-.313,8.996-.923,20.837-2.102,34.732-2.58,30.408,40.729,28.067,39.328.423-1.015-20.031-.986-40.407-.808-53.327,10.73-7.941,19.963-17.98,26.721-30.588,17.595-32.828-16.429-43.506-30.698-20.721h0ZM493.285,438.866c-1.097,1.041-2.565,2.368-3.712,3.772-1.713,2.098-5.575,2.337-4.595-1.624.705-2.851,3.526-6.235,7.64-6.689,3.185-.351,3.834,1.536.667,4.541h.001Z"/>
      <g>
        <path class="st4" d="M357.746,361.983c27.025-1.715,64.915-1.001,94.904,0,29.378.981,29.93-39.382,9.651-39.141-21.052.25-75.385.965-97.048,0-31.603-1.408-29.445,40.534-7.506,39.141h-.001ZM361.186,329.337c6.332-.381-3.826,11.423-7.251,13.095-8.185,3.997-7.251-12.223,7.251-13.095h0Z"/>
        <path class="st3" d="M481.485,378.783c-32.848,1.322-116.492,1.501-147.45-.536-31.566-2.078-29.998,41.325-8.043,40.214,12.094-.612,34.558-1.238,59.199-1.487-3.393,40.109-32.046,45.381-47.04,46.041-32.578,1.435-30.504,42.942-.994,45.035,70.974,5.033,88.727-50.601,92.618-91.037,15.198.212,29.346.663,40.449,1.447,33.161,2.343,29.474-40.411,11.26-39.677h0ZM323.152,397.965c-9.56,4.364-8.469-13.342,8.469-14.294,7.396-.416-4.469,12.469-8.469,14.294ZM332.325,477.247c-1.355,1.219-3.167,2.769-4.593,4.423-2.132,2.472-6.79,2.635-5.482-2.105.941-3.411,4.448-7.395,9.418-7.81,3.847-.32,4.568,1.975.657,5.491h0Z"/>
      </g>
      <path class="st2" d="M785.206,473.636c-6.427-34.57-31.109-52.225-43.663-59.126,10.193-20.666,15.708-39.456,19.201-49.487,10.042-28.832,1.987-45.202-22.352-45.202h-89.41c-34.77,0-34.77,41.228-8.444,41.228h76.992c-30.735,72.307-65.178,90.562-100.338,95.162-42.987,5.623-31.371,52.135.994,48.887,45.99-4.615,77.019-26.191,98.236-51.484,9.54,6.708,18.271,16.892,21.315,32.266,6.158,31.105,54.671,26.493,47.47-12.246h0ZM635.205,340.585c-8.857,4.042-7.846-12.36,7.847-13.242,6.852-.385-4.14,11.551-7.847,13.242ZM608.68,472.769c-1.221,1.166-2.856,2.651-4.132,4.222-1.906,2.348-6.214,2.626-5.134-1.799.778-3.185,3.915-6.971,8.506-7.49,3.554-.402,4.285,1.702.759,5.066h0Z"/>
      <g>
        <path class="st8" d="M971.517,316.964c-5.631-3.596-12.624-3.822-18.702-.606-8.28,4.384-13.229,13.885-13.58,26.069-2.025,70.459-18.515,109.949-51.896,124.276-11.93,5.121-15.295,20.345-10.854,30.804,2.951,6.948,9.546,12.755,20.133,12.755,4.601,0,9.958-1.097,16.093-3.675,24.216-10.171,42.631-34.471,54.731-72.223,10.128-31.598,13.728-66.268,14.965-89.79.668-12.701-3.303-22.764-10.892-27.609h.002ZM892.695,479.91c-1.22,1.165-2.853,2.648-4.128,4.218-1.904,2.345-6.208,2.624-5.129-1.797.777-3.182,3.912-6.964,8.498-7.483,3.55-.402,4.281,1.7.759,5.062ZM948.465,351.861c-.105.843-1.878.811-1.931-.037-.208-3.345-.531-17.481,4.39-24.034,1.544-2.057,5.982-1.774,5.775,2.064-1.068,19.775-4.868-4.914-8.234,22.008h0Z"/>
        <path class="st7" d="M1111.376,400.46c-2.805-4.68-7.482-8.287-13.169-10.158-11.016-3.623-25.539-.257-30.745,13.123-8.423,21.661-16.394,42.155-40.539,51.44,1.795-12.147,9.961-66.967,18.488-117.094,1.659-9.753-.89-17.914-7.178-22.976-6.002-4.834-14.628-6.042-21.974-3.078-6.958,2.808-11.515,8.89-12.502,16.684-4.576,36.169-15.845,110.259-23.8,148.757-1.785,8.628-.288,16.055,4.326,21.476,5.054,5.938,13.565,9.149,24.13,9.149.771,0,1.553-.017,2.346-.051,46.901-2.035,91.718-48.241,102.607-88.436,1.894-6.991,1.205-13.504-1.991-18.835h0ZM1021.222,324.586c-1.22,1.165-2.853,2.648-4.128,4.218-1.904,2.345-6.208,2.624-5.129-1.797.777-3.182,3.912-6.964,8.498-7.483,3.55-.402,4.28,1.7.759,5.061h0ZM1084.332,403.735c-1.22,1.165-2.853,2.648-4.128,4.218-1.904,2.345-6.208,2.624-5.129-1.797.777-3.182,3.912-6.964,8.498-7.483,3.55-.402,4.28,1.7.759,5.062Z"/>
      </g>
      <path class="st1" d="M308.393,270.287c-23.016-.442-38.975,15.52-45.592,34.059-2.038-.209-4.255-.338-6.674-.39-41.351-.889-98.751,2.68-140.784-1.759-39.304-4.151-38.193,59.032-2.205,54.595,37.295-4.597,88.244-4.248,115.892-1.457-5.3,92.007-47.66,98.052-96.069,93.368-35.052-3.392-44.528,49.668-2.366,55.429,113.607,15.525,147.889-69.194,150.46-122.357.424-8.768.985-16.626,1.511-23.665,3.047.843,6.4,1.335,10.091,1.393,55.436.864,71.534-88.145,15.735-89.217h0ZM101.589,327.19c-10.537,5.061-8.888-16.359,9.606-17.116,8.075-.33-5.197,14.998-9.606,17.116ZM118.741,470.693c-7.317,6.523-7.659-12.431,8.205-12.966,6.927-.234-4.898,10.019-8.205,12.966ZM274.197,308.88c-1.823,6.798-6.326,4.679-5.458-.011,2.341-12.64,12.602-24.097,23.826-27.93,5.573-1.904,4.89-.749,1.239,1.215-9.11,4.9-16.582,15.45-19.606,26.726h-.001ZM296.746,321.802c-14.422-.31-10.332-24.372,4.243-24.059,14.727.316,9.876,24.362-4.243,24.059Z"/>
    </g>
  </g>
</svg>