<?xml version="1.0" encoding="UTF-8"?>
<svg id="_レイヤー_1" data-name="レイヤー_1" xmlns="http://www.w3.org/2000/svg" xmlns:xlink="http://www.w3.org/1999/xlink" version="1.1" viewBox="0 0 1160 800">
  <!-- Generator: Adobe Illustrator 29.6.1, SVG Export Plug-In . SVG Version: 2.1.1 Build 9)  -->
  <defs>
    <style>
      .st0 {
        fill: #ff90ab;
      }

      .st1 {
        fill: #fff;
      }

      .st2 {
        fill: url(#_名称未設定グラデーション_212);
      }

      .st3 {
        fill: url(#_名称未設定グラデーション_211);
      }

      .st4 {
        fill: url(#_名称未設定グラデーション_217);
      }

      .st5 {
        fill: url(#_名称未設定グラデーション_214);
      }

      .st6 {
        fill: url(#_名称未設定グラデーション_213);
      }

      .st7 {
        fill: url(#_名称未設定グラデーション_216);
      }

      .st8 {
        fill: url(#_名称未設定グラデーション_215);
      }

      .st9 {
        fill: url(#_名称未設定グラデーション_196);
      }

      .st10 {
        fill: #ff7ba2;
      }

      .st11 {
        fill: #fffcee;
      }

      .st12 {
        fill: url(#_名称未設定グラデーション_21);
      }
    </style>
    <linearGradient id="_名称未設定グラデーション_196" data-name="名称未設定グラデーション 196" x1="580.001" y1="269.087" x2="580.001" y2="26.541" gradientUnits="userSpaceOnUse">
      <stop offset="0" stop-color="#ff6ca7"/>
      <stop offset="1" stop-color="#ffb9a7"/>
    </linearGradient>
    <linearGradient id="_名称未設定グラデーション_21" data-name="名称未設定グラデーション 21" x1="844.902" y1="425.473" x2="844.902" y2="384.201" gradientUnits="userSpaceOnUse">
      <stop offset="0" stop-color="#ff3d8b"/>
      <stop offset="1" stop-color="#ff70a4"/>
    </linearGradient>
    <linearGradient id="_名称未設定グラデーション_211" data-name="名称未設定グラデーション 21" x1="535.608" y1="509.438" x2="535.608" y2="371.231" xlink:href="#_名称未設定グラデーション_21"/>
    <linearGradient id="_名称未設定グラデーション_212" data-name="名称未設定グラデーション 21" x1="408.98" y1="362.049" x2="408.98" y2="322.873" xlink:href="#_名称未設定グラデーション_21"/>
    <linearGradient id="_名称未設定グラデーション_213" data-name="名称未設定グラデーション 21" x1="402.702" y1="508.274" x2="402.702" y2="378.193" xlink:href="#_名称未設定グラデーション_21"/>
    <linearGradient id="_名称未設定グラデーション_214" data-name="名称未設定グラデーション 21" x1="687.492" y1="506.239" x2="687.492" y2="319.89" xlink:href="#_名称未設定グラデーション_21"/>
    <linearGradient id="_名称未設定グラデーション_215" data-name="名称未設定グラデーション 21" x1="928.243" y1="510.165" x2="928.243" y2="314.171" xlink:href="#_名称未設定グラデーション_21"/>
    <linearGradient id="_名称未設定グラデーション_216" data-name="名称未設定グラデーション 21" x1="1046.416" y1="507.69" x2="1046.416" y2="310.19" xlink:href="#_名称未設定グラデーション_21"/>
    <linearGradient id="_名称未設定グラデーション_217" data-name="名称未設定グラデーション 21" x1="214.859" y1="505.91" x2="214.859" y2="270.389" xlink:href="#_名称未設定グラデーション_21"/>
  </defs>
  <path class="st1" d="M660.839,13.817c5.738,0,11.47.567,17.133,1.709,17.099,3.448,32.776,11.876,45.337,24.374,12.608,12.545,21.109,28.244,24.582,45.399,3.739,18.465,1.376,37.853-6.834,56.07-17.325,38.44-52.623,62.02-86.758,84.823-22.888,15.289-46.554,31.099-64.336,51.143-2.527,2.848-6.158,4.481-9.963,4.481s-7.436-1.633-9.962-4.48c-17.783-20.046-41.449-35.855-64.337-51.144-34.136-22.804-69.434-46.383-86.758-84.823-8.21-18.216-10.573-37.604-6.835-56.069,3.474-17.155,11.974-32.854,24.583-45.399,12.561-12.498,28.239-20.926,45.338-24.374,5.664-1.142,11.393-1.709,17.133-1.709,12.823,0,25.686,2.832,37.905,8.413,15.418,7.043,27.719,17.263,37.603,31.242,1.845,2.609,3.613,5.353,5.332,8.277,1.717-2.923,3.486-5.667,5.332-8.276,9.884-13.979,22.186-24.199,37.603-31.242,12.22-5.582,25.08-8.414,37.904-8.414"/>
  <path class="st0" d="M521.766,277.222c1.21-.579,1.21-2.659,0-3.238l-7.887-3.131c-.009-.004-.017-.008-.026-.012-1.598-.761-2.847-2.277-3.474-4.218-.003-.011-.007-.021-.01-.032l-3.303-11.058c-.477-1.47-2.19-1.47-2.666,0l-3.302,11.058c-.003.011-.007.021-.01.032-.627,1.941-1.876,3.457-3.474,4.218-.009.004-.018.008-.026.013l-7.887,3.131c-1.21.579-1.21,2.659,0,3.238l7.887,3.131c.009.004.018.008.026.013,1.598.761,2.847,2.278,3.474,4.218.003.011.007.021.01.032l3.302,11.058c.477,1.47,2.19,1.47,2.666,0l3.303-11.058c.003-.011.007-.021.01-.032.627-1.941,1.876-3.457,3.474-4.218.009-.004.017-.008.026-.013l7.887-3.131Z"/>
  <path class="st0" d="M480.728,261.606c.617-.295.617-1.356,0-1.651l-4.275-2.045s-.009-.004-.013-.006c-.815-.388-1.452-1.161-1.772-2.151-.002-.005-.004-.011-.005-.016l-1.684-5.191c-.243-.749-1.117-.749-1.36,0l-1.684,5.191c-.002.005-.004.011-.005.016-.32.99-.956,1.763-1.771,2.151-.004.002-.009.004-.013.006l-4.275,2.045c-.617.295-.617,1.356,0,1.651l4.275,2.045s.009.004.013.006c.815.388,1.452,1.161,1.772,2.151.002.005.003.011.005.016l1.684,5.191c.243.749,1.117.749,1.36,0l1.684-5.191c.002-.005.004-.011.005-.016.32-.99.957-1.763,1.772-2.151.004-.002.009-.004.013-.006l4.275-2.045Z"/>
  <path class="st0" d="M835.266,329.283c.498-.238.498-1.095,0-1.333l-3.452-1.651s-.007-.003-.011-.005c-.658-.314-1.172-.938-1.43-1.737-.001-.004-.003-.009-.004-.013l-1.36-4.191c-.196-.605-.902-.605-1.098,0l-1.36,4.191s-.003.009-.004.013c-.258.799-.772,1.423-1.43,1.737-.004.002-.007.003-.011.005l-3.452,1.651c-.498.238-.498,1.095,0,1.333l3.452,1.651s.007.003.011.005c.658.314,1.172.938,1.43,1.737.001.004.003.009.004.013l1.36,4.191c.196.605.902.605,1.098,0l1.36-4.191s.003-.009.004-.013c.258-.799.772-1.423,1.43-1.737.004-.002.007-.003.011-.005l3.452-1.651Z"/>
  <path class="st0" d="M890.9,312.991c1.431-.684,1.43-3.142,0-3.827l-13.383-3.7c-.01-.005-.021-.01-.031-.015-1.889-.9-3.365-2.692-4.106-4.986-.004-.013-.008-.025-.012-.038l-3.903-13.07c-.564-1.737-2.588-1.737-3.152,0l-3.903,13.07c-.004.013-.008.025-.012.038-.741,2.294-2.217,4.086-4.106,4.986-.01.005-.021.01-.031.015l-12.886,3.7c-1.431.684-1.431,3.142,0,3.827l12.886,3.7c.01.005.021.01.031.015,1.889.9,3.365,2.692,4.106,4.986.004.013.008.025.012.038l3.903,13.07c.564,1.737,2.588,1.737,3.152,0l3.903-13.07c.004-.013.008-.025.012-.038.741-2.294,2.217-4.086,4.106-4.986.01-.005.021-.01.031-.015l13.383-3.7Z"/>
  <path class="st0" d="M908.444,288.256c.652-.312.652-1.431,0-1.743l-4.514-2.159s-.009-.004-.014-.007c-.861-.41-1.533-1.226-1.87-2.271-.002-.006-.004-.012-.006-.017l-1.778-5.48c-.257-.791-1.179-.791-1.436,0l-1.778,5.48c-.002.006-.004.012-.006.017-.338,1.045-1.01,1.861-1.87,2.271-.005.002-.009.005-.014.007l-4.514,2.159c-.652.312-.652,1.431,0,1.743l4.514,2.159s.009.005.014.007c.861.41,1.533,1.226,1.87,2.271.002.006.004.011.006.017l1.778,5.48c.257.791,1.179.791,1.436,0l1.778-5.48c.002-.006.004-.011.006-.017.338-1.045,1.01-1.861,1.87-2.271.005-.002.009-.004.014-.007l4.514-2.159Z"/>
  <g>
    <path class="st11" d="M278.271,254.607c12.53,1.61,20.23-.178,28.045-2.249,8.695-2.304,18.089-6.083,26.238-10.452.539-.289,1.068.394.648.838-1.871,1.977-4.094,4.654-4.82,6.858-2.984,9.07,4.614,15.463,16.167,15.21,24.028-.525,40.902-16.738,44.685-17.898,2.513-.771,6.236,9.815,23.757,6.906,10.594-1.759,20.958-5.528,29.277-12.394-13.953-9.587-28.22-19.134-39.683-31.764-24.443-26.93-26.822-56.242-44.852-84.183-36.605-56.727-112.213-33.061-167.27-56.101-13.52-5.658-28.096-13.093-40.696-19.814-8.478-4.522-30.804-22.114-39.463-12.078-7.475,8.664,5.017,32.84,10.56,40.983,10.123,14.871,29.854,29.132,46.12,36.78,16.443,7.732,34.901,11.98,45.692,13.992.694.129.552,1.159-.152,1.107-6.738-.504-13.583-1.481-20.034-2.914-13.481-2.996-23.283-7.769-36.059-11.081-11.058-2.867-24.436-4.701-23.879,10.961.745,20.931,28.975,38.403,46.742,44.59,28.559,9.946,57.711,7.626,84.675,3.148.661-.11.943.814.33,1.084-4.575,2.01-14.3,5.271-31.497,6.759-10.812.936-34.882-1.182-40.109,5.467-5.708,7.261-2.845,18.548,3.94,23.775,21.278,16.39,54.298,12.164,78.974,7.484,4.694-.89,10.1-3.123,13.221-4.463.549-.236.987.49.534.879-5.832,5.002-13.756,8.197-25.913,10.408-12.444,2.263-11.167,7.444-10.262,11.05,1.657,6.604,12.557,15.501,25.087,17.112Z"/>
    <path class="st11" d="M904.92,237.495c.904-3.606,2.182-8.788-10.262-11.05-12.158-2.21-20.082-5.405-25.913-10.408-.453-.389-.015-1.115.534-.879,3.121,1.34,8.596,3.262,13.221,4.463,17.404,4.518,57.696,8.906,78.974-7.484,6.785-5.226,9.648-16.513,3.94-23.775-5.227-6.649-29.298-4.531-40.109-5.467-17.198-1.488-26.923-4.749-31.498-6.759-.613-.269-.331-1.193.33-1.083,26.964,4.478,56.116,6.798,84.675-3.148,17.767-6.188,45.997-23.66,46.742-44.59.557-15.662-12.82-13.827-23.879-10.961-12.776,3.312-22.408,8.199-35.889,11.195-6.28,1.396-13.009,2.309-19.624,2.79-.765.056-.918-1.06-.164-1.202,10.862-2.054,28.966-6.288,45.125-13.886,16.265-7.648,35.996-21.909,46.12-36.78,5.543-8.142,18.035-32.318,10.56-40.983-8.659-10.037-30.985,7.556-39.463,12.078-12.6,6.721-27.176,14.156-40.696,19.814-55.057,23.04-130.666-.626-167.27,56.101-18.03,27.942-20.41,57.253-44.852,84.183-11.463,12.629-25.73,22.177-39.683,31.764,8.319,6.867,18.683,10.635,29.277,12.394,17.521,2.909,20.553-6.893,23.757-6.906,3.957-.016,20.657,17.373,44.685,17.898,11.554.253,19.152-6.141,16.167-15.21-.726-2.206-2.951-4.883-4.822-6.86-.42-.444.109-1.126.647-.837,8.15,4.369,17.545,8.149,26.241,10.453,7.814,2.071,15.515,3.859,28.045,2.249,12.53-1.61,23.43-10.508,25.087-17.112Z"/>
    <path class="st0" d="M660.839,13.817c5.738,0,11.47.567,17.133,1.709,17.099,3.448,32.776,11.876,45.337,24.374,12.608,12.545,21.109,28.244,24.582,45.399,3.739,18.465,1.376,37.853-6.834,56.07-17.325,38.44-52.623,62.02-86.758,84.823-22.888,15.289-46.554,31.099-64.336,51.143-2.527,2.848-6.158,4.481-9.963,4.481s-7.436-1.633-9.962-4.48c-17.783-20.046-41.449-35.855-64.337-51.144-34.136-22.804-69.434-46.383-86.758-84.823-8.21-18.216-10.573-37.604-6.835-56.069,3.474-17.155,11.974-32.854,24.583-45.399,12.561-12.498,28.239-20.926,45.338-24.374,5.664-1.142,11.393-1.709,17.133-1.709,12.823,0,25.686,2.832,37.905,8.413,15.418,7.043,27.719,17.263,37.603,31.242,1.845,2.609,3.613,5.353,5.332,8.277,1.717-2.923,3.486-5.667,5.332-8.276,9.884-13.979,22.186-24.199,37.603-31.242,12.22-5.582,25.08-8.414,37.904-8.414M660.839,4.388c-14.289,0-28.36,3.118-41.822,9.266-15.765,7.202-28.564,17.413-39.017,31.147-10.452-13.734-23.251-23.945-39.017-31.147-13.46-6.148-27.531-9.265-41.822-9.266-6.367,0-12.759.637-18.996,1.894-18.918,3.815-36.25,13.128-50.125,26.933-13.933,13.863-23.329,31.226-27.174,50.212-4.133,20.413-1.546,41.788,7.48,61.815,18.435,40.903,54.874,65.246,90.113,88.787,22.394,14.959,45.546,30.425,62.524,49.563,4.315,4.863,10.517,7.651,17.016,7.651s12.702-2.789,17.017-7.653c16.977-19.137,40.13-34.603,62.52-49.559,35.241-23.541,71.681-47.884,90.117-88.789,9.027-20.029,11.613-41.404,7.48-61.816-3.844-18.985-13.24-36.348-27.173-50.212-13.875-13.805-31.207-23.118-50.124-26.933-6.237-1.257-12.629-1.895-18.997-1.895h0Z"/>
    <g>
      <path class="st0" d="M453.072,243.757c-3.111,4.15-22.836,17.383-37.21,18.888-5.495.575-15.263,1.404-23.204-2.401-2.69-1.289-4.301-1.075-6.376.583-6.45,5.155-25.644,11.939-33.945,12.738-14.182,1.365-26.656,1.232-33.576-12.867-1.124-2.29-2.615-2.729-4.273-1.973-23.331,10.642-65.256,6.19-71.349-23.309-.276-1.335-1.467-2.268-2.828-2.19-24.467,1.409-65.535-11.176-60.994-41.373.324-2.151.79-4.476,1.621-6.696.563-1.504-.245-3.174-1.793-3.602-11.479-3.171-23.247-7.908-32.648-15.07-15.56-11.855-37.884-38.588-17.194-56.401,1.138-.979,3.013-2.039,4.573-2.841,1.122-.576,1.184-2.142.114-2.81-20.291-12.678-39.477-40.898-34.899-65.257,1.844-9.812,8.24-14.879,18.174-14.661,13.499.296,43.474,20.404,57.346,27.005,9.99,4.754,22.04,10.057,32.67,12.989,70.071,19.322,132.972-7.416,169.67,76.491,15.487,35.41,20.834,56.505,52.949,82.043,4.965,3.948,10.697,8.357,18.756,12.924,3.722,2.109,7.527,3.639,4.416,7.79ZM278.271,254.607c12.53,1.61,20.23-.178,28.045-2.249,8.695-2.304,18.089-6.083,26.238-10.452.539-.289,1.068.394.648.838-1.871,1.977-4.094,4.654-4.82,6.858-2.984,9.07,4.614,15.463,16.167,15.21,24.028-.525,40.902-16.738,44.685-17.898,2.513-.771,6.236,9.815,23.757,6.906,10.594-1.759,20.958-5.528,29.277-12.394-13.953-9.587-28.22-19.134-39.683-31.764-24.443-26.93-26.822-56.242-44.852-84.183-36.605-56.727-112.213-33.061-167.27-56.101-13.52-5.658-28.096-13.093-40.696-19.814-8.478-4.522-30.804-22.114-39.463-12.078-7.475,8.664,5.017,32.84,10.56,40.983,10.123,14.871,29.854,29.132,46.12,36.78,16.443,7.732,34.901,11.98,45.692,13.992.694.129.552,1.159-.152,1.107-6.738-.504-13.583-1.481-20.034-2.914-13.481-2.996-23.283-7.769-36.059-11.081-11.058-2.867-24.436-4.701-23.879,10.961.745,20.931,28.975,38.403,46.742,44.59,28.559,9.946,57.711,7.626,84.675,3.148.661-.11.943.814.33,1.084-4.575,2.01-14.3,5.271-31.497,6.759-10.812.936-34.882-1.182-40.109,5.467-5.708,7.261-2.845,18.548,3.94,23.775,21.278,16.39,54.298,12.164,78.974,7.484,4.694-.89,10.1-3.123,13.221-4.463.549-.236.987.49.534.879-5.832,5.002-13.756,8.197-25.913,10.408-12.444,2.263-11.167,7.444-10.262,11.05,1.657,6.604,12.557,15.501,25.087,17.112Z"/>
      <path class="st0" d="M391.345,233.148c-1.989-.784-33.98,3.646-37.141-20.551-.235-1.797-1.784-3.13-3.595-3.069h-.036c-9.322.297-22.864-1.181-32.524-7.97-12.769-8.975-18.489-23.399-3.745-32.736.995-.63.514-2.183-.663-2.157-4.289.093-10.564.829-16.684-.84-29.104-7.937-30.781-30.089-26.615-41.785.151-.425.559-.691,1.009-.707,2.471-.085,4.885-.729,8.161-2.324.429-.209.28-.799-.276-.766-2.001.118-5.273.049-9.491-.957-4.917-1.173-9.131-3.056-11.139-4.016-.472-.226-.691.263-.449.609,1.005,1.436,4.106,5.26,8.177,6.67.413.143.549.67.243.983-10.553,10.81-8.1,41.728,32.861,49.489-4.467,21.589,10.404,44.842,44.4,42.774,8.685,27.048,36.328,24.44,46.422,21.248,2.873-.909,3.163-3.076,1.085-3.895Z"/>
    </g>
    <g>
      <path class="st0" d="M709.448,235.968c8.06-4.567,13.792-8.976,18.756-12.924,32.115-25.537,37.461-46.633,52.949-82.043,36.698-83.907,99.6-57.168,169.67-76.491,10.63-2.931,22.68-8.235,32.67-12.989,13.872-6.601,43.847-26.709,57.346-27.005,9.934-.218,17.765,4.29,19.609,14.102,4.677,24.881-16.938,54.374-37.637,66.608-.526.311-.503,1.072.047,1.337,1.649.793,4.44,2.228,5.943,3.521,20.69,17.813-1.634,44.546-17.194,56.401-9.642,7.346-21.774,12.14-33.529,15.311-1.117.301-1.673,1.507-1.225,2.573,1.031,2.451,1.572,5.076,1.934,7.484,4.584,30.481-37.305,43.017-61.681,41.329-.965-.067-1.832.604-2.008,1.554-5.586,30.109-47.973,34.711-71.482,23.988-1.657-.756-3.148-.317-4.273,1.973-6.921,14.099-19.395,14.231-33.576,12.867-8.301-.799-27.495-7.582-33.945-12.738-2.074-1.658-3.686-1.872-6.376-.583-7.941,3.805-17.709,2.976-23.204,2.401-14.375-1.505-34.099-14.738-37.21-18.888s.693-5.68,4.416-7.79ZM904.92,237.495c.904-3.606,2.182-8.788-10.262-11.05-12.158-2.21-20.082-5.405-25.913-10.408-.453-.389-.015-1.115.534-.879,3.121,1.34,8.596,3.262,13.221,4.463,17.404,4.518,57.696,8.906,78.974-7.484,6.785-5.226,9.648-16.513,3.94-23.775-5.227-6.649-29.298-4.531-40.109-5.467-17.198-1.488-26.923-4.749-31.498-6.759-.613-.269-.331-1.193.33-1.083,26.964,4.478,56.116,6.798,84.675-3.148,17.767-6.188,45.997-23.66,46.742-44.59.557-15.662-12.82-13.827-23.879-10.961-12.776,3.312-22.408,8.199-35.889,11.195-6.28,1.396-13.009,2.309-19.624,2.79-.765.056-.918-1.06-.164-1.202,10.862-2.054,28.966-6.288,45.125-13.886,16.265-7.648,35.996-21.909,46.12-36.78,5.543-8.142,18.035-32.318,10.56-40.983-8.659-10.037-30.985,7.556-39.463,12.078-12.6,6.721-27.176,14.156-40.696,19.814-55.057,23.04-130.666-.626-167.27,56.101-18.03,27.942-20.41,57.253-44.852,84.183-11.463,12.629-25.73,22.177-39.683,31.764,8.319,6.867,18.683,10.635,29.277,12.394,17.521,2.909,20.553-6.893,23.757-6.906,3.957-.016,20.657,17.373,44.685,17.898,11.554.253,19.152-6.141,16.167-15.21-.726-2.206-2.951-4.883-4.822-6.86-.42-.444.109-1.126.647-.837,8.15,4.369,17.545,8.149,26.241,10.453,7.814,2.071,15.515,3.859,28.045,2.249,12.53-1.61,23.43-10.508,25.087-17.112Z"/>
      <path class="st0" d="M766.759,233.148c1.989-.784,33.98,3.646,37.141-20.551.235-1.797,1.784-3.13,3.595-3.069h.036c9.322.297,22.864-1.181,32.524-7.97,12.769-8.975,18.489-23.399,3.745-32.736-.995-.63-.514-2.183.663-2.157,4.289.093,10.564.829,16.684-.84,29.104-7.937,30.781-30.089,26.615-41.785-.151-.425-.559-.691-1.009-.707-2.471-.085-4.885-.729-8.161-2.324-.429-.209-.28-.799.276-.766,2.001.118,5.273.049,9.491-.957,4.917-1.173,9.131-3.056,11.139-4.016.472-.226.691.263.449.609-1.005,1.436-4.106,5.26-8.177,6.67-.413.143-.549.67-.243.983,10.553,10.81,8.1,41.728-32.861,49.489,4.467,21.589-10.404,44.842-44.4,42.774-8.685,27.048-36.328,24.44-46.422,21.248-2.873-.909-3.163-3.076-1.085-3.895Z"/>
    </g>
    <g>
      <path class="st0" d="M371.767,57.505c1.371-.656,1.371-3.012,0-3.667l-8.934-3.546c-.01-.005-.02-.009-.03-.014-1.811-.863-3.225-2.58-3.935-4.778-.004-.012-.008-.024-.012-.036l-3.741-12.526c-.54-1.665-2.48-1.665-3.02,0l-3.741,12.526c-.004.012-.008.024-.012.036-.71,2.198-2.125,3.916-3.935,4.778-.01.005-.02.01-.03.014l-8.934,3.546c-1.371.656-1.371,3.012,0,3.667l8.934,3.546c.01.005.02.01.03.014,1.811.863,3.225,2.58,3.935,4.778.004.012.008.024.012.036l3.741,12.526c.54,1.665,2.48,1.665,3.02,0l3.741-12.526c.004-.012.008-.024.012-.036.71-2.199,2.125-3.916,3.935-4.778.01-.005.02-.009.03-.014l8.934-3.546Z"/>
      <path class="st0" d="M331,36.575c.699-.334.699-1.536,0-1.87l-4.842-2.316c-.005-.002-.01-.005-.015-.007-.923-.44-1.645-1.316-2.007-2.437-.002-.006-.004-.012-.006-.019l-1.908-5.88c-.275-.849-1.265-.849-1.54,0l-1.908,5.88c-.002.006-.004.012-.006.019-.362,1.121-1.083,1.997-2.007,2.436-.005.002-.01.005-.015.007l-4.842,2.316c-.699.334-.699,1.536,0,1.87l4.842,2.316c.005.002.01.005.015.007.923.44,1.644,1.316,2.007,2.437.002.006.004.012.006.018l1.908,5.88c.275.849,1.265.849,1.54,0l1.908-5.88c.002-.006.004-.012.006-.018.362-1.121,1.083-1.997,2.007-2.437.005-.002.01-.005.015-.007l4.842-2.316Z"/>
    </g>
    <g>
      <path class="st0" d="M822.356,60.67c1.431-.684,1.43-3.142,0-3.827l-9.412-3.7c-.01-.005-.021-.01-.031-.015-1.889-.9-3.365-2.692-4.106-4.986-.004-.013-.008-.025-.012-.038l-3.903-13.07c-.564-1.737-2.588-1.737-3.152,0l-3.903,13.07c-.004.013-.008.025-.012.038-.741,2.294-2.217,4.086-4.106,4.986-.01.005-.021.01-.031.015l-9.412,3.7c-1.431.684-1.431,3.142,0,3.827l9.412,3.7c.01.005.021.01.031.015,1.889.9,3.365,2.692,4.106,4.986.004.013.008.025.012.038l3.903,13.07c.564,1.737,2.588,1.737,3.152,0l3.903-13.07c.004-.013.008-.025.012-.038.741-2.294,2.217-4.086,4.106-4.986.01-.005.021-.01.031-.015l9.412-3.7Z"/>
      <path class="st0" d="M842.878,36.928c.652-.312.652-1.431,0-1.743l-4.514-2.159s-.009-.004-.014-.007c-.861-.41-1.533-1.226-1.87-2.271-.002-.006-.004-.012-.006-.017l-1.778-5.48c-.257-.791-1.179-.791-1.436,0l-1.778,5.48c-.002.006-.004.012-.006.017-.338,1.045-1.01,1.861-1.87,2.271-.005.002-.009.005-.014.007l-4.514,2.159c-.652.312-.652,1.431,0,1.743l4.514,2.159s.009.005.014.007c.861.41,1.533,1.226,1.87,2.271.002.006.004.011.006.017l1.778,5.48c.257.791,1.179.791,1.436,0l1.778-5.48c.002-.006.004-.011.006-.017.338-1.045,1.01-1.861,1.87-2.271.005-.002.009-.004.014-.007l4.514-2.159Z"/>
    </g>
    <path class="st9" d="M628.224,33.81c-14.365,6.562-24.538,15.754-32.499,27.012l.008-.1c-3.576,4.907-6.476,10.11-9.079,15.475-2.373,4.892-4.499,9.917-6.654,14.977-2.154-5.059-4.28-10.083-6.652-14.974-2.603-5.365-5.503-10.57-9.08-15.478l.008.1c-7.961-11.258-18.134-20.45-32.499-27.012-64.293-29.368-131.402,35.382-101.228,102.329,27.011,59.931,103.444,81.384,149.011,132.748.236.266.646.266.882,0,45.568-51.365,122-72.818,149.011-132.748,30.173-66.947-36.936-131.697-101.228-102.329ZM448.463,115.496c-5.577-4.315-3.919-10.503,2.014-13.319,3.394-1.611,9.3-1.052,11.695,1.85,5.371,6.507-5.852,17.548-13.709,11.469ZM493.052,65.704c-8.513,1.709-18.046,9.643-22.025,18.596-3.353,7.544-19.189,6.229-17.939-6.284,1.25-12.513,10.094-22.923,21.266-26.995,28.686-10.457,30.345,12.345,18.698,14.683Z"/>
  </g>
  <g>
    <path class="st0" d="M169.718,233.946c-4.323,11.062,7.427,19.871,19.115,21.464,1.053.144,1.176,1.59.161,1.906-8.375,2.607-19.389-1.474-23.604-6.274-5.372-6.118-3.61-15.063,3.008-18.343.792-.393,1.642.423,1.32,1.246Z"/>
    <path class="st0" d="M132.49,198.772c-2.916.171-5.49,1.582-7.258,4.962-11.745-8.855-23.022,5.537-13.152,15.65,4.553,4.665,12.076,4.86,21.258,9.285-.165-7.858,6.791-10.939,8.147-19.024,1.075-6.41-3.535-11.191-8.995-10.872ZM117.583,207.6c-1.185.303-2.279,1.23-2.777,2.542-.419,1.106-2.919,1.033-2.83-.771.09-1.804,1.306-3.26,2.803-4.019,3.992-2.025,4.424,1.834,2.803,2.249Z"/>
  </g>
  <g>
    <path class="st0" d="M1007.091,269.114c-.192,1.048-1.605,1.275-2.071.317-1.561-3.203-3.339-5.794-7.73-7.15-6.576-2.03-12.097-.829-18.437,1.918-.914.396-1.866-.527-1.464-1.438,4.176-9.461,17.758-10.523,24.301-6.286,5.19,3.361,6.277,7.853,5.401,12.639Z"/>
    <path class="st0" d="M1035.085,201.439c-1.637-3.33-4.861-5.053-8.446-5.141-6.541-.161-11.376,5.044-10.516,11.196,1.383,9.896,10.526,11.812,13.1,20.983,11.627-4.234,17.293-6.509,21.925-13.498,8.264-12.47-6.442-23.332-16.062-13.539ZM1026.482,203.3c-1.37.351-2.637,1.423-3.213,2.94-.485,1.279-3.377,1.195-3.273-.892.104-2.087,1.51-3.771,3.243-4.649,4.618-2.342,5.118,2.121,3.243,2.601Z"/>
  </g>
  <path class="st0" d="M1086.989,495.003s11.634-4.622,54.484-63.703c14.149-19.509,28.293-71.537-1.649-87.914-14.04-7.679-30.473-.079-33.913,8.768-3.474,8.933,7.61,13.565,12.063,7.23,1.809-2.574,4.069-4.177,7.623-5.162,16.709-4.632,24.155,17.707,20.302,42.876-3.48,22.732-22.953,48.637-14.682,27.131l-44.227,70.775Z"/>
  <path class="st0" d="M1118.099,334.675c1.138.271,1.955-1.046,1.188-1.93-3.009-3.468-9.826-7.61-14.747-4.632-6.29,3.806-1.629,10.385,2.112,8.501,3.117-1.569,6.121-3.21,11.448-1.939Z"/>
  <g>
    <path class="st0" d="M636.021,710.212c-5.305-12.646-16.82-20.099-30.794-19.845-12.374.194-19.236,6.166-22.814,11.142-1.153,1.604-2.1,3.28-2.861,4.982-.761-1.702-1.707-3.379-2.861-4.982-3.578-4.976-10.44-10.948-22.814-11.142-13.973-.255-25.488,7.198-30.794,19.845-5.693,13.574-2.533,29.584,7.863,39.84,7.769,7.663,14.347,12.535,20.15,16.834,8.81,6.525,16.418,12.161,25.623,25.587.051.074.787,1.257,1.496,2.397.616.99,2.056.99,2.672,0,.709-1.14,1.445-2.323,1.496-2.397,9.205-13.426,16.813-19.061,25.623-25.587,5.803-4.298,12.381-9.171,20.15-16.834,10.396-10.256,13.556-26.267,7.863-39.84ZM623.333,745.162c-6.768,7.931-13.518,11.838-19.414,16.205-8.399,6.221-15.765,11.182-24.367,22.755-8.602-11.573-15.967-16.535-24.367-22.755-5.895-4.367-12.597-8.315-19.414-16.205-6.958-8.053-11.251-21.404-6.353-32.293,5.02-11.162,13.116-15.302,24.351-15.138,7.535.118,13.532,2.487,17.344,7.789,4.157,5.781,4.881,13.361,3.448,17.862-1.815,5.702-5.27,9.947-9.24,11.356-2.33.828-4.614.573-6.61-.735,2.968-2.63,3.533-4.157,3.684-6.494.185-2.866-1.717-6.296-5.581-7.012-4.305-.797-7.914,1.629-8.679,6.639-.758,4.964,2.697,9.913,6.809,12.61,3.805,2.495,8.309,3.016,12.674,1.466,4.99-1.771,9.204-5.966,11.933-11.76,2.73,5.795,6.944,9.989,11.933,11.76,4.365,1.55,8.869,1.03,12.674-1.466,4.111-2.697,7.567-7.646,6.809-12.61-.765-5.01-4.374-7.436-8.679-6.639-3.864.715-5.636,4.661-5.581,7.012.056,2.393.716,3.864,3.684,6.494-1.996,1.308-4.28,1.563-6.61.735-3.97-1.409-7.425-5.654-9.24-11.356-1.433-4.501-.709-12.082,3.448-17.862,3.812-5.302,9.81-7.671,17.344-7.789,11.236-.164,20.11,5.026,24.351,15.138,4.618,11.01,1.365,23.247-6.353,32.293Z"/>
    <path class="st0" d="M578.328,751.935c-1.026,1.961-2.87,4.338-6.133,5.929-.914.446-1.053,1.569-.221,2.127,3.105,2.082,5.114,6.83,6.278,10.585.395,1.275,2.204,1.275,2.599,0,1.164-3.756,3.174-8.503,6.278-10.585.832-.558.692-1.681-.221-2.127-3.263-1.591-5.107-3.968-6.133-5.929-.522-.998-1.926-.998-2.448,0Z"/>
    <path class="st0" d="M580.776,693.355c1.026-1.961,2.87-4.338,6.133-5.929.914-.446,1.053-1.569.221-2.127-3.105-2.082-5.114-6.83-6.278-10.585-.395-1.275-2.204-1.275-2.599,0-1.164,3.756-3.174,8.503-6.278,10.585-.832.558-.692,1.681.221,2.127,3.263,1.591,5.107,3.968,6.133,5.929.522.998,1.926.998,2.448,0Z"/>
  </g>
  <path class="st0" d="M1095.581,517.76c-12.529-2.308-27.924,2.442-34.084,18.261-3.1,7.961-1.854,17.438,3.098,23.585,3.904,4.846,9.61,6.949,16.066,5.927,6.381-1.01,9.742-6.188,9.196-10.406-.355-2.743-2.662-5.757-7.984-5.221-1.442.145-2.819.788-4.15,1.409-2.653,1.238-4.361,1.903-6.003.084-.583-.644-.903-1.549-1.141-2.35-1.738-5.876-.241-11.674,4.214-16.324,5.545-5.786,14.64-8.524,22.12-6.653,4.689,1.171,10.845,4.586,13.553,14.205,3.557,12.638-.239,26.686-10.98,40.626-11.833,15.357-27.646,25.355-33.895,28.941-10.701,6.141-32.926,16.032-46.552,18.656,6.313-6.597,25.656-29.122,21.798-53.509-1.868-11.808-10.117-21.139-22.067-24.958-12.222-3.907-25.578-1.114-34.518,7.093v-6.768c0-4.172-4.024-12.428-7.028-15.546-7.859-8.16-19.608-9.864-29.926-4.34-9.775,5.231-14.615,15.326-12.334,25.718.978,4.455,4.188,8.637,8.379,10.913,3.594,1.953,7.504,2.303,11.008.988,2.967-1.116,5.26-3.894,5.331-6.461.054-1.91-1.103-3.486-3.257-4.438-2.226-.983-4.313-.397-6.152.12-2.754.776-4.575,1.289-6.256-2.997-2.873-7.325,1.463-13.839,7.033-17.046,6.132-3.527,14.937-3.79,20.785,3.581,4.283,5.4,6.008,12.669,4.855,20.469-1.355,9.173-6.558,17.899-13.579,22.771-1.102.766-2.265,1.555-3.519,2.037-6.854,2.634-5.758,4.816-2.747,5.205,7.693.993,16.014-8.125,21.568-16.386,1.831-2.723,3.561-5.295,5.471-7.522,10.622-12.389,23.779-15.54,36.098-8.648,20.183,11.295,11.411,35.964,8.242,43.255-5.606,12.895-15.516,24.888-27.411,33.259l4.559-9.105c1.925-4.17,4.043-10.999,4.213-17.659.195-7.647-2.245-13.057-7.053-15.643-2.401-1.291-6.338-2.372-9.534-1.16-1.78.675-3.077,2.001-3.751,3.836-1.139,3.1.38,4.618,1.849,6.085.631.631,1.284,1.282,1.815,2.107,5.24,8.142,3.339,19.751.12,27.218-10.646,24.692-49.099,48.091-76.368,52.515-22.351,3.628-37.752-1.065-57.256-7.003-1.687-.514-3.408-1.037-5.17-1.567-39.671-11.934-80.822-1.136-101.82,6.363-25.558,9.127-50.774,25.036-77.009,48.591l5.577-14.109c2.868-9.978,2.423-16.599-1.361-20.241-1.389-1.335-3.905-2.665-6.296-2.543-1.425.056-2.64.606-3.515,1.591-1.976,2.227-1.103,4.14-.333,5.828.261.57.529,1.159.699,1.763,3.171,11.289.187,30.193-18.657,46.322-4.759,4.074-10.249,7.584-15.557,10.979-5.052,3.232-10.276,6.572-14.739,10.335-.058.049-5.814,4.99-5.299,7.631.124.635.576,1.11,1.289,1.343.762.227,1.382-.022,1.88-.223l.171-.069c2.503-.982,6.2-3.577,9.775-6.086,1.992-1.399,3.873-2.719,5.331-3.599,17.973-10.847,37.316-21.44,58.784-21.487h.091c3.934,0,16.734.553,22.927,7.388,2.491,2.75,3.547,6.205,3.136,10.268-.196,1.938-.654,3.153-1.4,3.716-.909.687-2.333.433-3.985.14-1.665-.296-3.55-.633-5.371-.035-2.517.824-3.977,2.943-3.809,5.531.179,2.775,2.34,5.958,6.12,6.673,1.211.23,2.334.332,3.376.332,4.91,0,7.996-2.286,9.808-4.42,4.078-4.805,5.099-13.161,2.482-20.321-3.006-8.224-13.154-21.153-47.386-15.299l-9.584,2.552c24.972-17.627,45.786-27.663,67.09-32.398,6.276-1.394,22.487-4.346,37.42-1.617,14.547,2.658,23.561,9.789,26.792,21.196,2.332,8.234.801,16.409-4.204,22.427-4.839,5.82-12.293,8.725-20.471,7.965-6.483-.601-13.471-5.349-13.855-12.053.728-.125,1.459-.203,2.171-.278,1.993-.212,4.054-.43,6.055-1.696,4.211-2.664,4.836-6.581,4.016-9.359-1.061-3.598-4.569-5.992-8.613-5.948-4.737.047-8.58,2.1-10.822,5.782-2.742,4.504-2.739,10.93.007,16.368,5.246,10.389,16.08,15.933,28.265,14.459,13.032-1.572,23.27-10.442,26.082-22.598,4.781-20.648-6.791-37.945-28.795-43.043-27.018-6.263-53.743,1.701-71.406,9.48-1.267.558-2.53,1.155-3.778,1.763,26.285-17.994,54.807-29.931,82.962-34.66,11.264-1.892,68.108-9.711,81.108,22.258,3.181,7.821,2.422,17.155-1.933,23.778-3.472,5.281-8.901,8.264-15.286,8.4-3.121.085-7.759-1.318-8.793-4.088.286-.275,1.277-.566,1.841-.732.733-.215,1.491-.438,2.032-.786,3.512-2.261,5.311-6.377,4.376-10.007-.779-3.028-3.266-4.905-6.821-5.148-4.118-.283-7.793,1.6-10.077,5.167-2.669,4.171-2.864,9.661-.498,13.987,5.434,9.936,18.362,11.439,27.764,7.808,8.385-3.239,14.291-9.941,16.63-18.874,2.808-10.72.266-23.21-6.475-32.4,28.465,7.027,58.131,3.455,81.707-9.893,5.983-3.388,11.69-7.626,17.208-11.724,13.269-9.855,27.009-20.039,45.305-18.771,6.589.458,21.078,4.52,21.215,13.603.013.781-.222,1.749-.469,2.773-.643,2.659-1.442,5.968,2.139,7.405,3.217,1.292,5.368.248,6.608-.855,3.127-2.78,4.025-9.092,2.901-13.244-2.221-8.205-8.911-13.585-19.886-15.99-9.183-2.013-18.849-1.346-24.304-.671,8.237-3.514,16.815-6.397,25.143-9.194,10.212-3.431,20.773-6.979,30.723-11.695,14.169-6.714,60.376-31.801,60.099-72.703-.129-18.941-13.631-28.142-25.154-30.267Z"/>
  <path class="st0" d="M537.506,769.792c-4.462-3.762-9.686-7.103-14.737-10.334-5.309-3.396-10.798-6.906-15.558-10.98-11.777-10.08-23.73-28.261-18.657-46.322.17-.604.439-1.193.698-1.763.771-1.688,1.643-3.601-.333-5.828-.874-.985-2.089-1.534-3.514-1.591-2.419-.109-4.908,1.209-6.296,2.543-3.784,3.642-4.229,10.262-1.34,20.305l5.554,14.044c-26.234-23.555-51.449-39.463-77.007-48.59-41.873-14.953-76.153-17.085-101.887-6.338-9.559,3.992-16.818,9.82-21.575,17.325-4.175,6.588-6.124,14.083-5.636,21.678.824,12.806,8.616,23.39,19.389,26.337,9.847,2.694,22.293,2.052,27.697-7.829,2.366-4.326,2.171-9.816-.499-13.987-2.283-3.566-5.955-5.448-10.076-5.167-3.556.243-6.042,2.12-6.822,5.148-.934,3.631.866,7.746,4.377,10.007.541.348,1.299.571,2.031.786.564.166,1.555.457,1.841.732-1.033,2.769-5.695,4.176-8.793,4.088-6.385-.136-11.814-3.118-15.286-8.4-4.355-6.622-5.114-15.956-1.933-23.778,13.001-31.969,69.845-24.15,81.109-22.258,28.154,4.729,56.676,16.666,82.962,34.66-1.248-.608-2.512-1.205-3.778-1.763-17.665-7.78-44.392-15.738-71.406-9.48-22.003,5.098-33.575,22.394-28.796,43.043,2.814,12.156,13.053,21.027,26.084,22.598,12.189,1.471,23.019-4.07,28.265-14.459,2.746-5.439,2.748-11.864.006-16.368-2.242-3.682-6.085-5.735-10.822-5.782-4.077-.006-7.551,2.351-8.613,5.948-.82,2.778-.195,6.695,4.016,9.359,2.002,1.266,4.063,1.484,6.056,1.696.711.076,1.442.153,2.171.278-.384,6.704-7.371,11.452-13.855,12.053-8.172.762-15.633-2.145-20.472-7.965-5.004-6.019-6.536-14.193-4.203-22.427,3.231-11.407,12.245-18.538,26.793-21.196,14.932-2.731,31.143.222,37.42,1.617,21.305,4.735,42.118,14.77,67.091,32.4l-9.648-2.568c-14.67-2.504-40.323-3.848-47.325,15.312-2.616,7.159-1.595,15.515,2.483,20.321,1.811,2.134,4.897,4.42,9.808,4.42,1.042,0,2.165-.103,3.376-.332,3.781-.714,5.94-3.898,6.12-6.673.168-2.588-1.292-4.707-3.81-5.531-1.819-.596-3.706-.261-5.371.035-1.651.294-3.076.547-3.984-.14-.746-.563-1.203-1.779-1.4-3.716-.411-4.063.644-7.518,3.136-10.268,6.193-6.836,18.993-7.388,22.926-7.388h.092c21.468.047,40.811,10.64,58.784,21.487,1.458.88,3.34,2.2,5.332,3.599,3.575,2.51,7.271,5.104,9.776,6.087l.17.068c.498.201,1.118.451,1.896.217.697-.227,1.15-.702,1.273-1.337.515-2.641-5.241-7.582-5.3-7.631Z"/>
  <path class="st0" d="M222.877,542.874c-6.378-4.332-13.853-5.285-21.048-2.685-7.851,2.838-13.953,9.444-16.325,17.671-1.549,5.376-1.627,10.918-.477,16.155-.836-.585-1.685-1.123-2.534-1.592-10.493-5.805-22.963-6.15-35.113-.97-6.188,2.638-11.756,6.535-16.334,11.245-2.144,2.205-4.758,3.91-7.603,5.078-4.953,2.032-9.288,2.525-14.663.949-7.039-2.062-14.316-8.345-17.302-14.938-1.968-4.345-2.071-8.657-.299-12.468.803-1.726,3.077-4.697,5.938-3.586,1.152.448,1.343,1.277,1.561,2.591.202,1.221.454,2.742,2.198,3.442,1.674.674,3.422.519,5.054-.445,2.235-1.318,4.028-4.128,4.362-6.833.372-3.019-.611-5.557-2.843-7.341-3.748-2.993-9.986-3.094-13.953-1.665-4.473,1.609-7.886,4.763-9.869,9.123-2.5,5.498-2.536,12.517-.095,18.774,4.455,11.422,18.286,20.735,30.832,20.762.645,0,1.288-.066,1.904-.131.342-.036.675-.071,1.003-.094-1.356,1.515-3.407,2.822-5.471,4.019-6.035,3.503-12.633,10.311-11.364,17.968.662,3.997,3.922,8.7,8.105,9.337.288.015.567.022.837.022,2.745,0,4.561-.775,5.402-2.309,1.215-2.213-.056-5.387-1.514-7.434-5.204-7.306-1.046-10.845,5.248-16.201.592-.504,1.215-1.039,1.848-1.588-.322.932-.619,1.87-.871,2.819-7.859,29.606,14.595,54.443,40.838,63.676,7.82,2.752,14.658,4.105,20.784,4.105,1.152,0,2.279-.047,3.383-.143.3-.026.549-.242.617-.535.194-.837-.298-1.098-.582-1.181-2.006-1.365-4.677-2.455-7.261-3.51-2.05-.837-4.17-1.702-5.917-2.689-10.519-5.939-20.063-19.048-17.951-32.612.564-3.621,2.586-8.378,5.222-10.057,1.308-.835,1.722-.365,2.624.666.517.59,1.103,1.259,1.961,1.63,1.801.779,3.737.697,5.599-.237,2.376-1.193,4.317-3.673,4.943-6.318,1.244-5.254-.222-9.606-4.023-11.941-4.89-3.004-12.42-2.019-17.519,2.287-12.378,10.457-12.594,31.889-5.039,44.593l.307.496c-13.974-9.649-21.582-24.466-19.988-39.306,1.712-15.942,12.863-29.163,28.409-33.682,11.56-3.357,24.818.346,35.463,9.918.051.047,8.418,7.831,13.444,10.195,2.454,1.155,3.757,1.682,5.215,1.837.588.063,3.114-.458,1.049-2.844-.294-.34-2.335-2.059-4.823-3.38-1.148-.609-2.378-1.573-3.027-2.09-11.501-9.151-14.818-26.205-7.098-36.494,3.089-4.118,8.476-7.084,13.723-7.557,2.87-.257,7.013.102,10.453,3.291,2.524,2.339,3.912,6.548,3.375,10.234-.401,2.753-1.826,4.862-4.012,5.94-.822.405-1.872.578-2.982.759-2.507.411-5.627.923-5.656,4.908-.011,1.565.537,2.773,1.629,3.587,2.868,2.138,8.282.639,9.338.318,6.14-1.876,10.012-6.152,10.903-12.044,1.168-7.721-3.044-16.761-10.015-21.494Z"/>
  <path class="st0" d="M1111.268,228.332c-9.722-2.939-16.442-2.815-23.82-2.03-.835.089-1.939.198-2.778.345-.069-.288.095-.341.254-.504,1.862-1.91,4.174-3.434,6.079-5.573,14.68-16.482,16.12-42.288-1.604-57.166-11.303-9.487-29.06-11.049-39.174,1.021-10.588,12.636-1.328,32.035,15.424,30.116,4.79-.549,8.667-4.007,6.983-9.135-1.303-3.972-4-2.195-6.839-1.696-10.463,1.841-12.619-10.246-4.82-15.796,6.318-4.497,14.638-3.01,20.636,1.254,15.709,11.166,14.107,35.329.783,47.69-13.983,12.973-34.075,13.871-48.281,27.685l.104-.003c-11.617,10.763-15.659,24.115-15.488,37.084.145,3.195,2.792,2.698,3.867-.445,1.803-5.272,4.145-9.131,9.678-11.746,6.816-3.221,13.541-3.431,21.74-2.738,8.382.708,14.825,3.437,16.356-2.434,2.364-9.064-10.76-13.266-20.525-12.673-4.792.291-10.845,2.513-16.15,6.323,5.567-8.073,13.011-13.017,14.195-13.779l.057-.002c6.774-4.042,15.633-7.156,25.052-8.776,2.825-.384,6.025-.743,9.731-1.103,18.131-1.012,36.419,3.969,44.691,18.796,6.938,12.435.391,30.453-15.309,29.325-3.603-.259-10.569-2.963-8.677-7.659,1.884-4.677,9.099-3.205,9.754-8.484.833-6.725-7.459-10.139-12.87-7.298-9.614,5.047-9.863,19.212-2.142,26.063,13.243,11.752,34.035,5.888,39.692-10.804,6.885-20.316-7.853-40.188-26.599-45.856Z"/>
  <path class="st0" d="M160.427,265.145c-3.399-4.046-15.517-13.801-28.888-21.749-8.928-5.307-13.484-7.482-18.4-9.827-12.117-5.779-24.187-8.903-33.877-17.892-13.324-12.361-14.927-36.524.783-47.69,5.999-4.264,14.318-5.751,20.636-1.254,7.799,5.551,5.643,17.637-4.82,15.796-2.838-.499-5.535-2.276-6.839,1.696-1.683,5.128,2.194,8.586,6.983,9.135,16.752,1.919,26.013-17.48,15.424-30.116-10.114-12.07-27.871-10.508-39.174-1.021-17.725,14.878-16.285,40.683-1.604,57.166,1.905,2.138,4.216,3.663,6.079,5.573.159.163.324.216.254.504-.838-.146-1.943-.256-2.778-.345-7.377-.785-14.098-.909-23.82,2.03-18.747,5.668-33.485,25.54-26.599,45.856,5.657,16.692,26.449,22.556,39.692,10.804,7.72-6.851,7.472-21.015-2.142-26.063-5.412-2.841-13.704.573-12.87,7.298.654,5.279,7.869,3.807,9.754,8.484,1.892,4.696-5.073,7.4-8.677,7.659-15.701,1.128-22.247-16.89-15.309-29.325,8.272-14.827,26.56-19.808,44.691-18.796,4.726.429,9.192.801,14.672,2.234,12.643,3.307,25.972,9.631,30.377,13.455,5.337,4.634,2.476,3.116-1.473,2.511-8.23-1.261-13.896-1.137-19.852,0-7.984,1.525-15.054,5.066-18.487,9.988-3.625,5.197-2.223,11.134,1.406,12.325,5.294,1.737,7.316-2.939,11.849-8.349,3.846-4.591,11.459-8.164,16.502-8.933,7.32-1.117,18.285-1.916,42.769,12.311,3.088,1.794,6.123-.627,3.738-3.466Z"/>
  <g>
    <path class="st0" d="M394.413,565.905c-3.02-.366-9.057,7.817-3.97,8.933s28.493.538,37.645.055c8.364-.441,13.648-.993,18.56-2.537,3.481-1.094,6.762-3.904,4.218-6.452-2.558-2.562-14.641-2.73-14.144-1.117s-.372,1.861-2.978,1.861-31.142.248-39.331-.744Z"/>
    <path class="st0" d="M498.51,565.781c-7.565-.233-11.612.303-12.655,1.737-1.681,2.309-.248,6.328,1.737,6.328s17.882-.309,26.561-1.01c6.999-.565,12.21-.317,17.991-1.737,3.518-.864,3.897.676,6.328-1.241,2.214-1.746,4.202-4.981,2.295-6.452-2.967-2.289-6.339-1.558-11.973.62-2.343.906-22.219,2.002-30.283,1.754Z"/>
    <path class="st0" d="M169.56,691.315c4.97,5.212,19.883,10.237,40.233,2.262,31.173-12.218,43.751-50.161,49.298-56.246,0,0,2.863-.538,3.484,3.571,1.045,6.923,15.334,8.754,29.851,5.032,25.392-6.511,36.477-14.227,36.477-14.227,0,0,1.323,9.926,9.595,12.904,24.057,8.661,49.298-15.881,49.298-15.881,0,0,.679,13.829,9.595,16.212,12.531,3.35,35.237-17.701,35.237-17.701,0,0-2.182,15.151,10.753,18.032,12.466,2.777,29.281-16.212,29.281-16.212,0,0-2.151,13.896,9.099,16.212,18.116,3.73,34.719-15.242,34.719-15.242,0,0,.352,13.919,17.557,15.573,21.062,2.025,43.3-17.342,48.802-25.476,3.616-5.345-4.14-8.069-5.956-3.97-3.296,7.441-12.738,13.565-22.002,17.039-13.996,5.248-28.123,1.82-22.829-10.257,0,0,8.591.2,23.822-7.775,19.533-10.228,23.515-33.928,10.588-37.387-12.366-3.309-30.439,5.625-40.696,24.484-10.257,18.859-14.558,24.153-29.116,32.094-14.558,7.941-10.257-10.918-7.61-17.867s26.795-53.744,31.101-59.886c5.046-7.196,3.185-11.167-.662-13.028-4.507-2.181-6.603,2.503-9.926,6.741-5.707,7.279-22.829,42.35-31.101,59.555-8.272,17.205-23.16,25.807-28.785,24.153-5.625-1.654,1.158-22.499,11.084-35.402,9.926-12.904,7.444-17.039,2.151-17.039s-7.598-.398-14.227,13.731c-10.712,22.829-36.726,39.373-41.358,40.034-4.632.662-8.933-.993-1.985-17.536,6.948-16.543,35.402-64.849,37.718-70.143,2.316-5.294-1.365-5.583-4.632-9.264-3.74-4.214-11.911,10.588-13.896,15.22-1.985,4.632-20.513,45.328-37.718,65.18-17.205,19.852-52.142,23.712-44.005,4.963,33.086-5.956,43.694-22.101,43.343-34.41-.331-11.58-13.466-17.776-30.108-7.444-21.789,13.526-25.476,37.553-26.469,39.538s-9.595,10.257-29.447,13.896c0,0,11.193-9.237,17.701-24.153,5.552-12.724,4.797-25.642-5.128-30.605-9.926-4.963-27.461,4.467-27.461,4.467,0,0,.898-6.822-3.143-8.437-5.243-2.095-9.843.951-17.205,14.062-5.508,9.809-14.682,37.664-27.627,59.224-17.795,29.636-36.111,44.995-58.722,37.468-6.158-2.3-11.446-.026-8.972,3.944ZM550.403,589.059c8.357-6.53,15.125-3.971,10.888,7.12-4.105,10.746-22.965,17.363-27.916,18.487,0,0,2.191-14.013,17.028-25.607ZM364.636,588.983c15.488-8.142,10.298,9.43,3.102,16.129-9.439,8.788-22.282,8.74-22.282,8.74,0,0,3.97-16.874,19.18-24.87ZM274.186,635.138c-8.933-1.117-7.32-8.313-6.452-11.911s8.313-20.844,15.633-26.428c8.524-6.501,13.896-9.181,19.355-8.437s10.05,14.765-1.365,29.405c-11.415,14.641-18.239,18.487-27.172,17.37Z"/>
    <path class="st0" d="M929.01,623.393c-5.255,6.242-12.835,13.331-23.814,14.9-10.979,1.568-7.909-13.427-3.137-22.35,6.957-13.009,13.595-19.751,13.492-23.69-.084-3.215-8.003-3.365-12.708-2.581-4.705.784-8.234.392-10.195-2.745-1.189-1.902,6.312-8.479,6.378-8.626.618-1.382-2.755-4.569-5.892-6.137-3.137-1.568-4.397.233-10.67,2.978-6.274,2.745-1.595,6.523-.402,10.401.701,2.28-1.722,8.354-6.666,17.461-4.944,9.107-16.448,22.871-26.786,28.29-10.338,5.42-9.339-4.779-7.718-10.253,4.847-16.369,9.81-24.558,13.284-30.017,2.745-4.313,5.14-3.702,3.968-8.016-.991-3.646-4.324-3.972-9.803-2.745-4.836,1.083-14.116,23.526-19.605,36.465-5.489,12.939-20.389,18.821-23.918,17.645-3.529-1.176-3.137-7.058-.392-14.9,2.745-7.842,12.939-26.271,16.076-27.447,3.137-1.176,1.545-3.789.784-9.803-.76-6.014-9.018-3.137-10.979,0-1.961,3.137-9.579,19.512-14.9,29.408-5.998,11.156-18.229,18.744-34.113,22.742-9.462,2.381-13.724.392-13.331-11.371,76.559-21.535,22.463-85.888-10.979-7.45,0,0-5.882.784-11.763-1.568,5.728-13.324,5.728-28.337,3.137-32.152-4.941-7.277-22.556-8.561-29.016-1.568-8.761,4.257-20.341,15.837-27.447,36.073.071-.298-5.177,6.77-13.331,11.763,2.745-16.468-5.489-37.25-7.45-39.602-1.961-2.353,1.568-7.058,5.097-10.979,3.529-3.921-.392-7.842-4.705-8.234-4.313-.392-7.45,3.921-11.763,7.45-4.313,3.529-.392,7.058-.392,9.41s-6.955,10.847-12.336,16.117c-12.159,11.911-25.097,20.566-31.763,26.055-3.027,2.493,3.32,5.664,6.457,3.311,3.137-2.353,9.634-6.856,9.634-6.856,0,0-2.109,17.122,13.934,20.419,21.404,4.399,45.833-18.268,45.833-18.268-.712,32.702,36.76,24.358,50.78-6.163,0,0,4.114,1.458,11.956,2.243-2.353,14.508,1.176,35.289,53.326,7.058,3.137,16.86,11.763,19.997,38.426,2.353,5.882,20.781,21.854,9.564,31.447,2.853,14.108-9.869,27.746-35.943,31.289-39.71,3.543-3.767,4.705,1.96,10.979,1.568,0,0-28.371,41.864-5.489,49.013,18.933,5.915,43.264-14.719,47.236-26.663,2.093-6.293-6.734-2.394-12.051,3.921ZM768.955,588.613c14.752-7.008,10.537,8.204,4.963,13.648-10.67,10.422-24.667,11.778-24.667,11.778,0,0,4.952-18.418,19.704-25.426ZM633.963,635.513c-15.137,2.481-13.152-18.115-13.152-18.115,0,0,15.137-12.904,20.596-22.829,7.941,26.8,6.245,38.7-7.444,40.944ZM698.978,593.576s-.66,17.009,13.4,23.822c-14.641,30.77-44.291,22.303-13.4-23.822ZM716.392,610.089c-11.911-7.444-8.354-21.506-8.354-21.506,0,0,6.286-3.06,10.295.03,4.024,3.102,1.618,14.167-1.941,21.476Z"/>
    <path class="st0" d="M468.364,569.109c-.969.287-1.965.081-2.675-.529-4.205-3.612-9.252-8.732-8.635-16.592.47-5.993,5.515-10.183,11.076-10.143,3.048.022,5.587,1.46,6.577,4.306,9.406-8.589,20.623.557,12.046,11.434-4.544,5.763-9.754,8.965-18.388,11.524Z"/>
  </g>
  <path class="st1" d="M448.463,115.496c-5.577-4.315-3.919-10.503,2.014-13.319,3.394-1.611,9.3-1.052,11.695,1.85,5.371,6.507-5.852,17.548-13.709,11.469Z"/>
  <path class="st1" d="M493.052,65.704c-8.513,1.709-18.046,9.643-22.025,18.596-3.353,7.544-19.189,6.229-17.939-6.284,1.25-12.513,10.094-22.923,21.266-26.995,28.686-10.457,30.345,12.345,18.698,14.683Z"/>
  <path class="st1" d="M117.583,207.6c-1.185.303-2.279,1.23-2.777,2.542-.419,1.106-2.919,1.033-2.83-.771.09-1.804,1.306-3.26,2.803-4.019,3.992-2.025,4.424,1.834,2.803,2.249Z"/>
  <path class="st1" d="M1026.482,203.3c-1.37.351-2.637,1.423-3.213,2.94-.485,1.279-3.377,1.195-3.273-.892.104-2.087,1.51-3.771,3.243-4.649,4.618-2.342,5.118,2.121,3.243,2.601Z"/>
  <path class="st0" d="M69.553,470.598c-13.798-7.815-34.586-8.557-45.116,9.214-8.177,13.801,5.839,36.183,20.953,30.741,10.795-3.887,14.206,7.382,2.373,9.459-34.545,6.062-47.078-42.833-15.029-56.606,15.013-6.452,29.008-.633,29.008-.633,0,0-9.427-5.35-17.991-10.091-46.61-25.807-54.183-91.674-20.364-110.206,10.34-5.666,19.209-4.493,22.829.662,4.501,6.408-6.772,14.119-12.904,8.602-28.123,1.985-31.266,58.728,1.654,85.859-17.556-38.938,12.23-61.107,31.737-52.247,9.269,4.21,13.813,12.573,14.682,21.382,1.689,17.133-14,25.182-23.284,16.005-5.951-5.881,3.307-21.795,13.152-13.565-3.862-27.952-46.126-16.759-31.556,22.871,5.428,14.763,11.415,18.197,26.598,27.663,2.743,1.71,4.006,2.445,7.232,4.679,4.908,3.398,4.986,11.288-3.975,6.212Z"/>
  <g>
    <g>
      <path class="st1" d="M1124.539,392.294h0c-4.764-7.948-12.512-14.01-21.817-17.07-9.143-3.006-19.062-2.882-27.934.349-10.483,3.819-18.491,11.664-22.547,22.093-.383.985-.756,1.934-1.129,2.884-.075-.014-.144-.033-.216-.059,2.934-18.687,6.33-39.776,9.771-60.003,2.627-15.443-2.064-29.29-12.868-37.989-10.408-8.381-25.269-10.514-37.86-5.434-8.551,3.451-15.184,9.847-18.999,17.966-2.912-4.617-6.669-8.48-11.215-11.382-10.509-6.711-23.466-7.179-34.663-1.255-13.47,7.131-21.493,21.574-22.011,39.625-.415,14.45-1.446,27.389-3.087,38.944-.148.041-.342.094-.616.17-7.697-10.066-20.388-14.721-35.319-12.831-32.433,4.111-49.331,4.127-75.315.066-12.522-1.957-24.192,1.511-32.667,9.407-.946.881-2.439-.055-2.031-1.282l.017-.051c.747-2.249,1.415-4.263,2.022-6.003,7.463-21.428,6.799-38.554-1.975-50.9-5.196-7.312-15.628-16.027-35.825-16.027h-89.333c-16.228,0-26.323,6.437-31.933,11.836-7.412,7.134-11.664,17.077-11.664,27.279,0,19.858,15.116,34.832,35.16,34.832h49.219c.931,0,1.534.994,1.1,1.817-16.087,30.492-38.056,55.712-75.769,60.646-17.098,2.237-28.535,9.678-35.134,19.023-.702.994-2.258.5-2.249-.718.042-5.209.127-10.14.232-14.624.008-.349.166-.671.431-.898,10.339-8.835,18.732-19.205,25.012-30.921,13.432-25.061,5.341-44.461-8.637-52.571-14.669-8.512-37.512-5.064-50.351,15.439-7.918,12.644-17.406,21.367-31.117,27.941-.875.42-1.877-.272-1.771-1.237.913-8.34-.713-16.97-4.907-24.178-4.192-7.206-10.594-12.104-17.913-13.949-.811-.204-1.187-1.145-.732-1.846.231-.356.457-.718.677-1.085,7.134-11.849,7.54-27.463,1.012-38.854-5.425-9.467-15.096-15.038-25.893-14.915l-3.218.039c-21.745.261-72.669.873-92.823-.023-2.271-.103-4.486-.049-6.638.152-.728.068-1.35-.488-1.361-1.219-.187-13.136-4.377-25.213-11.9-34.191-6.418-7.66-18.363-16.873-38.815-17.267-23.109-.422-43.965,12.153-55.814,32.936-.222.389-.629.629-1.077.623-13.581-.187-28.441.028-44.073.255-31.595.456-64.267.929-90.513-1.842-17.209-1.818-31.988,5.082-40.531,18.928-9.281,15.041-9.134,35.881.357,50.679,8.386,13.074,22.329,19.446,38.255,17.484,28.865-3.557,66.843-4.082,94.674-2.683.722.036,1.255.69,1.161,1.407-3.273,24.871-10.311,42.06-20.995,51.214-10.952,9.383-27.019,12.088-55.458,9.337-24.499-2.384-45.1,14.16-47.934,38.452-1.34,11.483,1.736,22.716,8.661,31.63,5.275,6.789,15.301,15.393,33.113,17.827,48.091,6.573,87.726-2.765,117.799-27.755,28.563-23.735,41.212-55.744,46.805-79.897.28-1.207,1.974-1.297,2.365-.121.816,2.452,1.882,4.814,3.199,7.033,6.02,10.149,16.515,15.875,28.105,15.272,8.36-.423,20.723-.81,34.395-1.094,1.044-.022,1.63,1.17,1.001,2.004-5.195,6.892-13.469,10.367-25.293,10.887-26.748,1.179-39.182,20.426-39.415,37.811-.284,21.183,16.046,38.329,37.984,39.885,46.555,3.293,72.366-17.147,85.818-34.883,10.917-14.394,18.433-32.745,22.424-54.701.109-.6.645-1.035,1.255-1.018,6.168.171,11.762.388,16.754.651.777.041,1.326.785,1.124,1.536-1.28,4.775-1.44,9.809-.417,14.783,3.443,16.74,19.022,27.482,36.222,24.986,2.219-.323,4.42-.677,6.601-1.063.804-.142,1.525.51,1.452,1.323-.283,3.162-.588,6.341-.916,9.531-1.508,14.673,3.988,27.263,15.078,34.543,5.908,3.878,12.874,5.829,19.918,5.829,6.417,0,12.9-1.619,18.703-4.876,7.912-4.44,13.579-11.43,16.347-19.778.329-.993,1.701-1.131,2.226-.227,2.454,4.228,5.669,8.037,9.502,11.167,8.733,7.131,20.093,10.399,31.985,9.209,37.651-3.779,69.831-18.277,95.914-43.167.586-.559,1.53-.415,1.934.286,1.841,3.195,3.133,6.706,3.898,10.566,2.325,11.744,8.949,21.511,18.651,27.503,8.814,5.445,19.333,7.352,29.61,5.38,10.632-2.04,19.692-8.022,25.512-16.844,4.352-6.597,8.895-17.929,5.824-34.448-1.896-10.201-5.09-19.16-9.067-26.998-.434-.855.204-1.854,1.162-1.798,2.38.138,4.834.033,7.335-.324,35.714-5.101,63.214-2.848,85.408.029,3.105.401,6.161.404,9.119.027.321-.041.601.039.828.185-4.462,4.489-9.484,7.938-15.106,10.351-9.865,4.235-17.133,12.507-20.465,23.294-2.875,9.306-2.414,19.616,1.267,28.283,5.96,14.038,18.945,22.418,34.735,22.418,6.995,0,14.474-1.653,22.229-4.911,17.621-7.401,32.497-20.68,44.501-39.638-.529,10.443,2.479,19.959,8.766,27.345,8.084,9.497,20.941,14.728,36.202,14.728.993,0,2.002-.022,3.032-.066,54.506-2.365,104.584-53.655,117.159-100.075,3.004-11.09,1.691-22.148-3.696-31.137Z"/>
      <path class="st10" d="M896.346,532.498c-18.463,0-33.668-9.85-40.674-26.349-4.266-10.047-4.81-21.969-1.492-32.709,3.715-12.028,11.657-21.404,22.46-26.581-20.199-2.238-44.632-3.375-75.168.986-.111.016-.223.032-.334.047,2.824,6.833,4.947,14.038,6.335,21.509,3.465,18.633-1.775,31.59-6.781,39.179-6.785,10.285-17.327,17.256-29.681,19.627-11.876,2.278-24.028.067-34.217-6.227-11.244-6.944-18.911-18.215-21.589-31.738-.164-.823-.353-1.62-.57-2.395-26.112,22.813-57.767,36.22-94.203,39.876-13.612,1.361-26.646-2.413-36.71-10.631-1.982-1.619-3.821-3.388-5.508-5.297-3.718,6.104-8.969,11.196-15.329,14.764-6.644,3.729-14.203,5.701-21.86,5.701-8.483,0-16.595-2.38-23.459-6.887-13.173-8.647-19.718-23.444-17.956-40.595.094-.92.187-1.839.278-2.757l-.07.01c-1.993.289-3.97.43-5.916.43-18.201.001-33.812-12.307-37.554-30.501-.786-3.827-.997-7.659-.635-11.453-2.006-.084-4.098-.162-6.27-.234-4.357,21.015-12.009,38.843-22.774,53.035-13.378,17.638-38.089,37.788-81.116,37.79-3.325,0-6.751-.12-10.298-.371-25.403-1.801-44.31-21.752-43.979-46.407.243-18.223,11.835-38.193,36.54-43.1-.152.008-.302.015-.452.023-12.333.645-23.689-4.64-31.186-14.312-6.956,22.419-20.219,49.544-45.49,70.544-31.523,26.193-72.842,36.014-122.795,29.184-19.967-2.728-31.324-12.524-37.335-20.26-7.969-10.258-11.512-23.163-9.974-36.336,3.254-27.887,26.876-46.857,54.967-44.126,26.492,2.563,41.163.299,50.635-7.816,8.635-7.398,14.671-21.356,17.968-41.531-23.825-.915-58.989-.658-87.821,2.896-18.493,2.277-34.697-5.159-44.475-20.404-10.781-16.81-10.952-40.475-.416-57.55,9.899-16.043,26.913-24.046,46.699-21.956,25.851,2.729,58.309,2.26,89.7,1.808l.162-.002c14.531-.21,28.314-.41,41.111-.288,13.399-21.496,35.611-33.988,59.945-33.523,22.887.44,36.365,10.887,43.643,19.574,7.398,8.827,11.969,20.355,13.124,32.9.706.005,1.413.024,2.122.056,19.94.886,70.694.278,92.368.018l3.303-.04c13.155-.155,24.968,6.637,31.569,18.159,6.864,11.975,7.223,27.876,1.242,40.977,6.412,3.052,11.856,8.123,15.693,14.721,3.265,5.611,5.251,12.04,5.841,18.703,8.508-5.361,15.137-12.192,20.909-21.409,14.91-23.811,41.736-27.645,59.056-17.595.978.567,1.924,1.174,2.836,1.818-1.232-4.006-1.891-8.309-1.891-12.825,0-11.946,4.972-23.584,13.641-31.927,6.465-6.223,18.03-13.64,36.408-13.64h89.333c22.95,0,35.009,10.192,41.085,18.742,8.91,12.539,10.665,28.967,5.246,48.913,7.624-3.152,16.192-4.117,25.123-2.721,25.285,3.953,41.775,3.931,73.508-.092,12.072-1.53,23.107.795,31.754,6.469.813-8.231,1.36-17.113,1.63-26.537.587-20.44,9.86-36.893,25.442-45.142,13.277-7.025,28.662-6.457,41.153,1.519,2.572,1.642,4.943,3.549,7.098,5.707,4.498-5.65,10.401-10.08,17.229-12.836,14.723-5.943,32.121-3.433,44.321,6.391,12.678,10.207,18.212,26.28,15.182,44.095-1.784,10.487-3.659,21.813-5.608,33.863,3.361-2.449,7.101-4.443,11.16-5.922,10.224-3.725,21.647-3.873,32.157-.416,10.777,3.544,19.774,10.605,25.335,19.881h0c6.298,10.508,7.856,23.343,4.39,36.142-6.649,24.542-22.96,49.93-44.754,69.655-23.782,21.525-51.609,34.018-78.353,35.179-1.131.048-2.243.072-3.312.072-17.183,0-31.785-6.036-41.116-16.998-3.681-4.324-6.41-9.242-8.142-14.607-10.819,13.064-23.455,22.678-37.711,28.666-8.552,3.593-16.872,5.414-24.728,5.414ZM895.246,435.053c1.467,0,2.915.42,4.158,1.219h0c3.456,2.221,3.984,7.063,1.088,9.977h0c-5.036,5.065-10.801,9.012-17.138,11.731-8.098,3.476-14.08,10.32-16.846,19.269-2.432,7.875-2.053,16.571,1.041,23.857,4.916,11.577,15.681,18.488,28.797,18.488,6.131,0,12.769-1.483,19.731-4.407,16.301-6.847,30.28-19.343,41.548-37.141l13.138-20.751-1.244,24.529c-.448,8.852,2.054,16.749,7.235,22.836,6.839,8.034,17.951,12.458,31.29,12.458.903,0,1.821-.02,2.759-.06,23.741-1.03,48.69-12.343,70.248-31.854,20.01-18.111,34.938-41.241,40.958-63.461,2.541-9.382,1.474-18.662-3.003-26.132-3.968-6.619-10.468-11.683-18.299-14.259-7.771-2.554-16.192-2.455-23.711.283-8.713,3.174-15.37,9.698-18.743,18.37-.385.991-.76,1.948-1.136,2.905h0c-1.104,2.808-4.146,4.333-7.057,3.537l-1.261-.345c-2.901-.793-4.743-3.641-4.277-6.612h0c3.463-22.06,6.754-42.275,9.783-60.084,2.224-13.071-1.623-24.692-10.553-31.881-9.555-7.695-23.67-9.018-34.745-2.882-5.489,3.041-9.762,7.885-12.431,13.564l-4.808,10.232-6.286-9.965c-2.448-3.881-5.553-7.039-9.229-9.386-8.527-5.445-19.06-5.814-28.174-.991-11.358,6.013-18.13,18.445-18.58,34.108-.418,14.551-1.477,27.897-3.148,39.666h0c-.361,2.542-2.194,4.628-4.669,5.312l-.614.17c-2.537.701-5.246-.209-6.844-2.3h0c-6.326-8.273-16.758-11.943-29.384-10.35-33.141,4.201-50.439,4.211-77.122.04-10.467-1.632-20.151,1.118-27.271,7.753-2.82,2.627-7.182,2.803-10.214.266-2.463-2.061-3.259-5.518-2.252-8.567l.038-.114c.715-2.151,1.358-4.085,1.944-5.767,6.736-19.339,6.352-34.493-1.142-45.038-4.315-6.073-13.122-13.313-30.566-13.313h-89.333c-14.079,0-22.703,5.456-27.459,10.033-6.156,5.924-9.686,14.173-9.686,22.63,0,16.179,12.342,28.38,28.708,28.38h48.909c2.767,0,5.44,1.33,6.879,3.692,1.423,2.334,1.51,5.173.238,7.587-9.473,17.953-19.686,31.608-31.225,41.744-14.241,12.511-30.405,19.802-49.416,22.289-13.808,1.806-24.424,7.459-30.7,16.348-2,2.83-5.589,3.977-8.869,2.813-3.145-1.116-5.128-4.247-5.1-7.584.04-4.719.117-9.578.232-14.444.054-2.181,1.035-4.238,2.691-5.652,9.718-8.303,17.63-18.082,23.515-29.063,12.178-22.72,4.278-37.871-6.187-43.942-12.017-6.973-30.879-3.911-41.645,13.282-8.744,13.965-19.167,23.32-33.795,30.334-3.066,1.471-6.815.78-9.152-1.898-1.415-1.621-2.042-3.808-1.813-5.948.764-7.154-.683-14.304-4.079-20.142-3.266-5.614-8.208-9.498-13.914-10.937-.771-.194-1.531-.463-2.194-.901-3.879-2.562-4.555-7.339-2.38-10.704.196-.302.385-.604.57-.911,5.963-9.905,6.341-22.893.94-32.317-4.197-7.325-11.64-11.673-19.951-11.673-.09,0-.18,0-.271.001l-3.213.039c-21.868.262-72.878.875-93.188-.029-1.953-.088-3.885-.045-5.748.131-2.132.198-4.273-.506-5.864-1.934-1.59-1.427-2.519-3.474-2.55-5.614-.166-11.637-3.857-22.34-10.394-30.141-5.558-6.634-15.968-14.613-33.994-14.96-20.553-.387-39.275,10.72-50.086,29.681-1.38,2.429-4.028,3.917-6.773,3.878-13.453-.186-28.178.027-43.769.253l-.12.002c-31.81.458-64.664.933-91.284-1.878-14.641-1.55-27.173,4.248-34.363,15.9-8.026,13.007-7.904,31.021.298,43.807,7.094,11.062,18.478,16.23,32.035,14.564,32.02-3.947,71.528-3.938,95.685-2.728.685.034,1.363.133,2.016.344,3.768,1.221,5.785,4.843,5.319,8.359-3.483,26.469-11.286,45.065-23.194,55.266-12.433,10.652-29.895,13.799-60.276,10.86-20.885-2.028-38.486,12.058-40.904,32.778-1.142,9.793,1.468,19.354,7.347,26.924,4.538,5.841,13.235,13.253,28.893,15.393,46.224,6.314,84.178-2.539,112.802-26.325,27.586-22.922,39.503-54.193,44.643-76.39.787-3.394,3.652-5.781,7.131-5.943,3.481-.159,6.543,1.943,7.641,5.24.68,2.044,1.564,3.989,2.626,5.781,4.784,8.063,13.098,12.596,22.221,12.119,8.265-.418,20.549-.809,34.596-1.102,2.939-.048,5.529,1.469,6.905,4,1.375,2.528.818,6.51-.953,8.777-6.37,8.151-16.134,12.408-29.826,13.01-22.689,1-33.046,16.517-33.247,31.452-.237,17.71,13.515,32.053,31.99,33.363,43.679,3.09,67.735-15.885,80.221-32.346,10.273-13.545,17.412-31.026,21.216-51.957.676-3.694,3.835-6.317,7.56-6.317.075,0,.148,0,.222.003,6.127.171,11.734.387,16.672.645,2.012.105,3.969.889,5.363,2.343,1.901,1.982,2.589,4.732,1.895,7.321-1.036,3.863-1.147,7.837-.33,11.812,2.744,13.344,15.214,21.899,28.976,19.901,2.07-.301,4.142-.633,6.162-.989,2.084-.367,4.271.003,5.998,1.227,2.297,1.627,3.491,4.246,3.247,6.981-.286,3.191-.594,6.398-.925,9.616-1.252,12.194,3.195,22.578,12.201,28.49,4.755,3.122,10.418,4.771,16.377,4.771,5.45,0,10.825-1.401,15.546-4.05,6.443-3.616,11.07-9.211,13.381-16.183.945-2.853,3.494-4.9,6.495-5.211,2.993-.316,5.92,1.17,7.433,3.774,2.106,3.628,4.798,6.793,8.003,9.41,7.397,6.04,17.073,8.807,27.262,7.787,36.115-3.625,67.104-17.559,92.103-41.415,1.941-1.851,4.656-2.567,7.31-1.864,2.083.552,3.791,2.035,4.85,3.912,2.082,3.693,3.581,7.802,4.456,12.217,1.974,9.966,7.553,18.229,15.712,23.268,7.434,4.592,16.313,6.199,25.004,4.533,8.91-1.71,16.489-6.703,21.343-14.06,3.698-5.606,7.544-15.312,4.866-29.715-1.641-8.838-4.443-17.235-8.328-24.964-.752-1.496-1.134-3.178-.904-4.837.579-4.17,4.248-6.833,8.046-6.616,1.96.113,3.997.023,6.048-.27,36.48-5.21,64.526-2.914,87.15.017,2.525.327,5.042.336,7.474.026.324-.042.648-.062.973-.062ZM615.083,375.788c.177.625.341,1.257.49,1.895,2.642,11.369.375,24.216-6.557,37.151-5.46,10.187-12.453,19.447-20.842,27.613,6.419-4.071,14.894-7.464,26.026-8.92,27.981-3.661,48.799-19.068,66.657-49.614h-40.37c-9.724,0-18.469-2.983-25.403-8.124Z"/>
    </g>
    <g>
      <path class="st12" d="M886.089,384.55c-32.588,4.131-51.123,4.497-79.903,0-31.763-4.963-35.733,44.666-7.941,40.696,34.979-4.997,63.029-3.474,89.829,0,26.16,3.391,33.252-45.163-1.985-40.696ZM800.63,396.44c-.803.506-6.059,4.525-8.203,6.429-2.35,2.086-6.506,1.845-4.975-3.21.742-2.447,4.923-8.047,12.152-8.202,4.288-.092,4.554,2.759,1.026,4.983Z"/>
      <path class="st3" d="M557.725,383.347c-14.904,23.8-34.971,35.549-63.706,43.242-25.452,6.815-17.714,35.712,2.024,32.849,9.783-1.419,19.673-3.585,29.268-6.67-.313,8.988-.922,20.819-2.1,34.702-2.578,30.382,40.694,28.043,39.294.423-1.014-20.014-.985-40.372-.807-53.281,10.721-7.934,19.946-17.964,26.698-30.562,17.58-32.8-16.415-43.468-30.671-20.703ZM493.36,438.832c-1.096,1.04-2.563,2.366-3.709,3.769-1.712,2.096-5.57,2.335-4.591-1.623.704-2.849,3.523-6.23,7.633-6.683,3.182-.351,3.831,1.535.666,4.537Z"/>
      <g>
        <path class="st2" d="M357.938,362.015c27.002-1.714,64.859-1,94.822,0,29.353.98,29.904-39.348,9.643-39.107-21.034.25-75.32.964-96.964,0-31.576-1.407-29.42,40.499-7.5,39.107ZM361.375,329.397c6.327-.381-3.823,11.413-7.245,13.084-8.178,3.994-7.245-12.212,7.245-13.084Z"/>
        <path class="st6" d="M481.57,378.801c-32.82,1.321-116.391,1.5-147.322-.536-31.539-2.076-29.972,41.289-8.036,40.179,12.084-.611,34.528-1.237,59.148-1.486-3.39,40.074-32.018,45.342-46.999,46.001-32.55,1.434-30.478,42.905-.993,44.996,70.913,5.029,88.65-50.557,92.538-90.958,15.185.212,29.321.662,40.414,1.446,33.132,2.341,29.449-40.376,11.25-39.643ZM323.374,397.966c-9.552,4.36-8.462-13.33,8.462-14.282,7.39-.416-4.465,12.458-8.462,14.282ZM332.539,477.179c-1.354,1.218-3.164,2.767-4.589,4.419-2.13,2.47-6.784,2.633-5.477-2.103.94-3.408,4.444-7.389,9.41-7.803,3.844-.32,4.564,1.973.656,5.486Z"/>
      </g>
      <path class="st5" d="M785.029,473.572c-6.421-34.54-31.082-52.18-43.625-59.075,10.184-20.648,15.694-39.422,19.184-49.444,10.033-28.807,1.985-45.163-22.333-45.163h-89.333c-34.74,0-34.74,41.192-8.437,41.192h76.925c-30.708,72.244-65.122,90.484-100.251,95.08-42.95,5.618-31.344,52.09.993,48.845,45.95-4.611,76.952-26.168,98.151-51.439,9.532,6.702,18.255,16.877,21.297,32.238,6.153,31.078,54.624,26.47,47.429-12.235ZM635.157,340.636c-8.849,4.039-7.839-12.349,7.84-13.231,6.846-.385-4.136,11.541-7.84,13.231ZM608.655,472.705c-1.22,1.165-2.854,2.649-4.128,4.218-1.904,2.346-6.209,2.624-5.13-1.797.777-3.182,3.912-6.965,8.499-7.484,3.551-.402,4.281,1.701.758,5.062Z"/>
      <g>
        <path class="st8" d="M971.179,317.035c-5.626-3.593-12.613-3.819-18.686-.605-8.273,4.38-13.218,13.873-13.568,26.046-2.023,70.398-18.499,109.854-51.851,124.169-11.92,5.117-15.282,20.327-10.845,30.777,2.948,6.942,9.538,12.744,20.116,12.744,4.597,0,9.949-1.096,16.079-3.672,24.195-10.162,42.594-34.441,54.684-72.161,10.119-31.571,13.716-66.211,14.952-89.712.667-12.69-3.3-22.744-10.883-27.585ZM892.425,479.84c-1.219,1.164-2.851,2.646-4.124,4.214-1.902,2.343-6.203,2.622-5.125-1.795.776-3.179,3.909-6.958,8.491-7.477,3.547-.402,4.277,1.699.758,5.058ZM948.146,351.902c-.105.842-1.876.81-1.929-.037-.208-3.342-.531-17.466,4.386-24.013,1.543-2.055,5.977-1.772,5.77,2.062-1.067,19.758-4.864-4.91-8.227,21.989Z"/>
        <path class="st7" d="M1110.917,400.459c-2.803-4.676-7.476-8.28-13.158-10.149-11.007-3.62-25.517-.257-30.718,13.112-8.416,21.642-16.38,42.119-40.504,51.396,1.793-12.137,9.952-66.909,18.472-116.993,1.658-9.745-.889-17.898-7.172-22.956-5.997-4.83-14.615-6.037-21.955-3.075-6.952,2.806-11.505,8.882-12.491,16.67-4.572,36.138-15.831,110.164-23.779,148.628-1.783,8.621-.288,16.041,4.322,21.457,5.05,5.933,13.553,9.141,24.109,9.141.77,0,1.552-.017,2.344-.051,46.86-2.033,91.639-48.199,102.518-88.36,1.892-6.985,1.204-13.492-1.989-18.819ZM1020.841,324.65c-1.219,1.164-2.851,2.646-4.124,4.214-1.902,2.343-6.203,2.622-5.125-1.795.776-3.179,3.909-6.958,8.491-7.477,3.547-.402,4.276,1.699.758,5.057ZM1083.896,403.731c-1.219,1.164-2.851,2.646-4.124,4.214-1.902,2.343-6.203,2.622-5.125-1.795.776-3.179,3.909-6.958,8.491-7.477,3.547-.402,4.276,1.699.758,5.058Z"/>
      </g>
      <path class="st4" d="M308.628,270.398c-22.996-.442-38.941,15.507-45.553,34.03-2.036-.209-4.251-.338-6.668-.39-41.315-.888-98.666,2.678-140.662-1.757-39.27-4.147-38.16,58.981-2.203,54.548,37.263-4.593,88.168-4.244,115.792-1.456-5.295,91.927-47.619,97.967-95.986,93.287-35.022-3.389-44.489,49.625-2.364,55.381,113.509,15.512,147.761-69.134,150.33-122.251.424-8.76.984-16.612,1.51-23.645,3.044.842,6.394,1.334,10.082,1.392,55.388.863,71.472-88.069,15.721-89.14ZM102.003,327.252c-10.528,5.057-8.88-16.345,9.598-17.101,8.068-.33-5.193,14.985-9.598,17.101ZM119.14,470.631c-7.311,6.517-7.652-12.42,8.198-12.955,6.921-.234-4.894,10.01-8.198,12.955ZM274.462,308.958c-1.821,6.792-6.321,4.675-5.453-.011,2.339-12.629,12.591-24.076,23.805-27.906,5.568-1.902,4.886-.748,1.238,1.214-9.102,4.896-16.568,15.437-19.589,26.703ZM296.991,321.869c-14.41-.31-10.323-24.351,4.239-24.038,14.714.316,9.867,24.341-4.239,24.038Z"/>
    </g>
  </g>
</svg>