<?xml version="1.0" encoding="UTF-8"?>
<svg id="_レイヤー_1" xmlns="http://www.w3.org/2000/svg" version="1.1" viewBox="0 0 224.79 133.806">
  <!-- Generator: Adobe Illustrator 29.7.1, SVG Export Plug-In . SVG Version: 2.1.1 Build 8)  -->
  <defs>
    <style>
      .st0 {
        fill: #ff7b9d;
      }

      .st1 {
        fill: #fff;
      }

      .st2 {
        fill: #79695b;
      }

      .st3 {
        fill: #ffa9ca;
      }
    </style>
  </defs>
  <path class="st1" d="M219.331,69.934c-4.74-5.833-12.009-9.318-17.978-11.329,3.6-7.417,4.42-15.608,2.126-22.824-3.32-10.446-11.94-18.611-26.34-24.959-1.46-.648-3.086-.689-4.58-.113-.868.335-1.629.854-2.242,1.518-.019-.898-.243-1.787-.666-2.609-.732-1.422-1.973-2.474-3.497-2.962C154.107,2.8,140.248.657,123.784.105c-32.554-1.099-52.512,6.445-59.329,22.396-21.445-.89-38.255,3.355-49.987,12.628-1.256.992-2.049,2.413-2.234,4.002-.021.178-.034.356-.039.534-1.716.011-3.421.754-4.609,2.187l-.292.358c-9.355,11.548-9.742,25.793-.988,36.291,5.192,6.226,12.24,10.286,17.239,12.597.308.143.616.28.923.413-2.477,3.763-3.694,8.534-2.246,13.654,2.897,10.252,14.435,13.217,18.206,14.187.493.128,1.001.194,1.511.194,2.61,0,4.903-1.688,5.696-4.148-.117,1.43.278,2.84,1.133,4.01.943,1.291,2.332,2.138,3.912,2.384,12.396,1.934,25.454,2.557,37.364,2.557,7.176,0,13.923-.227,19.867-.527,2.804,5.003,8.735,9.984,19.849,9.984.54,0,1.092-.011,1.657-.037,2.96-.129,5.47-2.133,6.247-4.992.681-2.521-.151-5.147-2.076-6.827,9.043-.835,20.294-1.996,27.302-2.732,6.665-.702,21.666-2.99,28.466-4.46,10.656-2.303,22.563-5.528,28.986-14.72,7.116-10.188,4.876-22.856-1.013-30.105h.002Z"/>
  <g>
    <path class="st3" d="M19.362,110.311c.361-.05.704-.238.941-.552.475-.628.351-1.522-.278-1.996-1.676-1.267-3.553-6.54-1.621-10.142.372-.694.111-1.557-.582-1.93-.692-.373-1.557-.112-1.93.583-2.644,4.928-.393,11.642,2.415,13.763.314.237.694.325,1.056.275h0Z"/>
    <path class="st3" d="M13.178,111.17c.361-.05.703-.238.941-.552.475-.628.351-1.522-.278-1.996-1.675-1.267-3.552-6.541-1.621-10.142.372-.694.111-1.557-.582-1.93s-1.558-.112-1.93.583c-2.643,4.927-.393,11.642,2.414,13.763.314.237.695.325,1.056.275h0Z"/>
  </g>
  <g>
    <path class="st3" d="M207.452,45.062c.344-.058.668-.242.896-.542,2.133-2.799,2.493-9.871-1.38-13.905-.546-.568-1.448-.584-2.015-.042-.568.545-.587,1.448-.042,2.015,2.83,2.948,2.442,8.533,1.169,10.203-.477.626-.356,1.52.27,1.997.327.249.726.335,1.101.272v.002h.001Z"/>
    <path class="st3" d="M213.638,44.225c.344-.058.668-.242.896-.542,2.132-2.799,2.492-9.872-1.379-13.905-.547-.569-1.449-.585-2.015-.042-.568.545-.587,1.448-.042,2.015,2.83,2.948,2.442,8.533,1.169,10.204-.477.626-.356,1.521.27,1.997.326.249.726.335,1.101.272h0Z"/>
  </g>
  <g>
    <path class="st0" d="M42.424,111.671c-4.682-1.207-11.079-3.416-12.56-8.664-1.381-4.885,2.238-9.732,6.386-11.423.936-.384,1.525-1.318,1.467-2.324-.055-1.011-.751-1.872-1.724-2.142-.408-.115-.823-.252-1.183-.372-.271-.093-.524-.175-.734-.238-2.17-.651-4.72-1.471-7.202-2.615-4.257-1.966-10.225-5.38-14.473-10.474-6.311-7.569-5.903-17.612,1.063-26.211l.257-.317c.686-.83.569-2.062-.257-2.747-.83-.686-2.067-.571-2.753.262l-.281.348c-8.09,9.982-8.491,22.216-1.025,31.166,4.71,5.649,11.209,9.38,15.833,11.518,2.194,1.015,4.429,1.786,6.297,2.374-4.021,3.003-7.099,8.355-5.433,14.26,2.033,7.183,9.732,9.936,15.357,11.384.161.039.322.058.48.058.891,0,1.666-.603,1.889-1.465.13-.504.058-1.028-.209-1.477-.264-.451-.689-.77-1.196-.898v-.003h0Z"/>
    <path class="st0" d="M18.182,41.778c.442,0,.86-.144,1.21-.42,10.428-8.244,25.908-11.893,46.081-10.861.195.009.387.014.572.014,3.335,0,4.532-1.507,4.946-2.811,4.432-14.07,22.124-20.691,52.526-19.661,15.72.526,28.873,2.547,40.216,6.177.497.161,1.025.117,1.488-.123.466-.238.809-.644.967-1.14.161-.497.117-1.025-.123-1.489-.24-.463-.644-.806-1.141-.965-11.686-3.742-25.185-5.822-41.275-6.362-32.38-1.087-51.357,6.45-56.317,22.28-.079.067-.548.245-1.659.18-21.109-1.09-37.501,2.849-48.7,11.699-.411.324-.668.788-.73,1.308-.058.518.086,1.027.408,1.433.374.471.932.742,1.532.742h0Z"/>
    <path class="st0" d="M216.197,72.478c-5.642-6.947-15.991-10.22-20.914-11.439,5.138-7.5,6.77-16.43,4.35-24.036-2.948-9.278-10.842-16.636-24.136-22.494-.47-.209-.997-.221-1.488-.036-.487.189-.874.555-1.087,1.037-.432.984.017,2.137,1.001,2.571,12.203,5.38,19.398,11.956,21.99,20.105,2.139,6.722.5,14.719-4.381,21.392-.644.876-.799,2.005-.418,3.02.377,1.018,1.237,1.769,2.304,2.012,4.185.95,14.493,3.862,19.751,10.33,3.915,4.82,5.481,13.662.665,20.552-4.778,6.839-14.973,9.524-24.153,11.507-6.314,1.364-20.886,3.555-27.252,4.309-6.424.761-25.013,2.576-35.952,3.46-12.131.979-44.347,3.586-72.572-.818-.518-.084-1.035.043-1.453.35-.422.309-.699.763-.778,1.279-.079.514.048,1.03.353,1.45.309.422.761.698,1.275.778,12.162,1.897,25.003,2.508,36.737,2.508,15.192,0,28.53-1.023,36.116-1.606l.679-.053c9.341-.715,28.033-2.651,35.636-3.45,6.571-.692,21.349-2.945,28.033-4.391,9.91-2.139,20.944-5.09,26.532-13.086,5.971-8.549,4.1-19.174-.84-25.25h.002,0Z"/>
  </g>
  <g>
    <path class="st1" d="M126.753,113.963c-.763-.2-1.542.817-1.747,1.577-1.08,4.027.382,7.823,4.128,10.85-13.097-.256-13.902-9.337-13.931-9.741-.056-.785-.747-1.937-1.523-1.891,0,0,13.073-.795,13.073-.795Z"/>
    <path class="st0" d="M132.615,124.74c-2.561-1.649-5.392-4.429-4.347-8.325.278-1.04-.343-2.112-1.381-2.391-1.056-.284-2.112.344-2.386,1.378-1.011,3.762.113,7.406,3.171,10.392-11.243-.862-11.919-8.829-11.943-9.185-.082-1.061-1.025-1.923-2.088-1.805-1.073.077-1.882,1.011-1.807,2.086.319,4.456,4.48,12.882,17.928,12.882.48,0,.97-.01,1.481-.033,1.196-.053,2.214-.862,2.526-2.012.312-1.141-.154-2.343-1.155-2.987h0Z"/>
  </g>
  <g>
    <path class="st2" d="M57.49,62.377l-.002-.053c-.051-1.595-.594-2.946-1.678-4.074-1.236-.912-2.588-1.47-4.101-1.66l-2.543.083-.117.018c-1.432.396-2.784.947-4.019,1.637h-.039s-.037-1.141-.037-1.141l.16-.171-.085-2.628-.152-.142-.088-2.129.437-.236,2.545-.083,1.739-.962-.301-2.126-1.026-.472-.118.004c-1.047.034-2.046.3-2.97.792l-.718.023-.199-.507.166-.456-.027-.137c-.194-.97-.803-1.625-1.76-1.892l-.16-.045-2.074.799.654,2.501-.076.597c-2.019.523-3.968,1.192-5.798,1.991l-.311.136.035,1.073,1.562,1.464.246-.043c1.658-.292,3.228-.786,4.669-1.468l.117.035.197.365.072,2.218-.193.205.235,1.207-.206,2.909c-2.051,1.445-3.795,3.271-5.185,5.431l-.152.236.776,1.604,3.192,1.202.1-.003c1.115-.036,2.114-.39,2.97-1.051l.094-.072.051-.107c.803-1.678,1.366-3.477,1.674-5.349l4.767-2.162.481.142.568-.208c.938-.019,1.791.275,2.583.881l.603,1.24-1.361,3.926-.228.008-1.081,1.154.031.947,1.384,1.256,2.14-.279.125-.197c1.204-1.894,2.019-3.971,2.421-6.174l.01-.053Z"/>
    <path class="st2" d="M52.233,51.682c1.469,1.294,2.795,2.707,3.941,4.198l.083.107,1.7.694.106.03c.116.02.227.029.333.029.641,0,1.085-.352,1.213-.983l.025-.124-.037-.121c-.394-1.301-1.097-2.433-2.144-3.408l-1.301-.917-.709-1.185-1.356-.814-2.069.749.053,1.603.162.143Z"/>
    <path class="st2" d="M77.568,62.502l1.157-.193.631.135,3.463-.113,1.716-.737-.324-1.882-2.698-.71-.575.217c-.517.118-1.209.14-2.053.062l-2.708-.274c-.827-.104-1.521.074-2.061.535l-.242.207.511,1.833.159.103c.841.544,1.793.82,2.831.82.063,0,.127,0,.192-.003Z"/>
    <path class="st2" d="M81.095,53.918c.876-.151,1.625-.489,2.228-1.004l.242-.207-.521-1.871-1.399-.664-.165.035c-3.259.682-6.385,1.648-9.292,2.873l-.316.134.045,1.409,1.39,1.302.28-.09c1.876-.604,3.817-1.224,5.824-1.856l1.684-.059Z"/>
    <path class="st2" d="M63.904,63.355c.308,2.353,1.394,4.36,3.227,5.964l.172.151,2.128-.302.041-.388c.075-.706.299-1.323.667-1.834l.171-.238-.818-1.75-1.491.261-.267.008-.48-1.758-.065-1.997-.118-.111.099-.483-.121-3.722.193-.171-.061-1.845.59-2.203-.054-1.657-1.502-1.212-.13-.021c-.693-.116-1.331.044-1.895.475l-.205.156.079,2.401-.292,1.167.079,2.406-.16.17.214,6.533Z"/>
    <path class="st2" d="M92.799,65.063l.058.136,1.503,1.011,1.977-.318.69-1.206-.045-1.406-1-.754c-1.516-2.383-2.612-5.036-3.246-7.796l-.062-1.904-1.381-1.501-2.643.553.106.492c.937,4.346,2.297,8.617,4.043,12.693Z"/>
    <path class="st2" d="M107.598,56.505l.205.191.154,4.743.693.907.974.426,1.236-.28.654-1.223-.23-1.454-.135-4.169-.149-.141-.07-1.531-.603-2.286-.065-2.001-1.076-1.249-.15-.04c-1.292-.338-2.03.216-2.426.74l-.135.179,1.061,5.263.062,1.925Z"/>
    <path class="st2" d="M123.62,60.013c2.105-1.671,4.397-2.947,6.816-3.794l1.507.214.915,1.95c-.484,2.354-1.457,4.487-2.895,6.344l-.11.143.035,1.072,1.41,1.107,1.577-.271.116-.132c1.806-2.048,2.853-4.4,3.113-7.058l-.061-1.85-1.197-2.625c-.886-1.203-1.983-1.915-3.358-2.125l-2.182.071-.112.016c-2.17.578-4.16,1.542-5.928,2.871l.281-2.2-.058-1.658c.067-.767.231-1.494.488-2.166l4.226-1.25,1.621-.053,2.43-.747-.374-1.825-1.928-1.007-4.792,1.203-.742-.066.087-.545-1.467-1.94-.148-.049c-.898-.294-1.64-.02-2.093.77l-.07.123.07,2.205-.134.216c-2.186.638-4.333,1.316-6.384,2.018l-.35.12.012.37c.032.958.528,1.768,1.477,2.407l.169.114.2-.037c1.451-.264,2.854-.702,4.171-1.301l.248.039-.729,7.16-.006.054.263,2.313,1.972,1.442,1.25-.577.662-1.066Z"/>
    <path class="st2" d="M156.152,60.362l.089-.049c1.586-1.093,2.718-2.485,3.363-4.135l.037-.096-.073-2.25-.399-1-.078-.125c-1.005-1.175-2.256-1.809-3.759-1.884l-2.133.069.319-1.047-.041-1.282-1.183-1.106-1.913.303-.715,4.266-2.253,1.511c.029-1.332-.399-2.513-1.276-3.519l-.096-.109-.139-.041c-.877-.263-1.628-.008-2.179.729l-.14.187.999,4.198.008.218c-1.34.91-2.59,1.98-3.719,3.186l-.258.275,1.22,2.035,1.836-.06,1.542-1.811.029.006c.353,2.463,1.276,4.728,2.749,6.737l.195.267,2.313-.541.033-.358c.093-1.005-.181-1.834-.814-2.468-.788-1.667-1.378-3.416-1.742-5.117l-.02-.585,1.238-1.058h.002s-.084,1.275-.084,1.275l.033,1.032,1.098,1.03.126.032c.522.132.967.087,1.327-.128.36-.216.609-.589.74-1.11l.032-.13-.192-.675.492-2.958,1.178-.57c.926-.19,1.689-.026,2.324.499.08,1.096-.279,2.055-1.099,2.93-.664.729-1.422,1.194-2.316,1.424l-.57.146.659,1.502,1.706.991,1.501-.635Z"/>
    <path class="st2" d="M183.318,56.5l-.178-.133-1.485.291-.107.231c-.875,1.877-2.277,3.399-4.17,4.524l-.27-.058c-1.228-1.983-2.258-4.113-3.066-6.335l-.106-.173c-.771-.815-1.66-1.349-2.641-1.585l-.095-.023-1.939.292-2.771,2.817c1.41-4.062,2.979-8.062,4.672-11.906l.119-.272-1.259-1.628-2.081.3-.094.301c-2.122,6.838-4.609,13.668-7.391,20.301l-.059.14.268,1.375,1.585,1.027,1.085-.311.865-1.722c1.635-2.922,3.873-5.496,6.655-7.653l.488.063c.663,2.489,1.808,4.824,3.405,6.946l.069.092,2.115,1.083.145-.014c1.905-.18,3.516-1.02,4.814-2.532l2.088-2.913.08-.174c.304-1.256-.236-1.972-.743-2.352Z"/>
    <path class="st2" d="M52.365,96.949l-.68-1.864.165-.872-.223-.871.176-.702-.245-.922-.059-1.842-.151-.169.103-1.303-.131-4.025.193-.171-.057-1.763-1.242-.937-.148-.076c-.825-.266-1.557-.032-2.062.657l-.129.177.231,1.155.133,4.086-.188.2.215.672.158,4.861.151.142.115,2.982.635,2.055c.41.902,1.077,1.539,1.98,1.89l.095.037.93-.03,1.079-1.382-.331-1.657-.714-.328Z"/>
    <path class="st2" d="M72.288,96.235c-1.803-1.384-3.667-2.859-5.543-4.388l.102-.77-.173-5.309.273-.292,1.723.101,2.162-1.088-.035-1.072-1.293-1.08-1.714.241-1.275.042-.119-.51.114-1.403-.033-1.039-1.435-1.305-.11-.032c-1.29-.382-1.88.262-2.117.681l-.099.174.638,2.546-.078,1.2c-2.887.387-5.492,1.162-7.748,2.307l-.365.186.465,1.681,1.557.849.232-.113c1.469-.719,3.072-1.352,4.713-1.869.533-.111.984-.068,1.37.13l.161,4.94-.292.312-1.7.056-2.315,1.322-1.589,2.037.066,2.032.509.606c.767.814,1.678,1.274,2.768,1.368l2.159-.077c.754-.146,1.442-.466,2.044-.953l1.356-2.259.204-.007c1.253.767,2.343,1.771,3.239,2.985l.105.143.172.045c1.208.313,1.881-.193,2.233-.675l.133-.183-.32-1.449-.145-.11ZM63.433,94.28c.034.602-.207,1.104-.743,1.565l-.417.334c-.378.066-.736.006-1.086-.188l-.008-.237c.394-.764.95-1.318,1.696-1.688l.559.215Z"/>
    <path class="st2" d="M100.231,81.646c-.993-1.161-2.174-1.852-3.599-2.056l-3.006.099-.983.336-.456-.131.349-2.349-.061-1.891-.321-.302-1.102-.63-1.518.304-.801,6.301-3.601,1.779-.085.003-.049-1.525-.126-.118.117-.703-.866-2.196-.25-.062c-.95-.239-1.799.005-2.452.702l-.192.205.434,1.557.052,1.592.368,1.349-.09,1.37-5.325,3.909.332,1.163,1.671,1.141,1.023-.033,2.923-2.956c.362,3.042,1.129,5.948,2.278,8.636.637,1.641,1.69,2.926,3.128,3.819l.182.068c.147.024.286.035.416.035.66,0,1.099-.284,1.363-.549l.177-.177-.292-2.062-.966-.335c-1.572-3.168-2.7-6.669-3.347-10.345l-.034-1.052,2.838-2.008.189.037-.208,1.445.045,1.396,1.18.883,1.806-.06.486-1.06-.088-2.701.358-1.686,1.98-.628,1.814-.059,1.734.646.074.199.038,1.162c-.584,1.345-1.446,2.576-2.562,3.66l-.635.994-1.779.963.033,1.062,1.573,1.048.207-.044c1.307-.281,2.446-.982,3.347-2.042,1.558-1.449,2.621-3.128,3.16-4.989l.022-.076-.003-.079c-.036-1.099-.325-2.077-.9-2.961Z"/>
    <path class="st2" d="M117.212,94.529c-2.32-1.223-4.358-3.04-6.06-5.4l-.722-.659-.658-1.24c2.414-2.247,4.876-4.546,7.391-6.899l.267-.25-1.007-2.122-1.708.055-.138.132c-2.808,2.678-5.772,5.268-8.81,7.697l-.22.177.037.28c.159,1.198.692,2.287,1.583,3.237l.092.099.419.125.471.974,2.516,2.754,1.433,1.032.011.318,4.127,3.172,1.972-.064.923-1.541-.951-1.544-.968-.331Z"/>
    <path class="st2" d="M148.605,85.124l-.211.109c-2.718,1.406-5.469,2.946-8.184,4.579-2.042-1.562-3.707-3.516-4.949-5.81l-.067-.096c-.778-.869-1.698-1.418-2.733-1.631l-.058-.012-2.471.08-.139.024c-2.759.898-5.254,2.348-7.418,4.309l-.171.155.036,1.118,1.746,1.439,1.791-.058.607-.86c1.238-1.32,2.724-2.243,4.415-2.741l1.634-.054,2.543,4.103.72.313,1.041,1.464c.916.95,2.016,1.544,3.27,1.766l.051.009h.052c1.337-.044,2.564-.394,3.661-1.05,2.284-1.465,4.293-3.303,5.97-5.463l.111-.143-.034-1.023-1.213-.529Z"/>
    <path class="st2" d="M176.82,78.552c-2.435-1.838-5.22-2.978-8.283-3.389l-.348-1.241-1.394-.664-1.49.282-.386,1.048-.208-.07-1.509.343-.032.362c-.087.975.273,1.812,1.045,2.44l-1.474,7.947-2.175.07-.16.032c-1.078.407-2.093,1.052-3.04,1.938-1.583,1.689-2.834,3.509-3.719,5.408l-.051.108.064,1.957.621,1.112.074.102c1.044,1.095,2.275,1.688,3.66,1.766h.022s2.929-.093,2.929-.093l.136-.023c2.437-.781,4.659-2.042,6.606-3.75l.178-.156-.068-2.117-.021-.125c-.396-1.35-1.066-2.551-1.993-3.574.333-3.396,1.026-6.704,2.064-9.842,2.436.267,4.726,1.021,6.814,2.248l.015.449c-1.345,2.423-3.224,4.468-5.588,6.08l-.228.154.05,1.537,1.32.996,2.926-1.466.436-.611.288-.009,1.096-1.171c1.758-1.519,2.804-3.333,3.109-5.395l.023-.155-1.219-2.459-.094-.071Z"/>
  </g>
</svg>