<?xml version="1.0" encoding="UTF-8"?>
<svg id="_レイヤー_1" xmlns="http://www.w3.org/2000/svg" version="1.1" viewBox="0 0 224.79 133.806">
  <!-- Generator: Adobe Illustrator 29.7.1, SVG Export Plug-In . SVG Version: 2.1.1 Build 8)  -->
  <defs>
    <style>
      .st0 {
        fill: #ff7b9d;
      }

      .st1 {
        fill: #fff;
      }

      .st2 {
        fill: #79695b;
      }

      .st3 {
        fill: #ffa9ca;
      }
    </style>
  </defs>
  <path class="st1" d="M219.331,69.934c-4.74-5.833-12.009-9.318-17.978-11.329,3.6-7.417,4.42-15.608,2.126-22.824-3.32-10.446-11.94-18.611-26.34-24.959-1.46-.648-3.086-.689-4.58-.113-.868.335-1.629.854-2.242,1.518-.019-.898-.243-1.787-.666-2.609-.732-1.422-1.973-2.474-3.497-2.962C154.107,2.8,140.248.657,123.784.105c-32.554-1.099-52.512,6.445-59.329,22.396-21.445-.89-38.255,3.355-49.987,12.628-1.256.992-2.049,2.413-2.234,4.002-.021.178-.034.356-.039.534-1.716.011-3.421.754-4.609,2.187l-.292.358c-9.355,11.548-9.742,25.793-.988,36.291,5.192,6.226,12.24,10.286,17.239,12.597.308.143.616.28.923.413-2.477,3.763-3.694,8.534-2.246,13.654,2.897,10.252,14.435,13.217,18.206,14.187.493.128,1.001.194,1.511.194,2.61,0,4.903-1.688,5.696-4.148-.117,1.43.278,2.84,1.133,4.01.943,1.291,2.332,2.138,3.912,2.384,12.396,1.934,25.454,2.557,37.364,2.557,7.176,0,13.923-.227,19.867-.527,2.804,5.003,8.735,9.984,19.849,9.984.54,0,1.092-.011,1.657-.037,2.96-.129,5.47-2.133,6.247-4.992.681-2.521-.151-5.147-2.076-6.827,9.043-.835,20.294-1.996,27.302-2.732,6.665-.702,21.666-2.99,28.466-4.46,10.656-2.303,22.563-5.528,28.986-14.72,7.116-10.188,4.876-22.856-1.013-30.105h.002Z"/>
  <g>
    <path class="st3" d="M19.362,110.311c.361-.05.704-.238.941-.552.475-.628.351-1.522-.278-1.996-1.676-1.267-3.553-6.54-1.621-10.142.372-.694.111-1.557-.582-1.93-.692-.373-1.557-.112-1.93.583-2.644,4.928-.393,11.642,2.415,13.763.314.237.694.325,1.056.275h0Z"/>
    <path class="st3" d="M13.178,111.17c.361-.05.703-.238.941-.552.475-.628.351-1.522-.278-1.996-1.675-1.267-3.552-6.541-1.621-10.142.372-.694.111-1.557-.582-1.93s-1.558-.112-1.93.583c-2.643,4.927-.393,11.642,2.414,13.763.314.237.695.325,1.056.275h0Z"/>
  </g>
  <g>
    <path class="st3" d="M207.452,45.062c.344-.058.668-.242.896-.542,2.133-2.799,2.493-9.871-1.38-13.905-.546-.568-1.448-.584-2.015-.042-.568.545-.587,1.448-.042,2.015,2.83,2.948,2.442,8.533,1.169,10.203-.477.626-.356,1.52.27,1.997.327.249.726.335,1.101.272v.002h.001Z"/>
    <path class="st3" d="M213.638,44.225c.344-.058.668-.242.896-.542,2.132-2.799,2.492-9.872-1.379-13.905-.547-.569-1.449-.585-2.015-.042-.568.545-.587,1.448-.042,2.015,2.83,2.948,2.442,8.533,1.169,10.204-.477.626-.356,1.521.27,1.997.326.249.726.335,1.101.272h0Z"/>
  </g>
  <g>
    <path class="st0" d="M42.424,111.671c-4.682-1.207-11.079-3.416-12.56-8.664-1.381-4.885,2.238-9.732,6.386-11.423.936-.384,1.525-1.318,1.467-2.324-.055-1.011-.751-1.872-1.724-2.142-.408-.115-.823-.252-1.183-.372-.271-.093-.524-.175-.734-.238-2.17-.651-4.72-1.471-7.202-2.615-4.257-1.966-10.225-5.38-14.473-10.474-6.311-7.569-5.903-17.612,1.063-26.211l.257-.317c.686-.83.569-2.062-.257-2.747-.83-.686-2.067-.571-2.753.262l-.281.348c-8.09,9.982-8.491,22.216-1.025,31.166,4.71,5.649,11.209,9.38,15.833,11.518,2.194,1.015,4.429,1.786,6.297,2.374-4.021,3.003-7.099,8.355-5.433,14.26,2.033,7.183,9.732,9.936,15.357,11.384.161.039.322.058.48.058.891,0,1.666-.603,1.889-1.465.13-.504.058-1.028-.209-1.477-.264-.451-.689-.77-1.196-.898v-.003h0Z"/>
    <path class="st0" d="M18.182,41.778c.442,0,.86-.144,1.21-.42,10.428-8.244,25.908-11.893,46.081-10.861.195.009.387.014.572.014,3.335,0,4.532-1.507,4.946-2.811,4.432-14.07,22.124-20.691,52.526-19.661,15.72.526,28.873,2.547,40.216,6.177.497.161,1.025.117,1.488-.123.466-.238.809-.644.967-1.14.161-.497.117-1.025-.123-1.489-.24-.463-.644-.806-1.141-.965-11.686-3.742-25.185-5.822-41.275-6.362-32.38-1.087-51.357,6.45-56.317,22.28-.079.067-.548.245-1.659.18-21.109-1.09-37.501,2.849-48.7,11.699-.411.324-.668.788-.73,1.308-.058.518.086,1.027.408,1.433.374.471.932.742,1.532.742h0Z"/>
    <path class="st0" d="M216.197,72.478c-5.642-6.947-15.991-10.22-20.914-11.439,5.138-7.5,6.77-16.43,4.35-24.036-2.948-9.278-10.842-16.636-24.136-22.494-.47-.209-.997-.221-1.488-.036-.487.189-.874.555-1.087,1.037-.432.984.017,2.137,1.001,2.571,12.203,5.38,19.398,11.956,21.99,20.105,2.139,6.722.5,14.719-4.381,21.392-.644.876-.799,2.005-.418,3.02.377,1.018,1.237,1.769,2.304,2.012,4.185.95,14.493,3.862,19.751,10.33,3.915,4.82,5.481,13.662.665,20.552-4.778,6.839-14.973,9.524-24.153,11.507-6.314,1.364-20.886,3.555-27.252,4.309-6.424.761-25.013,2.576-35.952,3.46-12.131.979-44.347,3.586-72.572-.818-.518-.084-1.035.043-1.453.35-.422.309-.699.763-.778,1.279-.079.514.048,1.03.353,1.45.309.422.761.698,1.275.778,12.162,1.897,25.003,2.508,36.737,2.508,15.192,0,28.53-1.023,36.116-1.606l.679-.053c9.341-.715,28.033-2.651,35.636-3.45,6.571-.692,21.349-2.945,28.033-4.391,9.91-2.139,20.944-5.09,26.532-13.086,5.971-8.549,4.1-19.174-.84-25.25h.002,0Z"/>
  </g>
  <g>
    <path class="st1" d="M126.753,113.963c-.763-.2-1.542.817-1.747,1.577-1.08,4.027.382,7.823,4.128,10.85-13.097-.256-13.902-9.337-13.931-9.741-.056-.785-.747-1.937-1.523-1.891,0,0,13.073-.795,13.073-.795Z"/>
    <path class="st0" d="M132.615,124.74c-2.561-1.649-5.392-4.429-4.347-8.325.278-1.04-.343-2.112-1.381-2.391-1.056-.284-2.112.344-2.386,1.378-1.011,3.762.113,7.406,3.171,10.392-11.243-.862-11.919-8.829-11.943-9.185-.082-1.061-1.025-1.923-2.088-1.805-1.073.077-1.882,1.011-1.807,2.086.319,4.456,4.48,12.882,17.928,12.882.48,0,.97-.01,1.481-.033,1.196-.053,2.214-.862,2.526-2.012.312-1.141-.154-2.343-1.155-2.987h0Z"/>
  </g>
  <g>
    <path class="st2" d="M46.764,61.602l-.914-.675c-1.711-2.626-2.959-5.56-3.699-8.629l-.083-1.9c-.005-.12-.053-.233-.135-.32l-1.188-1.267c-.121-.129-.299-.184-.472-.146l-2.07.455c-.13.028-.243.108-.314.22-.072.112-.095.249-.066.379,1.09,4.799,2.645,9.508,4.623,13.996.039.088.102.163.183.216l1.358.895c.082.054.178.083.275.083.028,0,.057-.002.084-.007l1.71-.293c.149-.025.279-.117.353-.25l.543-.977c.045-.081.066-.172.062-.264l-.048-1.132c-.006-.151-.081-.291-.202-.381Z"/>
    <path class="st2" d="M62.561,53.323c-.006-.131-.063-.255-.16-.345l-.111-1.732c-.001-.039-.008-.077-.018-.114l-.678-2.405-.087-2.025c-.005-.114-.049-.223-.124-.309l-.962-1.094c-.067-.076-.156-.13-.254-.155-1.398-.35-2.197.256-2.62.826-.085.115-.117.261-.087.401l1.187,5.582.083,1.901c.006.132.063.256.16.346l.076.07.22,5.097c.004.104.042.204.105.286l.581.744c.052.067.121.12.199.153l.784.333c.062.026.128.04.195.04.039,0,.078-.004.116-.014l.944-.226c.141-.034.26-.127.327-.256l.506-.974c.05-.096.068-.206.05-.313l-.243-1.43-.189-4.387Z"/>
    <path class="st2" d="M85.417,52.548c-.025-.088-.075-.168-.143-.23-1.14-1.044-2.401-1.677-3.843-1.885-2.205.094-4.298.644-6.202,1.624-2.798,1.297-5.136,3.302-6.949,5.959-.111.163-.116.375-.014.542l1.025,1.676c.095.155.267.254.448.239l1.314-.057c.171-.007.327-.102.412-.251l1.19-2.074c2.439-2.255,5.226-3.84,8.286-4.712l1.222.377.219.415-.431,2.241c-.636,1.957-1.719,3.594-3.218,4.865-.151.128-.212.334-.156.524l.215.723c.033.111.104.207.2.272l1.582,1.066c.084.057.181.085.279.085.075,0,.149-.017.218-.05l1.652-.802c.081-.04.15-.1.2-.175,1.566-2.385,2.625-5.042,3.147-7.899.014-.076.01-.154-.011-.228l-.644-2.244Z"/>
    <path class="st2" d="M94.346,44.57c-.109.1-.168.243-.162.391l.235,5.447c.006.148.078.285.195.375l.169,2.958c-.007,3.387,1.302,6.233,3.917,8.481,1.485,1.115,3.175,1.769,5.022,1.942.016.001.031.002.047.002.015,0,.03,0,.045-.002,2.725-.245,4.996-1.407,6.75-3.453.083-.096.125-.22.12-.347l-.031-.732c-.007-.162-.092-.31-.228-.398l-.793-.514c-.116-.075-.256-.1-.389-.066l-1.848.445c-.175.042-.314.175-.364.349l-.098.344-2.624,1.289c-1.099-.079-2.111-.377-3.013-.888-1.438-1.333-2.336-3.006-2.664-4.913l-.09-2.085c-.006-.133-.064-.258-.162-.347l-.158-2.827c-.006-.134-.065-.26-.165-.35l-.195-3.711.037-.04c.089-.098.137-.227.131-.359l-.178-4.106.034-.038c.09-.098.138-.227.132-.36l-.057-1.317c-.006-.147-.078-.285-.194-.375l-.947-.729c-.072-.055-.158-.09-.248-.1-.936-.108-1.696.172-2.273.834-.084.097-.128.222-.123.35l.207,4.813-.039.035Z"/>
    <path class="st2" d="M132.788,62.192c.062.042.133.071.207.083,1.181.182,1.802-.355,2.118-.84.057-.088.085-.191.081-.295l-.048-1.097c-.009-.18-.112-.341-.272-.423-2.575-1.315-5.351-2.419-8.256-3.284l-.861-4.202-.079-1.828c-.004-.074-.023-.147-.058-.212l-.321-.606.077-.493c2.806-1.292,5.698-2.435,8.603-3.4.212-.071.352-.274.341-.497l-.033-.732c-.007-.161-.091-.309-.227-.396l-1.32-.859c-.104-.069-.232-.094-.357-.074-2.801.485-5.381,1.462-7.671,2.905l-.593-.069c-.228-1.171-.721-2.224-1.469-3.136-.12-.146-.309-.213-.497-.17l-1.994.451c-.144.033-.266.127-.334.258-.067.131-.074.285-.018.421l1.357,3.28-.262.75c-.05.141-.033.296.044.424,1.255,2.069,1.952,4.429,2.072,7.015l-.216,1.218c-2.166.181-4.086,1.053-5.712,2.596-.165.157-.203.406-.093.605l1.191,2.147c.042.076.104.139.177.184l2.86,1.745c.079.048.169.073.261.073.007,0,.015,0,.021,0,1.214-.053,2.23-.459,3.022-1.207.036-.034.067-.074.092-.118l1.726-3.059c2.279.509,4.444,1.464,6.439,2.841ZM122.11,59.685l-.287.73c-.026.065-.038.136-.034.206l-.144.063c-.239.059-.441.053-.627-.023l1.092-.976Z"/>
    <path class="st2" d="M151.312,46.843l1.146,1.047c.093.085.214.131.337.131.053,0,.106-.008.158-.026,2.073-.692,4.218-1.399,6.433-2.125l1.863-.085c.957-.174,1.775-.552,2.432-1.125.146-.128.205-.33.151-.516l-.43-1.482c-.04-.139-.139-.253-.271-.314l-1.159-.538c-.099-.046-.213-.059-.317-.035-3.592.792-7.039,1.899-10.245,3.289-.189.083-.309.273-.301.48l.04.951c.006.133.064.258.163.348Z"/>
    <path class="st2" d="M142.086,49.487l.304,6.994c.369,2.591,1.589,4.789,3.625,6.535.091.079.207.121.325.121.025,0,.05-.002.075-.006l1.675-.254c.227-.034.4-.219.423-.447.075-.792.319-1.487.727-2.067.104-.148.12-.34.042-.503l-.603-1.256c-.098-.203-.312-.317-.541-.275l-1.241.231-.337.014-.565-1.987-.086-1.988c-.006-.125-.059-.244-.146-.333l.097-.503c.007-.039.01-.077.009-.116l-.176-4.081.038-.035c.109-.1.169-.243.163-.391l-.078-1.792.609-2.372c.012-.048.018-.097.016-.146l-.065-1.5c-.007-.145-.076-.28-.19-.371l-1.364-1.077c-.067-.053-.147-.088-.232-.102-.76-.119-1.445.063-2.052.538-.128.1-.199.254-.192.416l.104,2.38-.293,1.229c-.011.045-.016.091-.014.138l.112,2.609-.035.038c-.089.098-.136.227-.131.359Z"/>
    <path class="st2" d="M163.458,55.034l1.292-.605c.206-.096.32-.319.28-.542l-.239-1.31c-.035-.193-.18-.347-.37-.395l-2.48-.624c-.101-.026-.205-.02-.3.018l-.479.187c-.573.138-1.345.169-2.29.093l-3.001-.27c-.903-.105-1.655.097-2.234.603-.146.128-.205.329-.151.516l.43,1.483c.034.117.109.218.213.283.909.577,1.934.868,3.049.868.092,0,.185-.002.278-.006.023,0,.046-.003.068-.008l1.213-.223.645.133c.04.008.083.014.122.01l3.766-.163c.066-.003.131-.019.19-.047Z"/>
    <path class="st2" d="M122.805,87.115c-.038-.038-.083-.07-.132-.095l-1.805-.895,2.004-4.268c.049-.104.061-.221.033-.332l-.178-.726c-.034-.141-.128-.259-.256-.325l-1.049-.542c-.108-.057-.235-.07-.352-.041-2.365.594-4.78,1.558-7.18,2.866l-.672.028.32-2.231c3.114-1.067,6.044-2.154,8.714-3.23.176-.071.297-.234.312-.423.069-.848-.367-1.419-1.168-1.529-.042-.006-.086-.008-.128,0-1.914.229-3.806.782-5.623,1.644-.791.112-1.528-.029-2.25-.425l.388-.87c.064-.143.058-.306-.017-.442l-.835-1.538c-.092-.169-.291-.261-.461-.262l-1.755.076c-.133.006-.257.064-.347.162l-.175.19c-.095.104-.143.242-.13.383l.209,2.332c-.09-.011-.188.003-.275.043l-2.789,1.298-1.46-.338-.126-2.912.063-.082c.072-.093.108-.209.103-.326-.035-.819-.336-1.493-.895-2.002-.065-.06-.146-.101-.233-.119-1.446-.307-2.268.302-2.703.862-.1.13-.13.3-.082.456l.491,1.565.155,3.602-.195.213c-2.135.731-4.208,1.334-6.164,1.791-.234.056-.396.27-.386.51.032.721.485,1.325,1.346,1.799.106.059.229.075.349.05l3.397-.761,1.792-.078c-1.421,4.146-2.845,8.123-4.237,11.83-.013.036-.022.073-.027.111-.135,1.036.256,1.854,1.13,2.364.106.062.232.084.351.059l1.164-.233c.153-.03.282-.131.351-.271,1.166-2.381,2.219-5.022,3.131-7.859l2.444.375c-.397,2.493-1.283,4.628-2.636,6.352-.128.163-.143.389-.035.566l.238.395c.095.157.28.24.45.242l2.048-.089c.087-.004.172-.03.246-.077l.498-.314c.051-.032.097-.074.133-.123,1.371-1.832,2.348-3.932,2.916-6.319.088-1.171-.19-2.104-.827-2.771-.046-.049-.102-.088-.163-.114l-1.381-.599c-.069-.03-.142-.04-.22-.041l-2.98.129,1.303-4.94,2.171-.765,1.3-.057-.147.741c-.015.072-.013.147.005.219l.489,1.959c.042.166.166.3.329.354,1.042.344,2.07.977,3.055,1.879.135.123.325.163.498.105l2.422-.819.829-.035-2.259,3.29c-.062.09-.092.196-.088.305l.025.584c.007.155.085.298.212.387l1.173.827c.065.047.142.077.222.087.946.127,1.802-.203,2.559-.979l.629-.027-.154.837c-3.085.766-5.898,1.738-8.369,2.892-.217.102-.332.341-.274.573l.044.18c.03.12.103.225.205.294l1.319.896c.135.091.304.11.456.055l4.036-1.504,1.071-.046-1.598,3.091c-.04.077-.059.163-.056.25l.011.256c.008.185.117.351.283.431l.56.269c.068.032.142.049.217.049h.021l1.098-.046c.131-.006.254-.062.344-.157,1.973-2.1,3.72-4.383,5.193-6.786.064-.106.088-.232.064-.355-.207-1.088-.761-2.09-1.647-2.979Z"/>
    <path class="st2" d="M93.964,84.612c.181.023.352.035.511.035.627,0,1.085-.182,1.365-.541.124-.16.14-.378.04-.554l-.835-1.467c-.052-.091-.13-.163-.225-.207l-3.701-1.708c-.047-.021-.098-.036-.15-.042-1.197-.143-2.11.055-2.714.589-.137.121-.196.307-.156.484l.09.396c.034.147.132.271.268.339l5.352,2.628c.049.023.102.04.156.047Z"/>
    <path class="st2" d="M123.636,97.212c-.043-.106-.121-.194-.222-.249l-.861-.475c-.08-.045-.174-.063-.263-.062l-.878.038c-.121.006-.235.055-.322.138l-1.765,1.674-5.469.236-.073-.079c-.1-.106-.247-.16-.388-.159l-5.024.217-.078-.07c-.098-.089-.236-.136-.357-.13l-2.982.13-.034-.037c-.101-.11-.254-.163-.393-.165l-2.261.099-.095-.059c-.085-.052-.178-.07-.282-.073l-5.192.225,1.271-5.502c.019-.081.017-.165-.005-.245l-.479-1.737c-.038-.136-.131-.25-.257-.313l-2.546-1.282c-.076-.038-.162-.053-.247-.054l-2.536.108-.077-.069c-.098-.089-.219-.129-.358-.131l-.768.033c-.153.007-.295.084-.385.208l-.38.529c-.091.128-.118.29-.071.439l.212.687c.038.124.123.228.236.29,1.098.606,2.429.914,4.063.911-.233,2.654-1.118,4.928-2.634,6.764-.101.122-.138.284-.1.438l.178.726c.029.119.102.224.204.294l1.36.93c.083.057.182.087.282.087h.021l2.412-.104c.119-.006.232-.053.319-.134l.112-.105,2.958-.127c.121-.006.235-.055.323-.138l.093-.088.781.159c.04.008.082.008.121.01l3.123-.136,1.787.35c.07.014.142.011.211-.005l1.045-.248,3.186.296,6.996-.303.075.068c.099.091.231.136.36.133l3.547-.152c.066-.003.132-.02.192-.048,1.327-.627,2.182-1.606,2.537-2.909.029-.106.022-.219-.02-.32l-.206-.505Z"/>
    <path class="st2" d="M155.234,68.98c-.023-.12-.09-.227-.188-.301l-1.138-.867c-.062-.047-.136-.08-.213-.094-.791-.146-1.499.039-2.11.546-.153.127-.216.332-.161.523l1.733,6.008-.127.814c-.019.119.007.24.07.342l1.023,1.64c.093.148.254.235.424.235.038,0,.077-.005.115-.014l.944-.225c.166-.039.301-.16.356-.321l.325-.93c.021-.06.03-.123.028-.187l-.1-2.159-.984-5.013Z"/>
    <path class="st2" d="M151.68,92.204c-1.927-.859-3.935-1.676-5.973-2.428l.094-1.008-.079-1.841.036-.04c.117-.129.159-.311.109-.478l-.177-.598.206-.889c1.788-.37,3.41-1.011,4.826-1.905.199-.127.283-.375.201-.597l-.415-1.117c-.053-.142-.167-.252-.311-.301l-.967-.323c-.098-.032-.206-.033-.306-.003l-2.618.811-.83-.192-.106-2.499c.752-.099,1.38-.432,1.868-.992.112-.128.151-.306.103-.47l-.213-.724c-.033-.113-.105-.211-.205-.276l-1.358-.893c-.087-.058-.187-.082-.296-.082l-5.812.249c-.037.002-.074.008-.109.018l-2.518.684-2.212.094c-.075.004-.149.024-.216.06l-1.11.598c-.169.091-.271.271-.263.462.041.915.459,1.659,1.244,2.212.09.063.202.093.31.092l1.864-.081c.034-.002.067-.007.1-.015l3.503-.874,1.62-.069.28.838.106,2.487-8.339,2.218c-.228.061-.382.271-.372.506l.032.732c.007.144.074.277.187.367l1.555,1.251c.117.095.271.132.42.099,2.082-.451,4.123-1.038,6.068-1.744l.602.07.132,3.068-.226,1.312c-1.679.378-3.239,1.092-4.645,2.126-.134.099-.21.258-.202.425l.024.549c.002.058.015.115.037.169.864,2.084,2.334,3.57,4.368,4.417.062.025.127.038.192.038h.021l1.943-.091c.935-.193,1.565-.795,1.824-1.739.014-.05.02-.102.018-.153l-.098-2.233.181-.185,4.089,1.562c.098.038.207.042.306.017l1.666-.438c.253-.066.412-.316.365-.573l-.239-1.311c-.03-.162-.138-.3-.288-.367ZM142.216,93.646l-.274.979-.094.004-.317-.386-.016-.352.351-.287.351.042Z"/>
    <path class="st2" d="M149.453,69.365c-.037-.12-.117-.223-.226-.286l-1.167-.685c-.119-.069-.261-.086-.393-.049l-1.481.432c-.13.038-.239.128-.303.247-.063.12-.075.261-.032.39.997,3.037,1.943,6.145,2.811,9.235.035.126.119.233.232.299l1.539.885c.077.044.163.066.249.066s.172-.022.249-.066l1.107-.635c.202-.116.297-.356.229-.579l-2.815-9.254Z"/>
    <path class="st2" d="M132.929,95.344l-.758-.554c-.168-.124-.391-.129-.565-.018l-1.067.686-.471-1.187-.294-6.81.037-.034c.11-.1.171-.244.165-.393l-.106-2.418c.04-1.798.324-3.524.846-5.133.024-.074.03-.152.019-.229l-.256-1.676c-.022-.146-.107-.273-.232-.351l-1.165-.717c-.085-.053-.183-.07-.283-.074l-.732.031c-.201.009-.378.138-.447.327-.912,2.471-1.377,5.137-1.381,7.946l.138,3.191-.033.037c-.091.098-.138.228-.133.36l.194,4.499c.006.133.064.258.163.348l.116,1.875c.003.068.021.135.05.195l1.245,2.582c.034.072.086.135.149.183l2.12,1.594c.088.065.193.101.301.101.033,0,.067-.003.101-.01l1.127-.231c.165-.034.302-.149.364-.306l.991-2.497c.025-.065.038-.136.035-.206l-.031-.731c-.007-.151-.082-.293-.205-.382Z"/>
    <path class="st2" d="M187.795,79.824l-1.241-2.438c-.035-.069-.086-.13-.148-.176-2.719-2.008-5.82-3.233-9.224-3.646l-.337-1.166c-.04-.14-.14-.255-.271-.315l-1.159-.533c-.098-.044-.203-.058-.308-.036l-1.162.233c-.172.034-.313.157-.372.322l-.326.916-.133-.043c-.087-.029-.182-.031-.271-.011l-1.124.269c-.211.051-.365.231-.382.447-.086,1.089.314,1.983,1.19,2.663l-1.55,8.892-2.448.105c-.055.003-.108.014-.159.033-1.182.457-2.293,1.179-3.324,2.168-1.734,1.892-3.096,3.916-4.046,6.018-.033.071-.048.149-.045.228l.083,1.901c.004.08.026.157.065.227l.632,1.107c.021.036.047.07.076.101,1.161,1.19,2.521,1.829,4.039,1.896.008,0,.015,0,.022,0h.021l3.219-.139c.046-.003.092-.011.136-.025,2.679-.89,5.118-2.309,7.25-4.217.112-.101.173-.245.167-.395l-.091-2.085c-.002-.042-.01-.084-.021-.124-.454-1.488-1.211-2.809-2.252-3.928.328-3.797,1.063-7.495,2.186-11.001,2.734.263,5.31,1.081,7.664,2.436l.023.54c-1.464,2.712-3.53,5.01-6.141,6.83-.14.098-.221.261-.214.432l.048,1.133c.007.15.081.291.203.381l.984.728c.153.112.355.129.525.042l2.796-1.438c.073-.037.136-.092.183-.16l.408-.589.116-.004c.134-.006.259-.063.349-.162l1.05-1.146c1.917-1.693,3.049-3.704,3.362-5.978.015-.102-.003-.204-.05-.295ZM165.938,95.928c-.505-.119-.977-.337-1.424-.657l-.005-.122c.467.281.944.542,1.429.779Z"/>
  </g>
</svg>