<?xml version="1.0" encoding="UTF-8"?>
<svg id="_レイヤー_1" xmlns="http://www.w3.org/2000/svg" version="1.1" viewBox="0 0 224.79 133.806">
  <!-- Generator: Adobe Illustrator 29.7.1, SVG Export Plug-In . SVG Version: 2.1.1 Build 8)  -->
  <defs>
    <style>
      .st0 {
        fill: #ff7b9d;
      }

      .st1 {
        fill: #fff;
      }

      .st2 {
        fill: #79695b;
      }

      .st3 {
        fill: #ffa9ca;
      }
    </style>
  </defs>
  <path class="st1" d="M219.331,69.934c-4.74-5.833-12.009-9.318-17.978-11.329,3.6-7.417,4.42-15.608,2.126-22.824-3.32-10.446-11.94-18.611-26.34-24.959-1.46-.648-3.086-.689-4.58-.113-.868.335-1.629.854-2.242,1.518-.019-.898-.243-1.787-.666-2.609-.732-1.422-1.973-2.474-3.497-2.962C154.107,2.8,140.248.657,123.784.105c-32.554-1.099-52.512,6.445-59.329,22.396-21.445-.89-38.255,3.355-49.987,12.628-1.256.992-2.049,2.413-2.234,4.002-.021.178-.034.356-.039.534-1.716.011-3.421.754-4.609,2.187l-.292.358c-9.355,11.548-9.742,25.793-.988,36.291,5.192,6.226,12.24,10.286,17.239,12.597.308.143.616.28.923.413-2.477,3.763-3.694,8.534-2.246,13.654,2.897,10.252,14.435,13.217,18.206,14.187.493.128,1.001.194,1.511.194,2.61,0,4.903-1.688,5.696-4.148-.117,1.43.278,2.84,1.133,4.01.943,1.291,2.332,2.138,3.912,2.384,12.396,1.934,25.454,2.557,37.364,2.557,7.176,0,13.923-.227,19.867-.527,2.804,5.003,8.735,9.984,19.849,9.984.54,0,1.092-.011,1.657-.037,2.96-.129,5.47-2.133,6.247-4.992.681-2.521-.151-5.147-2.076-6.827,9.043-.835,20.294-1.996,27.302-2.732,6.665-.702,21.666-2.99,28.466-4.46,10.656-2.303,22.563-5.528,28.986-14.72,7.116-10.188,4.876-22.856-1.013-30.105h.002Z"/>
  <g>
    <path class="st3" d="M19.362,110.311c.361-.05.704-.238.941-.552.475-.628.351-1.522-.278-1.996-1.676-1.267-3.553-6.54-1.621-10.142.372-.694.111-1.557-.582-1.93-.692-.373-1.557-.112-1.93.583-2.644,4.928-.393,11.642,2.415,13.763.314.237.694.325,1.056.275h0Z"/>
    <path class="st3" d="M13.178,111.17c.361-.05.703-.238.941-.552.475-.628.351-1.522-.278-1.996-1.675-1.267-3.552-6.541-1.621-10.142.372-.694.111-1.557-.582-1.93s-1.558-.112-1.93.583c-2.643,4.927-.393,11.642,2.414,13.763.314.237.695.325,1.056.275h0Z"/>
  </g>
  <g>
    <path class="st3" d="M207.452,45.062c.344-.058.668-.242.896-.542,2.133-2.799,2.493-9.871-1.38-13.905-.546-.568-1.448-.584-2.015-.042-.568.545-.587,1.448-.042,2.015,2.83,2.948,2.442,8.533,1.169,10.203-.477.626-.356,1.52.27,1.997.327.249.726.335,1.101.272v.002h.001Z"/>
    <path class="st3" d="M213.638,44.225c.344-.058.668-.242.896-.542,2.132-2.799,2.492-9.872-1.379-13.905-.547-.569-1.449-.585-2.015-.042-.568.545-.587,1.448-.042,2.015,2.83,2.948,2.442,8.533,1.169,10.204-.477.626-.356,1.521.27,1.997.326.249.726.335,1.101.272h0Z"/>
  </g>
  <g>
    <path class="st0" d="M42.424,111.671c-4.682-1.207-11.079-3.416-12.56-8.664-1.381-4.885,2.238-9.732,6.386-11.423.936-.384,1.525-1.318,1.467-2.324-.055-1.011-.751-1.872-1.724-2.142-.408-.115-.823-.252-1.183-.372-.271-.093-.524-.175-.734-.238-2.17-.651-4.72-1.471-7.202-2.615-4.257-1.966-10.225-5.38-14.473-10.474-6.311-7.569-5.903-17.612,1.063-26.211l.257-.317c.686-.83.569-2.062-.257-2.747-.83-.686-2.067-.571-2.753.262l-.281.348c-8.09,9.982-8.491,22.216-1.025,31.166,4.71,5.649,11.209,9.38,15.833,11.518,2.194,1.015,4.429,1.786,6.297,2.374-4.021,3.003-7.099,8.355-5.433,14.26,2.033,7.183,9.732,9.936,15.357,11.384.161.039.322.058.48.058.891,0,1.666-.603,1.889-1.465.13-.504.058-1.028-.209-1.477-.264-.451-.689-.77-1.196-.898v-.003h0Z"/>
    <path class="st0" d="M18.182,41.778c.442,0,.86-.144,1.21-.42,10.428-8.244,25.908-11.893,46.081-10.861.195.009.387.014.572.014,3.335,0,4.532-1.507,4.946-2.811,4.432-14.07,22.124-20.691,52.526-19.661,15.72.526,28.873,2.547,40.216,6.177.497.161,1.025.117,1.488-.123.466-.238.809-.644.967-1.14.161-.497.117-1.025-.123-1.489-.24-.463-.644-.806-1.141-.965-11.686-3.742-25.185-5.822-41.275-6.362-32.38-1.087-51.357,6.45-56.317,22.28-.079.067-.548.245-1.659.18-21.109-1.09-37.501,2.849-48.7,11.699-.411.324-.668.788-.73,1.308-.058.518.086,1.027.408,1.433.374.471.932.742,1.532.742h0Z"/>
    <path class="st0" d="M216.197,72.478c-5.642-6.947-15.991-10.22-20.914-11.439,5.138-7.5,6.77-16.43,4.35-24.036-2.948-9.278-10.842-16.636-24.136-22.494-.47-.209-.997-.221-1.488-.036-.487.189-.874.555-1.087,1.037-.432.984.017,2.137,1.001,2.571,12.203,5.38,19.398,11.956,21.99,20.105,2.139,6.722.5,14.719-4.381,21.392-.644.876-.799,2.005-.418,3.02.377,1.018,1.237,1.769,2.304,2.012,4.185.95,14.493,3.862,19.751,10.33,3.915,4.82,5.481,13.662.665,20.552-4.778,6.839-14.973,9.524-24.153,11.507-6.314,1.364-20.886,3.555-27.252,4.309-6.424.761-25.013,2.576-35.952,3.46-12.131.979-44.347,3.586-72.572-.818-.518-.084-1.035.043-1.453.35-.422.309-.699.763-.778,1.279-.079.514.048,1.03.353,1.45.309.422.761.698,1.275.778,12.162,1.897,25.003,2.508,36.737,2.508,15.192,0,28.53-1.023,36.116-1.606l.679-.053c9.341-.715,28.033-2.651,35.636-3.45,6.571-.692,21.349-2.945,28.033-4.391,9.91-2.139,20.944-5.09,26.532-13.086,5.971-8.549,4.1-19.174-.84-25.25h.002,0Z"/>
  </g>
  <g>
    <path class="st1" d="M126.753,113.963c-.763-.2-1.542.817-1.747,1.577-1.08,4.027.382,7.823,4.128,10.85-13.097-.256-13.902-9.337-13.931-9.741-.056-.785-.747-1.937-1.523-1.891,0,0,13.073-.795,13.073-.795Z"/>
    <path class="st0" d="M132.615,124.74c-2.561-1.649-5.392-4.429-4.347-8.325.278-1.04-.343-2.112-1.381-2.391-1.056-.284-2.112.344-2.386,1.378-1.011,3.762.113,7.406,3.171,10.392-11.243-.862-11.919-8.829-11.943-9.185-.082-1.061-1.025-1.923-2.088-1.805-1.073.077-1.882,1.011-1.807,2.086.319,4.456,4.48,12.882,17.928,12.882.48,0,.97-.01,1.481-.033,1.196-.053,2.214-.862,2.526-2.012.312-1.141-.154-2.343-1.155-2.987h0Z"/>
  </g>
  <g>
    <path class="st2" d="M45.444,68.256l1.05.149.106-.033c3.97-1.221,8.147-2.404,12.42-3.52l2.871,2.141,1.365-.89-.027-.847-.18-.144c-3.406-2.723-6.916-5.665-10.479-8.778l-.79-.543-1.527.455-.098.121c-3.603,4.477-6.753,9.216-9.364,14.085l-.084.156.258,1.358,1.435.904.179.02-2.509.81.268,1.078,1.756,1.089,6.661-1.716,1.185-.039-3.964,6.932.299,1.05.074.153c.612.857,1.441,1.289,2.471,1.241l1.873-.066c2.727-.499,5.275-1.627,7.576-3.354l.607-.02.624,2.263,1.419,1.368,1.575-.52.2-.796-.016-.1c-.313-2-.913-3.947-1.782-5.789l-.078-.165-1.575-.723-.813.026-.71.947c-1.987,1.942-4.273,3.282-6.796,3.983l-.541-.113c1.18-2.669,2.54-5.207,4.048-7.551l5.826-3.186-.2-1.586-1.283-.59-.218.115c-4.335,2.287-9.042,3.955-13.905,4.95l-.95.03.009-.115c.115-1.447.698-2.872,1.732-4.241ZM48.054,64.961c1.052-2.05,2.224-3.971,3.492-5.727l5.613,3.899-.067.08-3.742.844-1.799.059-3.145.834-.351.011Z"/>
    <path class="st2" d="M88.146,70.787l-.152-.142-.051-1.384-.556-2.115-.06-1.856-1.01-1.174-.151-.04c-1.209-.317-1.907.205-2.279.698l-.136.179.983,4.87.058,1.793.151.142.18,4.408.654.856.919.403,1.171-.264.618-1.159-.213-1.349-.125-3.867Z"/>
    <path class="st2" d="M74.134,77.131c-1.395-2.194-2.403-4.636-2.987-7.17l-.057-1.771-1.298-1.413-2.499.522.106.492c.867,4.02,2.123,7.964,3.735,11.723l.058.136,1.409.949,1.858-.299.651-1.138-.043-1.327-.932-.704Z"/>
    <path class="st2" d="M108.498,67.684c.814-.139,1.513-.453,2.076-.935l.242-.207-.492-1.767-1.319-.627-.165.035c-3.012.631-5.9,1.524-8.584,2.655l-.316.134.043,1.342,1.311,1.229.28-.09c1.731-.559,3.521-1.13,5.37-1.713l1.554-.055Z"/>
    <path class="st2" d="M96.405,78.041l-.216.007-.434-1.589-.061-1.854-.105-.099.087-.43-.111-3.422.178-.158-.056-1.715.544-2.033-.05-1.553-1.409-1.137-.129-.021c-.653-.11-1.25.042-1.779.447l-.204.156.073,2.23-.271,1.077.072,2.211-.147.157.199,6.05c.285,2.181,1.292,4.042,2.992,5.53l.172.151,2.011-.285.041-.388c.068-.651.268-1.2.61-1.677l.171-.238-.778-1.661-1.399.245Z"/>
    <path class="st2" d="M108.876,72.298l-.537.204c-.471.106-1.106.126-1.882.057l-2.498-.252c-.775-.097-1.426.07-1.933.501l-.243.207.482,1.73.159.103c.783.507,1.668.763,2.633.763.059,0,.119,0,.179-.003l1.066-.179.58.125,3.203-.105,1.625-.696-.308-1.79-2.527-.667Z"/>
    <path class="st2" d="M132.384,60.454l-.169.041c-1.443.348-2.924.794-4.402,1.329l-.179-.054-1.182-2.588.058-.254,1.521-.439.882.118.066-.009c1.068-.146,1.979-.554,2.705-1.21l.172-.156-.03-.962-1.693-1.245-4.037.929-.537.017-.021-.684-1.146-1.073-.151-.024c-.678-.107-1.247.025-1.698.394l-.244.199.396,1.629-.049.163-4.001,1.147-1.768.058c-.559.018-.992.318-1.219.846l-.044.103.028.837,1.498,1.404,1.671-.055.114-.017c1.27-.341,2.519-.736,3.713-1.175l.912-.029,1.131,2.797-.036.123c-2.447.695-4.839,1.472-7.113,2.312l-.338.125.037,1.168,1.514,1.23,1.62-.053,5.028-1.811.634-.021,1.474,2.976c0,.676-.224,1.202-.681,1.607l-.177.156.038,1.143,1.197.744.7-.024.2-.049c.973-.468,1.672-1.213,2.077-2.215l.058-.143-.032-.15c-.361-1.68-.976-3.284-1.827-4.769l-.002-.076c1.74-.561,3.399-1.191,4.938-1.875l.403-.18-.468-1.544-1.539-.71Z"/>
    <path class="st2" d="M126.003,78.107c-2.899-2.224-5.887-4.274-8.88-6.093l-.199-.121-1.479.497.049,1.519.183.144c3.095,2.441,6.303,4.777,9.541,6.946l.018.553,1.091-.035-.01-.316c.548-.092.795-.429.902-.662l.05-.107-.004-.118c-.03-.917-.462-1.665-1.262-2.208Z"/>
    <path class="st2" d="M154.994,59.669l-.282-1.292-1.755-.922-.196.06c-5.096,1.554-10.222,3.159-15.236,4.77l-.358.115.027.865.02.124c.256.875.851,1.444,1.723,1.646l.125.029.124-.035c3.302-.935,6.603-2.157,9.813-3.631h.025c-1.437,2.518-2.459,5.151-3.043,7.84l-.014.06.099,2.972c.29,2.375,1.296,4.426,2.972,6.076.805.883,1.773,1.33,2.881,1.33.045,0,.091,0,.136-.002l.967-.031.871-1.125-.486-1.317-2.176-.595c-1.108-1.522-1.858-3.238-2.229-5.105.538-3.121,1.604-6.024,3.12-8.561l2.874-3.27Z"/>
    <path class="st2" d="M182.883,56.398c-1.692-.573-3.637-.334-5.481.673-1.396.762-2.725,1.951-4.061,3.634-.347.437-.652.908-.947,1.363-.078.121-.155.239-.232.356-.135-.661-.3-1.304-.493-1.927-.468-1.505-1.058-3.22-2.144-4.508-1.187-1.405-2.819-1.815-4.367-1.093-1.483.691-2.392,1.867-2.944,3.81-1.075,3.77-.232,7.679.839,11.342,1.061,3.63,2.675,6.52,4.796,8.588.319.311.686.441,1.041.441.436,0,.854-.196,1.146-.496.304-.312.489-.743.461-1.184.309-.156.62-.312.935-.471,6.404-3.22,14.375-7.228,14.947-15.587.147-2.161-1.289-4.194-3.495-4.943ZM164.81,62.207c.037-1.83.301-3.083.806-3.83.216-.319.695-.705,1.014-.744.012,0,.023-.002.034-.002.262,0,.525.354.771.739,1.17,1.829,1.897,4.489,2.059,7.516l-.154.383.178.024c.08.701.549,1.219,1.225,1.335.717.125,1.433-.255,1.751-.934l.138.019-.01-.24c.118-.135.321-.286.492-.412.214-.158.435-.322.602-.514.392-.449.707-.955,1.013-1.444.204-.327.407-.654.633-.96.946-1.282,1.868-2.231,2.818-2.903,1.173-.832,2.533-1.216,3.466-.976l.275.067q.168.04.396.184c.713.451,1.02,1.008.965,1.756-.265,3.704-3.073,6.574-4.724,7.955-2.37,1.982-5.246,3.375-8.027,4.723-.622.301-1.242.602-1.857.908-.928-1.274-1.703-2.796-2.279-4.493-.768-2.255-1.641-5.22-1.582-8.157Z"/>
  </g>
</svg>