<?xml version="1.0" encoding="UTF-8"?>
<svg id="_レイヤー_1" xmlns="http://www.w3.org/2000/svg" version="1.1" viewBox="0 0 224.79 133.806">
  <!-- Generator: Adobe Illustrator 29.7.1, SVG Export Plug-In . SVG Version: 2.1.1 Build 8)  -->
  <defs>
    <style>
      .st0 {
        fill: #ff7b9d;
      }

      .st1 {
        fill: #fff;
      }

      .st2 {
        fill: #79695b;
      }

      .st3 {
        fill: #ffa9ca;
      }
    </style>
  </defs>
  <path class="st1" d="M219.331,69.934c-4.74-5.833-12.009-9.318-17.978-11.329,3.6-7.417,4.42-15.608,2.126-22.824-3.32-10.446-11.94-18.611-26.34-24.959-1.46-.648-3.086-.689-4.58-.113-.868.335-1.629.854-2.242,1.518-.019-.898-.243-1.787-.666-2.609-.732-1.422-1.973-2.474-3.497-2.962C154.107,2.8,140.248.657,123.784.105c-32.554-1.099-52.512,6.445-59.329,22.396-21.445-.89-38.255,3.355-49.987,12.628-1.256.992-2.049,2.413-2.234,4.002-.021.178-.034.356-.039.534-1.716.011-3.421.754-4.609,2.187l-.292.358c-9.355,11.548-9.742,25.793-.988,36.291,5.192,6.226,12.24,10.286,17.239,12.597.308.143.616.28.923.413-2.477,3.763-3.694,8.534-2.246,13.654,2.897,10.252,14.435,13.217,18.206,14.187.493.128,1.001.194,1.511.194,2.61,0,4.903-1.688,5.696-4.148-.117,1.43.278,2.84,1.133,4.01.943,1.291,2.332,2.138,3.912,2.384,12.396,1.934,25.454,2.557,37.364,2.557,7.176,0,13.923-.227,19.867-.527,2.804,5.003,8.735,9.984,19.849,9.984.54,0,1.092-.011,1.657-.037,2.96-.129,5.47-2.133,6.247-4.992.681-2.521-.151-5.147-2.076-6.827,9.043-.835,20.294-1.996,27.302-2.732,6.665-.702,21.666-2.99,28.466-4.46,10.656-2.303,22.563-5.528,28.986-14.72,7.116-10.188,4.876-22.856-1.013-30.105h.002Z"/>
  <g>
    <path class="st3" d="M19.362,110.311c.361-.05.704-.238.941-.552.475-.628.351-1.522-.278-1.996-1.676-1.267-3.553-6.54-1.621-10.142.372-.694.111-1.557-.582-1.93-.692-.373-1.557-.112-1.93.583-2.644,4.928-.393,11.642,2.415,13.763.314.237.694.325,1.056.275h0Z"/>
    <path class="st3" d="M13.178,111.17c.361-.05.703-.238.941-.552.475-.628.351-1.522-.278-1.996-1.675-1.267-3.552-6.541-1.621-10.142.372-.694.111-1.557-.582-1.93s-1.558-.112-1.93.583c-2.643,4.927-.393,11.642,2.414,13.763.314.237.695.325,1.056.275h0Z"/>
  </g>
  <g>
    <path class="st3" d="M207.452,45.062c.344-.058.668-.242.896-.542,2.133-2.799,2.493-9.871-1.38-13.905-.546-.568-1.448-.584-2.015-.042-.568.545-.587,1.448-.042,2.015,2.83,2.948,2.442,8.533,1.169,10.203-.477.626-.356,1.52.27,1.997.327.249.726.335,1.101.272v.002Z"/>
    <path class="st3" d="M213.638,44.225c.344-.058.668-.242.896-.542,2.132-2.799,2.492-9.872-1.379-13.905-.547-.569-1.449-.585-2.015-.042-.568.545-.587,1.448-.042,2.015,2.83,2.948,2.442,8.533,1.169,10.204-.477.626-.356,1.521.27,1.997.326.249.726.335,1.101.272h0Z"/>
  </g>
  <g>
    <path class="st0" d="M42.424,111.671c-4.682-1.207-11.079-3.416-12.56-8.664-1.381-4.885,2.238-9.732,6.386-11.423.936-.384,1.525-1.318,1.467-2.324-.055-1.011-.751-1.872-1.724-2.142-.408-.115-.823-.252-1.183-.372-.271-.093-.524-.175-.734-.238-2.17-.651-4.72-1.471-7.202-2.615-4.257-1.966-10.225-5.38-14.473-10.474-6.311-7.569-5.903-17.612,1.063-26.211l.257-.317c.686-.83.569-2.062-.257-2.747-.83-.686-2.067-.571-2.753.262l-.281.348c-8.09,9.982-8.491,22.216-1.025,31.166,4.71,5.649,11.209,9.38,15.833,11.518,2.194,1.015,4.429,1.786,6.297,2.374-4.021,3.003-7.099,8.355-5.433,14.26,2.033,7.183,9.732,9.936,15.357,11.384.161.039.322.058.48.058.891,0,1.666-.603,1.889-1.465.13-.504.058-1.028-.209-1.477-.264-.451-.689-.77-1.196-.898v-.003Z"/>
    <path class="st0" d="M18.182,41.778c.442,0,.86-.144,1.21-.42,10.428-8.244,25.908-11.893,46.081-10.861.195.009.387.014.572.014,3.335,0,4.532-1.507,4.946-2.811,4.432-14.07,22.124-20.691,52.526-19.661,15.72.526,28.873,2.547,40.216,6.177.497.161,1.025.117,1.488-.123.466-.238.809-.644.967-1.14.161-.497.117-1.025-.123-1.489-.24-.463-.644-.806-1.141-.965-11.686-3.742-25.185-5.822-41.275-6.362-32.38-1.087-51.357,6.45-56.317,22.28-.079.067-.548.245-1.659.18-21.109-1.09-37.501,2.849-48.7,11.699-.411.324-.668.788-.73,1.308-.058.518.086,1.027.408,1.433.374.471.932.742,1.532.742h0Z"/>
    <path class="st0" d="M216.197,72.478c-5.642-6.947-15.991-10.22-20.914-11.439,5.138-7.5,6.77-16.43,4.35-24.036-2.948-9.278-10.842-16.636-24.136-22.494-.47-.209-.997-.221-1.488-.036-.487.189-.874.555-1.087,1.037-.432.984.017,2.137,1.001,2.571,12.203,5.38,19.398,11.956,21.99,20.105,2.139,6.722.5,14.719-4.381,21.392-.644.876-.799,2.005-.418,3.02.377,1.018,1.237,1.769,2.304,2.012,4.185.95,14.493,3.862,19.751,10.33,3.915,4.82,5.481,13.662.665,20.552-4.778,6.839-14.973,9.524-24.153,11.507-6.314,1.364-20.886,3.555-27.252,4.309-6.424.761-25.013,2.576-35.952,3.46-12.131.979-44.347,3.586-72.572-.818-.518-.084-1.035.043-1.453.35-.422.309-.699.763-.778,1.279-.079.514.048,1.03.353,1.45.309.422.761.698,1.275.778,12.162,1.897,25.003,2.508,36.737,2.508,15.192,0,28.53-1.023,36.116-1.606l.679-.053c9.341-.715,28.033-2.651,35.636-3.45,6.571-.692,21.349-2.945,28.033-4.391,9.91-2.139,20.944-5.09,26.532-13.086,5.971-8.549,4.1-19.174-.84-25.25h.002Z"/>
  </g>
  <g>
    <path class="st1" d="M126.753,113.963c-.763-.2-1.542.817-1.747,1.577-1.08,4.027.382,7.823,4.128,10.85-13.097-.256-13.902-9.337-13.931-9.741-.056-.785-.747-1.937-1.523-1.891,0,0,13.073-.795,13.073-.795Z"/>
    <path class="st0" d="M132.615,124.74c-2.561-1.649-5.392-4.429-4.347-8.325.278-1.04-.343-2.112-1.381-2.391-1.056-.284-2.112.344-2.386,1.378-1.011,3.762.113,7.406,3.171,10.392-11.243-.862-11.919-8.829-11.943-9.185-.082-1.061-1.025-1.923-2.088-1.805-1.073.077-1.882,1.011-1.807,2.086.319,4.456,4.48,12.882,17.928,12.882.48,0,.97-.01,1.481-.033,1.196-.053,2.214-.862,2.526-2.012.312-1.141-.154-2.343-1.155-2.987h0Z"/>
  </g>
  <g>
    <path class="st2" d="M54.272,59.578l-.36-.917-1.652-.589-1.498.552-.071.114c-2.633,4.337-4.831,8.77-6.528,13.18l-.03.083.054.745.936.617,2.091-.379.082-.194c1.837-4.407,4.15-8.796,6.87-13.046l.106-.167h0Z"/>
    <path class="st2" d="M76.86,65.931l-1.976.677-1.012-.187-.172-2.275.316-.391.667.157,1.606-.334.856-1.282-1.575-1.53-2.691.212-1.927.595-1.265-.36-.207-2.738.566-.717,3.745-.281,1.519-1.048-.082-1.141-1.68-1.065-3.116.68-1.012-.091-.287-.802-1.518-1.08-2.01.151-.339,2.234-.779.513-3.636.273-1.657.814.791,1.547,1.69.857,3.223-.935,1.14.535.211,2.838-.423.628c-2.356.357-4.449.959-6.226,1.791l-.244.114.023.267c.058.749.548,1.353,1.458,1.794l.096.045,2.39-.184,5.147-1.402,1.551-.117.25.543.18,2.371-.188.199c-3.365,1.053-6.596,2.147-9.604,3.252l-.364.134.136.364c.315.842.987,1.451,1.991,1.815l.123.044,6.7-2.098c1.035-.246,1.505.136,1.739.495l.329,4.366-.369.471-1.086-.415-6.188.463-.561.567.644,1.385,1.847,1,5.047-1.269.84.138.251,3.348-1.178,1.875.064.698,2.556.968.937-.07,1.446-1.687-.413-5.544-.235-.201-.36-4.759.183-.304-.279-1.066.084-1.748c1.5-.422,2.735-1.047,3.682-1.859l.208-.177-.612-1.607-.959-.45-.002-.004Z"/>
    <path class="st2" d="M58.369,75.326l-.012-.196-.31-.193-.168-2.266.273-.24-.251-3.331.22-.253-.092-.223c-.37-.879-.599-1.927-.687-3.11l-.011-.181-1.211-.864-1.849.373-.054.248c-.857,4.01-2.313,7.955-4.332,11.724l-.052.098.089,1.208,1.703.534,1.55-.76,1.372-2.55.312-.023.369,4.97-.201.237.057.723,1.94,1.594,1.845-.378.307-1.925-.503-1.178-.303-4.038h0Z"/>
    <path class="st2" d="M98.725,70.2c-1.152-.984-2.404-1.565-3.8-1.729-2.175.164-4.222.774-6.074,1.804-2.725,1.371-4.971,3.422-6.674,6.1l-.135.21,1.332,2.035,1.746-.133,1.224-2.302c2.374-2.342,5.123-4.019,8.174-4.991l1.303.358.273.477-.363,2.298c-.577,1.98-1.612,3.657-3.081,4.983l-.189.17.363,1.083,1.913,1.205,1.906-1.002.057-.091c1.476-2.417,2.439-5.078,2.866-7.913l.011-.089-.77-2.401s-.082-.072-.082-.072Z"/>
    <path class="st2" d="M126.358,57.063l-.351-1.327-1.973-.936-.149.054c-6.19,2.182-12.219,4.354-17.914,6.455l-.271.1.06.872.019.099c.332.968.995,1.551,1.977,1.734l.099.017.093-.03c3.884-1.279,7.761-2.902,11.523-4.831l.452-.034c-1.671,3.158-2.811,6.447-3.391,9.868l.256,3.448c.461,2.771,1.743,5.125,3.792,6.979.962.965,2.084,1.428,3.343,1.374.053-.002.106-.004.154-.008l1.054-.079.859-1.207-.559-1.336-2.593-.594c-1.447-1.808-2.46-3.875-3.009-6.148.485-3.798,1.621-7.352,3.338-10.51l3.193-3.96h-.002Z"/>
    <path class="st2" d="M148.553,66.074c-1.404-1.328-3.098-2.004-5.069-2.009l-2.721.204c1.644-2.722,3.09-5.572,4.307-8.48l.029-.126c.062-1.026-.303-1.809-1.088-2.325l-3.01-.986-2.352.181c-1.6.389-3.213.895-4.792,1.502l-.267.104.077,1.005,1.888,1.425,4.508-1.515c.523-.126.966-.101,1.347.077l-.594,2.647c-1.91,3.929-4.492,7.591-7.683,10.885l-.224.232,1.578,2.208,1.28-.098,1.139-1.285c1.319-1.406,2.882-2.376,4.56-2.867l2.834-.213,2.113,1.039.964,1.73-.629,2.879-1.561.591-2.379.182c-2.523.437-4.695,1.564-6.465,3.351l-.163.165.362,1.138,4.193,1.905.287-.169.106.09,2.917-.218.131-.034c1.734-.776,3.324-1.929,4.729-3.423l1.832-4.424-.181-2.407-2.002-2.964v.003ZM144.94,75.352l-.768,1.031-1.47.774-2.021.15-.247-.129.057-.261,3.505-1.493.945-.072h-.001Z"/>
    <path class="st2" d="M176.934,72.64c-3.042-1.58-6.316-2.641-9.728-3.161l-.157-2.104.169-.194-.238-3.039-.467-1.577.065-.969c3.342-1.316,6.782-2.555,10.235-3.683l.339-.111-.393-1.622-2.056-.76-8.349,3.271-.585-.073c-.801-2.239-1.838-4.427-3.081-6.505l-1.341-1.182-.118-.014c-1.153-.132-1.716.394-1.999.851l-.124.203.126.202c1.389,2.222,2.543,4.597,3.437,7.062l.066.837-1.095.9.383.93,1.345.64.371.724.26,3.468-.219.26.273.642-.351,2.133-.632.312-2.322.172-2.846,1.182-1.625,1.827.125,1.613.053.17c.767,1.268,1.842,2.133,3.201,2.571l.073.023,3.327-.26.715-.236.147-.089c1.352-1.318,2.359-2.858,3-4.584,2.659.199,5.162.906,7.448,2.104l.663.939.178.015c.819.073,1.588-.124,2.256-.583l.231-.159-.609-2.068-.147-.077h-.004ZM163.069,72.635c-.113.73-.479,1.353-1.109,1.892l-.969.577c-.516.113-.952-.011-1.349-.39l.069-.426c.837-.825,1.81-1.4,2.888-1.712l.471.059h-.001Z"/>
  </g>
</svg>