<?xml version="1.0" encoding="UTF-8"?>
<svg id="_レイヤー_1" xmlns="http://www.w3.org/2000/svg" version="1.1" viewBox="0 0 224.79 133.806">
  <!-- Generator: Adobe Illustrator 29.7.1, SVG Export Plug-In . SVG Version: 2.1.1 Build 8)  -->
  <defs>
    <style>
      .st0 {
        fill: #ff7b9d;
      }

      .st1 {
        fill: #fff;
      }

      .st2 {
        fill: #79695b;
      }

      .st3 {
        fill: #ffa9ca;
      }
    </style>
  </defs>
  <path class="st1" d="M219.331,69.934c-4.74-5.833-12.009-9.318-17.978-11.329,3.6-7.417,4.42-15.608,2.126-22.824-3.32-10.446-11.94-18.611-26.34-24.959-1.46-.648-3.086-.689-4.58-.113-.868.335-1.629.854-2.242,1.518-.019-.898-.243-1.787-.666-2.609-.732-1.422-1.973-2.474-3.497-2.962C154.107,2.8,140.248.657,123.784.105c-32.554-1.099-52.512,6.445-59.329,22.396-21.445-.89-38.255,3.355-49.987,12.628-1.256.992-2.049,2.413-2.234,4.002-.021.178-.034.356-.039.534-1.716.011-3.421.754-4.609,2.187l-.292.358c-9.355,11.548-9.742,25.793-.988,36.291,5.192,6.226,12.24,10.286,17.239,12.597.308.143.616.28.923.413-2.477,3.763-3.694,8.534-2.246,13.654,2.897,10.252,14.435,13.217,18.206,14.187.493.128,1.001.194,1.511.194,2.61,0,4.903-1.688,5.696-4.148-.117,1.43.278,2.84,1.133,4.01.943,1.291,2.332,2.138,3.912,2.384,12.396,1.934,25.454,2.557,37.364,2.557,7.176,0,13.923-.227,19.867-.527,2.804,5.003,8.735,9.984,19.849,9.984.54,0,1.092-.011,1.657-.037,2.96-.129,5.47-2.133,6.247-4.992.681-2.521-.151-5.147-2.076-6.827,9.043-.835,20.294-1.996,27.302-2.732,6.665-.702,21.666-2.99,28.466-4.46,10.656-2.303,22.563-5.528,28.986-14.72,7.116-10.188,4.876-22.856-1.013-30.105h.002Z"/>
  <g>
    <path class="st3" d="M19.362,110.311c.361-.05.704-.238.941-.552.475-.628.351-1.522-.278-1.996-1.676-1.267-3.553-6.54-1.621-10.142.372-.694.111-1.557-.582-1.93-.692-.373-1.557-.112-1.93.583-2.644,4.928-.393,11.642,2.415,13.763.314.237.694.325,1.056.275h0Z"/>
    <path class="st3" d="M13.178,111.17c.361-.05.703-.238.941-.552.475-.628.351-1.522-.278-1.996-1.675-1.267-3.552-6.541-1.621-10.142.372-.694.111-1.557-.582-1.93s-1.558-.112-1.93.583c-2.643,4.927-.393,11.642,2.414,13.763.314.237.695.325,1.056.275h0Z"/>
  </g>
  <g>
    <path class="st3" d="M207.452,45.062c.344-.058.668-.242.896-.542,2.133-2.799,2.493-9.871-1.38-13.905-.546-.568-1.448-.584-2.015-.042-.568.545-.587,1.448-.042,2.015,2.83,2.948,2.442,8.533,1.169,10.203-.477.626-.356,1.52.27,1.997.327.249.726.335,1.101.272v.002h.001Z"/>
    <path class="st3" d="M213.638,44.225c.344-.058.668-.242.896-.542,2.132-2.799,2.492-9.872-1.379-13.905-.547-.569-1.449-.585-2.015-.042-.568.545-.587,1.448-.042,2.015,2.83,2.948,2.442,8.533,1.169,10.204-.477.626-.356,1.521.27,1.997.326.249.726.335,1.101.272h0Z"/>
  </g>
  <g>
    <path class="st0" d="M42.424,111.671c-4.682-1.207-11.079-3.416-12.56-8.664-1.381-4.885,2.238-9.732,6.386-11.423.936-.384,1.525-1.318,1.467-2.324-.055-1.011-.751-1.872-1.724-2.142-.408-.115-.823-.252-1.183-.372-.271-.093-.524-.175-.734-.238-2.17-.651-4.72-1.471-7.202-2.615-4.257-1.966-10.225-5.38-14.473-10.474-6.311-7.569-5.903-17.612,1.063-26.211l.257-.317c.686-.83.569-2.062-.257-2.747-.83-.686-2.067-.571-2.753.262l-.281.348c-8.09,9.982-8.491,22.216-1.025,31.166,4.71,5.649,11.209,9.38,15.833,11.518,2.194,1.015,4.429,1.786,6.297,2.374-4.021,3.003-7.099,8.355-5.433,14.26,2.033,7.183,9.732,9.936,15.357,11.384.161.039.322.058.48.058.891,0,1.666-.603,1.889-1.465.13-.504.058-1.028-.209-1.477-.264-.451-.689-.77-1.196-.898v-.003h0Z"/>
    <path class="st0" d="M18.182,41.778c.442,0,.86-.144,1.21-.42,10.428-8.244,25.908-11.893,46.081-10.861.195.009.387.014.572.014,3.335,0,4.532-1.507,4.946-2.811,4.432-14.07,22.124-20.691,52.526-19.661,15.72.526,28.873,2.547,40.216,6.177.497.161,1.025.117,1.488-.123.466-.238.809-.644.967-1.14.161-.497.117-1.025-.123-1.489-.24-.463-.644-.806-1.141-.965-11.686-3.742-25.185-5.822-41.275-6.362-32.38-1.087-51.357,6.45-56.317,22.28-.079.067-.548.245-1.659.18-21.109-1.09-37.501,2.849-48.7,11.699-.411.324-.668.788-.73,1.308-.058.518.086,1.027.408,1.433.374.471.932.742,1.532.742h0Z"/>
    <path class="st0" d="M216.197,72.478c-5.642-6.947-15.991-10.22-20.914-11.439,5.138-7.5,6.77-16.43,4.35-24.036-2.948-9.278-10.842-16.636-24.136-22.494-.47-.209-.997-.221-1.488-.036-.487.189-.874.555-1.087,1.037-.432.984.017,2.137,1.001,2.571,12.203,5.38,19.398,11.956,21.99,20.105,2.139,6.722.5,14.719-4.381,21.392-.644.876-.799,2.005-.418,3.02.377,1.018,1.237,1.769,2.304,2.012,4.185.95,14.493,3.862,19.751,10.33,3.915,4.82,5.481,13.662.665,20.552-4.778,6.839-14.973,9.524-24.153,11.507-6.314,1.364-20.886,3.555-27.252,4.309-6.424.761-25.013,2.576-35.952,3.46-12.131.979-44.347,3.586-72.572-.818-.518-.084-1.035.043-1.453.35-.422.309-.699.763-.778,1.279-.079.514.048,1.03.353,1.45.309.422.761.698,1.275.778,12.162,1.897,25.003,2.508,36.737,2.508,15.192,0,28.53-1.023,36.116-1.606l.679-.053c9.341-.715,28.033-2.651,35.636-3.45,6.571-.692,21.349-2.945,28.033-4.391,9.91-2.139,20.944-5.09,26.532-13.086,5.971-8.549,4.1-19.174-.84-25.25h.002,0Z"/>
  </g>
  <g>
    <path class="st1" d="M126.753,113.963c-.763-.2-1.542.817-1.747,1.577-1.08,4.027.382,7.823,4.128,10.85-13.097-.256-13.902-9.337-13.931-9.741-.056-.785-.747-1.937-1.523-1.891,0,0,13.073-.795,13.073-.795Z"/>
    <path class="st0" d="M132.615,124.74c-2.561-1.649-5.392-4.429-4.347-8.325.278-1.04-.343-2.112-1.381-2.391-1.056-.284-2.112.344-2.386,1.378-1.011,3.762.113,7.406,3.171,10.392-11.243-.862-11.919-8.829-11.943-9.185-.082-1.061-1.025-1.923-2.088-1.805-1.073.077-1.882,1.011-1.807,2.086.319,4.456,4.48,12.882,17.928,12.882.48,0,.97-.01,1.481-.033,1.196-.053,2.214-.862,2.526-2.012.312-1.141-.154-2.343-1.155-2.987h0Z"/>
  </g>
  <g>
    <path class="st2" d="M68.467,49.523c1.422,1.251,2.706,2.619,3.817,4.064l.083.107,1.651.673.106.03c.114.019.223.028.326.028.628,0,1.063-.345,1.19-.963l.025-.124-.037-.121c-.384-1.264-1.066-2.363-2.083-3.311l-1.258-.888-.688-1.149-1.325-.794-2.021.733.051,1.571.162.143Z"/>
    <path class="st2" d="M71.103,66.112l.125-.197c1.168-1.836,1.958-3.851,2.348-5.988l.01-.053-.002-.053c-.05-1.548-.577-2.861-1.633-3.961-1.201-.885-2.514-1.425-3.981-1.611l-2.465.08-.118.018c-1.385.384-2.694.917-3.893,1.586h-.019s-.036-1.085-.036-1.085l.155-.166-.083-2.559-.152-.142-.08-2.04.412-.223,2.467-.081,1.697-.94-.294-2.078-1.006-.462-.118.004c-1.018.033-1.986.291-2.881.767l-.681.022-.187-.477.16-.441-.027-.137c-.189-.945-.783-1.583-1.716-1.844l-.16-.044-2.028.779.638,2.436-.072.564c-1.949.506-3.834,1.153-5.609,1.927l-.311.136.034,1.057,1.522,1.429.247-.044c1.606-.284,3.126-.761,4.522-1.42l.102.03.186.344.07,2.14-.188.2.228,1.173-.197,2.81c-1.988,1.403-3.676,3.172-5.021,5.263l-.152.236.758,1.568,3.102,1.167.1-.003c1.085-.036,2.057-.379,2.887-1.021l.094-.072.051-.107c.779-1.628,1.324-3.369,1.622-5.179l4.604-2.089.465.139.554-.204c.931-.023,1.723.265,2.487.849l.579,1.191-1.312,3.789-.216.007-1.057,1.129.03.929,1.352,1.227,2.087-.273Z"/>
    <path class="st2" d="M95.343,62.707l-.036-1.093-1.081-.721-2.116.487-.164.551-2.267,1.084c-.941-.08-1.808-.346-2.579-.792-1.231-1.169-1.994-2.627-2.261-4.274l-.066-2.031-.15-.142-.1-2.639-.152-.142-.117-3.183.155-.164-.123-3.778.154-.166-.051-1.591-1.114-.875-.137-.018c-.823-.104-1.533.146-2.052.728l-.133.149.143,4.383-.187.167.17,5.236.185.144.095,2.537c-.037,2.982,1.089,5.501,3.374,7.508,1.294.994,2.777,1.586,4.406,1.759l.046.005.046-.003c2.403-.19,4.415-1.193,5.98-2.98l.13-.148Z"/>
    <path class="st2" d="M118.399,52.413l-.078-.125c-.977-1.142-2.192-1.758-3.654-1.831l-2.044.066.303-.997-.04-1.249-1.156-1.084-1.871.296-.695,4.137-2.152,1.444c.022-1.28-.395-2.418-1.241-3.391l-.095-.109-.14-.042c-.852-.251-1.589-.007-2.127.713l-.14.187.97,4.07.006.204c-1.296.881-2.505,1.918-3.598,3.084l-.258.275,1.192,1.989,1.795-.058,1.492-1.752h.009c.343,2.386,1.238,4.579,2.666,6.526l.196.266,2.262-.53.033-.359c.089-.978-.177-1.785-.792-2.401-.762-1.614-1.333-3.307-1.686-4.95l-.018-.559,1.167-.998-.079,1.202.032,1.008,1.071,1.004.126.031c1.03.258,1.763-.184,2.022-1.209l.032-.13-.187-.656.475-2.855,1.132-.547c.888-.183,1.622-.027,2.232.475.075,1.056-.272,1.979-1.062,2.821-.63.693-1.383,1.156-2.236,1.375l-.57.146.648,1.479,1.663.964,1.462-.617.09-.049c1.539-1.062,2.637-2.412,3.263-4.013l.037-.096-.07-2.184-.388-.974Z"/>
    <path class="st2" d="M142.708,54.144c.648-.107,1.008-.524,1.186-.823l.103-.172-.257-1.086-.119-3.689.442-2.314-.255-1.939-1.37-.864-1.851.286-.465,2.935.157,4.797c-1.685-1.56-3.487-2.98-5.371-4.233l-.185-.122-1.981.495-.102.112c-3.385,3.723-6.032,7.801-7.871,12.12l-.043.102.043,1.337,1.34,1.043,2.028-.288.068-.348c.446-2.25,1.293-4.399,2.519-6.39l.301-.01,2.687-3.758.365-.654.226-.083.237-.008c3.356,2.858,6.518,6.042,9.398,9.467l2.167,1.468,1.204-.528.572-1.126-.243-.256c-1.646-1.73-3.303-3.567-4.931-5.469Z"/>
    <polygon class="st2" points="149.944 46.8 149.891 45.159 150.224 44.622 149.938 43.364 148.02 42.401 146.75 42.957 146.075 49.232 146.213 53.481 147.523 54.907 149.227 54.852 149.558 54.057 149.351 53.024 149.944 46.8"/>
    <path class="st2" d="M156.888,54.948l1.464.792.86-.028.857-1.191-.005-.17c-.026-.812-.317-1.471-.865-1.96l-.107-3.312.154-.165-.069-2.106.827-4.658-.28-.763-1.296-.804-1.498.3-1.112,8.256.095,2.913.976,2.896Z"/>
    <path class="st2" d="M165.127,45.76l.3,9.203-.155.166.106,3.279c.022.685-.101,1.326-.365,1.904l-.104.225,1.134,2.134,2.144-.304.529-2.04-.132-4.09.154-.166-.063-1.952.224-.239-.255-.689-.053-1.665.206-.22-.241-.849-.055-1.682.225-.239-.255-.69-.059-1.746c-.16-1.562-.613-3.084-1.346-4.523l-.097-.191-1.86-.554-1.191.645.147.405c.458,1.259.817,2.589,1.062,3.878Z"/>
    <path class="st2" d="M62.052,92.896l-2.116.486-.165.553-2.267,1.083c-.941-.079-1.808-.345-2.58-.791-1.23-1.169-1.993-2.628-2.26-4.274l-.065-2.03-.15-.142-.1-2.638-.15-.142-.118-3.185.155-.165-.123-3.777.154-.165-.051-1.591-1.113-.877-.137-.018c-.827-.105-1.535.147-2.053.73l-.133.148.143,4.382-.187.166.17,5.237.184.144.096,2.538c-.037,2.98,1.089,5.5,3.374,7.508,1.294.994,2.777,1.586,4.407,1.759l.046.005.046-.004c2.403-.19,4.415-1.192,5.98-2.979l.13-.148-.036-1.094-1.081-.721Z"/>
    <path class="st2" d="M79.927,85.898c1.648-1.142,3.521-2.016,5.568-2.598l1.853-.061.924-.847.024-.181c.111-.837-.216-1.528-.946-2l-.131-.085-1.725.056-.101.014c-2.608.628-5.085,1.722-7.363,3.253l-.23.154.033,1.013,1.78,1.499.314-.218Z"/>
    <path class="st2" d="M83,76.895l.385-.102-.035-1.086-1.385-1.297-.239.036c-1.841.272-3.614.798-5.272,1.561l-.471-.063.375-1.648-1.211-1.757-1.947.309-.667,4.318c-1.387.368-2.7.767-3.908,1.186l-.297.104-.036.312c-.108.94.264,1.649,1.047,1.995l.104.047,1.953-.064.31-.33.066-.002-1.373,10.15.123,3.792.164.123.045,1.392.781,2.185,1.596.545,1.807-.699-.058-.396c-.143-.971-.548-1.859-1.204-2.644l-.146-4.501.692-3.354-.052-1.607c.34-1.919.744-3.881,1.201-5.838,2.521-1.092,5.093-1.988,7.649-2.665Z"/>
    <path class="st2" d="M87.5,91.524l-1.864.069c-1.717-.264-3.411-.529-5.085-.796l-.133-.021-1.85.717.725,1.961.277.053c2.205.422,4.439.751,6.71.979l1.98-.065.884.336,1.376-.655.417-1.009-.302-.813-3.134-.756Z"/>
    <path class="st2" d="M116.868,84.586l-.149-.142-.062-1.473-.586-2.218-.062-1.942-1.049-1.217-.15-.039c-1.253-.33-1.979.208-2.366.719l-.136.18,1.028,5.107.061,1.872.153.143.195,4.634.678.888.952.415,1.209-.273.64-1.197-.223-1.41-.132-4.046Z"/>
    <path class="st2" d="M102.167,91.247c-1.466-2.304-2.526-4.871-3.141-7.542l-.06-1.849-1.348-1.468-2.584.541.106.492c.908,4.213,2.227,8.351,3.918,12.299l.058.135,1.465.989,1.929-.311.674-1.18-.044-1.372-.974-.735Z"/>
    <path class="st2" d="M147.126,77.06c-2.598-.876-5.076-2.141-7.364-3.76l-.171-.12-1.812.319.317,1.804.16.118c2.132,1.583,4.334,2.96,6.545,4.094l.184.053c.126.012.249.017.369.017.866,0,1.591-.293,2.158-.875l.189-.194-.31-1.365-.266-.09Z"/>
    <path class="st2" d="M127.501,86.315l-.041-1.035c.427-2.61,1.177-5.112,2.23-7.442l.878-.425,2.508-.081.135-.121,1.71-.099.905-1.208-2.036-1.908-2.789.574.323-1.248-.264-1.13-1.503-.836-1.456.331-1.056,3.51-5.89,2.343.038,1.198,1.743,1.633,2.489-1.047-1.422,6.252.291,2.208,1.241,1.202.171.018c.139.015.273.022.403.022.743,0,1.345-.24,1.79-.716l.171-.182-.313-1.822-.258.009Z"/>
    <path class="st2" d="M143.137,91.138c-1.478-1.088-3.07-1.949-4.741-2.562l.616-5.255-.211-.898.159-.471-.063-1.957-1.757-1.216-1.78.558.259,1.68-.104,1.63.057,1.742-.604,3.522c-2.101.33-4.061,1.117-5.832,2.34l-.251.173.251,1.931.065.189c.858,1.459,2.062,2.586,3.577,3.35l.113.058,2.24-.072,1.333-.643.072-.142c.558-1.09,1.07-2.238,1.527-3.419,1.168.383,2.234,1.022,3.175,1.904l.118.11.16.021c.88.113,1.546-.215,1.951-.941l.089-.159-.265-1.357-.156-.115ZM134.465,91.329c-.048.581-.283,1.105-.714,1.594l-.263.188c-.454-.084-.783-.301-1.019-.67l.063-.38,1.652-.843.279.111Z"/>
    <path class="st2" d="M176.646,82.02l-1.189-.521-.212.109c-2.633,1.363-5.296,2.854-7.921,4.434-1.976-1.513-3.583-3.401-4.783-5.619l-.067-.096c-.757-.845-1.651-1.378-2.658-1.584l-.058-.012-2.395.078-.139.024c-2.676.872-5.096,2.278-7.192,4.178l-.171.155.035,1.098,1.702,1.403,1.748-.056.593-.84c1.196-1.276,2.632-2.169,4.268-2.65l1.572-.051,2.462,3.97.698.304,1.008,1.416c.888.923,1.956,1.5,3.175,1.718l.052.009h.052c1.297-.043,2.488-.383,3.555-1.021,2.215-1.418,4.162-3.2,5.788-5.296l.111-.143-.033-1.008Z"/>
  </g>
</svg>