<?xml version="1.0" encoding="UTF-8"?>
<svg id="_レイヤー_1" data-name="レイヤー_1" xmlns="http://www.w3.org/2000/svg" version="1.1" viewBox="0 0 1116.9033 353.7154">
  <!-- Generator: Adobe Illustrator 29.6.1, SVG Export Plug-In . SVG Version: 2.1.1 Build 9)  -->
  <defs>
    <style>
      .st0 {
        fill: #ff9c9e;
      }

      .st1 {
        fill: #fbf2b9;
      }

      .st2 {
        fill: #fbcaa0;
      }
    </style>
  </defs>
  <g id="iI2ldB.tif">
    <g>
      <path class="st0" d="M136.5981,241.2517c-31.5707-6.0945-63.4562-10.948-94.9642-17.4044-9.2731-1.9002-19.8063-3.5976-28.8004-6.1566-11.3916-3.2412-17.5207-6.985-8.4879-18.4694l74.4218-78.2438L19.0907,8.0898c.6509-4.7424,5.2311-7.0639,9.5036-8.0898,66.7823,10.9621,134.59,17.5331,201.267,28.9976,15.0121,2.5812,42.6998,4.5399,44.7543,23.1419l-3.0058,62.3312c8.2297.2231,16.3385,2.1403,24.4897,2.9818,157.2887,16.239,330.9534,16.3771,488.5518,2.9919,19.9676-1.6959,39.9888-4.0682,59.8123-6.9254l-2.247-61.267c1.5941-13.2124,10.8742-15.9533,22.0451-18.8821,20.5568-5.3897,42.1405-6.5865,63.1016-9.8145C980.8598,15.3167,1034.5131,6.4327,1088.1465.0114c3.3492.862,8.988,3.8043,9.554,7.4713l-59.7569,113.4892,76.9254,80.7448c7.0717,12.4308-5.8482,14.6798-14.9824,16.9694-38.8997,9.7506-80.4943,14.0117-119.7641,22.5654-.3789,1.7315-.2333,3.5633-.1235,5.3257,1.1621,18.6508,12.2443,50.1237-5.5134,63.3404-13.686,10.1862-55.2803,16.7697-73.0996,19.7797-82.4166,13.9216-166.2089,19.32-249.6516,22.0637-131.7907,4.3334-268.3971,2.4812-399.4353-16.0805-26.2217-3.7143-87.1429-11.2244-107.9031-24.9307-21.7471-14.3579-6.4897-48.4319-7.7981-69.4981ZM165.7151,106.4942l-21.9759,171.0267c-4.6898,26.119,22.5295,31.3571,41.9392,35.9022,71.6122,16.769,154.7538,21.79,228.3509,25.3742,145.7691,7.0989,295.4168,5.9314,440.4235-13.0641,24.472-3.2058,92.5415-11.3957,110.8781-23.9558,10.4133-7.1329,8.2526-17.2444,7.6506-28.2483l-20.979-167.0348c-18.704,7.2788-39.6899,9.8844-59.6084,12.7925-123.8279,18.0787-254.4779,22.3318-379.4531,20.0694-111.079-2.0109-222.9241-6.7277-332.2564-27.3703l-14.9695-5.4915ZM977.9862,230.1462l126.8649-24.4349-77.3259-80.3635-1.292-3.5576,58.651-111.0272-191.1578,28.0826c-4.282.6209-36.667,6.084-36.6142,9.3073,26.5745,14.4029,58.2525,20.0481,85.8708,31.9431,16.7333,7.2069,16.9927,9.3146,19.8724,27.0342,6.1623,37.9183,10.4106,78.2534,15.1169,116.5408.262,2.1315-.1192,4.3438.0139,6.4753ZM31.8293,10.7677l58.9403,111.1056c-.1422,2.318-5.5788,8.3914-7.4722,10.5575-14.0651,16.0907-31.6157,31.7023-46.499,47.327-8.0919,8.495-15.9577,17.3398-23.9322,25.9536-.0409,1.2579,7.3618,2.6077,8.9569,3.0067,11.1191,2.7813,22.5511,4.9082,33.7981,7.1517,27.5279,5.4911,55.3291,10.4097,83.1164,14.2803l17.4652-134.6453c2.6693-8.6481,11.7321-13.154,19.5151-16.4215,19.8534-8.3348,43.047-13.7763,63.4437-21.4396,2.9368-1.1034,20.4052-7.6764,20.4447-9.4906l-9.1491-3.8128L31.8293,10.7677ZM856.0889,112.4772c24.7443-3.6313,51.9543-5.3012,76.161-11.2487,4.7555-1.1684,10.4066-2.4607,13.7433-6.2074l-92.8941-35.3938,2.9898,52.8499ZM263.6169,59.6254c-26.8528,12.1718-55.5097,20.0063-83.1828,30.1482l-8.7122,5.2479c4.8484,5.7555,13.8842,6.48,20.9427,7.9985,15.9111,3.4231,34.4408,6.3425,50.6189,8.3126,5.7461.6997,11.5323,1.4275,17.3467,1.146l2.9867-52.8532Z"/>
      <path class="st2" d="M263.6169,59.6254l-2.9867,52.8532c-5.8143.2816-11.6006-.4462-17.3467-1.146-16.1781-1.9701-34.7078-4.8895-50.6189-8.3126-7.0585-1.5186-16.0943-2.243-20.9427-7.9985l8.7122-5.2479c27.673-10.142,56.33-17.9765,83.1828-30.1482Z"/>
      <path class="st2" d="M856.0889,112.4772l-2.9898-52.8499,92.8941,35.3938c-3.3367,3.7468-8.9878,5.039-13.7433,6.2074-24.2066,5.9474-51.4167,7.6174-76.161,11.2487Z"/>
    </g>
  </g>
  <path class="st1" d="M165.7151,106.4942l-21.9759,171.0267c-4.6898,26.119,22.5295,31.3571,41.9392,35.9022,71.6122,16.769,154.7538,21.79,228.3509,25.3742,145.7691,7.0989,295.4168,5.9314,440.4235-13.0641,24.472-3.2058,92.5415-11.3957,110.8781-23.9558,10.4133-7.1329,8.2526-17.2444,7.6506-28.2483l-20.979-167.0348c-18.704,7.2788-39.6899,9.8844-59.6084,12.7925-123.8279,18.0787-254.4779,22.3318-379.4531,20.0694-111.079-2.0109-222.9241-6.7277-332.2564-27.3703l-14.9695-5.4915Z"/>
  <path class="st1" d="M977.9862,230.1462l126.8649-24.4349-77.3259-80.3635-1.292-3.5576,58.651-111.0272-191.1578,28.0826c-4.282.6209-36.667,6.084-36.6142,9.3073,26.5745,14.4029,58.2525,20.0481,85.8708,31.9431,16.7333,7.2069,16.9927,9.3146,19.8724,27.0342,6.1623,37.9183,10.4106,78.2534,15.1169,116.5408.262,2.1315-.1192,4.3438.0139,6.4753Z"/>
  <path class="st1" d="M31.8293,10.7677l58.9403,111.1056c-.1422,2.318-5.5788,8.3914-7.4722,10.5575-14.0651,16.0907-31.6157,31.7023-46.499,47.327-8.0919,8.495-15.9577,17.3398-23.9322,25.9536-.0409,1.2579,7.3618,2.6077,8.9569,3.0067,11.1191,2.7813,22.5511,4.9082,33.7981,7.1517,27.5279,5.4911,55.3291,10.4097,83.1164,14.2803l17.4652-134.6453c2.6693-8.6481,11.7321-13.154,19.5151-16.4215,19.8534-8.3348,43.047-13.7763,63.4437-21.4396,2.9368-1.1034,20.4052-7.6764,20.4447-9.4906l-9.1491-3.8128L31.8293,10.7677Z"/>
</svg>