<?xml version="1.0" encoding="UTF-8"?>
<svg id="_レイヤー_1" xmlns="http://www.w3.org/2000/svg" xmlns:xlink="http://www.w3.org/1999/xlink" version="1.1" viewBox="0 0 150 80">
  <!-- Generator: Adobe Illustrator 29.7.1, SVG Export Plug-In . SVG Version: 2.1.1 Build 8)  -->
  <defs>
    <style>
      .st0 {
        fill: none;
      }

      .st1 {
        fill: #2ea8ff;
      }

      .st1, .st2 {
        fill-opacity: .5;
      }

      .st2 {
        fill: #ffafb5;
      }

      .st3 {
        fill: #fff;
      }

      .st4 {
        clip-path: url(#clippath);
      }
    </style>
    <clipPath id="clippath">
      <rect class="st0" x="23" y=".5" width="102" height="79"/>
    </clipPath>
  </defs>
  <g class="st4">
    <path class="st2" d="M89.674,2.866c-4.669,2.137-7.976,5.131-10.563,8.797v-.032c-1.162,1.597-2.104,3.294-2.949,5.04-.771,1.594-1.462,3.23-2.162,4.878-.7-1.649-1.391-3.285-2.162-4.878-.845-1.749-1.787-3.443-2.952-5.04v.032c-2.584-3.666-5.891-6.66-10.56-8.797C37.425-6.697,15.611,14.392,25.42,36.198c8.779,19.52,33.626,26.507,48.435,43.237.077.087.21.087.287,0,14.812-16.73,39.656-23.717,48.435-43.237,9.808-21.806-12.006-42.895-32.903-33.328v-.003h0ZM31.243,29.473c-1.813-1.406-1.274-3.42.655-4.339,1.103-.524,3.023-.343,3.801.601,1.745,2.121-1.904,5.716-4.456,3.734v.003h0ZM45.736,13.257c-2.768.556-5.866,3.139-7.159,6.055-1.091,2.457-6.237,2.03-5.83-2.046.407-4.077,3.281-7.465,6.914-8.794,9.324-3.404,9.863,4.022,6.079,4.781l-.003.003h-.001Z"/>
  </g>
  <g>
    <path class="st3" d="M136.883,30.831c-1.32-1.414-2.964-1.698-3.963-1.698h-.683v-1.621c0-.907-.231-2.506-1.567-3.843-1.337-1.337-2.936-1.567-3.844-1.567h-2.958c-.835,0-2.392.188-3.742,1.447-.351.328-.631.675-.856,1.028-.181-.268-.385-.535-.641-.791-1.337-1.337-2.936-1.567-3.844-1.567h-3.017c-.908,0-2.507.23-3.843,1.567s-1.567,2.936-1.567,3.843v1.504h-.713c-.999,0-2.643.284-3.963,1.698-1.259,1.349-1.447,2.906-1.447,3.741v.552c-.698-.418-1.431-.763-2.189-1.049l.908-2.183h-.002c.362-.858.809-2.499-.018-4.337-.814-1.809-2.305-2.565-3.16-2.868v-.002l-1.376-.498-.074-.027-.075-.024c-.968-.316-1.956-.621-2.958-.917h0c-.036-.012-.07-.021-.106-.033-.002,0-.004,0-.007-.002h0c-.991-.315-1.931-.592-2.811-.823h0c-.782-.21-1.454-.385-2.023-.528-.263-.075-.512-.143-.726-.197-.115-.029-.264-.064-.423-.096-.01-.002-.104-.02-.231-.041l-1.288-.263v.004c-1.152-.241-2.48-.136-3.721.554-.737.409-1.251.923-1.632,1.407-.051.06-.093.119-.14.18-.052.071-.109.141-.154.21-.148.214-.279.424-.375.617-.229.458-.356.891-.431,1.263l-.599,2.681h.007c-.153.673-.192,1.412-.06,2.164-.158.4-.261.782-.317,1.122h-.005l-.234,1.406-.011.069-.01.07c-.15,1.086-.308,2.118-.474,3.098l-.007.038-.006.038c-.15.974-.298,1.849-.443,2.629l-.01.055-.009.056c-.088.537-.164,1.01-.236,1.452-.432-.41-.871-.704-1.218-.891l-.124-.067-.127-.06-2.754-1.289-.012-.006-.012-.006c-.768-.354-2.221-.812-3.93-.272-1.684.532-2.631,1.712-3.108,2.595l-.003-.002-.703,1.289-.025.046-.024.047c-.282.543-.611.962-.982,1.303-.512.448-1.029.793-1.554,1.05-.546.268-1.04.418-1.491.491h-.008l-.008.003c-.227.037-.393.046-.507.045-.043-.102-.079-.215-.106-.345-.057-.433-.085-.81-.085-1.122v-15.557c0-.907-.23-2.506-1.567-3.843s-2.936-1.567-3.843-1.567h-3.223c-.997,0-2.636.286-3.95,1.7-1.249,1.345-1.431,2.891-1.431,3.71v3.966c-.535-.742-1.064-1.486-1.626-2.218-.856-1.146-2.098-1.861-3.421-2.081-.711-.118-1.447-.081-2.168.091-1.012-.725-2.171-1.008-3.136-1.008h-1.575c-.137-.884-.52-1.998-1.497-2.974-1.337-1.337-2.936-1.567-3.843-1.567h-2.842c-.835,0-2.392.188-3.741,1.447-1.056.985-1.481,2.15-1.629,3.094h-1.309c-1.094,0-2.774.343-4.07,1.825-1.184,1.354-1.34,2.869-1.34,3.644v2.666c0,.907.23,2.506,1.567,3.843.719.719,1.512,1.112,2.234,1.327-.261.268-.538.52-.78.808h0l-.008.01c-.914,1.091-1.658,2.295-2.223,3.602l-.011.026-.011.026c-.615,1.47-.915,3.016-.915,4.597v.352c0,.276.036.546.068.817l-.017.002c.009.093.028.184.04.277.004.026.002.053.007.078h.005c.151,1.151.493,2.262,1.047,3.297l.015.027.015.027c.603,1.092,1.406,2.081,2.427,2.894h0s.008.006.011.009c.003.002.006.005.009.008h0c.965.767,2.044,1.342,3.208,1.717,1.25.403,2.524.538,3.775.468l.058-.003.058-.005c1.321-.104,2.616-.443,3.837-1.044v.002c.011-.005.019-.011.029-.015.005-.002.01-.004.015-.007,1.256,1.052,2.66,1.255,3.489,1.255.937,0,1.888-.034,2.852-.099h.008c1.172-.079,2.323-.264,3.446-.563h0c.006,0,.012-.002.018-.004.004,0,.007,0,.011-.002h0c1.17-.31,2.288-.759,3.347-1.345v.002c.016-.008.029-.018.044-.026.032-.018.065-.033.096-.05l-.003-.005c1.312-.715,2.435-1.663,3.368-2.783l.026-.031.025-.031c.789-.978,1.426-2.067,1.879-3.261h.002c.005-.011.008-.024.013-.036.004-.012.01-.022.014-.034h-.002c.105-.276.202-.553.286-.835.005.012.008.026.013.038l.019.044.02.044c.732,1.621,1.689,3.142,2.955,4.407l.023.023.023.023c1.097,1.069,2.373,2.005,3.848,2.632l.02.009.02.008c.891.369,1.771.695,2.578.912l.118.032.12.026c1.967.428,3.965.463,5.957.145v.003c.014-.002.026-.005.04-.007.012-.002.025-.002.037-.004v-.002c1.922-.294,3.762-.881,5.502-1.754v.002c.014-.006.026-.014.039-.02.014-.007.028-.012.042-.019v-.002c1.77-.87,3.376-2.002,4.808-3.376h0c.006-.004.011-.01.016-.015s.011-.009.016-.014h0c1.473-1.403,2.704-2.999,3.674-4.779h0l.002-.004h0l.681-1.249c.304.363.653.689,1.038.969l.111.081.116.075.12.078,1.819,1.175.463.299v-.002c.298.195.672.397,1.116.566,0,.033-.004.068-.004.1v2.959c0,.917.233,2.523,1.574,3.865,1.342,1.342,2.948,1.574,3.865,1.574h.094l.094-.004c1.129-.043,2.258-.117,3.386-.224,1.219-.115,2.427-.312,3.622-.583v.002c.016-.003.031-.008.046-.011.021-.005.042-.007.063-.012v-.003c1.258-.267,2.484-.625,3.672-1.086,1.317-.511,2.563-1.168,3.734-1.966l.019-.013.019-.013c1.5-1.044,2.721-2.388,3.608-3.999l.004.002c.007-.012.012-.025.018-.037.006-.011.014-.021.02-.033l-.003-.002c.841-1.518,1.352-3.175,1.467-4.933h.004c0-.014,0-.029,0-.043,0-.015.004-.029.005-.045h-.005c.069-1.015-.007-2.014-.204-2.993h.705v1.562c0,.723.039,1.466.11,2.225v.014c.091.925.268,1.836.528,2.729.305,1.052.751,2.041,1.305,2.965l.019.032.02.032c.671,1.082,1.515,2.004,2.453,2.786,2.192,1.827,4.871,2.781,7.682,3.164h.006c2.776.376,5.925.237,9.335-.264h0l1.523-.204.02-.003.02-.003c.9-.129,2.451-.583,3.586-2.096s1.137-3.13,1.008-4.029l-.005-.036-.005-.036-.44-2.783-.016-.101-.02-.1c-.166-.832-.644-2.243-2.034-3.306-.025-.019-.051-.033-.077-.052.573-.892.782-1.803.839-2.498h.705c.908,0,2.507-.23,3.843-1.567,1.337-1.337,1.567-2.936,1.567-3.843v-2.637c0-.835-.187-2.392-1.447-3.741h0l.004-.003Z"/>
    <path class="st1" d="M23.467,47.931v-3.75c-.859.547-1.602,1.211-2.227,1.992-.605.781-.908,1.631-.908,2.549,0,.176.01.293.029.352.039.352.176.635.41.85.254.215.566.303.938.264.586-.059,1.025-.312,1.318-.762.293-.449.439-.947.439-1.494h0ZM39.492,42.57c.43.645.742,1.328.938,2.051.195.703.273,1.416.234,2.139-.02.703-.166,1.406-.439,2.109-.254.684-.625,1.328-1.113,1.934-.586.703-1.25,1.25-1.992,1.641-.723.41-1.494.723-2.314.938-.801.215-1.641.352-2.52.41-.859.059-1.699.088-2.52.088-.273,0-.41-.137-.41-.41v-2.842c0-.293.137-.439.41-.439.996,0,2.002-.059,3.018-.176,1.016-.137,1.914-.498,2.695-1.084.684-.508,1.113-1.152,1.289-1.934.176-.801.039-1.572-.41-2.314-.469-.742-1.064-1.299-1.787-1.67s-1.514-.615-2.373-.732c-.84-.117-1.699-.137-2.578-.059-.879.078-1.699.205-2.461.381v5.332c0,.781-.127,1.514-.381,2.197-.254.664-.615,1.25-1.084,1.758-.449.527-.996.947-1.641,1.26-.625.312-1.309.498-2.051.557-.703.039-1.358-.039-1.963-.234s-1.152-.488-1.641-.879c-.469-.371-.859-.84-1.172-1.406-.293-.547-.469-1.133-.527-1.758-.02-.117-.029-.234-.029-.352v-.352c0-.938.176-1.826.527-2.666.371-.859.859-1.65,1.465-2.373.625-.742,1.348-1.396,2.168-1.963.84-.586,1.719-1.094,2.637-1.523v-5.303h-6.24c-.273,0-.41-.137-.41-.41v-2.666c0-.312.137-.469.41-.469h6.24v-4.131c0-.273.146-.41.44-.41h2.842c.273,0,.41.137.41.41v4.131h6.504c.137,0,.234.049.293.146.078.078.117.185.117.322v2.666c0,.273-.137.41-.41.41h-6.504v4.16c1.133-.234,2.295-.352,3.486-.352,1.191-.02,2.334.107,3.428.381,1.094.254,2.109.664,3.047,1.23s1.729,1.318,2.373,2.256h-.001ZM42.861,38.615c.137.234.098.42-.117.557l-2.607,1.523c-.234.117-.439.068-.615-.146-.664-1.035-1.348-2.041-2.051-3.018-.684-.996-1.406-1.973-2.168-2.93-.176-.215-.156-.42.059-.615l2.461-1.729c.098-.059.205-.078.322-.059.117.02.205.078.264.176.781,1.016,1.533,2.041,2.256,3.076.742,1.035,1.475,2.09,2.197,3.164h0ZM71.397,44.445l-.703,1.289c-.723,1.328-1.641,2.52-2.754,3.574-1.094,1.055-2.305,1.904-3.633,2.549-1.309.664-2.686,1.104-4.131,1.318-1.426.234-2.812.205-4.16-.088-.508-.137-1.162-.371-1.963-.703-.781-.332-1.553-.869-2.314-1.611-.742-.742-1.387-1.719-1.934-2.93-.527-1.23-.791-2.793-.791-4.688v-15.557c0-.273.127-.41.381-.41h3.223c.273,0,.41.137.41.41v15.557c0,.605.049,1.25.146,1.934.117.664.322,1.289.615,1.875.293.586.684,1.104,1.172,1.553.508.449,1.162.771,1.963.967.781.176,1.65.186,2.607.029.977-.156,1.943-.469,2.9-.938.957-.469,1.855-1.074,2.695-1.816.84-.762,1.533-1.67,2.08-2.725l.703-1.289c.117-.234.303-.293.557-.176l2.754,1.289c.254.137.312.332.176.586h0ZM98.379,39.875c.938.684,1.602,1.504,1.992,2.461.41.957.576,1.953.498,2.988-.059,1.016-.352,1.992-.879,2.93-.508.938-1.211,1.719-2.109,2.344-.859.586-1.768,1.064-2.725,1.436-.957.371-1.953.664-2.988.879-1.016.234-2.041.4-3.076.498-1.035.098-2.07.166-3.105.205-.293,0-.439-.146-.439-.439v-2.959c0-.137.039-.244.117-.322.098-.078.205-.117.322-.117.84-.02,1.67-.059,2.49-.117.84-.078,1.66-.205,2.461-.381s1.572-.4,2.314-.674c.762-.293,1.494-.684,2.197-1.172.332-.234.625-.508.879-.82s.43-.645.527-.996c.117-.352.156-.713.117-1.084s-.186-.732-.439-1.084c-.254-.371-.625-.674-1.113-.908s-1.035-.4-1.641-.498c-.586-.117-1.221-.176-1.904-.176s-1.338.049-1.963.146c-1.367.215-2.646.596-3.838,1.143-1.191.527-2.266,1.23-3.223,2.109-.098.098-.205.166-.322.205-.117.02-.244-.02-.381-.117l-2.402-1.553c-.215-.156-.312-.361-.293-.615.02-.293.078-.732.176-1.318.098-.605.215-1.328.352-2.168.156-.84.312-1.768.469-2.783.176-1.035.342-2.119.498-3.252l.234-1.406c.02-.137.078-.225.176-.264.117-.059.234-.078.352-.059l2.9.469c.332.059.469.225.41.498-.293,1.328-.566,2.637-.82,3.926-.234,1.289-.469,2.607-.703,3.955,1.094-.645,2.275-1.201,3.545-1.67,1.27-.469,2.559-.781,3.867-.938,1.309-.156,2.607-.107,3.896.146,1.289.234,2.48.752,3.574,1.553h0ZM94.336,29.972l-1.084,2.607c-.137.312-.332.4-.586.264l-1.377-.527c-.898-.332-1.826-.635-2.783-.908-.938-.293-1.787-.537-2.549-.732-.918-.234-1.797-.44-2.637-.615l-1.436-.293h-.059c-.098-.039-.186-.098-.264-.176-.078-.098-.098-.215-.059-.352l.615-2.754c0-.039.01-.059.029-.059.137-.254.312-.351.527-.293l1.436.293c.078,0,.391.078.938.234.547.137,1.221.312,2.021.527.82.215,1.719.479,2.695.791.996.293,1.973.596,2.93.908l1.377.498c.312.098.4.293.264.586h.002ZM133.33,34.572v2.637c0,.273-.136.41-.41.41h-5.683v4.541c0,.273-.137.41-.411.41h-2.958c-.293,0-.44-.137-.44-.41v-4.541h-8.232v6.562c0,.84.078,1.631.234,2.373.156.723.527,1.328,1.113,1.816.782.645,2.012,1.055,3.692,1.23,1.679.156,3.799.059,6.357-.293l1.494-.234c.274-.039.44.088.498.381l.44,2.783c.039.273-.078.43-.352.469l-1.523.205c-3.164.469-5.83.557-7.998.264-2.149-.293-3.867-.977-5.157-2.051-.585-.488-1.054-1.016-1.406-1.582-.351-.586-.615-1.182-.791-1.787s-.293-1.211-.351-1.816c-.059-.625-.088-1.211-.088-1.758v-6.562h-5.713c-.273,0-.41-.137-.41-.41v-2.637c0-.293.137-.439.41-.439h5.713v-6.504c0-.273.136-.41.41-.41h3.017c.274,0,.411.137.411.41v6.504h8.232v-6.621c0-.273.147-.41.44-.41h2.958c.274,0,.411.137.411.41v6.621h5.683c.274,0,.41.146.41.439h0Z"/>
  </g>
</svg>