<svg width="280" height="60" viewBox="0 0 280 60" fill="none" xmlns="http://www.w3.org/2000/svg">
<rect width="280" height="60" rx="30" fill="#FF6588"/>
<path d="M72.4297 35.4688V32.4688C71.7422 32.9062 71.1484 33.4375 70.6484 34.0625C70.1641 34.6875 69.9219 35.3672 69.9219 36.1016C69.9219 36.2422 69.9297 36.3359 69.9453 36.3828C69.9766 36.6641 70.0859 36.8906 70.2734 37.0625C70.4766 37.2344 70.7266 37.3047 71.0234 37.2734C71.4922 37.2266 71.8438 37.0234 72.0781 36.6641C72.3125 36.3047 72.4297 35.9062 72.4297 35.4688ZM85.25 31.1797C85.5938 31.6953 85.8438 32.2422 86 32.8203C86.1562 33.3828 86.2188 33.9531 86.1875 34.5312C86.1719 35.0938 86.0547 35.6562 85.8359 36.2188C85.6328 36.7656 85.3359 37.2812 84.9453 37.7656C84.4766 38.3281 83.9453 38.7656 83.3516 39.0781C82.7734 39.4062 82.1562 39.6562 81.5 39.8281C80.8594 40 80.1875 40.1094 79.4844 40.1562C78.7969 40.2031 78.125 40.2266 77.4688 40.2266C77.25 40.2266 77.1406 40.1172 77.1406 39.8984V37.625C77.1406 37.3906 77.25 37.2734 77.4688 37.2734C78.2656 37.2734 79.0703 37.2266 79.8828 37.1328C80.6953 37.0234 81.4141 36.7344 82.0391 36.2656C82.5859 35.8594 82.9297 35.3438 83.0703 34.7188C83.2109 34.0781 83.1016 33.4609 82.7422 32.8672C82.3672 32.2734 81.8906 31.8281 81.3125 31.5312C80.7344 31.2344 80.1016 31.0391 79.4141 30.9453C78.7422 30.8516 78.0547 30.8359 77.3516 30.8984C76.6484 30.9609 75.9922 31.0625 75.3828 31.2031V35.4688C75.3828 36.0938 75.2812 36.6797 75.0781 37.2266C74.875 37.7578 74.5859 38.2266 74.2109 38.6328C73.8516 39.0547 73.4141 39.3906 72.8984 39.6406C72.3984 39.8906 71.8516 40.0391 71.2578 40.0859C70.6953 40.1172 70.1719 40.0547 69.6875 39.8984C69.2031 39.7422 68.7656 39.5078 68.375 39.1953C68 38.8984 67.6875 38.5234 67.4375 38.0703C67.2031 37.6328 67.0625 37.1641 67.0156 36.6641C67 36.5703 66.9922 36.4766 66.9922 36.3828C66.9922 36.2734 66.9922 36.1797 66.9922 36.1016C66.9922 35.3516 67.1328 34.6406 67.4141 33.9688C67.7109 33.2812 68.1016 32.6484 68.5859 32.0703C69.0859 31.4766 69.6641 30.9531 70.3203 30.5C70.9922 30.0312 71.6953 29.625 72.4297 29.2812V25.0391H67.4375C67.2188 25.0391 67.1094 24.9297 67.1094 24.7109V22.5781C67.1094 22.3281 67.2188 22.2031 67.4375 22.2031H72.4297V18.8984C72.4297 18.6797 72.5469 18.5703 72.7812 18.5703H75.0547C75.2734 18.5703 75.3828 18.6797 75.3828 18.8984V22.2031H80.5859C80.6953 22.2031 80.7734 22.2422 80.8203 22.3203C80.8828 22.3828 80.9141 22.4688 80.9141 22.5781V24.7109C80.9141 24.9297 80.8047 25.0391 80.5859 25.0391H75.3828V28.3672C76.2891 28.1797 77.2188 28.0859 78.1719 28.0859C79.125 28.0703 80.0391 28.1719 80.9141 28.3906C81.7891 28.5938 82.6016 28.9219 83.3516 29.375C84.1016 29.8281 84.7344 30.4297 85.25 31.1797ZM87.9453 28.0156C88.0547 28.2031 88.0234 28.3516 87.8516 28.4609L85.7656 29.6797C85.5781 29.7734 85.4141 29.7344 85.2734 29.5625C84.7422 28.7344 84.1953 27.9297 83.6328 27.1484C83.0859 26.3516 82.5078 25.5703 81.8984 24.8047C81.7578 24.6328 81.7734 24.4688 81.9453 24.3125L83.9141 22.9297C83.9922 22.8828 84.0781 22.8672 84.1719 22.8828C84.2656 22.8984 84.3359 22.9453 84.3828 23.0234C85.0078 23.8359 85.6094 24.6562 86.1875 25.4844C86.7812 26.3125 87.3672 27.1562 87.9453 28.0156ZM111.973 32.6797L111.411 33.7109C110.833 34.7734 110.098 35.7266 109.208 36.5703C108.333 37.4141 107.364 38.0938 106.302 38.6094C105.255 39.1406 104.153 39.4922 102.997 39.6641C101.856 39.8516 100.747 39.8281 99.6688 39.5938C99.2625 39.4844 98.7391 39.2969 98.0984 39.0312C97.4734 38.7656 96.8563 38.3359 96.2469 37.7422C95.6531 37.1484 95.1375 36.3672 94.7 35.3984C94.2781 34.4141 94.0672 33.1641 94.0672 31.6484V19.2031C94.0672 18.9844 94.1688 18.875 94.3719 18.875H96.95C97.1688 18.875 97.2781 18.9844 97.2781 19.2031V31.6484C97.2781 32.1328 97.3172 32.6484 97.3953 33.1953C97.4891 33.7266 97.6531 34.2266 97.8875 34.6953C98.1219 35.1641 98.4344 35.5781 98.825 35.9375C99.2313 36.2969 99.7547 36.5547 100.395 36.7109C101.02 36.8516 101.716 36.8594 102.481 36.7344C103.263 36.6094 104.036 36.3594 104.802 35.9844C105.567 35.6094 106.286 35.125 106.958 34.5312C107.63 33.9219 108.184 33.1953 108.622 32.3516L109.184 31.3203C109.278 31.1328 109.427 31.0859 109.63 31.1797L111.833 32.2109C112.036 32.3203 112.083 32.4766 111.973 32.6797ZM134.759 29.0234C135.509 29.5703 136.041 30.2266 136.353 30.9922C136.681 31.7578 136.814 32.5547 136.752 33.3828C136.705 34.1953 136.47 34.9766 136.048 35.7266C135.642 36.4766 135.08 37.1016 134.361 37.6016C133.673 38.0703 132.947 38.4531 132.181 38.75C131.416 39.0469 130.619 39.2812 129.791 39.4531C128.978 39.6406 128.158 39.7734 127.33 39.8516C126.502 39.9297 125.673 39.9844 124.845 40.0156C124.611 40.0156 124.494 39.8984 124.494 39.6641V37.2969C124.494 37.1875 124.525 37.1016 124.588 37.0391C124.666 36.9766 124.752 36.9453 124.845 36.9453C125.517 36.9297 126.181 36.8984 126.838 36.8516C127.509 36.7891 128.166 36.6875 128.806 36.5469C129.447 36.4062 130.064 36.2266 130.658 36.0078C131.267 35.7734 131.853 35.4609 132.416 35.0703C132.681 34.8828 132.916 34.6641 133.119 34.4141C133.322 34.1641 133.463 33.8984 133.541 33.6172C133.634 33.3359 133.666 33.0469 133.634 32.75C133.603 32.4531 133.486 32.1641 133.283 31.8828C133.08 31.5859 132.783 31.3438 132.392 31.1562C132.002 30.9688 131.564 30.8359 131.08 30.7578C130.611 30.6641 130.103 30.6172 129.556 30.6172C129.009 30.6172 128.486 30.6562 127.986 30.7344C126.892 30.9062 125.869 31.2109 124.916 31.6484C123.963 32.0703 123.103 32.6328 122.338 33.3359C122.259 33.4141 122.173 33.4688 122.08 33.5C121.986 33.5156 121.884 33.4844 121.775 33.4062L119.853 32.1641C119.681 32.0391 119.603 31.875 119.619 31.6719C119.634 31.4375 119.681 31.0859 119.759 30.6172C119.838 30.1328 119.931 29.5547 120.041 28.8828C120.166 28.2109 120.291 27.4688 120.416 26.6562C120.556 25.8281 120.689 24.9609 120.814 24.0547L121.002 22.9297C121.017 22.8203 121.064 22.75 121.142 22.7188C121.236 22.6719 121.33 22.6562 121.423 22.6719L123.744 23.0469C124.009 23.0938 124.119 23.2266 124.072 23.4453C123.838 24.5078 123.619 25.5547 123.416 26.5859C123.228 27.6172 123.041 28.6719 122.853 29.75C123.728 29.2344 124.673 28.7891 125.689 28.4141C126.705 28.0391 127.736 27.7891 128.783 27.6641C129.83 27.5391 130.869 27.5781 131.9 27.7812C132.931 27.9688 133.884 28.3828 134.759 29.0234ZM131.525 21.1016L130.658 23.1875C130.548 23.4375 130.392 23.5078 130.189 23.3984L129.088 22.9766C128.369 22.7109 127.627 22.4688 126.861 22.25C126.111 22.0156 125.431 21.8203 124.822 21.6641C124.088 21.4766 123.384 21.3125 122.713 21.1719L121.564 20.9375H121.517C121.439 20.9062 121.369 20.8594 121.306 20.7969C121.244 20.7188 121.228 20.625 121.259 20.5156L121.752 18.3125C121.752 18.2812 121.759 18.2656 121.775 18.2656C121.884 18.0625 122.025 17.9844 122.197 18.0312L123.345 18.2656C123.408 18.2656 123.658 18.3281 124.095 18.4531C124.533 18.5625 125.072 18.7031 125.713 18.875C126.369 19.0469 127.088 19.2578 127.869 19.5078C128.666 19.7422 129.447 19.9844 130.213 20.2344L131.314 20.6328C131.564 20.7109 131.634 20.8672 131.525 21.1016ZM163.92 24.7812V26.8906C163.92 27.1094 163.811 27.2188 163.592 27.2188H159.045V30.8516C159.045 31.0703 158.936 31.1797 158.717 31.1797H156.35C156.116 31.1797 155.998 31.0703 155.998 30.8516V27.2188H149.412V32.4688C149.412 33.1406 149.475 33.7734 149.6 34.3672C149.725 34.9453 150.022 35.4297 150.491 35.8203C151.116 36.3359 152.1 36.6641 153.444 36.8047C154.787 36.9297 156.483 36.8516 158.53 36.5703L159.725 36.3828C159.944 36.3516 160.077 36.4531 160.123 36.6875L160.475 38.9141C160.506 39.1328 160.412 39.2578 160.194 39.2891L158.975 39.4531C156.444 39.8281 154.311 39.8984 152.577 39.6641C150.858 39.4297 149.483 38.8828 148.452 38.0234C147.983 37.6328 147.608 37.2109 147.327 36.7578C147.045 36.2891 146.834 35.8125 146.694 35.3281C146.553 34.8438 146.459 34.3594 146.412 33.875C146.366 33.375 146.342 32.9062 146.342 32.4688V27.2188H141.772C141.553 27.2188 141.444 27.1094 141.444 26.8906V24.7812C141.444 24.5469 141.553 24.4297 141.772 24.4297H146.342V19.2266C146.342 19.0078 146.452 18.8984 146.67 18.8984H149.084C149.303 18.8984 149.412 19.0078 149.412 19.2266V24.4297H155.998V19.1328C155.998 18.9141 156.116 18.8047 156.35 18.8047H158.717C158.936 18.8047 159.045 18.9141 159.045 19.1328V24.4297H163.592C163.811 24.4297 163.92 24.5469 163.92 24.7812ZM166.925 27.5703C166.925 27.3203 167.042 27.1953 167.277 27.1953H188.323C188.558 27.1953 188.675 27.3203 188.675 27.5703V30.0312C188.675 30.2656 188.558 30.3828 188.323 30.3828H167.277C167.042 30.3828 166.925 30.2656 166.925 30.0312V27.5703ZM197.773 21.4062V20.7266H195.805V21.4062H197.773ZM199.578 23.4453V22.7656H195.805V23.4453H199.578ZM197.773 24.8047H195.805V25.5312H197.773V24.8047ZM197.562 34.2031H208.438V33.5703H197.562V34.2031ZM197.562 32.2344H208.438V31.6016H197.562V32.2344ZM208.438 30.2891V29.6562H197.562V30.2891H208.438ZM207.031 36.125V37.25C207.031 37.5781 207.102 37.7656 207.242 37.8125C207.383 37.8594 207.891 37.8828 208.766 37.8828C209.641 37.8828 210.148 37.7656 210.289 37.5312C210.32 37.4531 210.359 37.3047 210.406 37.0859C210.453 36.8672 210.5 36.5469 210.547 36.125H207.031ZM192.359 38.4219C192.312 38.2969 192.328 38.1797 192.406 38.0703C192.484 37.9609 192.594 37.9062 192.734 37.9062C193.422 37.8438 194.039 37.7812 194.586 37.7188C195.133 37.6406 195.617 37.5391 196.039 37.4141C197.039 37.1797 197.711 36.8906 198.055 36.5469C198.148 36.4531 198.258 36.3125 198.383 36.125H194.727C194.477 36.125 194.352 36.0078 194.352 35.7734V28.1094H193.156C192.922 28.1094 192.805 27.9922 192.805 27.7578V19.1094C192.805 18.875 192.922 18.7578 193.156 18.7578H202.883C203.117 18.7578 203.234 18.875 203.234 19.1094V20.3516C203.234 20.6016 203.117 20.7266 202.883 20.7266H200.539V21.4062H202.086C202.32 21.4062 202.438 21.5312 202.438 21.7812V22.9062C203.641 21.5469 204.586 19.9297 205.273 18.0547C205.352 17.8984 205.477 17.8281 205.648 17.8438L207.805 18.0781C207.93 18.0938 208.023 18.1484 208.086 18.2422C208.148 18.3203 208.164 18.4297 208.133 18.5703C208.039 18.9141 207.938 19.2109 207.828 19.4609H213.359C213.609 19.4609 213.734 19.5859 213.734 19.8359V21.6406C213.734 21.875 213.609 21.9922 213.359 21.9922H206.633C206.445 22.3047 206.25 22.6094 206.047 22.9062C205.859 23.2031 205.648 23.4922 205.414 23.7734H212.797C213.031 23.7734 213.148 23.8906 213.148 24.125V25.8125C213.148 26.0469 213.031 26.1641 212.797 26.1641H204.688C204.438 26.1641 204.312 26.0469 204.312 25.8125V24.9922L202.438 23.7031V24.4297C202.438 24.6797 202.32 24.8047 202.086 24.8047H200.539V25.5312H203.117C203.352 25.5312 203.469 25.6484 203.469 25.8828V26.9609C203.469 27.1953 203.352 27.3125 203.117 27.3125H195.758V27.8516H211.273C211.523 27.8516 211.648 27.9688 211.648 28.2031V35.2344L213.289 35.3984C213.508 35.4297 213.617 35.5625 213.617 35.7969C213.617 35.875 213.617 35.9531 213.617 36.0312C213.617 36.0938 213.609 36.1641 213.594 36.2422C213.578 36.3672 213.57 36.5 213.57 36.6406C213.57 36.7656 213.562 36.8828 213.547 36.9922C213.531 37.1172 213.523 37.2188 213.523 37.2969C213.523 37.375 213.523 37.4297 213.523 37.4609C213.492 37.8828 213.391 38.3281 213.219 38.7969C213.047 39.25 212.898 39.5469 212.773 39.6875C212.664 39.7969 212.359 39.9219 211.859 40.0625C211.375 40.2031 210.93 40.2734 210.523 40.2734H208.438C208.078 40.2734 207.719 40.2656 207.359 40.25C207 40.25 206.648 40.2422 206.305 40.2266C206.102 40.2109 205.883 40.1953 205.648 40.1797C205.43 40.1641 205.203 40.1406 204.969 40.1094C204.625 40.0625 204.367 39.9531 204.195 39.7812C204.055 39.625 203.961 39.4453 203.914 39.2422C203.867 39.0547 203.844 38.7812 203.844 38.4219V36.125H201.828C201.438 37.25 200.68 38.1641 199.555 38.8672C198.164 39.7422 196.094 40.2812 193.344 40.4844C193.188 40.5156 193.07 40.4453 192.992 40.2734L192.359 38.4219Z" fill="white"/>
</svg>
