<?xml version="1.0" encoding="UTF-8"?>
<svg id="_レイヤー_1" data-name="レイヤー_1" xmlns="http://www.w3.org/2000/svg" xmlns:xlink="http://www.w3.org/1999/xlink" version="1.1" viewBox="0 0 150 80">
  <!-- Generator: Adobe Illustrator 29.6.1, SVG Export Plug-In . SVG Version: 2.1.1 Build 9)  -->
  <defs>
    <style>
      .st0 {
        fill: none;
      }

      .st1 {
        fill: #ffafb5;
        fill-opacity: .5;
      }

      .st2 {
        fill: #fff;
      }

      .st3 {
        fill: #ff6588;
      }

      .st4 {
        clip-path: url(#clippath);
      }
    </style>
    <clipPath id="clippath">
      <rect class="st0" x="23" y=".5" width="102" height="79"/>
    </clipPath>
  </defs>
  <g class="st4">
    <path class="st1" d="M89.6737,2.8664c-4.6687,2.137-7.9758,5.1307-10.5633,8.7968v-.0323c-1.1616,1.5971-2.1037,3.2944-2.949,5.0402-.7711,1.5938-1.4616,3.2297-2.1617,4.8785-.7001-1.6488-1.3906-3.2847-2.1617-4.8785-.8453-1.7491-1.7874-3.4431-2.9522-5.0402v.0323c-2.5843-3.6661-5.8914-6.6598-10.56-8.7968C37.425-6.6966,15.6112,14.3918,25.4195,36.198c8.7791,19.5204,33.6258,26.5068,48.435,43.2373.0775.0872.2097.0872.2872,0,14.8125-16.7305,39.6563-23.7169,48.4353-43.2373,9.808-21.8062-12.0058-42.8946-32.9033-33.3284v-.0032ZM31.2432,29.4735c-1.8132-1.4063-1.2744-3.4205.655-4.3386,1.1034-.5238,3.0231-.3427,3.8007.6013,1.7455,2.1208-1.9036,5.7158-4.4557,3.734v.0033ZM45.7363,13.2571c-2.7683.556-5.8656,3.1392-7.1594,6.0553-1.0906,2.457-6.2367,2.0302-5.8302-2.0465.4066-4.0767,3.2813-7.4648,6.9142-8.7936,9.3244-3.4043,9.8632,4.0218,6.0786,4.7815l-.0032.0033Z"/>
  </g>
  <g>
    <path class="st2" d="M136.8829,30.8306c-1.32-1.4144-2.964-1.6983-3.963-1.6983h-.683v-1.6211c0-.9074-.231-2.5064-1.567-3.8431-1.337-1.3368-2.936-1.567-3.844-1.567h-2.958c-.835,0-2.392.1878-3.742,1.4472-.3508.3276-.6314.6751-.8561,1.0277-.1809-.2684-.3852-.5349-.6409-.7907-1.337-1.3369-2.936-1.5671-3.844-1.5671h-3.017c-.9075,0-2.5065.2303-3.8433,1.5671-1.3367,1.3367-1.567,2.9357-1.567,3.8431v1.5039h-.7129c-.9992,0-2.6428.2839-3.9628,1.6983-1.2595,1.3494-1.4473,2.9064-1.4473,3.7412v.5522c-.6982-.4185-1.431-.7628-2.1891-1.0494l.9076-2.1832-.0024-.001c.3623-.8574.8089-2.4982-.0183-4.3364-.8141-1.8091-2.3048-2.5646-3.16-2.8677l.0008-.0021-1.377-.498-.0739-.0269-.0748-.0244c-.9683-.3162-1.9556-.6211-2.9579-.9171v-.0002c-.0365-.0117-.0701-.0211-.1064-.0327-.0022-.0007-.0043-.0013-.0065-.002h0c-.9912-.3154-1.9307-.5919-2.8107-.823v-.0004c-.7823-.2098-1.4537-.3851-2.0229-.528-.2626-.0746-.5123-.1432-.726-.1967-.1145-.0286-.2636-.0643-.4225-.0961-.0102-.002-.1042-.0204-.231-.0409l-1.2879-.2629-.0007.0037c-1.1512-.2413-2.4789-.1358-3.7203.5538-.7368.4094-1.2513.9233-1.6316,1.4067-.0512.0604-.093.1194-.1396.1797-.0517.0712-.1086.1413-.1538.2096-.1481.2139-.2788.4241-.3753.617-.2287.4575-.3562.8912-.4312,1.2629l-.5989,2.6809.0068.0015c-.1532.6713-.192,1.4108-.0597,2.163-.158.4001-.2609.7823-.3172,1.1219l-.0045-.0007-.2344,1.4063-.0115.0692-.0096.0696c-.1498,1.0859-.308,2.1183-.4744,3.098l-.0065.0384-.0059.0384c-.1499.974-.2975,1.8494-.4426,2.629l-.0103.0554-.0091.0557c-.0875.5374-.1641,1.0099-.2358,1.4524-.4317-.4103-.871-.7041-1.2184-.8912l-.1236-.0667-.1272-.0595-2.7539-1.2889-.0122-.0057-.0122-.0057c-.7675-.3542-2.2213-.8118-3.9305-.272-1.6837.5317-2.6308,1.7121-3.108,2.5949l-.0029-.0016-.7031,1.2891-.0251.0461-.0241.0466c-.2816.543-.6115.9623-.9821,1.3027-.512.4481-1.0294.7927-1.5539,1.0496-.5464.2676-1.0402.4184-1.491.4906l-.0078.0012-.0079.0013c-.2272.0372-.3932.0461-.5075.0449-.0428-.1019-.0792-.215-.106-.3453-.0575-.4329-.0847-.8101-.0847-1.1224v-15.5566c0-.9074-.2303-2.5064-1.567-3.8431-1.3368-1.3369-2.9358-1.567-3.8432-1.567h-3.2227c-.9966,0-2.636.2856-3.9496,1.7002-1.2486,1.3448-1.4312,2.8907-1.4312,3.7099v3.9664c-.5345-.7422-1.0641-1.4865-1.6264-2.2178-.8564-1.1463-2.0977-1.8605-3.4208-2.081-.7108-.1185-1.4474-.0806-2.1685.0908-1.0123-.7249-2.171-1.0084-3.1359-1.0084h-1.5745c-.1373-.8844-.5203-1.9978-1.4965-2.974-1.3367-1.3368-2.9357-1.567-3.8431-1.567h-2.8418c-.8348,0-2.3918.1878-3.7413,1.4473-1.0557.9853-1.4808,2.1504-1.629,3.0937h-1.3095c-1.0939,0-2.7744.3434-4.0705,1.8247-1.1845,1.3537-1.3397,2.8689-1.3397,3.6441v2.666c0,.9074.2302,2.5064,1.567,3.8431.7192.7192,1.5117,1.112,2.2341,1.3271-.261.2684-.5376.5204-.78.8083h0l-.008.0096c-.9139,1.0908-1.6583,2.2952-2.2226,3.6021l-.011.0256-.0108.0258c-.6152,1.4697-.9152,3.0165-.9152,4.5968v.3515c0,.2758.0364.5459.0677.8167l-.0166.0016c.0087.0933.0284.1842.0397.277.004.0258.0022.0526.0065.0783l.0046-.0008c.1505,1.152.493,2.2631,1.0472,3.2977l.0146.0272.015.0271c.6027,1.0923,1.406,2.0813,2.4271,2.8942l-.0008.001c.0036.0029.0076.0052.0112.0081.0031.0024.0057.0053.0088.0078l.0007-.0009c.9649.7678,2.0444,1.3426,3.2084,1.7181,1.2495.403,2.5243.5376,3.7753.4681l.0581-.0032.0581-.0046c1.3212-.1043,2.616-.4431,3.8373-1.0445l.0012.0025c.0095-.0046.0182-.0105.0276-.0151.0049-.0024.0099-.0041.0148-.0065,1.2561,1.0524,2.6602,1.2549,3.4891,1.2549.9369,0,1.8879-.0337,2.8522-.0992v.0002c.001,0,.0019-.0002.0029-.0003.0016-.0001.0031,0,.0046-.0002v-.0004c1.1717-.0785,2.3226-.2634,3.4458-.5627l.0004.0013c.006-.0016.0118-.0037.0178-.0052.0037-.001.0074-.0014.011-.0024l-.0002-.0009c1.1697-.3088,2.2882-.7582,3.3466-1.3437l.0012.0024c.015-.0079.0282-.0177.0431-.0256.0317-.0177.0646-.0325.0962-.0505l-.0029-.005c1.3115-.7147,2.4349-1.6631,3.3681-2.7831l.0258-.0309.0252-.0312c.7886-.9778,1.4261-2.0672,1.8787-3.2611l.0024.001c.0048-.0122.0081-.025.0128-.0372.0043-.0116.01-.0225.0143-.0341l-.0023-.0009c.1049-.2747.202-.5521.2863-.8338.0052.0123.0081.0256.0134.0378l.019.0444.0198.0439c.7321,1.621,1.6893,3.1416,2.955,4.4073l.0229.0229.0233.0227c1.0974,1.0693,2.3729,2.0049,3.848,2.6318l.0203.0086.0204.0085c.8906.3693,1.7706.6951,2.5781.9125l.1181.0318.1196.026c1.9675.4277,3.9648.4632,5.9571.1448l.0004.0027c.0132-.002.0259-.0054.0391-.0074.0122-.002.0245-.0023.0367-.0043l-.0004-.0025c1.9225-.2937,3.7622-.8814,5.502-1.7538l.0012.0024c.013-.0063.0251-.0141.0381-.0204.0137-.0069.0279-.0121.0416-.019l-.0013-.0025c1.7708-.8698,3.377-2.0016,4.8091-3.3765l.0011.0012c.0057-.0054.0107-.0114.0164-.0167.0051-.0048.0106-.009.0156-.0139l-.001-.001c1.473-1.4019,2.7041-2.9976,3.6735-4.7782h.0001s.0021-.0037.0021-.0037c.0001-.0002.0003-.0005.0004-.0007h0l.6814-1.249c.3038.363.6526.6888,1.0385.9694l.1113.0808.1155.0747.1204.0778,1.8187,1.1755.4632.2994.0013-.002c.2969.1948.6711.3972,1.1152.5663-.0006.0327-.004.0678-.004.0999v2.959c0,.9172.2327,2.5235,1.5743,3.8651,1.3417,1.3416,2.9479,1.5743,3.8651,1.5743h.0943l.0943-.0035c1.1293-.0426,2.2582-.1172,3.3865-.2236,1.2193-.1151,2.4267-.3117,3.6222-.5827l.0005.0024c.0154-.0032.0301-.0081.0455-.0114.0208-.0048.0419-.0075.0627-.0123l-.0007-.0032c1.2587-.2672,2.485-.6255,3.6723-1.0859,1.3172-.5108,2.5635-1.1684,3.7337-1.9662l.0193-.0132.0193-.0134c1.5002-1.0436,2.7214-2.3875,3.6084-3.999l.0035.002c.0068-.0121.0117-.0251.0184-.0374.0062-.0113.014-.0212.0202-.0325l-.0032-.0018c.841-1.5175,1.3519-3.1746,1.4671-4.9333l.0044.0003c.0011-.0146-.0004-.029.0007-.0436.0009-.0151.0044-.0295.0052-.0447l-.0045-.0002c.0687-1.0144-.0073-2.0142-.2038-2.9929h.7048v1.5625c0,.7235.0388,1.4665.1098,2.2246l.0007.0074.0007.0075c.0895.9254.2674,1.8361.5266,2.7288.3053,1.0518.7507,2.0412,1.3052,2.9655l.0193.0324.02.032c.6713,1.0816,1.5145,2.0038,2.4535,2.7863,2.1925,1.8269,4.8715,2.7806,7.6815,3.1638l.006.0008c2.776.3752,5.9254.2363,9.3348-.2646l.0002.0013,1.523-.2051.02-.0027.02-.0028c.9-.1286,2.451-.5831,3.5861-2.0963,1.1349-1.5131,1.137-3.1296,1.008-4.0293l-.005-.0364-.005-.0363-.44-2.7832-.016-.1008-.02-.1c-.166-.8317-.644-2.243-2.034-3.3062-.0254-.0194-.0513-.0328-.0768-.0516.573-.8921.7822-1.8028.8391-2.4976h.7047c.908,0,2.507-.2302,3.843-1.567,1.337-1.3367,1.567-2.9357,1.567-3.8431v-2.6367c0-.8348-.187-2.3918-1.447-3.7412Z"/>
    <path class="st3" d="M23.467,47.9311v-3.75c-.8594.5469-1.6016,1.211-2.2266,1.9922-.6054.7813-.9082,1.6309-.9082,2.5489,0,.1757.0098.2929.0293.3515.0391.3516.1758.6348.4102.8496.2539.2149.5664.3028.9375.2637.5859-.0586,1.0254-.3125,1.3184-.7617.2929-.4492.4394-.9473.4394-1.4942ZM39.4924,42.5698c.4297.6445.7422,1.3281.9375,2.0508.1953.7031.2734,1.416.2344,2.1387-.0196.7031-.166,1.4062-.4395,2.1093-.2539.6836-.625,1.3282-1.1133,1.9336-.5859.7032-1.25,1.25-1.9921,1.6407-.7227.4101-1.4942.7226-2.3145.9375-.8008.2148-1.6406.3515-2.5195.4101-.8594.0586-1.6993.0879-2.5196.0879-.2734,0-.4101-.1367-.4101-.4102v-2.8418c0-.2929.1367-.4394.4101-.4394.9961,0,2.002-.0586,3.0176-.1758,1.0156-.1367,1.9141-.498,2.6953-1.084.6836-.5078,1.1133-1.1523,1.2891-1.9336.1758-.8007.0391-1.5722-.4102-2.3144-.4687-.7422-1.0644-1.2988-1.7871-1.6699-.7226-.3711-1.5136-.6153-2.373-.7325-.8399-.1171-1.6992-.1367-2.5781-.0586-.879.0782-1.6993.2051-2.461.3809v5.332c0,.7813-.1269,1.5137-.3808,2.1973-.2539.6641-.6153,1.25-1.084,1.7578-.4492.5274-.9961.9473-1.6407,1.2598-.625.3125-1.3085.498-2.0507.5566-.7032.0391-1.3575-.039-1.9629-.2344-.6055-.1953-1.1523-.4882-1.6406-.8789-.4688-.3711-.8594-.8398-1.1719-1.4062-.293-.5469-.4688-1.1328-.5273-1.7578-.0195-.1172-.0293-.2344-.0293-.3516v-.3515c0-.9375.1758-1.8262.5273-2.6661.3711-.8593.8594-1.6504,1.4648-2.373.625-.7422,1.3477-1.3965,2.168-1.9629.8398-.5859,1.7187-1.0938,2.6367-1.5234v-5.3028h-6.2402c-.2734,0-.4102-.1367-.4102-.4101v-2.666c0-.3125.1367-.4688.4102-.4688h6.2402v-4.1309c0-.2734.1465-.4101.4395-.4101h2.8418c.2734,0,.4101.1367.4101.4101v4.1309h6.5039c.1367,0,.2344.0488.293.1465.0781.0781.1172.1855.1172.3223v2.666c0,.2734-.1367.4101-.4102.4101h-6.5039v4.1602c1.1328-.2344,2.2949-.3516,3.4863-.3516,1.1914-.0195,2.334.1074,3.4278.3809,1.0937.2539,2.1094.664,3.0469,1.2305.9375.5664,1.7285,1.3183,2.373,2.2558ZM42.8615,38.6147c.1368.2344.0977.42-.1171.5567l-2.6075,1.5234c-.2343.1172-.4394.0684-.6152-.1465-.6641-1.0351-1.3477-2.041-2.0508-3.0176-.6836-.996-1.4062-1.9726-2.168-2.9296-.1757-.2149-.1562-.42.0586-.6153l2.461-1.7285c.0976-.0586.2051-.0781.3222-.0586.1172.0195.2051.0781.2637.1758.7813,1.0156,1.5332,2.041,2.2559,3.0762.7422,1.0351,1.4746,2.0898,2.1972,3.164ZM71.3967,44.4448l-.7031,1.2891c-.7227,1.3281-1.6407,2.5195-2.7539,3.5742-1.0938,1.0547-2.3047,1.9043-3.6328,2.5488-1.3086.6641-2.6856,1.1035-4.1309,1.3184-1.4258.2344-2.8125.2051-4.1602-.0879-.5078-.1367-1.1621-.3711-1.9629-.7031-.7812-.3321-1.5527-.8692-2.3144-1.6114-.7422-.7422-1.3867-1.7187-1.9336-2.9297-.5273-1.2304-.791-2.7929-.791-4.6875v-15.5566c0-.2734.1269-.4101.3808-.4101h3.2227c.2734,0,.4102.1367.4102.4101v15.5566c0,.6055.0488,1.25.1464,1.9336.1172.6641.3223,1.2891.6153,1.875.2929.586.6836,1.1036,1.1718,1.5528.5079.4492,1.1622.7715,1.9629.9668.7813.1758,1.6504.1855,2.6075.0293.9765-.1563,1.9433-.4688,2.9004-.9375.957-.4688,1.8554-1.0743,2.6953-1.8164.8398-.7618,1.5332-1.67,2.08-2.7246l.7032-1.2891c.1172-.2344.3027-.293.5566-.1758l2.7539,1.2891c.2539.1367.3125.332.1758.5859ZM98.3791,39.8745c.9375.6836,1.6016,1.5039,1.9922,2.4609.4102.9571.5762,1.9532.4981,2.9883-.0586,1.0156-.3516,1.9922-.879,2.9297-.5078.9375-1.2109,1.7188-2.1093,2.3438-.8594.5859-1.7676,1.0644-2.7246,1.4355-.9571.3711-1.9532.6641-2.9883.8789-1.0156.2344-2.041.4004-3.0762.4981-1.0351.0976-2.0703.166-3.1055.205-.2929,0-.4394-.1465-.4394-.4394v-2.959c0-.1367.039-.2441.1172-.3223.0976-.0781.2051-.1172.3222-.1172.8399-.0195,1.67-.0586,2.4903-.1171.8398-.0782,1.6601-.2051,2.4609-.3809.8008-.1758,1.5723-.4004,2.3145-.6738.7617-.293,1.4941-.6836,2.1972-1.1719.3321-.2344.625-.5078.8789-.8203s.4297-.6446.5274-.9961c.1172-.3516.1562-.7129.1172-1.084-.0391-.3711-.1856-.7324-.4395-1.084-.2539-.3711-.625-.6738-1.1133-.9082-.4882-.2344-1.0351-.4004-1.6406-.498-.5859-.1172-1.2207-.1758-1.9043-.1758s-1.3379.0488-1.9629.1465c-1.3672.2148-2.6465.5957-3.8379,1.1425-1.1914.5274-2.2656,1.2305-3.2226,2.1094-.0977.0977-.2051.166-.3223.2051-.1172.0195-.2441-.0195-.3808-.1172l-2.4024-1.5527c-.2148-.1563-.3125-.3613-.293-.6153.0196-.2929.0782-.7324.1758-1.3183.0977-.6055.2149-1.3281.3516-2.168.1562-.8398.3125-1.7676.4687-2.7832.1758-1.0351.3418-2.1191.4981-3.2519l.2344-1.4063c.0195-.1367.0781-.2246.1757-.2637.1172-.0586.2344-.0781.3516-.0586l2.9004.4688c.332.0586.4687.2246.4101.498-.2929,1.3282-.5664,2.6368-.8203,3.9258-.2343,1.2891-.4687,2.6074-.7031,3.9551,1.0938-.6445,2.2754-1.2012,3.5449-1.6699,1.2696-.4688,2.5586-.7813,3.8672-.9375,1.3086-.1563,2.6074-.1074,3.8965.1465,1.2891.2343,2.4805.7519,3.5742,1.5527ZM94.3361,29.9722l-1.0839,2.6074c-.1368.3125-.3321.4004-.586.2636l-1.3769-.5273c-.8985-.332-1.8262-.6348-2.7832-.9082-.9375-.293-1.7871-.5371-2.5489-.7324-.9179-.2344-1.7968-.4395-2.6367-.6153l-1.4355-.2929h-.0586c-.0977-.0391-.1856-.0977-.2637-.1758-.0781-.0977-.0976-.2149-.0586-.3516l.6153-2.7539c0-.039.0097-.0586.0293-.0586.1367-.2539.3124-.3515.5273-.2929l1.4355.2929c.0782,0,.3907.0782.9375.2344.5469.1367,1.2207.3125,2.0215.5274.8203.2148,1.7188.4785,2.6953.791.9961.2929,1.9727.5957,2.9297.9082l1.377.498c.3125.0977.4004.293.2636.586ZM133.3299,34.5718v2.6367c0,.2734-.136.4101-.41.4101h-5.683v4.5411c0,.2734-.137.4101-.411.4101h-2.958c-.293,0-.44-.1367-.44-.4101v-4.5411h-8.232v6.5625c0,.8399.078,1.6309.234,2.3731.156.7226.527,1.3281,1.113,1.8164.782.6445,2.012,1.0547,3.692,1.2305,1.679.1562,3.799.0586,6.357-.293l1.494-.2344c.274-.039.44.0879.498.3809l.44,2.7832c.039.2734-.078.4297-.352.4687l-1.523.2051c-3.164.4688-5.83.5566-7.998.2637-2.149-.293-3.867-.9766-5.157-2.0508-.585-.4883-1.054-1.0156-1.406-1.582-.351-.586-.615-1.1817-.791-1.7871-.176-.6055-.293-1.211-.351-1.8164-.059-.625-.088-1.211-.088-1.7579v-6.5625h-5.7132c-.2734,0-.4101-.1367-.4101-.4101v-2.6367c0-.293.1367-.4395.4101-.4395h5.7132v-6.5039c0-.2734.136-.4102.41-.4102h3.017c.274,0,.411.1368.411.4102v6.5039h8.232v-6.6211c0-.2734.147-.4101.44-.4101h2.958c.274,0,.411.1367.411.4101v6.6211h5.683c.274,0,.41.1465.41.4395Z"/>
  </g>
</svg>