<?xml version="1.0" encoding="UTF-8"?>
<svg id="_レイヤー_1" xmlns="http://www.w3.org/2000/svg" xmlns:xlink="http://www.w3.org/1999/xlink" version="1.1" viewBox="0 0 150 80">
  <!-- Generator: Adobe Illustrator 29.7.1, SVG Export Plug-In . SVG Version: 2.1.1 Build 8)  -->
  <defs>
    <style>
      .st0 {
        fill: none;
      }

      .st1 {
        fill: #2ea8ff;
      }

      .st1, .st2 {
        fill-opacity: .5;
      }

      .st2 {
        fill: #ffafb5;
      }

      .st3 {
        fill: #fff;
      }

      .st4 {
        clip-path: url(#clippath);
      }
    </style>
    <clipPath id="clippath">
      <rect class="st0" x="22" y=".5" width="102" height="79"/>
    </clipPath>
  </defs>
  <g class="st4">
    <path class="st2" d="M88.674,2.866c-4.669,2.137-7.976,5.131-10.563,8.797v-.032c-1.162,1.597-2.104,3.294-2.949,5.04-.771,1.594-1.462,3.23-2.162,4.878-.7-1.649-1.391-3.285-2.162-4.878-.845-1.749-1.787-3.443-2.952-5.04v.032c-2.584-3.666-5.891-6.66-10.56-8.797C36.425-6.697,14.611,14.392,24.42,36.198c8.779,19.52,33.626,26.507,48.435,43.237.077.087.21.087.287,0,14.812-16.73,39.656-23.717,48.435-43.237,9.808-21.806-12.006-42.895-32.903-33.328v-.003h0ZM30.243,29.473c-1.813-1.406-1.274-3.42.655-4.339,1.103-.524,3.023-.343,3.801.601,1.745,2.121-1.904,5.716-4.456,3.734v.003h0ZM44.736,13.257c-2.768.556-5.866,3.139-7.159,6.055-1.091,2.457-6.237,2.03-5.83-2.046.407-4.077,3.281-7.465,6.914-8.794,9.324-3.404,9.863,4.022,6.079,4.781l-.003.003h0Z"/>
  </g>
  <g>
    <g>
      <path class="st3" d="M28.904,34.982c.018-1.119.019-2.239,0-3.358h0l-.029-4.01h0c-.005-.902-.242-2.448-1.538-3.744-1.312-1.312-2.882-1.539-3.779-1.539h-2.979c-.776,0-2.271.158-3.6,1.33-1.446,1.276-1.776,2.921-1.776,3.988v.035l.029,4.039v.072l.003.071c.035.966.043,1.887.026,2.763-.009.435-.026.86-.038,1.291-.342-.36-.766-.711-1.299-.997v-6.815c0-.98-.277-2.592-1.66-3.889-1.324-1.241-2.857-1.43-3.688-1.43h-2.951c-.831,0-2.364.188-3.688,1.43-1.383,1.297-1.66,2.908-1.66,3.889v9.883c0,.38.013.763.035,1.149h-.002c0,.014.002.027.003.041,0,.014,0,.029,0,.043h.002c.03.631.094,1.261.194,1.889l.002.016.003.016c.135.809.357,1.6.67,2.365l.052.127.059.124c.424.891.981,1.681,1.633,2.372.852.903,1.86,1.532,2.908,1.954l-.002.005c.026.011.053.019.079.03.016.006.031.014.046.021v-.003c.988.394,2.043.609,3.13.603-.017.047-.039.089-.055.137l-.121.364-.063.378c-.202,1.213.031,2.344.482,3.272l-.004.002,1.228,2.542c.396.842,1.196,2.002,2.716,2.654,1.712.734,3.264.361,4.107.024l.112-.045.11-.05,1.375-.63h0c2.524-1.155,4.659-2.87,6.18-5.207h0l.003-.006s.003-.005.005-.007h0c1.315-2.016,2.23-4.256,2.785-6.666l.005-.023.005-.023c.241-1.096.437-2.217.588-3.361v-.012c.156-1.19.254-2.403.297-3.637v-.003c.039-1.134.058-2.26.059-3.379h0v-.085h0Z"/>
      <path class="st3" d="M148.746,51.361c.534-.778,1.246-2.229.872-4.096-.388-1.945-1.696-3.021-2.445-3.494h0l-2.263-1.433h0c-.731-.464-2.141-1.131-3.941-.798-.823.153-1.493.474-2.041.856-.097-.21-.179-.427-.285-.632l.005-.002c-.007-.014-.017-.027-.025-.041-.008-.016-.014-.033-.022-.049l-.005.003c-.378-.735-.85-1.401-1.393-1.999l.007-.006c-.023-.026-.049-.048-.072-.074-.017-.018-.03-.04-.047-.057l-.005.005c-.816-.901-1.774-1.632-2.85-2.184.027-.062.052-.126.079-.188.902-2.061,1.869-4.124,2.901-6.19.596-1.191.874-2.851.15-4.542l-.006.002c-.632-1.524-1.818-2.399-2.825-2.834l-2.423-1.099h0c-1.008-.457-2.476-.756-4.068-.183-1.151.414-1.927,1.129-2.425,1.757-.044.052-.076.102-.116.154-.038.051-.076.102-.11.15-.163.229-.306.455-.409.66-.047.094-.086.187-.125.279l-.455.91-.012.023-.011.023c-1.87,3.839-3.575,7.72-5.113,11.644l-.005.012c-.026.067-.051.136-.077.203-.035-.521-.154-1.182-.463-1.867.392-.877.475-1.706.475-2.236v-2.607c0-1.16-.405-2.339-1.206-3.325l.02-.016c-.933-1.166-2.394-1.978-4.104-1.978h-3.433c-.013-.063-.023-.128-.037-.192-.01-.06-.022-.12-.035-.185,0-.002,0-.004,0-.006h0c-.177-.843-.632-2.067-1.833-3.042-1.481-1.204-3.126-1.247-4.089-1.11l-.065.009-.063.011-2.865.487v.003c-.901.149-2.402.627-3.475,2.148-.448.634-.695,1.277-.825,1.876h-6.167c-1.711,0-3.172.813-4.104,1.978l-.048.06-.046.061c-.811,1.082-1.064,2.265-1.064,3.22v1.3c-.295-.31-.607-.6-.932-.878l.031-.072.08-.187.064-.193c.373-1.118.373-2.318,0-3.436-.569-1.708-1.838-2.72-2.97-3.205l-.145-.062-.149-.053c-1.981-.702-3.962-1.293-5.942-1.773h0s-.006-.002-.008-.002h-.003c-1.859-.455-3.762-.878-5.711-1.272v.005c-1.223-.255-2.669-.106-3.96.743-1.495.96-2.081,2.373-2.296,3.23l-.016.065-.014.066-.602,2.721h.007c-.142.629-.184,1.317-.072,2.019-.339.129-.686.244-1.018.384v-.002l-1.404.573-.039.016-.039.017c-.826.354-2.182,1.183-2.871,2.907-.115.289-.191.569-.25.844-.175-.726-.522-1.556-1.216-2.328-1.298-1.442-2.954-1.762-4.021-1.762h-2.173l-.005-.046-.047-.234c-.102-.509-.286-1.104-.598-1.712l.005-.002c-.011-.022-.028-.043-.039-.065-.031-.058-.056-.116-.089-.174l-.012.007c-.5-.884-1.27-1.682-2.33-2.176-.982-.458-1.902-.521-2.579-.482v-.006l-2.263.115-.079.004-.079.007c-1.539.128-3.545.98-4.52,3.173l-.059.133-.051.136c-.274.73-.397,1.477-.397,2.204v.344c0,.314.026.609.057.894v.341l.042.252c.032.75.058,1.448.074,2.079l.002.068.004.068c.034.632.05,1.202.05,1.713v.076l.002.076c.018.564.026,1.105.026,1.623v.084l.003.084v.009c-.414.086-.823.197-1.228.326l-.002-.006c-.033.01-.065.023-.099.034-.019.006-.039.009-.058.016v.004c-.923.291-1.794.71-2.597,1.257l-.002-.002c-.012.008-.022.017-.034.025-.015.01-.031.019-.046.029l.002.003c-2.031,1.384-3.354,3.42-3.772,5.861h-.002c0,.005,0,.011-.002.017,0,.007-.004.014-.005.022h.002c-.28,1.644-.109,3.287.502,4.833l.008.021.008.021c.645,1.591,1.709,2.917,3.11,3.893l.007.005c1.449,1.007,3.074,1.524,4.728,1.674v.005c.016.002.033,0,.05.002.016,0,.032.005.048.007v-.005c1.646.153,3.265-.057,4.809-.604l.036-.013.036-.014c1.287-.479,2.475-1.175,3.528-2.086.244.177.483.347.745.556l.076.06.078.057c.763.559,2.103,1.245,3.839,1.053,1.745-.194,2.909-1.167,3.537-1.899l.088-.103.082-.107,1.404-1.833h0c.627-.817,1.365-2.253,1.081-4.102-.276-1.792-1.356-2.9-2.021-3.432l-.076-.061-.078-.058c-.542-.4-1.091-.775-1.643-1.14.894-.174,1.944-.595,2.851-1.552,1.267-1.338,1.469-2.899,1.469-3.771v-.669c.051.152.104.295.157.418l.048.112.053.109,1.232,2.521.01.02.01.02c.467.935,1.394,2.093,2.987,2.65,1.505.527,2.834.243,3.603-.032l.126-.045.123-.052,1.379-.579c.777-.313,1.653-.603,2.638-.861.929-.244,1.832-.406,2.712-.494.721-.072,1.342-.067,1.903-.023-.069.083-.137.167-.21.241-.341.326-.667.585-.975.792-.406.251-.834.482-1.286.69-.579.247-1.175.488-1.792.722-.693.262-1.396.525-2.108.787v.003c-.952.347-2.438,1.194-3.151,3.066-.667,1.751-.209,3.263.098,3.993h-.002l1.117,2.693.066.159.077.154c.419.838,1.242,1.936,2.698,2.549,1.446.609,2.79.434,3.657.167l.114-.035.112-.04c.981-.355,1.984-.748,3.009-1.179,1.08-.454,2.137-.961,3.172-1.519h0c.01-.004.019-.01.029-.015.014-.007.028-.014.041-.021v-.002c1.082-.568,2.125-1.202,3.123-1.904l.03-.021.03-.022c1.103-.802,2.104-1.711,2.995-2.725l.003.002c.01-.011.019-.023.029-.035.006-.006.012-.012.018-.018h-.002c.95-1.069,1.743-2.249,2.36-3.538l.009-.018.009-.018c.032-.069.055-.141.086-.211-.039.883-.003,1.774.154,2.661l.011.062.013.062c.349,1.705,1.127,3.22,2.231,4.502l.002.002c.907,1.052,2,1.887,3.237,2.496v.002c.009.005.019.009.029.014.007.004.013.008.021.011v-.002c1.081.534,2.223.905,3.396,1.148v.002c.011.003.023.004.035.006.022.005.044.011.067.015v-.004c1.116.241,2.289.387,3.504.456v.002c.02,0,.041.002.06.003.009,0,.018.002.026.002h0c1.177.081,2.419.122,3.727.122h1.461c.816,0,2.339-.184,3.659-1.415,1.383-1.291,1.66-2.898,1.66-3.875v-1.504l.261-.076v-.004c1.099-.315,2.414-1.069,3.215-2.591.445-.846.585-1.663.601-2.34.297-.082.605-.191.915-.344-.45,1.236-.903,2.467-1.344,3.714l-.043.123-.037.125c-.265.902-.437,2.325.253,3.832.696,1.519,1.902,2.324,2.793,2.714l.226.099.235.076,2.578.831.156.05.157.04c1.034.258,2.195.224,3.327-.207l.005.013c.031-.012.056-.032.087-.043.041-.016.082-.023.123-.041l-.007-.017c1.373-.581,2.448-1.672,2.975-3.075l.013-.035.012-.035.691-1.93c.911,1.621,2.18,2.957,3.781,3.924,1.775,1.072,3.75,1.606,5.821,1.587v.005c.018,0,.037-.002.055-.002.008,0,.016,0,.024,0v-.002c2.426-.015,4.721-.699,6.745-2.08l.01-.007.01-.007c.935-.644,1.775-1.423,2.486-2.342h.002s.008-.01.012-.016c.001,0,.002-.002.003-.004h0c.422-.545.824-1.102,1.212-1.667l.002.002c.017-.023.035-.053.053-.077.016-.023.034-.046.05-.069h-.002s-.005-.005-.005-.005ZM52.917,47.799c-.016-.012-.032-.023-.047-.035.015.011.035.023.049.033v.002h-.002ZM37.008,33.31v-.033c.003.024.002.052.005.076,0,.003,0-.012-.004-.043h0ZM145.521,49.421c-.006.009-.013.017-.02.026.006-.009.013-.017.02-.026ZM113.908,29.577h0ZM91.022,29.577h-.002.002Z"/>
    </g>
    <path class="st1" d="M11.455,39.478l1.263,2.527c.115.268.048.469-.201.603-.23.096-.45.191-.66.287-.191.077-.373.153-.546.23-.613.268-1.254.488-1.924.66-.67.153-1.349.086-2.038-.201-.498-.192-.909-.459-1.235-.804-.325-.345-.584-.718-.775-1.12-.172-.421-.297-.861-.373-1.321-.077-.479-.124-.947-.144-1.407-.019-.326-.029-.641-.029-.947v-9.906c0-.287.153-.431.459-.431h2.957c.306,0,.459.144.459.431v9.016c0,.115-.01.258-.029.431,0,.172-.01.345-.029.517v.546c0,.172.019.345.057.517.096.727.306,1.014.632.861.268-.096.526-.201.775-.316.249-.134.507-.268.775-.402s.469-.057.603.23h.003ZM23.657,27.62l.029,4.02c.019,1.11.019,2.22,0,3.331,0,1.091-.019,2.192-.057,3.302-.038,1.091-.125,2.153-.258,3.187-.134,1.014-.306,2-.517,2.957-.44,1.914-1.149,3.618-2.125,5.111-.957,1.474-2.335,2.622-4.135,3.445l-1.378.632c-.287.115-.488.029-.603-.258l-1.235-2.555c-.057-.115-.076-.23-.057-.345.038-.115.125-.201.258-.258l1.378-.603c1.263-.536,2.22-1.378,2.871-2.527.67-1.168,1.149-2.555,1.436-4.163.153-.823.258-1.665.316-2.527.057-.881.105-1.799.144-2.756s.067-1.924.086-2.9.01-1.991-.029-3.043l-.029-4.048c0-.287.163-.431.488-.431h2.986c.287,0,.431.144.431.431h0v-.002ZM37.755,47.948c-.364.21-.546.517-.546.919,0,.268.115.459.345.574.249.153.555.239.919.258.364,0,.746-.076,1.148-.23.804-.306,1.321-.737,1.55-1.292.038-.096.057-.182.057-.258.019-.096.048-.172.086-.23-.785-.153-1.474-.201-2.067-.144s-1.091.191-1.493.402h.001ZM51.996,39.219h-6.805v1.895c0,.861-.019,1.646-.057,2.354s-.096,1.33-.172,1.866c1.263.44,2.45.976,3.56,1.608s2.211,1.349,3.302,2.153c.287.23.325.479.115.746l-1.407,1.838c-.23.268-.488.297-.775.086-.938-.747-1.838-1.369-2.699-1.866-.842-.498-1.703-.928-2.584-1.292-.038.096-.076.201-.115.316-.019.115-.067.249-.144.402-.268.747-.718,1.388-1.349,1.924-.612.555-1.33.986-2.153,1.292-.919.325-1.847.44-2.785.345-.938-.076-1.751-.354-2.44-.833-.632-.44-1.091-1.014-1.378-1.723-.287-.727-.364-1.474-.23-2.24.191-1.148.775-2.048,1.751-2.699.44-.306.919-.536,1.436-.689.517-.172,1.053-.287,1.608-.345.555-.057,1.091-.077,1.608-.057.536.019,1.034.067,1.493.144.019-.517.029-1.053.029-1.608.019-.555.029-1.129.029-1.723,0-.517-.01-1.053-.029-1.608,0-.574-.01-1.168-.029-1.78,0-.612-.019-1.273-.057-1.981-.019-.727-.048-1.522-.086-2.383,0-.038-.009-.115-.029-.23,0-.115-.009-.249-.029-.402-.019-.153-.029-.297-.029-.431v-.345c0-.172.029-.335.086-.488.077-.172.23-.268.459-.287l2.268-.115c.211-.019.354.048.431.201.076.134.134.297.172.488.019.191.019.373,0,.546v.345c.057,1.072.096,1.847.115,2.326s.029.813.029,1.005h6.891c.345,0,.517.191.517.574v2.125c0,.364-.172.546-.517.546h-.001ZM71.175,53.145c-.249.076-.431,0-.546-.23l-1.12-2.699c-.134-.306-.057-.507.23-.603.727-.268,1.445-.536,2.153-.804s1.397-.546,2.067-.833c.67-.306,1.311-.651,1.924-1.034.613-.402,1.206-.881,1.78-1.436.555-.555,1.034-1.187,1.436-1.895.402-.727.651-1.455.747-2.182.096-.727-.01-1.426-.316-2.096-.287-.67-.842-1.225-1.665-1.665-.708-.402-1.57-.651-2.584-.747-1.015-.115-2.096-.115-3.244,0s-2.307.325-3.474.632c-1.168.306-2.249.66-3.244,1.062l-1.436.603c-.268.096-.459.029-.574-.201l-1.235-2.527c-.115-.268-.038-.459.23-.574l1.407-.574c1.263-.536,2.613-.986,4.048-1.349,1.455-.364,2.909-.603,4.364-.718,1.474-.115,2.89-.076,4.249.115,1.359.172,2.575.555,3.646,1.148,1.359.747,2.393,1.742,3.101,2.986.727,1.225,1.034,2.594.919,4.106-.076,1.091-.325,2.086-.746,2.986-.421.881-.967,1.694-1.637,2.441-.651.747-1.397,1.426-2.24,2.039-.842.593-1.723,1.129-2.642,1.608-.919.498-1.857.947-2.814,1.349s-1.885.766-2.785,1.091h.001ZM80.162,29.831l-1.034,2.412c-.134.268-.325.354-.574.258-1.723-.632-3.455-1.12-5.197-1.464-1.742-.364-3.503-.727-5.283-1.091-.115-.019-.211-.067-.287-.143-.076-.096-.096-.211-.057-.345l.603-2.728c.038-.153.105-.258.201-.316.096-.076.211-.096.345-.057,1.895.383,3.742.794,5.541,1.235,1.818.44,3.646.986,5.484,1.637.134.057.22.144.258.258.038.115.038.23,0,.344h0ZM106.261,49.986v2.785c0,.268-.144.402-.431.402h-1.464c-1.244,0-2.402-.038-3.474-.115-1.071-.057-2.038-.182-2.9-.373-.861-.172-1.636-.431-2.325-.775-.67-.325-1.244-.766-1.723-1.321-.593-.689-.976-1.455-1.148-2.297-.153-.861-.134-1.838.057-2.929l.23-1.349c.057-.287.22-.411.488-.373l2.986.517c.268.038.373.191.316.459l-.258,1.436c-.076.402-.115.737-.115,1.005.019.268.057.479.115.632v.057c.019.096.038.182.057.258.019.057.067.124.144.201l.057.057c.268.287.67.517,1.206.689.536.153,1.139.278,1.809.373.689.077,1.416.134,2.183.172.784.038,1.55.057,2.296.057h1.464c.287,0,.431.144.431.431h0ZM114.186,38.502v2.613c0,.287-.134.431-.402.431h-4.824c.229.746.45,1.483.66,2.211.229.708.468,1.436.717,2.182.058.306-.038.488-.287.546l-2.756.804c-.134.057-.249.057-.345,0-.076-.057-.143-.134-.201-.23-.287-.938-.574-1.857-.861-2.756-.268-.9-.536-1.818-.804-2.756h-14.241c-.249,0-.373-.144-.373-.431v-2.613c0-.268.124-.402.373-.402h13.294l-.861-3.675-12.432.029c-.249,0-.373-.144-.373-.431v-2.613c0-.115.029-.211.086-.287.076-.096.172-.144.287-.144h11.685c-.133-.632-.258-1.235-.373-1.809s-.229-1.177-.344-1.809c-.058-.287.057-.45.344-.488l2.871-.488c.269-.038.421.086.46.373.153.689.287,1.388.402,2.096.134.708.277,1.416.43,2.125h7.466c.115,0,.211.048.287.144.076.076.115.172.115.287v2.613c0,.287-.134.431-.402.431l-6.69-.029c.153.632.296,1.254.43,1.866.153.593.325,1.196.517,1.809h5.743c.268,0,.402.134.402.402h0ZM144.649,48.637c-.364.536-.747,1.062-1.149,1.579-.383.498-.852.938-1.407,1.321-1.205.823-2.565,1.235-4.077,1.235-1.187.019-2.287-.278-3.302-.89s-1.771-1.445-2.268-2.498l-.345-.775-.344-.833c-.134-.325-.259-.632-.373-.919-.116-.306-.249-.603-.403-.89-.286-.536-.631-.957-1.033-1.263-.402-.325-.928-.411-1.58-.258-.573.134-1.091.383-1.55.746-.44.364-.842.794-1.205,1.292-.345.479-.641,1.005-.89,1.579-.249.574-.469,1.12-.66,1.637l-.976,2.728c-.058.153-.163.258-.316.316-.134.057-.278.067-.431.029l-2.584-.833c-.306-.134-.411-.364-.316-.689,1.378-3.905,2.804-7.752,4.278-11.542,1.494-3.809,3.149-7.58,4.968-11.312l.574-1.149c0-.038.009-.057.028-.057.191-.306.43-.392.717-.258l2.47,1.12c.173.057.277.153.316.287.058.134.048.278-.028.431-1.072,2.144-2.077,4.288-3.015,6.431s-1.857,4.316-2.757,6.518c.325-.172.67-.316,1.034-.431.364-.115.747-.182,1.149-.201.842-.038,1.627.105,2.354.431.747.306,1.388.766,1.924,1.378.307.326.555.68.747,1.062.191.364.364.747.516,1.148.153.345.297.708.431,1.091.153.383.316.766.488,1.148.248.593.641,1.053,1.177,1.378s1.11.44,1.723.345c.689-.115,1.244-.402,1.665-.861.44-.459.861-.986,1.263-1.579.191-.306.45-.354.775-.144l2.268,1.436c.307.191.355.431.144.718h0v-.002Z"/>
  </g>
</svg>