<?xml version="1.0" encoding="UTF-8"?>
<svg id="_レイヤー_1" data-name="レイヤー_1" xmlns="http://www.w3.org/2000/svg" xmlns:xlink="http://www.w3.org/1999/xlink" version="1.1" viewBox="0 0 150 80">
  <!-- Generator: Adobe Illustrator 29.6.1, SVG Export Plug-In . SVG Version: 2.1.1 Build 9)  -->
  <defs>
    <style>
      .st0 {
        fill: none;
      }

      .st1 {
        fill: #ffafb5;
        fill-opacity: .5;
      }

      .st2 {
        fill: #fff;
      }

      .st3 {
        fill: #ff6588;
      }

      .st4 {
        clip-path: url(#clippath);
      }
    </style>
    <clipPath id="clippath">
      <rect class="st0" x="22" y=".5" width="102" height="79"/>
    </clipPath>
  </defs>
  <g class="st4">
    <path class="st1" d="M88.6737,2.8664c-4.6687,2.137-7.9758,5.1307-10.5633,8.7968v-.0323c-1.1616,1.5971-2.1037,3.2944-2.949,5.0402-.7711,1.5938-1.4616,3.2297-2.1617,4.8785-.7001-1.6488-1.3906-3.2847-2.1617-4.8785-.8453-1.7491-1.7874-3.4431-2.9522-5.0402v.0323c-2.5843-3.6661-5.8914-6.6598-10.56-8.7968C36.425-6.6966,14.6112,14.3918,24.4195,36.198c8.7791,19.5204,33.6258,26.5068,48.435,43.2373.0775.0872.2097.0872.2872,0,14.8125-16.7305,39.6563-23.7169,48.4353-43.2373,9.808-21.8062-12.006-42.8946-32.9033-33.3284v-.0032ZM30.2432,29.4735c-1.8132-1.4063-1.2744-3.4205.655-4.3386,1.1034-.5238,3.0231-.3427,3.8007.6013,1.7455,2.1208-1.9036,5.7158-4.4557,3.734v.0033ZM44.7363,13.2571c-2.7683.556-5.8656,3.1392-7.1594,6.0553-1.0906,2.457-6.2367,2.0302-5.8302-2.0465.4066-4.0767,3.2813-7.4648,6.9142-8.7936,9.3244-3.4043,9.8632,4.0218,6.0786,4.7815l-.0032.0033Z"/>
  </g>
  <g>
    <g>
      <path class="st2" d="M28.9042,34.9816c.0184-1.1193.0187-2.2387,0-3.358h.0007l-.0286-4.0104h-.0011c-.0054-.9019-.242-2.4482-1.5381-3.7444-1.3119-1.3119-2.8825-1.5394-3.7794-1.5394h-2.9791c-.776,0-2.271.158-3.5999,1.3305-1.4457,1.2756-1.7761,2.9215-1.7761,3.9882v.0347s.0287,4.0391.0287,4.0391l.0005.0716.0026.0714c.0351.9664.0435,1.8871.0264,2.7631-.0085.435-.0259.8603-.0383,1.291-.3422-.3597-.7663-.7107-1.2994-.9971v-6.8154c0-.9804-.2766-2.592-1.6598-3.8889-1.324-1.2412-2.8568-1.4297-3.6875-1.4297h-2.9506c-.8307,0-2.3636.1885-3.6875,1.4297-1.3833,1.2969-1.6598,2.9084-1.6598,3.8889v9.8831c0,.3795.0133.763.0346,1.1487h-.0017c.0005.0135.0023.027.0029.0405.0009.0145.0004.0286.0013.0432h.0018c.0296.6308.0939,1.2609.1943,1.889l.0025.0156.0026.0156c.1348.809.3569,1.6002.6699,2.3651l.0519.127.059.1238c.4241.8906.9808,1.6815,1.6332,2.3722.8525.9026,1.8595,1.5322,2.9077,1.9536l-.0019.0045c.026.0109.053.0191.0791.0297.0156.0061.0306.0145.0462.0205l.001-.0027c.9867.3939,2.0416.6089,3.1293.6034-.0171.0469-.039.0887-.055.1367l-.1213.3638-.063.3784c-.2022,1.213.0311,2.3441.4816,3.2724l-.004.0019,1.228,2.5417c.3965.8423,1.1956,2.0021,2.7164,2.6539,1.7124.7338,3.2639.3613,4.1068.024l.1118-.0447.1095-.0502,1.375-.6302h0c2.5237-1.1553,4.6586-2.8702,6.1795-5.2067l.0005.0003c.0012-.0019.0022-.004.0034-.0059.0016-.0024.0035-.0047.0051-.0071l-.0006-.0004c1.3154-2.0154,2.2303-4.2554,2.7846-6.6653l.0052-.0226.005-.0227c.2412-1.0964.4366-2.217.5878-3.3608l.0015-.0117c.1543-1.1899.2521-2.4026.2953-3.6368v-.0031c.0392-1.1344.0579-2.2603.0589-3.3785h.0007c.0002-.0129-.0002-.0258,0-.0386,0-.0151.0008-.0305.0008-.0456h-.0008Z"/>
      <path class="st2" d="M148.7456,51.3608c.5344-.7783,1.2459-2.2289.8724-4.0963-.3884-1.9447-1.696-3.021-2.4449-3.4938l.0004-.0007-2.2626-1.4324-.0008.0012c-.7313-.4653-2.1409-1.1325-3.9407-.7991-.8232.1525-1.4928.4745-2.0411.8563-.0967-.21-.1789-.4268-.2851-.6321l.0049-.0024c-.0073-.0145-.0173-.0269-.0247-.0413-.0084-.016-.0138-.0333-.0222-.0493l-.0055.0029c-.3779-.7354-.8502-1.4006-1.393-1.999l.0071-.0062c-.0228-.0261-.0493-.048-.0723-.0738-.0168-.0181-.03-.0395-.0469-.0575l-.0049.0046c-.8156-.9005-1.7738-1.6321-2.8504-2.1838.027-.0617.0524-.1259.0793-.1876.9016-2.0606,1.8686-4.124,2.9011-6.19.5955-1.1905.8741-2.8508.1496-4.5419l-.0057.0024c-.6318-1.5245-1.8184-2.3995-2.8251-2.8342l-2.4229-1.0986-.0007.0015c-1.0081-.4587-2.4757-.7578-4.0679-.1847-1.151.4144-1.9266,1.1292-2.425,1.7566-.0435.0517-.0764.1022-.1163.1539-.0377.0508-.0764.1016-.1104.1505-.1634.229-.3059.4547-.4088.6605-.0471.0944-.0857.1866-.1248.2788l-.4551.91-.0117.0226-.0107.0227c-1.8705,3.8391-3.5748,7.7204-5.1129,11.6436l-.0049.0121c-.0261.0672-.051.1359-.0771.2031-.0352-.5215-.1537-1.1825-.4626-1.8668.3918-.8771.4751-1.7061.4751-2.2363v-2.6068c0-1.1595-.4046-2.3389-1.2061-3.3246l.02-.016c-.9328-1.1655-2.3936-1.9781-4.1038-1.9781h-3.433c-.0135-.0635-.0231-.1285-.0369-.192-.0104-.0599-.0219-.1198-.0354-.1846-.0004-.002-.0007-.004-.0012-.006h-.0002c-.177-.8428-.6323-2.0667-1.8331-3.0417-1.4814-1.204-3.126-1.2474-4.0891-1.1099l-.0646.0091-.0635.0109-2.8649.487.0005.0029c-.9017.149-2.4023.6268-3.4755,2.148-.4477.6342-.6946,1.2769-.825,1.8763h-6.1667c-1.7109,0-3.1717.8126-4.1041,1.9781l-.0477.0596-.0459.0611c-.8112,1.0817-1.0637,2.2651-1.0637,3.2199v1.2999c-.2952-.3096-.607-.6005-.932-.8781l.0307-.0717.0801-.1868.0642-.1929c.3727-1.1181.3727-2.3177,0-3.4359-.5693-1.708-1.8383-2.7204-2.9699-3.2054l-.145-.0622-.1487-.0526c-1.981-.7016-3.9617-1.2931-5.9417-1.7729v-.0003c-.0027-.0007-.0056-.0013-.0084-.002-.001-.0002-.002-.0006-.0031-.0009h0c-1.8587-.4545-3.7622-.8785-5.711-1.2723l-.001.0052c-1.222-.2548-2.6677-.1062-3.9587.7432-1.4948.96-2.0813,2.3727-2.2957,3.2303l-.0162.065-.0145.0655-.6016,2.7214.0067.0015c-.142.6277-.1837,1.3159-.0724,2.0178-.3387.1288-.6864.2444-1.0178.3841l-.0009-.0021-1.4036.5729-.0393.0161-.039.0167c-.8263.3542-2.1816,1.1831-2.8713,2.9071-.1154.2885-.1907.5686-.2499.8441-.1749-.7261-.5219-1.556-1.2163-2.3276-1.2976-1.4418-2.9544-1.7616-4.0207-1.7616h-2.1728l-.0046-.0464-.0468-.2344c-.1018-.5089-.2858-1.1036-.5979-1.7123l.0048-.0024c-.0111-.0222-.0276-.0426-.039-.0647-.0308-.0583-.0556-.116-.089-.1744l-.012.0069c-.4997-.8839-1.27-1.6816-2.3301-2.1763-.9824-.4585-1.9015-.5215-2.5793-.4822l-.0003-.006-2.2631.1146-.0794.004-.0794.0067c-1.539.1282-3.5452.9799-4.5198,3.1729l-.0591.1328-.051.1362c-.274.7305-.3973,1.4771-.3973,2.2035v.3438c0,.3141.0259.6088.0573.894v.3413l.0421.2521c.0323.7501.0576,1.4479.0742,2.0786l.0019.0677.0036.0676c.0341.6321.0502,1.202.0502,1.7127v.0764l.0024.0764c.0176.5636.0262,1.1046.0262,1.6234v.0843l.0029.0842c.0001.0032,0,.0059.0002.009-.4139.0859-.8228.1971-1.2278.326l-.0018-.0061c-.0334.0099-.0654.0233-.0987.0336-.0193.0063-.0392.0095-.0585.0159l.0012.0035c-.924.2905-1.7951.7098-2.5978,1.2566l-.0016-.0024c-.0118.0079-.022.0171-.0338.025-.0151.0104-.0311.019-.0462.0295l.0021.0031c-2.0315,1.3843-3.3544,3.42-3.7717,5.8606l-.0018-.0003c-.001.0057-.0008.0114-.0018.017-.0013.0075-.0036.0145-.0048.022l.0024.0004c-.2803,1.6436-.1086,3.287.5016,4.8328l.0082.0208.0084.0208c.645,1.5911,1.7095,2.9167,3.1104,3.8929l.0068.0048c1.4493,1.0065,3.0741,1.5241,4.7278,1.674l-.0005.0048c.0168.0017.0334.0007.0503.0023.0162.0014.032.0054.0482.0068l.0004-.0046c1.6459.1532,3.2645-.0568,4.8083-.6035l.0364-.0129.0363-.0135c1.2874-.4791,2.4752-1.1749,3.5284-2.0859.2436.1771.4827.3465.7455.5557l.0756.0601.0778.0571c.7627.5593,2.1032,1.2455,3.8393,1.0526,1.7451-.1939,2.9091-1.1665,3.5372-1.8994l.0879-.1025.0821-.1072,1.4036-1.8333-.0015-.0012c.6269-.8157,1.3651-2.2522,1.0807-4.101-.2756-1.7917-1.3559-2.8998-2.0215-3.4323l-.0758-.0606-.0782-.0576c-.5421-.3995-1.0911-.775-1.6428-1.1405.8937-.1736,1.9444-.5953,2.8505-1.5516,1.2672-1.3376,1.4686-2.8994,1.4686-3.7706v-.6691c.0513.1523.1041.295.1567.4178l.0478.1116.0532.109,1.2318,2.5209.0098.02.0099.02c.4674.9347,1.394,2.0926,2.987,2.6501,1.5051.5269,2.834.2429,3.6031-.0319l.1257-.0449.1231-.0518,1.3788-.579c.7766-.3132,1.6528-.6025,2.6378-.861.9288-.2437,1.8322-.4064,2.7122-.4944.7215-.0722,1.3421-.067,1.903-.0229-.0688.0834-.1374.1674-.21.2413-.341.3258-.6666.5851-.9749.7916-.406.2514-.8336.482-1.2856.6903-.579.247-1.1747.4882-1.7924.722-.693.2621-1.3958.5245-2.1085.7871l.0012.0033c-.9533.3475-2.4388,1.1942-3.1519,3.0658-.667,1.7509-.2087,3.2632.0975,3.9928l-.0016.0007,1.1172,2.6927.0659.159.077.1539c.4189.8378,1.2415,1.9355,2.6976,2.5486,1.4459.6088,2.7905.4337,3.6572.1669l.1135-.0349.1116-.0404c.9813-.3549,1.9844-.7482,3.009-1.1785,1.08-.4536,2.137-.9612,3.1719-1.519l.0006.0012c.0097-.0051.0189-.011.0286-.0161.0137-.0074.0278-.0138.0414-.0212l-.0009-.0017c1.0834-.5682,2.126-1.2017,3.1237-1.9045l.03-.0212.0297-.0216c1.1026-.8019,2.1036-1.7109,2.9948-2.7247l.0026.0024c.0101-.0113.019-.0235.0291-.0348.0055-.0063.012-.0115.0175-.0178l-.0015-.0013c.9498-1.0679,1.7432-2.248,2.3597-3.537l.0087-.0183.0086-.0184c.0324-.0693.0553-.1413.0864-.2109-.0393.8834-.0034,1.7742.1542,2.6608l.011.0622.0127.0618c.3488,1.7052,1.1271,3.2204,2.2309,4.5021l.0018.0021c.907,1.0521,1.9999,1.8874,3.2365,2.4962l-.0011.0022c.0098.0049.02.0086.0297.0135.0071.0035.0135.0079.0206.0114l.0008-.0016c1.0799.5339,2.2224.9055,3.3954,1.1479l-.0004.002c.0114.0026.0237.0036.0352.0061.0223.0046.0443.0109.0666.0154l.0007-.0037c1.1151.2411,2.2881.3873,3.5031.4563l-.0002.0023c.0197.0014.041.0017.0606.0031.009.0005.0175.0019.0264.0024v-.001c1.1769.0817,2.4192.1225,3.7273.1225h1.4608c.8165,0,2.3389-.1837,3.6589-1.4152,1.3826-1.2907,1.6603-2.8978,1.6603-3.8748v-1.504l.261-.0762-.0012-.004c1.0999-.315,2.4154-1.069,3.2161-2.5913.4453-.8458.5848-1.6627.6013-2.3405.2974-.082.6047-.1912.9155-.3436-.4499,1.2357-.9034,2.4672-1.3437,3.7142l-.043.1229-.0372.1248c-.265.9024-.4371,2.3252.2532,3.8318.6962,1.5186,1.9019,2.3244,2.7926,2.7142l.2258.0988.2347.0756,2.5784.8307.1555.05.1574.0396c1.0339.2584,2.1952.2238,3.3273-.2072l.0049.0132c.0308-.0115.0563-.0315.0867-.0435.0407-.0163.082-.0231.1226-.0405l-.0074-.0173c1.3732-.5806,2.4484-1.6716,2.975-3.0749l.0127-.0345.0117-.0347.6914-1.9301c.9106,1.621,2.1796,2.9571,3.781,3.9237,1.7753,1.0723,3.7498,1.6059,5.8208,1.5869v.0048c.0185,0,.0366-.0019.055-.002.0082-.0001.016.0014.0242.0013v-.0021c2.4257-.0147,4.7214-.6988,6.7448-2.08l.0098-.0067.0098-.0068c.9346-.6443,1.7752-1.4231,2.4857-2.3422l.0018.0014c.0043-.0056.0081-.0115.0125-.0172.001-.0013.0022-.0022.0032-.0035l-.0004-.0003c.4221-.5444.8242-1.1014,1.2116-1.6666l.0023.0016c.0167-.0227.0354-.0529.0526-.0771.0159-.0234.0342-.0455.0501-.0689l-.0021-.0015ZM52.9165,47.799c-.0157-.0123-.0316-.0229-.0472-.0352.0151.0107.0346.0229.0487.0332l-.0015.002ZM37.0076,33.3103c-.0004-.006-.0005-.0245-.001-.0325.0028.0239.0019.0521.0048.0757.0004.0029-.0015-.0123-.0038-.0432ZM145.5208,49.4207c-.0064.0089-.0128.0173-.0195.0264.0062-.0091.0133-.0174.0195-.0264ZM113.9082,29.577h-.0008s.0005,0,.0008,0h0ZM91.0217,29.577h-.0021s0,0,0,0c.0007,0,.0015,0,.0021,0Z"/>
    </g>
    <path class="st3" d="M11.4549,39.4778l1.2634,2.5266c.1149.268.0478.4689-.201.603-.2297.0956-.4498.1914-.6603.2871-.1914.0766-.3733.1532-.5456.2297-.6125.2679-1.2538.4882-1.9237.6603-.6699.1532-1.3495.0861-2.0385-.2009-.4977-.1915-.9092-.4594-1.2346-.804-.3254-.3445-.5838-.7178-.7752-1.1197-.1723-.4211-.2967-.8614-.3733-1.3208-.0766-.4785-.1244-.9475-.1436-1.4068-.0191-.3255-.0287-.6412-.0287-.9475v-9.9056c0-.2871.1531-.4306.4594-.4306h2.9573c.3063,0,.4594.1436.4594.4306v9.0156c0,.1148-.0096.2583-.0287.4306,0,.1723-.0096.3446-.0287.5169v.5455c0,.1723.0191.3446.0574.5168.0957.7274.3063,1.0145.6317.8614.268-.0957.5264-.2009.7753-.3158.2488-.134.5072-.268.7752-.402.2679-.134.4689-.0574.6029.2297ZM23.6575,27.6198l.0287,4.0197c.0191,1.1102.0191,2.2204,0,3.3305,0,1.0911-.0192,2.1916-.0574,3.3018-.0383,1.0911-.1245,2.1534-.2584,3.1871-.134,1.0144-.3063,2.0002-.5168,2.9573-.4403,1.9141-1.1485,3.6177-2.1247,5.1107-.9571,1.4739-2.3352,2.6224-4.1345,3.4454l-1.3782.6317c-.2871.1148-.4881.0287-.6029-.2584l-1.2346-2.5553c-.0574-.1149-.0765-.2297-.0574-.3446.0383-.1149.1245-.201.2584-.2584l1.3781-.6029c1.2634-.536,2.2205-1.3782,2.8712-2.5266.6699-1.1676,1.1485-2.5553,1.4356-4.1633.1531-.823.2583-1.6653.3158-2.5266.0574-.8805.1053-1.7992.1436-2.7563.0383-.9571.067-1.9237.0861-2.8999s.0096-1.9906-.0287-3.0435l-.0287-4.0483c0-.2871.1627-.4307.4882-.4307h2.986c.2871,0,.4307.1436.4307.4307ZM37.7549,47.9478c-.3636.2105-.5455.5168-.5455.9188,0,.2679.1149.4593.3446.5742.2488.1532.5551.2393.9188.2584.3637,0,.7465-.0765,1.1484-.2297.804-.3063,1.3208-.7369,1.5505-1.292.0382-.0957.0574-.1819.0574-.2584.0191-.0958.0478-.1723.0861-.2297-.7848-.1531-1.4739-.201-2.0673-.1436-.5934.0574-1.0911.1914-1.4931.402ZM51.996,39.2194h-6.8047v1.895c0,.8614-.0191,1.6462-.0574,2.3544-.0382.7082-.0957,1.3303-.1722,1.8663,1.2633.4402,2.4501.9762,3.5603,1.6078,1.1102.6316,2.2107,1.3494,3.3018,2.1534.2871.2296.3254.4785.1149.7465l-1.4068,1.8376c-.2297.2679-.4881.2967-.7753.0861-.9379-.7466-1.8376-1.3686-2.6989-1.8663-.8421-.4977-1.7035-.9284-2.584-1.2921-.0382.0958-.0765.201-.1149.3159-.0191.1149-.0669.2488-.1436.4019-.2679.7465-.7178,1.3877-1.3494,1.9237-.6125.5551-1.3303.9858-2.1534,1.2921-.9188.3254-1.8471.4402-2.785.3445-.9379-.0765-1.7514-.3541-2.4405-.8326-.6316-.4402-1.0911-1.0144-1.3782-1.7227-.2871-.7274-.3636-1.4739-.2296-2.2395.1914-1.1485.7752-2.0482,1.7514-2.6989.4402-.3063.9188-.536,1.4355-.6892.5169-.1723,1.0527-.2871,1.6078-.3445.5552-.0574,1.0911-.0766,1.6079-.0574.5359.0191,1.0336.0669,1.493.1436.0191-.5169.0287-1.0528.0287-1.6079.0191-.5551.0287-1.1293.0287-1.7227,0-.5168-.0096-1.0527-.0287-1.6078,0-.5742-.0096-1.1676-.0287-1.7801,0-.6125-.0191-1.2729-.0574-1.9811-.0191-.7274-.0478-1.5217-.0861-2.383,0-.0383-.0095-.1149-.0287-.2297,0-.1149-.0095-.2488-.0287-.402-.0191-.1531-.0287-.2967-.0287-.4306v-.3446c0-.1723.0287-.335.0861-.4881.0766-.1723.2297-.268.4594-.2871l2.2682-.1149c.2106-.0191.3542.0478.4307.201.0765.134.134.2967.1723.4881.0191.1915.0191.3733,0,.5456v.3445c.0574,1.072.0956,1.8472.1148,2.3257.0192.4785.0287.8135.0287,1.0049h6.8909c.3446,0,.5168.1914.5168.5742v2.1247c0,.3637-.1722.5455-.5168.5455ZM71.1755,53.1446c-.2488.0765-.4306,0-.5455-.2297l-1.1198-2.6989c-.134-.3063-.0574-.5072.2297-.6029.7274-.2679,1.4451-.536,2.1533-.8039.7083-.268,1.3973-.5456,2.0673-.8326.6699-.3063,1.3112-.6508,1.9237-1.0336.6125-.402,1.2059-.8805,1.7801-1.4356.5551-.5551,1.0336-1.1867,1.4355-1.8949.402-.7274.6508-1.4548.7466-2.1821.0956-.7274-.0096-1.426-.3159-2.096-.2871-.6699-.8422-1.225-1.6653-1.6653-.7083-.402-1.5696-.6508-2.584-.7465-1.0145-.1149-2.096-.1149-3.2445,0-1.1485.1149-2.3065.3254-3.4741.6316-1.1676.3063-2.2491.6603-3.2445,1.0624l-1.4355.6029c-.2679.0957-.4593.0287-.5742-.201l-1.2346-2.5266c-.1149-.2679-.0383-.4593.2297-.5742l1.4068-.5743c1.2634-.5359,2.6128-.9857,4.0484-1.3494,1.4548-.3637,2.9094-.6029,4.3642-.7178,1.4739-.1149,2.8903-.0765,4.2493.1149,1.3591.1722,2.5745.5551,3.6464,1.1484,1.3591.7466,2.3927,1.7419,3.1009,2.9861.7274,1.225,1.0336,2.5936.9188,4.1058-.0765,1.091-.3254,2.0864-.7465,2.986-.4211.8806-.9666,1.6941-1.6366,2.4406-.6508.7465-1.3973,1.426-2.2396,2.0386-.8422.5933-1.7227,1.1293-2.6415,1.6078-.9188.4977-1.8567.9475-2.8138,1.3494-.9571.402-1.8854.7657-2.785,1.0911ZM80.1623,29.8306l-1.0336,2.4119c-.134.2679-.3254.3541-.5742.2584-1.7227-.6317-3.455-1.1198-5.1968-1.4644-1.7419-.3637-3.5028-.7274-5.283-1.0911-.1148-.0191-.2105-.0669-.2871-.1435-.0765-.0957-.0958-.2106-.0574-.3446l.6029-2.7276c.0383-.1532.1053-.2584.201-.3159.0958-.0765.2105-.0957.3446-.0574,1.895.3829,3.7421.7944,5.5414,1.2346,1.8183.4402,3.6464.9858,5.4839,1.6366.134.0574.2201.1436.2583.2584.0383.1149.0383.2297,0,.3445ZM106.2614,49.9864v2.785c0,.2679-.1441.4019-.4312.4019h-1.4642c-1.2437,0-2.402-.0383-3.4742-.1149-1.0712-.0574-2.0385-.1818-2.8999-.3732-.861-.1723-1.6362-.4307-2.3253-.7753-.6698-.3254-1.2441-.7656-1.7227-1.3207-.5933-.6891-.9762-1.4548-1.1484-2.297-.1532-.8613-.1341-1.8376.0573-2.9285l.2297-1.3495c.0574-.2871.2201-.4115.4882-.3733l2.986.5169c.268.0383.3733.1914.3159.4593l-.2584,1.4356c-.0765.4019-.1148.7369-.1148,1.0049.0191.2679.0573.4785.1148.6316v.0574c.0192.0957.0383.1818.0574.2584.0192.0574.067.1244.1436.2009l.0574.0574c.2679.2871.6699.5169,1.2056.6892.5361.1531,1.1388.2775,1.8091.3732.689.0766,1.4161.134,2.1825.1723.784.0383,1.5504.0574,2.2962.0574h1.4642c.2871,0,.4312.1436.4312.4307ZM114.186,38.5016v2.6128c0,.2871-.1343.4307-.4018.4307h-4.8237c.2293.7465.4498,1.4834.6605,2.2107.2293.7083.4685,1.4356.7174,2.1821.0578.3063-.0382.4881-.2871.5455l-2.7558.804c-.1343.0573-.2489.0573-.345,0-.0764-.0574-.1431-.1341-.2009-.2297-.2871-.938-.5743-1.8568-.8614-2.7563-.2676-.8997-.5361-1.8184-.8036-2.7563h-14.2413c-.2488,0-.3733-.1436-.3733-.4307v-2.6128c0-.2679.1245-.4019.3733-.4019h13.2936l-.8614-3.6751-12.4322.0286c-.2488,0-.3733-.1435-.3733-.4306v-2.6128c0-.1149.0287-.2106.0861-.2871.0765-.0956.1723-.1436.2871-.1436h11.6854c-.1333-.6316-.2577-1.2345-.3734-1.8088-.1147-.5742-.2293-1.1772-.344-1.8088-.0578-.2871.0568-.4498.344-.4881l2.8715-.4882c.2685-.0382.4214.0861.4596.3733.1529.6891.2871,1.3877.4018,2.096.1343.7082.2773,1.4164.4302,2.1246h7.4659c.1147,0,.2107.0479.2871.1436.0764.0765.1147.1723.1147.2871v2.6128c0,.2871-.1343.4306-.4018.4306l-6.6897-.0286c.1529.6316.296,1.2537.4302,1.8662.1529.5934.3254,1.1964.5165,1.8089h5.743c.2676,0,.4018.134.4018.4019ZM144.6492,48.6369c-.3636.536-.7468,1.0624-1.1486,1.5791-.3832.4977-.8516.938-1.4073,1.3208-1.2054.823-2.5647,1.2346-4.0769,1.2346-1.1868.0191-2.2874-.2776-3.3017-.8902s-1.7709-1.4452-2.2678-2.4979l-.345-.7752-.344-.8326c-.1343-.3254-.2587-.6316-.3734-.9188-.1157-.3063-.2489-.6029-.4028-.8901-.2862-.536-.6311-.9571-1.033-1.2634-.4018-.3254-.9281-.4115-1.5798-.2583-.5733.134-1.0908.3828-1.5504.7465-.44.3637-.8418.7943-1.2054,1.292-.345.4785-.6409,1.0049-.8899,1.5792-.2489.5742-.4694,1.1197-.6605,1.6366l-.9761,2.7276c-.0578.1531-.1627.2584-.3156.3159-.1343.0574-.2783.0669-.4312.0287l-2.5843-.8327c-.3058-.134-.4106-.3636-.3156-.6891,1.3779-3.9048,2.8039-7.7521,4.2778-11.5421,1.4936-3.8091,3.1488-7.5799,4.9678-11.3125l.5743-1.1485c0-.0382.0088-.0574.0284-.0574.1911-.3063.4302-.3924.7174-.2583l2.4697,1.1197c.1725.0574.2774.1532.3156.2871.0578.134.048.2775-.0284.4307-1.0721,2.1438-2.0767,4.2876-3.0146,6.4314s-1.8571,4.3163-2.7568,6.5176c.3254-.1723.6703-.3159,1.0339-.4307s.7468-.1818,1.1486-.201c.8419-.0382,1.6269.1053,2.354.4307.7468.3063,1.3877.7656,1.9238,1.3781.3068.3255.5547.6796.7468,1.0624.1911.3637.3636.7465.5165,1.1485.1529.3446.2969.7082.4312,1.0911.1529.3828.3156.7656.4881,1.1484.2479.5934.6409,1.0528,1.177,1.3782.5361.3254,1.1104.4402,1.7229.3446.6889-.1149,1.2437-.402,1.6651-.8614.44-.4593.8614-.9857,1.2633-1.5791.1911-.3063.4498-.3541.7752-.1436l2.2678,1.4356c.3068.1914.3548.4306.1441.7178Z"/>
  </g>
</svg>