<svg width="40" height="40" viewBox="0 0 40 40" fill="none" xmlns="http://www.w3.org/2000/svg">
<g clip-path="url(#clip0_33_532)">
<path d="M29.7808 0C30.5332 0.264062 31.3471 0.340625 32.1121 0.578125C36.4971 1.9375 39.5698 6.17031 39.8821 10.6422C39.5777 16.6609 40.2638 23.0219 39.8821 28.9984C39.5919 33.5594 36.5918 37.8281 32.1121 39.2172C31.3471 39.4547 30.5316 39.5312 29.7808 39.7953C23.5613 39.3125 16.3197 40.4391 10.2216 39.7953C4.80819 39.2234 0.432619 34.4625 0.120304 29.1531C0.424732 23.1344 -0.261415 16.7734 0.120304 10.7969C0.462589 5.39062 4.6473 0.589062 10.2216 0H29.7808ZM10.3415 4.08125C7.34141 4.57187 4.60313 7.18125 4.24507 10.1984C3.53842 16.1578 4.7372 23.3656 4.2293 29.4562C4.63152 32.5969 7.384 35.4344 10.6176 35.7516C16.5247 36.3328 23.3767 35.3219 29.3849 35.7516C32.7225 35.2781 35.2936 32.7437 35.7731 29.4562C35.322 23.3375 36.3836 16.3562 35.7731 10.3391C35.464 7.29375 32.6121 4.41406 29.5268 4.05937C23.607 3.37812 16.3938 4.50156 10.3415 4.08281V4.08125Z" fill="#FF6588"/>
<path d="M18.8636 9.68282C32.8704 8.275 34.4762 29.1281 20.8652 30.1547C7.24007 31.1828 5.56965 11.0203 18.8636 9.68282ZM18.7011 12.9422C16.9928 13.1703 15.07 14.5109 14.1299 15.8984C9.78276 22.3125 17.2405 29.8891 23.8701 25.8094C30.2662 21.8734 26.7345 11.8719 18.7011 12.9438V12.9422Z" fill="#FF6588"/>
<path d="M30.5359 7.02813C33.7426 6.78281 33.8704 11.6922 30.6463 11.6734C27.7456 11.6563 27.6257 7.25156 30.5359 7.02813Z" fill="#FF6588"/>
</g>
<defs>
<clipPath id="clip0_33_532">
<rect width="40" height="40" fill="white"/>
</clipPath>
</defs>
</svg>
